<svg width="38" height="47" viewBox="0 0 38 47" fill="none" xmlns="http://www.w3.org/2000/svg">
<path fill-rule="evenodd" clip-rule="evenodd" d="M33.8765 22.8395C34.707 22.8395 35.5049 22.5142 36.0986 21.9333C36.3872 21.6444 36.6167 21.3014 36.7729 20.924C36.9292 20.5465 37.0098 20.1419 37.0098 19.7333C37.0098 19.3247 36.9292 18.9201 36.7729 18.5427C36.6665 18.2852 36.5259 18.0438 36.3555 17.8247C36.2764 17.7225 36.1904 17.6252 36.0986 17.5333L18.4985 0L0.920898 17.4889C0.331543 18.0782 0 18.8776 0 19.7111C0 20.5446 0.331543 21.3439 0.920898 21.9333C1.51025 22.5227 2.30957 22.8538 3.14307 22.8538C3.97656 22.8538 4.77588 22.5227 5.36523 21.9333L15.2095 12.0889V43.2C15.2095 44.0251 15.5376 44.8164 16.1206 45.3999C16.7041 45.9833 17.4956 46.3111 18.3208 46.3111C19.146 46.3111 19.937 45.9833 20.5205 45.3999C21.104 44.8164 21.4316 44.0251 21.4316 43.2V11.7778L31.6538 21.9333C32.248 22.5142 33.0454 22.8395 33.8765 22.8395Z" fill="white"/>
</svg>
