<svg width="69" height="64" viewBox="0 0 69 64" fill="none" xmlns="http://www.w3.org/2000/svg">
<g clip-path="url(#clip0)">
<path d="M20.7 51.0394C16.905 51.0394 13.8345 53.8744 13.8345 57.3394C13.8345 60.8044 16.905 63.6394 20.7 63.6394C24.495 63.6394 27.6 60.8044 27.6 57.3394C27.6 53.8744 24.495 51.0394 20.7 51.0394ZM0 0.639404V6.9394H6.9L19.32 30.8479L14.6625 38.5654C14.1105 39.4474 13.8 40.4869 13.8 41.5894C13.8 45.0544 16.905 47.8894 20.7 47.8894H62.1V41.5894H22.149C21.666 41.5894 21.2865 41.2429 21.2865 40.8019L21.39 40.4239L24.495 35.2894H50.1975C52.785 35.2894 55.062 33.9979 56.235 32.0449L68.586 11.6014C68.862 11.1604 69 10.6249 69 10.0894C69 8.3569 67.4475 6.9394 65.55 6.9394H14.5245L11.2815 0.639404H0ZM55.2 51.0394C51.405 51.0394 48.3345 53.8744 48.3345 57.3394C48.3345 60.8044 51.405 63.6394 55.2 63.6394C58.995 63.6394 62.1 60.8044 62.1 57.3394C62.1 53.8744 58.995 51.0394 55.2 51.0394Z" fill="white"/>
</g>
<defs>
<clipPath id="clip0">
<rect width="69" height="63" fill="white" transform="translate(0 0.639404)"/>
</clipPath>
</defs>
</svg>
