<svg width="50" height="50" viewBox="0 0 50 50" fill="none" xmlns="http://www.w3.org/2000/svg">
<path d="M5.86118 32.2223L3.22229 43.6112C3.13125 44.0275 3.13438 44.4589 3.23142 44.8739C3.32847 45.2888 3.51699 45.6769 3.78321 46.0097C4.04943 46.3424 4.38663 46.6115 4.77017 46.7973C5.15371 46.9831 5.57391 47.0808 6.00007 47.0834C6.19863 47.1034 6.39872 47.1034 6.59729 47.0834L18.0556 44.4445L40.0556 22.5278L27.7778 10.2778L5.86118 32.2223Z" fill="#AD91C8"/>
<path d="M46.9723 11.5555L38.7779 3.3611C38.2391 2.82508 37.5101 2.52417 36.7501 2.52417C35.9901 2.52417 35.261 2.82508 34.7223 3.3611L30.1667 7.91665L42.4306 20.1805L46.9862 15.625C47.2528 15.357 47.4639 15.0392 47.6075 14.6895C47.7512 14.3399 47.8244 13.9654 47.8231 13.5874C47.8218 13.2094 47.746 12.8354 47.6 12.4867C47.454 12.1381 47.2407 11.8217 46.9723 11.5555V11.5555Z" fill="#AD91C8"/>
</svg>
