<?xml version="1.0" encoding="utf-8"?>
<!-- Generator: Adobe Illustrator 24.0.1, SVG Export Plug-In . SVG Version: 6.00 Build 0)  -->
<svg version="1.1" id="Lager_1" xmlns="http://www.w3.org/2000/svg" xmlns:xlink="http://www.w3.org/1999/xlink" x="0px" y="0px"
	 viewBox="0 0 32 32" style="enable-background:new 0 0 32 32;" xml:space="preserve">
<style type="text/css">
	.st0{fill:#020203;}
</style>
<g>
	<path class="st0" d="M2.72,30.83c-0.4,1.49-2.77,0.89-2.38-0.59c1.49-5.75,6.04-10.11,11.49-11.59c-3.17-1.49-5.45-4.86-5.45-8.72
		c0-5.25,4.36-9.61,9.61-9.61c5.35,0,9.71,4.36,9.71,9.61c0,3.86-2.28,7.23-5.55,8.72c5.55,1.49,10.01,5.85,11.49,11.59
		c0.4,1.49-1.88,2.08-2.28,0.59C27.79,24.78,22.24,20.52,16,20.52S4.31,24.78,2.72,30.83z M16,2.69c-3.96,0-7.23,3.27-7.23,7.23
		c0,4.06,3.27,7.23,7.23,7.23c4.06,0,7.23-3.17,7.23-7.23C23.23,5.96,20.06,2.69,16,2.69z"/>
</g>
</svg>
