<svg width="51" height="50" viewBox="0 0 51 50" fill="none" xmlns="http://www.w3.org/2000/svg">
<path d="M25.4224 0C18.6328 0 17.7814 0.0287789 15.1149 0.150444C12.4539 0.271911 10.6366 0.694465 9.04631 1.31252C7.40234 1.95141 6.00815 2.80624 4.61833 4.19607C3.22851 5.58589 2.37367 6.98008 1.73478 8.62405C1.11673 10.2142 0.694175 12.0316 0.572708 14.6925C0.451043 17.359 0.422363 18.2104 0.422363 25.0001C0.422363 31.7896 0.451043 32.641 0.572708 35.3075C0.694175 37.9684 1.11673 39.7858 1.73478 41.3759C2.37367 43.0199 3.22851 44.4141 4.61833 45.804C6.00815 47.1939 7.40234 48.0487 9.04631 48.6876C10.6366 49.3055 12.4539 49.7282 15.1149 49.8496C17.7814 49.9712 18.6328 50 25.4224 50C32.212 50 33.0633 49.9712 35.7298 49.8496C38.3908 49.7282 40.2081 49.3055 41.7983 48.6876C43.4423 48.0487 44.8365 47.1939 46.2264 45.804C47.6162 44.4141 48.4711 43.0199 49.1099 41.3759C49.7279 39.7858 50.1506 37.9684 50.2719 35.3075C50.3936 32.641 50.4224 31.7896 50.4224 25.0001C50.4224 18.2104 50.3936 17.359 50.2719 14.6925C50.1506 12.0316 49.7279 10.2142 49.1099 8.62405C48.4711 6.98008 47.6162 5.58589 46.2264 4.19607C44.8365 2.80624 43.4423 1.95141 41.7983 1.31252C40.2081 0.694465 38.3908 0.271911 35.7298 0.150444C33.0633 0.0287789 32.212 0 25.4224 0ZM25.4224 4.5046C32.0976 4.5046 32.8884 4.53 35.5245 4.65028C37.962 4.76152 39.2857 5.16879 40.1666 5.51106C41.3336 5.96458 42.1664 6.50642 43.0412 7.3812C43.916 8.25598 44.4578 9.08888 44.9113 10.2557C45.2537 11.1366 45.6609 12.4604 45.7721 14.8979C45.8924 17.534 45.9179 18.3247 45.9179 25.0001C45.9179 31.6753 45.8924 32.466 45.7721 35.1021C45.6609 37.5396 45.2537 38.8634 44.9113 39.7443C44.4578 40.9112 43.916 41.744 43.0412 42.6188C42.1664 43.4937 41.3336 44.0354 40.1666 44.4889C39.2857 44.8313 37.962 45.2386 35.5245 45.3497C32.8888 45.47 32.0981 45.4955 25.4224 45.4955C18.7466 45.4955 17.9561 45.47 15.3202 45.3497C12.8827 45.2386 11.559 44.8313 10.6781 44.4889C9.51114 44.0354 8.67834 43.4937 7.80346 42.6188C6.92868 41.744 6.38684 40.9112 5.93343 39.7443C5.59106 38.8634 5.18379 37.5396 5.07254 35.1021C4.95226 32.466 4.92686 31.6753 4.92686 25.0001C4.92686 18.3247 4.95226 17.534 5.07254 14.8979C5.18379 12.4604 5.59106 11.1366 5.93343 10.2557C6.38684 9.08888 6.92868 8.25598 7.80346 7.3812C8.67834 6.50642 9.51114 5.96458 10.6781 5.51106C11.559 5.16879 12.8827 4.76152 15.3202 4.65028C17.9564 4.53 18.7471 4.5046 25.4224 4.5046Z" fill="white"/>
<path d="M25.4233 33.3306C20.8209 33.3306 17.0899 29.5996 17.0899 24.9973C17.0899 20.3949 20.8209 16.6639 25.4233 16.6639C30.0257 16.6639 33.7566 20.3949 33.7566 24.9973C33.7566 29.5996 30.0257 33.3306 25.4233 33.3306ZM25.4233 12.1594C18.3331 12.1594 12.5854 17.9071 12.5854 24.9973C12.5854 32.0874 18.3331 37.8351 25.4233 37.8351C32.5135 37.8351 38.2611 32.0874 38.2611 24.9973C38.2611 17.9071 32.5135 12.1594 25.4233 12.1594Z" fill="white"/>
<path d="M41.7671 11.6689C41.7671 13.3258 40.4239 14.6689 38.767 14.6689C37.1103 14.6689 35.7671 13.3258 35.7671 11.6689C35.7671 10.012 37.1103 8.66895 38.767 8.66895C40.4239 8.66895 41.7671 10.012 41.7671 11.6689Z" fill="white"/>
</svg>
