<svg width="81" height="81" viewBox="0 0 81 81" fill="none" xmlns="http://www.w3.org/2000/svg">
<path d="M40.9297 20.6394C38.4574 20.6394 36.0407 21.3725 33.9851 22.746C31.9295 24.1196 30.3273 26.0718 29.3812 28.3559C28.4351 30.6399 28.1876 33.1533 28.6699 35.578C29.1522 38.0028 30.3427 40.2301 32.0909 41.9782C33.839 43.7264 36.0663 44.9169 38.4911 45.3992C40.9158 45.8815 43.4292 45.634 45.7132 44.6879C47.9973 43.7418 49.9495 42.1396 51.3231 40.084C52.6966 38.0284 53.4297 35.6117 53.4297 33.1394C53.4297 29.8242 52.1127 26.6448 49.7685 24.3006C47.4243 21.9564 44.2449 20.6394 40.9297 20.6394ZM40.9297 40.6394C39.4463 40.6394 37.9963 40.1995 36.7629 39.3754C35.5295 38.5513 34.5683 37.38 34.0006 36.0095C33.4329 34.6391 33.2844 33.1311 33.5738 31.6762C33.8632 30.2214 34.5775 28.885 35.6264 27.8361C36.6753 26.7872 38.0117 26.0729 39.4665 25.7835C40.9214 25.4941 42.4294 25.6426 43.7998 26.2103C45.1703 26.778 46.3416 27.7393 47.1657 28.9726C47.9898 30.206 48.4297 31.656 48.4297 33.1394C48.4277 35.1279 47.6369 37.0344 46.2308 38.4405C44.8247 39.8466 42.9182 40.6374 40.9297 40.6394Z" fill="white"/>
<path d="M40.9297 5.6394C34.0074 5.6394 27.2405 7.69212 21.4847 11.538C15.729 15.3838 11.243 20.8501 8.59392 27.2455C5.94485 33.6409 5.25174 40.6782 6.60222 47.4676C7.9527 54.2569 11.2861 60.4933 16.181 65.3881C21.0758 70.283 27.3122 73.6164 34.1015 74.9669C40.8909 76.3174 47.9282 75.6243 54.3236 72.9752C60.719 70.3261 66.1853 65.8401 70.0311 60.0844C73.877 54.3286 75.9297 47.5618 75.9297 40.6394C75.9191 31.3601 72.2282 22.4638 65.6667 15.9024C59.1053 9.34088 50.209 5.64999 40.9297 5.6394V5.6394ZM25.9297 66.5819V63.1394C25.9317 61.1509 26.7225 59.2444 28.1286 57.8383C29.5347 56.4322 31.4412 55.6414 33.4297 55.6394H48.4297C50.4182 55.6414 52.3247 56.4322 53.7308 57.8383C55.1369 59.2444 55.9277 61.1509 55.9297 63.1394V66.5819C51.3776 69.2399 46.201 70.6406 40.9297 70.6406C35.6584 70.6406 30.4818 69.2399 25.9297 66.5819V66.5819ZM60.9097 62.9544C60.8599 59.6752 59.5238 56.5469 57.1895 54.2434C54.8551 51.9399 51.7092 50.6456 48.4297 50.6394H33.4297C30.1502 50.6456 27.0043 51.9399 24.6699 54.2434C22.3356 56.5469 20.9995 59.6752 20.9497 62.9544C16.4161 58.9063 13.219 53.5766 11.7818 47.6711C10.3445 41.7655 10.735 35.5628 12.9013 29.8841C15.0676 24.2053 18.9078 19.3186 23.9131 15.8708C28.9185 12.4231 34.8531 10.577 40.931 10.577C47.0088 10.577 52.9434 12.4231 57.9488 15.8708C62.9542 19.3186 66.7943 24.2053 68.9606 29.8841C71.127 35.5628 71.5174 41.7655 70.0801 47.6711C68.6429 53.5766 65.4458 58.9063 60.9122 62.9544H60.9097Z" fill="white"/>
</svg>
