<svg width="31" height="29" viewBox="0 0 31 29" fill="none" xmlns="http://www.w3.org/2000/svg">
<path d="M21.9408 17.7753H20.5858L20.1055 17.3399C21.7864 15.5019 22.7985 13.1156 22.7985 10.5197C22.7985 4.73137 17.807 0.0394287 11.6492 0.0394287C5.49142 0.0394287 0.5 4.73137 0.5 10.5197C0.5 16.308 5.49142 21 11.6492 21C14.4108 21 16.9494 20.0487 18.9048 18.4686L19.3679 18.92V20.1938L27.9443 28.2394L30.5 25.837L21.9408 17.7753ZM11.6492 17.7753C7.37822 17.7753 3.93053 14.5345 3.93053 10.5197C3.93053 6.50495 7.37822 3.26413 11.6492 3.26413C15.9202 3.26413 19.3679 6.50495 19.3679 10.5197C19.3679 14.5345 15.9202 17.7753 11.6492 17.7753Z" fill="white"/>
</svg>
