<svg width="49" height="48" viewBox="0 0 49 48" fill="none" xmlns="http://www.w3.org/2000/svg">
<path d="M40.5 16H34.5V8H6.5C4.3 8 2.5 9.8 2.5 12V34H6.5C6.5 37.32 9.18 40 12.5 40C15.82 40 18.5 37.32 18.5 34H30.5C30.5 37.32 33.18 40 36.5 40C39.82 40 42.5 37.32 42.5 34H46.5V24L40.5 16ZM12.5 37C10.84 37 9.5 35.66 9.5 34C9.5 32.34 10.84 31 12.5 31C14.16 31 15.5 32.34 15.5 34C15.5 35.66 14.16 37 12.5 37ZM39.5 19L43.42 24H34.5V19H39.5ZM36.5 37C34.84 37 33.5 35.66 33.5 34C33.5 32.34 34.84 31 36.5 31C38.16 31 39.5 32.34 39.5 34C39.5 35.66 38.16 37 36.5 37Z" fill="#502677"/>
</svg>
