<svg width="224" height="95" viewBox="0 0 224 95" fill="none" xmlns="http://www.w3.org/2000/svg">
<path d="M39.456 47.2465C39.456 53.2791 37.6945 57.9195 34.1483 61.1678C30.6021 64.4162 25.5262 66.0403 18.8973 66.0403C14.2618 66.0403 10.2752 65.1818 6.86808 63.4881C3.48412 61.7943 1.32859 58.9172 1.32859 58.9172C0.331945 57.5251 0.401475 55.4369 1.56036 54.2072L5.26882 50.0307C6.42771 48.801 8.05015 48.9402 8.88455 50.3324C8.88455 50.3324 9.64942 51.6549 11.8977 53.047C14.0532 54.4392 16.4405 55.1352 18.9901 55.1352C21.6091 55.1352 23.5329 54.5088 24.854 53.3487C26.1752 52.1189 26.8473 50.402 26.8473 48.0817C26.8473 46.0631 25.9202 44.207 24.1587 42.5828C22.3972 40.9586 19.2218 38.8704 14.679 36.3878C9.74213 33.6035 6.19593 30.8192 4.20265 27.9654C2.20936 25.1115 1.12 21.7703 1.12 17.9188C1.12 12.5126 2.88151 8.17379 6.42771 4.99508C9.97391 1.81636 14.7485 0.1922 20.8443 0.1922C24.5527 0.1922 27.7744 0.88827 30.5558 2.28041C33.3371 3.67255 35.5622 6.15519 35.5622 6.15519C36.6515 7.38491 36.6515 9.47312 35.4926 10.726L32.1087 14.4384C30.9498 15.6681 29.2578 15.5985 28.2612 14.2064C28.2612 14.2064 27.9599 13.7423 26.1752 12.7446C24.4137 11.6541 22.5594 11.1205 20.7052 11.1205C18.5497 11.1205 16.765 11.6541 15.5366 12.8143C14.2154 13.9744 13.6128 15.3665 13.6128 16.9907C13.6128 20.3086 20.0794 25.0419 20.0794 25.0419C21.4701 26.0396 22.9998 27.0605 23.5561 27.3621C24.0892 27.6637 26.2447 28.9863 27.7281 29.8447C27.7281 29.8447 34.1251 34.0211 36.2807 36.875C38.2971 39.7521 39.456 43.2325 39.456 47.2465Z" fill="white"/>
<path d="M58.6471 61.632C58.6471 63.3258 57.2564 64.7179 55.5645 64.7179H49.3992C47.7072 64.7179 46.3165 63.3258 46.3165 61.632V4.55435C46.3165 2.86058 47.7072 1.46844 49.3992 1.46844H55.5645C57.2564 1.46844 58.6471 2.86058 58.6471 4.55435V61.632Z" fill="white"/>
<path d="M122.154 61.632C122.154 63.3257 120.764 64.7179 119.072 64.7179H113.138C111.446 64.7179 109.291 63.5577 108.364 62.1656L82.474 24.5779C81.5469 23.1857 80.7124 23.4178 80.7124 25.1115V61.6087C80.7124 63.3025 79.3218 64.6947 77.6298 64.6947H71.6963C70.0043 64.6947 68.6136 63.3025 68.6136 61.6087V4.5311C68.6136 2.83733 70.0043 1.44519 71.6963 1.44519H77.6298C79.3218 1.44519 81.4773 2.60531 82.4044 3.99744L108.224 41.4227C109.152 42.8149 109.986 42.5829 109.986 40.8891V4.5543C109.986 2.86053 111.377 1.46839 113.069 1.46839H119.002C120.694 1.46839 122.085 2.86053 122.085 4.5543V61.632H122.154Z" fill="white"/>
<path d="M177.642 37.0375C177.642 38.7312 177.48 41.4459 177.248 43.1397C177.248 43.1397 175.718 54.9032 171.708 59.3117C167.768 63.7897 162.066 65.9707 154.673 65.9707C147.349 65.9707 141.716 63.6505 137.707 59.0796C133.697 54.5088 132.074 43.0701 132.074 43.0701C131.843 41.3763 131.68 38.6616 131.68 36.9679V4.48465C131.68 2.79088 133.071 1.39874 134.763 1.39874H141.322C143.014 1.39874 144.405 2.79088 144.405 4.48465V39.1257C144.405 40.8194 144.567 43.5341 144.799 45.2279C144.799 45.2279 145.332 49.3347 147.024 51.4229C148.786 53.5111 151.335 54.6016 154.65 54.6016C158.126 54.6016 160.745 53.6039 162.437 51.5157C164.129 49.4971 164.593 45.2511 164.593 45.2511C164.825 43.5573 164.987 40.8426 164.987 39.1489V4.57746C164.987 2.88369 166.378 1.49155 168.07 1.49155H174.629C176.321 1.49155 177.711 2.88369 177.711 4.57746V37.0607H177.642V37.0375Z" fill="white"/>
<path d="M223.209 47.2465C223.209 53.2791 221.448 57.9195 217.902 61.1678C214.356 64.4162 209.256 66.0403 202.651 66.0403C198.015 66.0403 194.005 65.1818 190.621 63.4881C187.238 61.7943 185.082 58.9172 185.082 58.9172C184.085 57.5251 184.155 55.4369 185.314 54.2072L189.022 50.0307C190.181 48.801 191.804 48.9402 192.638 50.3324C192.638 50.3324 193.403 51.6549 195.651 53.047C197.807 54.4392 200.194 55.1352 202.743 55.1352C205.363 55.1352 207.286 54.5088 208.607 53.3487C209.929 52.1189 210.624 50.402 210.624 48.0817C210.624 46.0631 209.697 44.207 207.935 42.5828C206.174 40.9586 202.998 38.8704 198.456 36.3878C193.519 33.6035 189.973 30.8192 187.979 27.9654C185.986 25.1115 184.897 21.7703 184.897 17.9188C184.897 12.5126 186.658 8.17379 190.204 4.99508C193.751 1.81636 198.525 0.1922 204.621 0.1922C208.329 0.1922 211.551 0.88827 214.332 2.28041C217.114 3.67255 219.339 6.15519 219.339 6.15519C220.428 7.38491 220.428 9.47312 219.269 10.726L215.885 14.4384C214.726 15.6681 213.034 15.5985 212.038 14.2064C212.038 14.2064 211.736 13.7423 209.952 12.7446C208.19 11.6541 206.336 11.1205 204.482 11.1205C202.326 11.1205 200.542 11.6541 199.313 12.8143C198.015 13.9744 197.389 15.3665 197.389 16.9907C197.389 20.3086 203.856 25.0419 203.856 25.0419C205.247 26.0396 206.776 27.0605 207.333 27.3621C207.866 27.6637 210.021 28.9863 211.505 29.8447C211.505 29.8447 217.902 34.0211 220.057 36.875C222.12 39.7521 223.209 43.2325 223.209 47.2465Z" fill="white"/>
<path d="M10.8083 89.869C10.8083 91.1915 10.3215 92.2124 9.37124 92.9317C8.42095 93.6742 7.123 94.0222 5.50056 94.0222C3.73905 94.0222 2.37155 93.7902 1.42126 93.3493V91.6788C2.02389 91.934 2.69604 92.1428 3.41455 92.282C4.13307 92.4212 4.85157 92.514 5.54691 92.514C6.70579 92.514 7.56338 92.3052 8.14282 91.8644C8.72227 91.4235 9.02357 90.8203 9.02357 90.0314C9.02357 89.521 8.90768 89.1033 8.69908 88.7785C8.49048 88.4537 8.14282 88.1288 7.65609 87.8504C7.16936 87.572 6.42766 87.2471 5.45419 86.8991C4.06353 86.4118 3.06688 85.8086 2.48744 85.1357C1.908 84.4629 1.60669 83.558 1.60669 82.4675C1.60669 81.3073 2.04706 80.4025 2.90464 79.7296C3.76222 79.0567 4.89794 78.7087 6.33496 78.7087C7.81834 78.7087 9.18581 78.9871 10.4142 79.5208L9.88115 81.0289C8.65273 80.5185 7.44748 80.2632 6.28859 80.2632C5.36148 80.2632 4.66615 80.4721 4.13306 80.8433C3.62315 81.2377 3.36821 81.7946 3.36821 82.4907C3.36821 83.0011 3.46091 83.442 3.64633 83.7668C3.83175 84.0916 4.15625 84.3933 4.59663 84.6717C5.06018 84.9501 5.75552 85.2517 6.68263 85.5766C8.23554 86.1334 9.32489 86.7367 9.90434 87.3631C10.507 88.0128 10.8083 88.8481 10.8083 89.869ZM28.771 93.8366H26.7314L21.3078 86.5975L19.7549 87.9896V93.8366H18.0166V78.9407H19.7549V86.3422L26.4996 78.9407H28.5393L22.5594 85.4142L28.771 93.8366ZM44.3697 93.8366L42.5155 89.1033H36.5356L34.7045 93.8366H32.943L38.8302 78.8711H40.2904L46.1544 93.8366H44.3697ZM41.9592 87.5256L40.2208 82.9083C39.9891 82.3282 39.7573 81.609 39.5255 80.7505C39.3865 81.4002 39.1547 82.1194 38.8766 82.9083L37.115 87.5256H41.9592ZM56.9552 93.8366H55.2169V80.4721H50.5118V78.9407H61.6835V80.4721H56.9784V93.8366H56.9552ZM76.4014 93.8366H68.1037V78.9407H76.4014V80.4721H69.8421V85.2749H76.0073V86.8063H69.8421V92.282H76.4014V93.8366ZM83.8878 78.9175H88.1061C90.0762 78.9175 91.5133 79.2191 92.394 79.7992C93.2748 80.3793 93.7152 81.3305 93.7152 82.6067C93.7152 83.4884 93.4602 84.2308 92.9735 84.7877C92.4867 85.3677 91.7682 85.739 90.8179 85.9014V85.9942C93.0662 86.3886 94.2019 87.572 94.2019 89.5674C94.2019 90.8899 93.7615 91.934 92.8576 92.6765C91.9537 93.4189 90.702 93.7902 89.0796 93.7902H83.8878V78.9175V78.9175ZM85.6029 85.2981H88.4538C89.6822 85.2981 90.563 85.1125 91.0961 84.7181C91.6292 84.3236 91.9073 83.674 91.9073 82.7691C91.9073 81.9338 91.606 81.3305 91.0034 80.9593C90.4007 80.5881 89.4504 80.4025 88.1525 80.4025H85.6029V85.2981ZM85.6029 86.7831V92.3516H88.7088C89.914 92.3516 90.8179 92.1196 91.4206 91.6556C92.0232 91.1915 92.3245 90.449 92.3245 89.4746C92.3245 88.5465 92.0232 87.8736 91.3974 87.4327C90.7716 86.9919 89.8445 86.7831 88.5697 86.7831H85.6029ZM114.506 86.3654C114.506 88.7553 113.903 90.6347 112.698 92.0036C111.493 93.3725 109.824 94.0454 107.668 94.0454C105.466 94.0454 103.774 93.3725 102.592 92.0268C101.41 90.6811 100.808 88.7785 100.808 86.3422C100.808 83.906 101.41 82.0266 102.592 80.7041C103.774 79.3583 105.489 78.6855 107.691 78.6855C109.824 78.6855 111.493 79.3584 112.698 80.7273C113.903 82.0962 114.506 83.9524 114.506 86.3654ZM102.639 86.3654C102.639 88.384 103.056 89.9154 103.913 90.9595C104.771 92.0036 106.023 92.514 107.668 92.514C109.314 92.514 110.565 92.0036 111.4 90.9595C112.234 89.9154 112.651 88.384 112.651 86.3654C112.651 84.37 112.234 82.8387 111.4 81.8178C110.565 80.7737 109.314 80.2632 107.691 80.2632C106.046 80.2632 104.794 80.7969 103.913 81.841C103.056 82.8387 102.639 84.37 102.639 86.3654ZM131.356 93.8366L129.502 89.1033H123.522L121.691 93.8366H119.929L125.816 78.8711H127.277L133.141 93.8366H131.356ZM128.969 87.5256L127.253 82.9083C127.022 82.3282 126.79 81.609 126.558 80.7505C126.396 81.4002 126.187 82.1194 125.909 82.9083L124.148 87.5256H128.969ZM141.114 87.6416V93.8366H139.375V78.9407H143.455C145.286 78.9407 146.63 79.2887 147.488 79.9848C148.368 80.6809 148.809 81.7482 148.809 83.1403C148.809 85.1125 147.812 86.435 145.819 87.1311L149.852 93.8366H147.812L144.22 87.6416H141.114ZM141.114 86.1334H143.478C144.706 86.1334 145.587 85.9014 146.166 85.4142C146.746 84.9269 147.024 84.1844 147.024 83.2331C147.024 82.2586 146.723 81.5394 146.143 81.0985C145.564 80.6577 144.637 80.4489 143.362 80.4489H141.114V86.1334V86.1334ZM168.324 86.2262C168.324 88.6857 167.652 90.5651 166.308 91.8644C164.987 93.1637 163.063 93.8134 160.56 93.8134H156.434V78.9175H161C163.318 78.9175 165.126 79.5672 166.401 80.8433C167.699 82.1426 168.324 83.9292 168.324 86.2262ZM166.493 86.2958C166.493 84.3468 166.007 82.8851 165.033 81.9106C164.06 80.9361 162.623 80.4257 160.699 80.4257H158.173V92.3284H160.282C162.345 92.3284 163.897 91.818 164.94 90.8203C165.983 89.7994 166.493 88.2912 166.493 86.2958ZM184.248 89.869C184.248 91.1915 183.761 92.2124 182.811 92.9317C181.86 93.6742 180.562 94.0222 178.94 94.0222C177.178 94.0222 175.811 93.7902 174.861 93.3493V91.6788C175.463 91.934 176.135 92.1428 176.854 92.282C177.572 92.4212 178.291 92.514 178.986 92.514C180.145 92.514 181.003 92.3052 181.582 91.8644C182.162 91.4235 182.463 90.8203 182.463 90.0314C182.463 89.521 182.347 89.1033 182.138 88.7785C181.93 88.4537 181.582 88.1288 181.095 87.8504C180.609 87.572 179.867 87.2471 178.893 86.8991C177.503 86.4118 176.506 85.8086 175.927 85.1357C175.347 84.4629 175.046 83.558 175.046 82.4675C175.046 81.3073 175.486 80.4025 176.344 79.7296C177.201 79.0567 178.337 78.7087 179.774 78.7087C181.258 78.7087 182.625 78.9871 183.854 79.5208L183.32 81.0289C182.092 80.5185 180.887 80.2632 179.728 80.2632C178.801 80.2632 178.105 80.4721 177.572 80.8433C177.062 81.2377 176.807 81.7946 176.807 82.4907C176.807 83.0011 176.9 83.442 177.086 83.7668C177.271 84.0916 177.596 84.3933 178.036 84.6717C178.499 84.9501 179.172 85.2517 180.122 85.5766C181.675 86.1334 182.764 86.7367 183.344 87.3631C183.946 88.0128 184.248 88.8481 184.248 89.869Z" fill="white"/>
</svg>
