<svg width="70" height="50" viewBox="0 0 70 50" fill="none" xmlns="http://www.w3.org/2000/svg">
<path d="M68.5377 8.15148C67.7328 5.13956 65.361 2.76789 62.3491 1.96289C56.8896 0.499999 35.0001 0.5 35.0001 0.5C35.0001 0.5 13.1104 0.499999 7.65093 1.96289C4.63956 2.76789 2.26735 5.13956 1.46248 8.15148C0 13.6104 0 25.0005 0 25.0005C0 25.0005 0 36.3903 1.46248 41.8486C2.26735 44.8605 4.63956 47.2329 7.65093 48.0378C13.1104 49.5001 35.0001 49.5001 35.0001 49.5001C35.0001 49.5001 56.8896 49.5001 62.3491 48.0378C65.361 47.2329 67.7328 44.8605 68.5377 41.8486C70 36.3903 70 25.0005 70 25.0005C70 25.0005 70 13.6104 68.5377 8.15148ZM27.9996 35.5006V14.5002L46.1859 25.0005L27.9996 35.5006Z" fill="white"/>
</svg>
