<svg width="1137" height="485" viewBox="0 0 1137 485" fill="none" xmlns="http://www.w3.org/2000/svg">
<g filter="url(#filter0_d)">
<path d="M1009.46 37.8011C1009.39 40.8445 1009.17 47.3139 1009.07 49.0356C1004.45 52.0175 999.266 54.0622 993.58 55.3395C987.456 56.7151 984.77 56.4163 980.074 56.8892C975.847 57.3147 970.597 55.4903 967.732 58.701C966.921 59.6099 971.072 64.5809 973.185 65.7422C976.732 67.6924 981.283 69.5713 985.511 69.4348C989.866 69.2943 991.337 73.1166 993.199 76.0612C995.034 78.9611 996.162 83.1149 997.997 86.0148C1001.54 91.6217 1006.32 96.4731 1013.8 95.9984C1023.88 95.3595 1031.14 91.0271 1035.63 84.693C1037.74 81.7123 1039.46 77.1694 1040.22 73.7938C1041.22 69.3377 1041.52 62.223 1043.18 57.936C1043.57 56.1886 1050.82 56.597 1057.25 52.5348C1061.89 49.5979 1062.86 47.9847 1065.66 43.7183C1066.93 41.779 1068.14 37.6486 1068.43 35.4691C1068.86 32.2 1068.15 29.4942 1067.09 27.824C1064.59 29.4037 1063.54 34.0635 1056.05 38.8027C1051.19 41.3798 1046 42.6607 1041.89 43.2647C1038.81 43.7177 1036.27 44.8194 1034.68 43.8299C1033.94 43.3715 1031.52 39.0218 1031.29 38.4781C1030.14 35.7518 1028.87 33.7358 1027.42 31.4391C1026.29 29.6551 1024.76 27.6272 1023.54 26.8954C1021.67 25.767 1019.15 24.6816 1016.83 25.4075C1014.15 26.2522 1012.79 27.1797 1011.3 29.6465C1010.79 30.4838 1009.53 34.7576 1009.46 37.8011Z" fill="#F4C4C4" stroke="black" stroke-width="3" stroke-linecap="round" stroke-linejoin="round"/>
<path d="M1016.44 33.4546C1016.45 33.1091 1016.61 32.7708 1016.8 32.4837C1016.87 32.2878 1016.99 32.074 1017.14 32.311C1017.35 32.6371 1017.47 32.9235 1017.55 33.2957C1017.6 33.4885 1017.68 33.8858 1017.41 33.9231C1017.11 33.9641 1016.92 33.9231 1016.64 33.8295C1016.38 33.7431 1016.42 33.7407 1016.44 33.4546Z" fill="#F4C4C4"/>
<path d="M1016.83 32.4405C1016.63 32.7366 1016.45 33.0916 1016.44 33.4546C1016.42 33.7407 1016.38 33.7431 1016.64 33.8295C1016.92 33.9231 1017.11 33.9641 1017.41 33.9231C1017.68 33.8858 1017.6 33.4885 1017.55 33.2957C1017.47 32.9235 1017.35 32.6371 1017.14 32.311C1016.94 31.9919 1016.8 32.49 1016.74 32.6614C1016.68 32.8572 1016.64 33.0569 1016.75 33.2367C1016.86 33.4131 1017.01 33.2376 1017.15 33.1474" stroke="black" stroke-width="2" stroke-linecap="round" stroke-linejoin="round"/>
<path d="M1020.63 31.4675C1020.41 31.664 1019.42 33.1609 1020.14 33.1662C1020.65 33.17 1020.84 32.7991 1020.73 32.3247C1020.69 32.1759 1020.61 32.0469 1020.52 31.9211C1020.4 31.7499 1020.33 32.2676 1020.32 32.3114C1020.25 32.6174 1020.26 32.9787 1020.49 32.5893" stroke="black" stroke-width="2" stroke-linecap="round" stroke-linejoin="round"/>
<path d="M1018.02 37.9119C1018.54 38.0272 1019.03 38.1178 1019.55 38.0169C1019.82 37.9638 1020.13 38.0121 1020.4 37.952C1020.77 37.868 1021.13 37.6333 1021.45 37.4316C1021.83 37.1928 1022.23 37.0004 1022.61 36.7602C1022.83 36.6195 1022.92 36.5376 1023 36.2889C1023.09 36.0217 1023.22 35.746 1023.3 35.4844C1023.37 35.225 1023.49 34.9697 1023.55 34.7075C1023.59 34.5352 1023.64 34.2498 1023.72 34.1112" stroke="black" stroke-width="2" stroke-linecap="round" stroke-linejoin="round"/>
</g>
<g filter="url(#filter1_d)">
<path d="M107.487 423.259C108.409 420.848 106.942 413.154 107.224 410.845C107.436 409.113 109.666 404.797 115.742 403.837C120.801 403.604 123.959 406.236 126.529 411.192C127.912 413.858 130.579 420.742 134.176 420.174C142.541 418.853 145.853 417.652 153.625 414.271C156.465 413.035 162.849 409.983 165.893 409.502C170.312 408.803 165.691 418.758 162.202 421.974C155.661 428.003 151.126 427.121 142.899 432.384C145.719 435.901 147.144 444.924 145.604 449.507C143.89 454.607 140.197 458.288 132.552 460.062C125.371 461.197 120.777 460.79 115.369 458.814C110.04 456.866 107.007 454.738 104.873 449.715C103.686 446.92 104.785 438.406 100.482 436.255C93.1267 436.285 73.88 429.135 73.0945 424.163C75.42 420.965 102.749 429.103 107.487 423.259Z" fill="#B2D1A8" stroke="#2B2B2B" stroke-width="3" stroke-linecap="round" stroke-linejoin="round"/>
<path d="M114.224 411.606C114.242 411.526 114.262 411.448 114.28 411.377C114.344 411.377 114.405 411.379 114.462 411.385C114.834 411.171 115.313 411.336 115.091 411.942C115.091 411.943 115.091 411.944 115.09 411.945C115.116 412.103 115.111 412.3 115.07 412.544C115.026 412.809 114.712 413.548 114.287 413.239C114.125 413.121 114.128 412.455 114.097 412.26C114.053 411.985 114.114 411.766 114.224 411.606Z" fill="#B2D1A8"/>
<path d="M114.381 411.01C114.366 411.082 113.894 412.586 114.245 412.629C114.752 412.691 114.943 412.349 115.091 411.942C115.456 410.944 113.92 411.142 114.097 412.26C114.128 412.455 114.125 413.121 114.287 413.239C114.712 413.548 115.026 412.809 115.07 412.544C115.258 411.416 114.688 411.283 113.804 411.422" stroke="#2B2B2B" stroke-width="3" stroke-linecap="round" stroke-linejoin="round"/>
<path d="M119.655 413.872C119.168 413.949 119.022 413.745 118.938 413.367C118.911 413.319 118.897 413.249 118.898 413.153C118.898 413.138 118.899 413.123 118.9 413.108C118.917 412.837 119.008 411.581 119.283 411.521C119.516 411.47 119.722 411.604 119.88 411.831C119.882 411.833 119.884 411.835 119.886 411.836C120.04 411.948 120.083 412.078 120.071 412.214C120.308 412.875 120.249 413.779 119.655 413.872Z" fill="#B2D1A8"/>
<path d="M119.258 411.364C118.819 412.156 118.757 412.258 118.891 413.109C118.976 413.648 119.066 413.965 119.655 413.872C120.642 413.716 120.152 411.331 119.283 411.521C119.008 411.581 118.917 412.837 118.9 413.108C118.854 413.845 119.652 413.224 119.785 412.888C119.902 412.589 120.306 412.142 119.886 411.836C119.236 411.364 119.08 412.267 119.143 412.668" stroke="#2B2B2B" stroke-width="3" stroke-linecap="round" stroke-linejoin="round"/>
<path d="M116.588 418.365C116.113 418.336 115.613 418.051 115.141 417.735C115.6 417.757 116.068 417.709 116.494 417.827C118.398 418.354 120.312 417.73 122.13 417.338C122.519 417.254 121.789 417.601 121.537 417.878C121.197 418.251 119.538 418.23 119.078 418.302C118.289 418.427 117.337 418.412 116.588 418.365Z" fill="#B2D1A8"/>
<path d="M114.044 417.009C114.759 417.396 115.716 418.311 116.588 418.365C117.337 418.412 118.289 418.427 119.078 418.302C119.538 418.23 121.197 418.251 121.537 417.878C121.789 417.601 122.519 417.254 122.13 417.338C120.312 417.73 118.398 418.354 116.494 417.827C115.854 417.65 115.118 417.846 114.462 417.621C113.998 417.462 113.896 416.739 113.499 416.613" stroke="#2B2B2B" stroke-width="3" stroke-linecap="round" stroke-linejoin="round"/>
</g>
<g filter="url(#filter2_d)">
<path d="M1092.58 254.273L1092.49 254.466C1099.73 259.296 1104.67 261.849 1111.36 268.544C1112.67 269.858 1115.82 275.239 1114.44 277.297C1113.41 278.841 1108.52 279.488 1102.77 276.949C1101.28 276.291 1092.48 270.081 1089.22 271.624C1087.46 274.257 1082.52 279.5 1079.43 280.715C1073.33 283.117 1067.1 279.974 1062.96 274.187C1057.58 266.665 1059.54 259.257 1059.71 251.192C1059.81 246.583 1060.75 240.725 1061.43 237.465C1061.09 231.287 1055.85 222.61 1053.89 217.556C1053.2 215.776 1052.7 207.088 1054.76 206.231C1056.25 205.608 1066.82 220.094 1068.13 221.852C1077.57 235.584 1078.66 222.71 1090.1 226.837C1097.19 230.611 1098.5 237.652 1097.3 242.799C1096.58 245.881 1094.68 249.855 1092.58 254.273Z" fill="#FFEBD3" stroke="#2B2B2B" stroke-width="3" stroke-linecap="round" stroke-linejoin="round"/>
<path d="M1085.93 231.857C1086.19 231.581 1086.53 231.419 1086.9 231.421C1087.04 231.359 1087.18 231.305 1087.28 231.33C1087.53 231.389 1087.08 231.844 1086.99 231.913C1086.84 232.042 1086.71 232.14 1086.57 232.175C1086.46 232.403 1086.1 232.624 1085.86 232.509C1085.53 232.347 1085.75 232.045 1085.93 231.857Z" fill="#FFEBD3"/>
<path d="M1087.14 231.445C1086.68 231.355 1086.25 231.524 1085.93 231.857C1085.75 232.045 1085.53 232.347 1085.86 232.509C1086.28 232.707 1087.02 231.913 1086.34 231.793C1086.22 231.771 1085.96 231.954 1086.12 232.062C1086.48 232.304 1086.69 232.169 1086.99 231.913C1087.08 231.844 1087.53 231.389 1087.28 231.33C1087.08 231.282 1086.76 231.52 1086.55 231.562" stroke="#2B2B2B" stroke-width="2" stroke-linecap="round" stroke-linejoin="round"/>
<path d="M1088.78 234.134C1088.9 234.146 1089.05 234.279 1089.17 234.395C1089.35 234.303 1089.54 234.278 1089.79 234.229C1090.15 234.156 1090.48 234.377 1090.23 234.75C1090.14 234.881 1090.04 235.015 1089.92 235.121C1089.76 235.263 1089.57 235.355 1089.34 235.326C1089.17 235.305 1088.89 235.154 1088.67 234.969C1088.53 234.843 1088.42 234.701 1088.41 234.574C1088.4 234.45 1088.64 234.119 1088.78 234.134Z" fill="#FFEBD3"/>
<path d="M1090.18 235.335C1089.86 235.105 1089.61 234.794 1089.32 234.537C1089.2 234.433 1088.96 234.152 1088.78 234.134C1088.64 234.119 1088.4 234.45 1088.41 234.574C1088.44 234.887 1089.06 235.29 1089.34 235.326C1089.75 235.377 1090.03 235.055 1090.23 234.75C1090.48 234.377 1090.15 234.156 1089.79 234.229C1089.38 234.31 1089.1 234.325 1088.86 234.693C1088.65 235.002 1088.47 235.153 1088.84 235.399C1089 235.508 1089.18 235.568 1089.33 235.672" stroke="#2B2B2B" stroke-width="2" stroke-linecap="round" stroke-linejoin="round"/>
<path d="M1081.82 233.724C1082.05 234.402 1082.14 235.126 1082.27 235.83C1082.33 236.116 1082.34 236.407 1082.38 236.694C1082.42 236.956 1082.53 237.199 1082.6 237.454C1082.64 237.63 1082.79 237.771 1082.88 237.925C1083.04 238.196 1083.22 238.437 1083.41 238.687C1083.73 239.116 1084.11 239.507 1084.5 239.879C1085 240.37 1085.67 240.587 1086.35 240.695C1086.65 240.742 1087.03 240.875 1087.31 240.995C1087.46 241.062 1087.63 241.096 1087.77 241.19" stroke="#2B2B2B" stroke-width="2" stroke-linecap="round" stroke-linejoin="round"/>
</g>
<g filter="url(#filter3_d)">
<path d="M87.8691 135.894C87.3191 141.543 86.4292 144.184 83.4461 147.528C81.0331 150.232 74.5284 153.428 72.2402 154.027L69.0297 154.498C68.4368 154.591 67.8645 154.678 67.3888 154.739C65.9557 154.924 62.692 154.764 58.9914 153.57C55.9075 152.576 54.7098 152.092 52.6977 151.071C50.3623 149.886 47.6664 147.774 45.228 145.781C42.7896 143.789 41.3416 142.412 38.1359 142.02C35.9206 142.243 30.1318 143.499 27.3255 143.556C23.1114 143.642 20.8969 143.069 16.8673 141.923C12.2978 140.625 6.95901 134.641 7.00215 132.847C7.04374 131.117 14.0159 129.073 16.2157 128.786C19.5145 128.356 24.8109 127.473 28.5546 126.873C31.8776 126.538 38.4551 122.967 41.1343 120.683C41.5299 120.346 37.4773 113.57 37.6493 110.516C37.8901 106.24 40.6357 103.325 44.09 101.14C49.5943 97.6587 54.3813 98.1712 59.5542 101.374C61.5124 102.586 66.8733 108.141 69.0415 108.922C74.5367 110.159 80.3158 105.325 90.8601 103.368C96.6101 103.145 103.062 95.6503 105.389 96.5349C107.742 97.4294 104.982 103.944 102.649 107.105C100.424 110.118 90.2634 113.939 89.8285 117.57C88.1708 123.332 88.6422 132.459 87.8691 135.894Z" fill="#FFEBD3"/>
<path d="M72.2402 154.027C71.1325 154.138 68.8219 154.554 67.3888 154.739M72.2402 154.027L67.3888 154.739M72.2402 154.027C74.5284 153.428 81.0331 150.232 83.4461 147.528C86.4292 144.184 87.3191 141.543 87.8691 135.894C88.6422 132.459 88.1708 123.332 89.8285 117.57C90.2634 113.939 100.424 110.118 102.649 107.105C104.982 103.944 107.742 97.4294 105.389 96.5349C103.062 95.6503 96.6101 103.145 90.8601 103.368C80.3158 105.325 74.5367 110.159 69.0415 108.922C66.8733 108.141 61.5124 102.586 59.5542 101.374C54.3813 98.1712 49.5943 97.6587 44.09 101.14C40.6357 103.325 37.8901 106.24 37.6493 110.516C37.4773 113.57 41.5299 120.346 41.1343 120.683C38.4551 122.967 31.8776 126.538 28.5546 126.873C24.8109 127.473 19.5145 128.356 16.2157 128.786C14.0159 129.073 7.04374 131.117 7.00215 132.847C6.95901 134.641 12.2978 140.625 16.8673 141.923C20.8969 143.069 23.1114 143.642 27.3255 143.556C30.1318 143.499 35.9206 142.243 38.1359 142.02C41.3416 142.412 42.7896 143.789 45.228 145.781C47.6664 147.774 50.3623 149.886 52.6977 151.071C54.7098 152.092 55.9075 152.576 58.9914 153.57C62.692 154.764 65.9557 154.924 67.3888 154.739" stroke="black" stroke-width="3" stroke-linecap="round" stroke-linejoin="round"/>
<path d="M45.0407 110.136C45.0399 110.459 44.8589 110.416 44.6693 110.273C44.6791 110.409 44.6681 110.509 44.6418 110.576C44.5678 110.765 44.373 110.692 44.178 110.418C44.1068 110.381 44.0373 110.344 43.9721 110.311C43.4502 110.043 43.2104 109.749 42.9068 109.269C42.6595 108.878 43.4204 108.726 43.6689 108.832C43.967 108.958 44.2139 109.176 44.3883 109.442C44.8306 109.29 45.042 109.678 45.0407 110.136Z" fill="#FFEBD3"/>
<path d="M44.2689 109.852C44.4112 110.065 45.0391 110.739 45.0407 110.136C45.0421 109.628 44.7817 109.205 44.2347 109.512C43.8973 109.702 43.9443 110.052 44.13 110.346C44.4234 110.81 44.7389 110.825 44.6608 110.186C44.5892 109.6 44.2149 109.064 43.6689 108.832C43.4204 108.726 42.6595 108.878 42.9068 109.269C43.2104 109.749 43.4502 110.043 43.9721 110.311C44.3068 110.482 44.7543 110.765 44.9756 110.398" stroke="black" stroke-width="2" stroke-linecap="round" stroke-linejoin="round"/>
<path d="M47.3554 106.023C48.1131 105.931 48.4345 106.426 48.7865 106.999C48.8982 107.136 49.0076 107.313 49.0507 107.459C49.1038 107.638 49.056 107.769 48.7873 107.716C48.1831 107.597 47.5169 107.278 47.1804 106.746C47.0374 106.52 46.998 106.067 47.3554 106.023Z" fill="#FFEBD3"/>
<path d="M47.058 106.553C47.4558 107.182 48.0519 108.523 48.9927 108.469C49.6546 108.432 49.0057 107.357 48.8242 107.061C48.4569 106.462 48.1401 105.927 47.3554 106.023C46.998 106.067 47.0374 106.52 47.1804 106.746C47.5169 107.278 48.1831 107.597 48.7873 107.716C49.4312 107.843 48.8065 106.914 48.5648 106.793C48.4622 106.742 47.6065 106.299 47.6396 106.727C47.651 106.874 47.9316 107.288 48.0569 107.275" stroke="black" stroke-width="2" stroke-linecap="round" stroke-linejoin="round"/>
<path d="M52.4178 110.973C52.4227 111.059 52.4095 111.141 52.384 111.22C51.5085 111.777 50.7142 112.314 50.0174 113.118C49.9834 113.157 49.1053 114.505 48.9753 114.143C48.8207 113.713 49.4916 113.188 49.7531 112.954C50.2444 112.515 50.7427 111.914 51.2852 111.554C51.4001 111.477 52.4094 110.825 52.4178 110.973Z" fill="#FFEBD3"/>
<path d="M46.8732 114.254C47.6593 114.565 49.015 114.862 49.7937 114.303C50.0195 114.141 50.156 113.681 50.3468 113.457C50.576 113.187 50.9151 113.015 51.1827 112.787C51.4278 112.578 51.7199 112.257 51.8889 111.984C52.0806 111.675 52.4405 111.371 52.4178 110.973C52.4094 110.825 51.4001 111.477 51.2852 111.554C50.7427 111.914 50.2444 112.515 49.7531 112.954C49.4916 113.188 48.8207 113.713 48.9753 114.143C49.1053 114.505 49.9834 113.157 50.0174 113.118C50.7931 112.223 51.6897 111.659 52.6846 111.03C52.9306 110.874 53.3471 110.705 53.5318 110.474C53.7002 110.263 53.8325 109.739 53.9179 109.482C54.079 108.998 54.1464 108.48 54.4112 108.041" stroke="black" stroke-width="2" stroke-linecap="round" stroke-linejoin="round"/>
</g>
<g filter="url(#filter4_d)">
<path d="M932.967 425.911C934.562 427.786 937.987 431.736 938.917 432.767C942.89 432.088 946.674 430.514 950.333 428.178C954.274 425.662 955.542 423.991 958.267 421.695C960.719 419.629 962.562 415.581 965.719 416.02C966.612 416.144 966.96 421.565 966.437 423.462C965.559 426.649 964.114 430.344 961.808 432.593C959.434 434.909 960.611 438.127 961.132 441.009C961.646 443.847 963.173 447.084 963.687 449.922C964.679 455.409 964.637 461.099 960.436 464.934C954.782 470.096 948.727 471.379 943.116 469.87C940.476 469.159 937.24 467.253 935.112 465.548C932.303 463.297 928.508 458.983 925.438 457.201C924.337 456.319 920.711 460.58 915.238 461.57C911.281 462.286 909.943 461.807 906.282 460.666C904.619 460.148 901.862 458.22 900.596 457.007C898.697 455.187 897.69 453.091 897.394 451.456C899.523 451.071 902.46 453.425 908.846 452.27C912.735 451.205 916.131 449.149 918.615 447.257C920.478 445.838 922.38 445.134 922.717 443.63C922.873 442.934 921.927 438.862 921.77 438.393C920.983 436.043 920.626 434.07 920.22 431.822C919.904 430.076 919.677 427.954 919.944 426.824C920.355 425.082 921.136 423.002 922.73 422.183C924.584 421.229 925.777 421.062 927.826 421.792C928.521 422.04 931.372 424.036 932.967 425.911Z" fill="#5E60B3" stroke="#2B2B2B" stroke-width="3" stroke-linecap="round" stroke-linejoin="round"/>
<path d="M927.056 427.027C926.871 426.819 926.614 426.694 926.366 426.618C926.228 426.534 926.058 426.463 926.1 426.695C926.158 427.014 926.238 427.263 926.385 427.543C926.46 427.689 926.619 427.985 926.781 427.859C926.959 427.721 927.039 427.59 927.14 427.376C927.233 427.178 927.21 427.199 927.056 427.027Z" fill="#5E60B3"/>
<path d="M926.328 426.607C926.587 426.681 926.861 426.808 927.056 427.027C927.21 427.199 927.233 427.178 927.14 427.376C927.039 427.59 926.959 427.721 926.781 427.859C926.619 427.985 926.46 427.689 926.385 427.543C926.238 427.263 926.158 427.014 926.1 426.695C926.043 426.383 926.371 426.62 926.488 426.698C926.62 426.787 926.746 426.888 926.778 427.064C926.809 427.237 926.644 427.205 926.522 427.227" stroke="#2B2B2B" stroke-width="2" stroke-linecap="round" stroke-linejoin="round"/>
<path d="M923.825 428.089C924.038 428.096 925.331 428.487 924.948 428.893C924.682 429.174 924.393 429.046 924.209 428.686C924.151 428.573 924.127 428.448 924.111 428.319C924.088 428.143 924.392 428.428 924.42 428.45C924.613 428.604 924.792 428.837 924.469 428.722" stroke="#2B2B2B" stroke-width="2" stroke-linecap="round" stroke-linejoin="round"/>
<path d="M928.497 430.708C928.285 431.064 928.072 431.392 927.744 431.617C927.572 431.735 927.434 431.935 927.262 432.045C927.021 432.198 926.712 432.248 926.44 432.297C926.119 432.355 925.805 432.459 925.482 432.517C925.292 432.552 925.207 432.545 925.036 432.434C924.853 432.315 924.64 432.216 924.467 432.092C924.296 431.97 924.101 431.876 923.936 431.744C923.827 431.657 923.654 431.506 923.539 431.465" stroke="#2B2B2B" stroke-width="2" stroke-linecap="round" stroke-linejoin="round"/>
</g>
<defs>
<filter id="filter0_d" x="959.93" y="0.930664" width="126.966" height="115.013" filterUnits="userSpaceOnUse" color-interpolation-filters="sRGB">
<feFlood flood-opacity="0" result="BackgroundImageFix"/>
<feColorMatrix in="SourceAlpha" type="matrix" values="0 0 0 0 0 0 0 0 0 0 0 0 0 0 0 0 0 0 127 0"/>
<feOffset dx="-4" dy="4"/>
<feColorMatrix type="matrix" values="0 0 0 0 0.956863 0 0 0 0 0.764706 0 0 0 0 0.764706 0 0 0 1 0"/>
<feBlend mode="normal" in2="BackgroundImageFix" result="effect1_dropShadow"/>
<feBlend mode="normal" in="SourceGraphic" in2="effect1_dropShadow" result="shape"/>
</filter>
<filter id="filter1_d" x="69.2842" y="394.284" width="110.856" height="79.7845" filterUnits="userSpaceOnUse" color-interpolation-filters="sRGB">
<feFlood flood-opacity="0" result="BackgroundImageFix"/>
<feColorMatrix in="SourceAlpha" type="matrix" values="0 0 0 0 0 0 0 0 0 0 0 0 0 0 0 0 0 0 127 0"/>
<feOffset dx="4" dy="4"/>
<feColorMatrix type="matrix" values="0 0 0 0 0.698039 0 0 0 0 0.819608 0 0 0 0 0.658824 0 0 0 1 0"/>
<feBlend mode="normal" in2="BackgroundImageFix" result="effect1_dropShadow"/>
<feBlend mode="normal" in="SourceGraphic" in2="effect1_dropShadow" result="shape"/>
</filter>
<filter id="filter2_d" x="1022.92" y="201.919" width="113.443" height="104.199" filterUnits="userSpaceOnUse" color-interpolation-filters="sRGB">
<feFlood flood-opacity="0" result="BackgroundImageFix"/>
<feColorMatrix in="SourceAlpha" type="matrix" values="0 0 0 0 0 0 0 0 0 0 0 0 0 0 0 0 0 0 127 0"/>
<feOffset dx="4" dy="4"/>
<feColorMatrix type="matrix" values="0 0 0 0 1 0 0 0 0 0.921569 0 0 0 0 0.827451 0 0 0 1 0"/>
<feBlend mode="normal" in2="BackgroundImageFix" result="effect1_dropShadow"/>
<feBlend mode="normal" in="SourceGraphic" in2="effect1_dropShadow" result="shape"/>
</filter>
<filter id="filter3_d" x="0.93042" y="69.9297" width="127.756" height="114.583" filterUnits="userSpaceOnUse" color-interpolation-filters="sRGB">
<feFlood flood-opacity="0" result="BackgroundImageFix"/>
<feColorMatrix in="SourceAlpha" type="matrix" values="0 0 0 0 0 0 0 0 0 0 0 0 0 0 0 0 0 0 127 0"/>
<feOffset dx="4" dy="4"/>
<feColorMatrix type="matrix" values="0 0 0 0 1 0 0 0 0 0.921569 0 0 0 0 0.827451 0 0 0 1 0"/>
<feBlend mode="normal" in2="BackgroundImageFix" result="effect1_dropShadow"/>
<feBlend mode="normal" in="SourceGraphic" in2="effect1_dropShadow" result="shape"/>
</filter>
<filter id="filter4_d" x="887.257" y="412.257" width="89.6138" height="72.3819" filterUnits="userSpaceOnUse" color-interpolation-filters="sRGB">
<feFlood flood-opacity="0" result="BackgroundImageFix"/>
<feColorMatrix in="SourceAlpha" type="matrix" values="0 0 0 0 0 0 0 0 0 0 0 0 0 0 0 0 0 0 127 0"/>
<feOffset dx="-4" dy="4"/>
<feColorMatrix type="matrix" values="0 0 0 0 0.368627 0 0 0 0 0.376471 0 0 0 0 0.701961 0 0 0 1 0"/>
<feBlend mode="normal" in2="BackgroundImageFix" result="effect1_dropShadow"/>
<feBlend mode="normal" in="SourceGraphic" in2="effect1_dropShadow" result="shape"/>
</filter>
</defs>
</svg>
