<svg width="689" height="466" viewBox="0 0 739 516" fill="none" xmlns="http://www.w3.org/2000/svg">
<g filter="url(#filter0_d)">
<path d="M50.5978 257.718C49.4734 254.282 41.0875 247.205 39.3567 244.444C38.0585 242.373 36.6763 235.71 42.4397 229.303C47.7376 224.586 53.4959 224.662 60.6653 227.786C64.5233 229.466 73.5009 234.602 76.9121 230.81C84.8465 221.991 87.3907 217.761 92.8621 207.224C94.862 203.372 99.1135 194.418 102.001 191.209C106.192 186.549 109.95 201.458 108.992 208.036C107.196 220.367 101.484 223.41 97.1772 236.396C103.35 237.734 112.863 246.292 115.232 252.638C117.868 259.699 117.098 266.963 110.345 275.64C103.534 283.212 98.1777 286.823 90.5501 289.445C83.0334 292.029 77.8555 292.391 71.1012 288.808C67.3429 286.815 61.0249 276.582 54.4452 278.039C46.4691 284.563 19.2195 293.769 13.9778 289.053C13.6855 283.521 50.6 268.258 50.5978 257.718Z" fill="#F5ADB8" stroke="#2B2B2B" stroke-width="3" stroke-linecap="round" stroke-linejoin="round"/>
<path d="M47.6436 239.096C47.593 238.992 47.5457 238.891 47.5032 238.797C47.5721 238.74 47.6405 238.689 47.7085 238.645C47.9232 238.084 48.5902 237.841 48.8841 238.696C48.8845 238.697 48.8849 238.699 48.8853 238.7C49.0528 238.849 49.2211 239.068 49.3919 239.369C49.5778 239.696 49.889 240.777 49.1535 240.816C48.8732 240.831 48.2881 240.104 48.0828 239.919C47.7928 239.658 47.6647 239.367 47.6436 239.096Z" fill="#F5ADB8"/>
<path d="M47.2892 238.308C47.3354 238.4 48.1498 240.454 48.5694 240.191C49.1765 239.81 49.0811 239.269 48.8841 238.696C48.4 237.288 46.9042 238.859 48.0828 239.919C48.2881 240.104 48.8732 240.831 49.1535 240.816C49.889 240.777 49.5778 239.696 49.3919 239.369C48.6011 237.976 47.8631 238.335 47.0249 239.267" stroke="#2B2B2B" stroke-width="3" stroke-linecap="round" stroke-linejoin="round"/>
<path d="M55.5526 236.769C55.0907 237.283 54.7523 237.189 54.3269 236.852C54.2554 236.823 54.1777 236.76 54.0944 236.654C54.082 236.638 54.0695 236.621 54.0569 236.604C53.8363 236.294 52.8273 234.847 53.0731 234.539C53.2819 234.277 53.6246 234.242 53.9963 234.35C54.0001 234.35 54.0039 234.35 54.0078 234.35C54.2733 234.336 54.4358 234.439 54.5417 234.597C55.3838 235.108 56.1168 236.142 55.5526 236.769Z" fill="#F5ADB8"/>
<path d="M52.9078 234.39C53.1287 235.639 53.1513 235.806 54.0486 236.613C54.6171 237.124 54.9948 237.39 55.5526 236.769C56.4892 235.728 53.851 233.565 53.0731 234.539C52.8273 234.847 53.8363 236.294 54.0569 236.604C54.6574 237.446 54.9779 236.066 54.8252 235.583C54.6893 235.154 54.7345 234.311 54.0078 234.35C52.8836 234.409 53.5103 235.53 53.9328 235.91" stroke="#2B2B2B" stroke-width="3" stroke-linecap="round" stroke-linejoin="round"/>
<path d="M56.1812 244.363C55.6387 244.75 54.8432 244.882 54.0504 244.955C54.5686 244.573 55.036 244.108 55.6036 243.86C58.1406 242.753 59.6715 240.386 61.3042 238.355C61.6533 237.921 61.1658 238.942 61.1355 239.466C61.0946 240.171 59.2711 241.612 58.8342 242.098C58.0859 242.929 57.0368 243.753 56.1812 244.363Z" fill="#F5ADB8"/>
<path d="M52.2159 245.133C53.3357 244.923 55.1848 245.074 56.1812 244.363C57.0368 243.753 58.0859 242.929 58.8342 242.098C59.2711 241.612 61.0946 240.171 61.1355 239.466C61.1658 238.942 61.6533 237.921 61.3042 238.355C59.6715 240.386 58.1406 242.753 55.6036 243.86C54.7507 244.233 54.1241 245.095 53.2113 245.43C52.5668 245.666 51.817 244.969 51.2739 245.182" stroke="#2B2B2B" stroke-width="3" stroke-linecap="round" stroke-linejoin="round"/>
</g>
<g filter="url(#filter1_d)">
<path d="M628.066 37.6314L628.034 37.8437C636.404 40.3694 641.902 41.3789 650.29 45.858C651.935 46.7364 656.534 50.9886 655.815 53.3691C655.277 55.1545 650.761 57.2079 644.497 56.4472C642.873 56.2498 632.595 52.8556 629.911 55.2925C628.993 58.3369 625.779 64.8211 623.165 66.8924C617.995 70.9875 611.096 69.7858 605.423 65.435C598.048 59.7786 597.764 52.0853 595.573 44.2818C594.322 39.8226 593.506 33.9181 593.214 30.5833C591.079 24.7448 583.499 17.9385 580.141 13.6524C578.959 12.143 575.93 3.94034 577.659 2.51409C578.916 1.47707 593.311 12.3112 595.087 13.6168C608.169 24.0576 605.454 11.3636 617.656 11.9858C625.576 13.5393 628.896 19.9229 629.245 25.2227C629.454 28.3955 628.796 32.7699 628.066 37.6314Z" fill="#B2D1A8" stroke="#2B2B2B" stroke-width="3" stroke-linecap="round" stroke-linejoin="round"/>
<path d="M615.121 18.0281C615.292 17.6872 615.572 17.4311 615.926 17.3261C616.041 17.2254 616.157 17.1335 616.265 17.1269C616.52 17.1111 616.218 17.6808 616.158 17.7724C616.047 17.9408 615.952 18.0726 615.831 18.1459C615.784 18.4003 615.511 18.7156 615.246 18.6753C614.874 18.6187 615.005 18.2609 615.121 18.0281Z" fill="#B2D1A8"/>
<path d="M616.159 17.2806C615.695 17.3271 615.328 17.6155 615.121 18.0281C615.005 18.2609 614.874 18.6187 615.246 18.6753C615.701 18.7446 616.18 17.765 615.499 17.8468C615.371 17.862 615.172 18.1145 615.36 18.1711C615.778 18.2975 615.938 18.1075 616.158 17.7724C616.218 17.6808 616.52 17.1111 616.265 17.1269C616.06 17.1395 615.823 17.4609 615.63 17.564" stroke="#2B2B2B" stroke-width="2" stroke-linecap="round" stroke-linejoin="round"/>
<path d="M618.526 19.3833C618.646 19.3601 618.828 19.4438 618.978 19.5205C619.117 19.3809 619.301 19.2992 619.522 19.1809C619.853 19.0033 620.228 19.1212 620.098 19.5518C620.053 19.7032 619.995 19.8619 619.911 19.9992C619.799 20.1815 619.643 20.3262 619.41 20.3663C619.243 20.3951 618.924 20.3335 618.667 20.2176C618.492 20.1385 618.346 20.034 618.297 19.9156C618.249 19.8003 618.386 19.4104 618.526 19.3833Z" fill="#B2D1A8"/>
<path d="M620.219 20.1295C619.849 20.0003 619.519 19.7748 619.161 19.6134C619.017 19.5484 618.703 19.3489 618.526 19.3833C618.386 19.4104 618.249 19.8003 618.297 19.9156C618.418 20.2075 619.129 20.4147 619.41 20.3663C619.818 20.296 619.992 19.9044 620.098 19.5518C620.228 19.1212 619.853 19.0033 619.522 19.1809C619.156 19.377 618.892 19.4725 618.764 19.898C618.656 20.2559 618.524 20.4544 618.951 20.5831C619.139 20.6398 619.325 20.6468 619.506 20.7013" stroke="#2B2B2B" stroke-width="2" stroke-linecap="round" stroke-linejoin="round"/>
<path d="M611.713 21.0262C612.134 21.6101 612.431 22.2808 612.766 22.9184C612.901 23.1768 613.002 23.4521 613.126 23.7161C613.239 23.9566 613.415 24.1581 613.554 24.3835C613.65 24.5396 613.828 24.633 613.961 24.7551C614.193 24.9681 614.442 25.146 614.694 25.3318C615.127 25.6504 615.611 25.914 616.087 26.1595C616.716 26.4837 617.427 26.4959 618.111 26.4011C618.409 26.3598 618.811 26.3768 619.114 26.4112C619.282 26.4303 619.456 26.4133 619.618 26.4622" stroke="#2B2B2B" stroke-width="2" stroke-linecap="round" stroke-linejoin="round"/>
</g>
<g filter="url(#filter2_d)">
<path d="M686.586 452.262C684.478 454.292 679.954 458.564 678.725 459.677C673.546 458.585 668.623 456.48 663.874 453.507C658.76 450.307 657.126 448.286 653.597 445.433C650.421 442.866 648.067 438.069 643.938 438.326C642.769 438.399 642.244 444.603 642.903 446.825C644.008 450.556 645.848 454.918 648.829 457.683C651.9 460.532 650.32 464.139 649.602 467.41C648.894 470.632 646.857 474.234 646.149 477.456C644.782 483.686 644.763 490.229 650.2 494.967C657.517 501.344 665.408 503.293 672.757 501.998C676.215 501.388 680.465 499.45 683.267 497.657C686.966 495.29 691.979 490.628 696.011 488.82C697.462 487.892 702.141 493.075 709.276 494.642C714.435 495.775 716.19 495.329 720.986 494.304C723.165 493.839 726.79 491.839 728.46 490.544C730.964 488.6 732.307 486.27 732.715 484.414C729.94 483.805 726.072 486.279 717.747 484.452C712.681 482.923 708.272 480.293 705.052 477.924C702.638 476.147 700.163 475.188 699.742 473.434C699.547 472.621 700.837 468.014 701.048 467.488C702.106 464.848 702.598 462.608 703.158 460.056C703.594 458.074 703.918 455.652 703.584 454.332C703.07 452.297 702.076 449.846 700.006 448.779C697.597 447.537 696.041 447.252 693.355 447.931C692.443 448.161 688.694 450.231 686.586 452.262Z" fill="#FFEBD3" stroke="#2B2B2B" stroke-width="3" stroke-linecap="round" stroke-linejoin="round"/>
<path d="M694.292 454.008C694.537 453.783 694.875 453.66 695.199 453.593C695.38 453.507 695.603 453.439 695.546 453.702C695.466 454.064 695.357 454.344 695.163 454.655C695.062 454.816 694.85 455.144 694.64 454.986C694.41 454.814 694.307 454.657 694.178 454.403C694.059 454.168 694.089 454.194 694.292 454.008Z" fill="#FFEBD3"/>
<path d="M695.248 453.583C694.909 453.648 694.549 453.772 694.292 454.008C694.089 454.194 694.059 454.168 694.178 454.403C694.307 454.657 694.41 454.814 694.64 454.986C694.85 455.144 695.062 454.816 695.163 454.655C695.357 454.344 695.466 454.064 695.546 453.702C695.623 453.347 695.192 453.594 695.039 453.675C694.865 453.767 694.699 453.873 694.655 454.073C694.612 454.269 694.829 454.246 694.987 454.281" stroke="#2B2B2B" stroke-width="2" stroke-linecap="round" stroke-linejoin="round"/>
<path d="M698.498 455.483C698.22 455.473 696.526 455.822 697.02 456.318C697.364 456.663 697.744 456.538 697.989 456.138C698.066 456.013 698.098 455.871 698.122 455.724C698.154 455.524 697.753 455.827 697.716 455.851C697.462 456.013 697.225 456.267 697.649 456.159" stroke="#2B2B2B" stroke-width="2" stroke-linecap="round" stroke-linejoin="round"/>
<path d="M692.362 458.127C692.634 458.552 692.909 458.946 693.333 459.23C693.557 459.38 693.734 459.62 693.957 459.76C694.27 459.955 694.673 460.037 695.027 460.115C695.447 460.207 695.855 460.35 696.276 460.443C696.524 460.497 696.635 460.496 696.859 460.382C697.101 460.26 697.379 460.162 697.607 460.034C697.833 459.906 698.088 459.814 698.306 459.675C698.449 459.583 698.677 459.423 698.828 459.385" stroke="#2B2B2B" stroke-width="2" stroke-linecap="round" stroke-linejoin="round"/>
</g>
<defs>
<filter id="filter0_d" x="12.4761" y="188.822" width="109.662" height="108.118" filterUnits="userSpaceOnUse" color-interpolation-filters="sRGB">
<feFlood flood-opacity="0" result="BackgroundImageFix"/>
<feColorMatrix in="SourceAlpha" type="matrix" values="0 0 0 0 0 0 0 0 0 0 0 0 0 0 0 0 0 0 127 0"/>
<feOffset dx="4" dy="4"/>
<feColorMatrix type="matrix" values="0 0 0 0 0.960784 0 0 0 0 0.678431 0 0 0 0 0.721569 0 0 0 1 0"/>
<feBlend mode="normal" in2="BackgroundImageFix" result="effect1_dropShadow"/>
<feBlend mode="normal" in="SourceGraphic" in2="effect1_dropShadow" result="shape"/>
</filter>
<filter id="filter1_d" x="571.638" y="0.944214" width="85.7537" height="73.9672" filterUnits="userSpaceOnUse" color-interpolation-filters="sRGB">
<feFlood flood-opacity="0" result="BackgroundImageFix"/>
<feColorMatrix in="SourceAlpha" type="matrix" values="0 0 0 0 0 0 0 0 0 0 0 0 0 0 0 0 0 0 127 0"/>
<feOffset dx="-4" dy="4"/>
<feColorMatrix type="matrix" values="0 0 0 0 0.698039 0 0 0 0 0.819608 0 0 0 0 0.658824 0 0 0 1 0"/>
<feBlend mode="normal" in2="BackgroundImageFix" result="effect1_dropShadow"/>
<feBlend mode="normal" in="SourceGraphic" in2="effect1_dropShadow" result="shape"/>
</filter>
<filter id="filter2_d" x="637.115" y="436.816" width="97.0998" height="71.0606" filterUnits="userSpaceOnUse" color-interpolation-filters="sRGB">
<feFlood flood-opacity="0" result="BackgroundImageFix"/>
<feColorMatrix in="SourceAlpha" type="matrix" values="0 0 0 0 0 0 0 0 0 0 0 0 0 0 0 0 0 0 127 0"/>
<feOffset dx="-4" dy="4"/>
<feColorMatrix type="matrix" values="0 0 0 0 1 0 0 0 0 0.921569 0 0 0 0 0.827451 0 0 0 1 0"/>
<feBlend mode="normal" in2="BackgroundImageFix" result="effect1_dropShadow"/>
<feBlend mode="normal" in="SourceGraphic" in2="effect1_dropShadow" result="shape"/>
</filter>
</defs>
</svg>
