<svg width="692" height="451" viewBox="0 0 742 501" fill="none" xmlns="http://www.w3.org/2000/svg">
<g filter="url(#filter0_d)">
<path d="M97.9626 52.3824L97.9182 52.6776C109.569 56.1934 117.222 57.5986 128.898 63.8334C131.188 65.0561 137.589 70.9751 136.589 74.2887C135.839 76.774 129.554 79.6323 120.835 78.5733C118.573 78.2986 104.267 73.5739 100.531 76.9661C99.2528 81.2038 94.7798 90.2297 91.14 93.1129C83.944 98.8132 74.3411 97.1404 66.4446 91.0842C56.1787 83.2107 55.7827 72.5017 52.7335 61.6393C50.9911 55.4323 49.8558 47.2134 49.4488 42.5713C46.4781 34.4442 35.9265 24.97 31.2527 19.0039C29.6067 16.9028 25.3898 5.48487 27.7965 3.49956C29.5464 2.05605 49.5845 17.137 52.056 18.9543C70.2666 33.4877 66.4872 15.8179 83.4716 16.6839C94.4962 18.8465 99.1185 27.7323 99.604 35.1095C99.8946 39.526 98.9795 45.6152 97.9626 52.3824Z" fill="#CBE9EF" stroke="#2B2B2B" stroke-width="3" stroke-linecap="round" stroke-linejoin="round"/>
<path d="M79.9443 25.0947C80.1817 24.6201 80.5721 24.2636 81.0646 24.1175C81.2238 23.9774 81.3863 23.8494 81.5367 23.8402C81.8911 23.8183 81.471 24.6113 81.3873 24.7387C81.2333 24.9732 81.1007 25.1566 80.9329 25.2587C80.8668 25.6127 80.4864 26.0517 80.1177 25.9956C79.6006 25.9168 79.7823 25.4187 79.9443 25.0947Z" fill="#CBE9EF"/>
<path d="M81.3884 24.0542C80.743 24.1189 80.2316 24.5203 79.9443 25.0947C79.7823 25.4187 79.6006 25.9168 80.1177 25.9956C80.7507 26.092 81.4186 24.7285 80.4695 24.8423C80.2923 24.8635 80.0148 25.2149 80.2762 25.2938C80.859 25.4697 81.0809 25.2052 81.3873 24.7387C81.471 24.6113 81.8911 23.8183 81.5367 23.8402C81.2506 23.8578 80.9204 24.3052 80.653 24.4486" stroke="#2B2B2B" stroke-width="2" stroke-linecap="round" stroke-linejoin="round"/>
<path d="M84.6826 26.9812C84.8496 26.9489 85.1038 27.0654 85.313 27.1722C85.5065 26.9779 85.7618 26.8642 86.069 26.6994C86.5297 26.4523 87.0529 26.6163 86.872 27.2157C86.8084 27.4266 86.7274 27.6474 86.6107 27.8385C86.4557 28.0923 86.2377 28.2937 85.9135 28.3495C85.6808 28.3896 85.2368 28.3039 84.8795 28.1425C84.6356 28.0324 84.4322 27.887 84.3639 27.7221C84.2975 27.5616 84.488 27.0189 84.6826 26.9812Z" fill="#CBE9EF"/>
<path d="M87.0403 28.0199C86.5249 27.8401 86.0651 27.5261 85.5677 27.3015C85.3671 27.211 84.9294 26.9334 84.6826 26.9812C84.488 27.0189 84.2975 27.5616 84.3639 27.7221C84.5322 28.1284 85.5221 28.417 85.9135 28.3495C86.4818 28.2516 86.7239 27.7066 86.872 27.2157C87.0529 26.6163 86.5297 26.4523 86.069 26.6994C85.5599 26.9725 85.1931 27.1053 85.0143 27.6977C84.864 28.1958 84.6805 28.4721 85.2745 28.6514C85.536 28.7303 85.7952 28.74 86.0467 28.8159" stroke="#2B2B2B" stroke-width="2" stroke-linecap="round" stroke-linejoin="round"/>
<path d="M75.1992 29.2681C75.7854 30.0807 76.199 31.0144 76.6646 31.9019C76.8534 32.2617 76.9941 32.6448 77.1667 33.0122C77.3239 33.3471 77.5686 33.6275 77.7615 33.9413C77.895 34.1586 78.1432 34.2886 78.3283 34.4586C78.6512 34.7551 78.9984 35.0027 79.3493 35.2613C79.9509 35.7048 80.626 36.0717 81.2885 36.4134C82.1635 36.8647 83.1525 36.8817 84.1054 36.7497C84.5199 36.6923 85.0799 36.7159 85.5014 36.7638C85.7356 36.7905 85.9774 36.7667 86.2029 36.8347" stroke="#2B2B2B" stroke-width="2" stroke-linecap="round" stroke-linejoin="round"/>
</g>
<g filter="url(#filter1_d)">
<path d="M673.465 278.913C675.157 281.301 678.705 286.414 679.621 287.795C677.766 292.753 674.948 297.305 671.299 301.556C667.369 306.134 665.127 307.448 661.778 310.51C658.765 313.266 653.67 314.876 653.306 318.997C653.203 320.163 659.259 321.61 661.554 321.292C665.409 320.757 669.997 319.591 673.177 317.057C676.453 314.447 679.783 316.548 682.91 317.748C685.99 318.929 689.247 321.483 692.327 322.664C698.281 324.949 704.748 325.946 710.246 321.279C717.646 314.998 720.753 307.488 720.572 300.028C720.487 296.518 719.207 292.025 717.853 288.987C716.066 284.976 712.206 279.322 711.022 275.064C710.322 273.491 716.146 269.64 718.763 262.819C720.655 257.888 720.477 256.086 720.181 251.191C720.047 248.966 718.612 245.083 717.581 243.238C716.034 240.471 713.93 238.795 712.156 238.114C711.139 240.767 713.007 244.961 709.955 252.919C707.686 257.7 704.426 261.665 701.601 264.494C699.483 266.616 698.165 268.92 696.367 269.073C695.534 269.144 691.172 267.18 690.683 266.892C688.231 265.451 686.09 264.63 683.651 263.694C681.756 262.967 679.41 262.284 678.055 262.416C675.966 262.62 673.394 263.236 672.029 265.124C670.441 267.32 669.926 268.816 670.195 271.573C670.287 272.509 671.773 276.525 673.465 278.913Z" fill="#FFEBD3" stroke="#2B2B2B" stroke-width="3" stroke-linecap="round" stroke-linejoin="round"/>
<path d="M676.345 271.556C676.159 271.28 676.088 270.928 676.07 270.597C676.012 270.405 675.978 270.174 676.23 270.271C676.576 270.403 676.836 270.553 677.114 270.792C677.259 270.915 677.551 271.174 677.364 271.358C677.159 271.56 676.988 271.638 676.718 271.727C676.468 271.81 676.498 271.785 676.345 271.556Z" fill="#FFEBD3"/>
<path d="M676.067 270.547C676.081 270.892 676.15 271.266 676.345 271.556C676.498 271.785 676.468 271.81 676.718 271.727C676.988 271.638 677.159 271.56 677.364 271.358C677.551 271.174 677.259 270.915 677.114 270.792C676.836 270.553 676.576 270.403 676.23 270.271C675.891 270.14 676.07 270.604 676.127 270.767C676.192 270.953 676.272 271.133 676.463 271.206C676.65 271.278 676.66 271.061 676.718 270.909" stroke="#2B2B2B" stroke-width="2" stroke-linecap="round" stroke-linejoin="round"/>
<path d="M678.432 267.617C678.381 267.891 678.472 269.618 679.037 269.203C679.429 268.915 679.362 268.521 679.004 268.219C678.892 268.124 678.756 268.071 678.614 268.026C678.421 267.964 678.661 268.406 678.679 268.445C678.802 268.721 679.016 268.994 678.974 268.559" stroke="#2B2B2B" stroke-width="2" stroke-linecap="round" stroke-linejoin="round"/>
<path d="M680.129 274.08C680.59 273.875 681.02 273.662 681.365 273.285C681.546 273.086 681.81 272.947 681.982 272.747C682.222 272.468 682.362 272.081 682.492 271.742C682.646 271.341 682.849 270.959 683.004 270.556C683.095 270.32 683.11 270.21 683.031 269.971C682.946 269.714 682.891 269.424 682.798 269.18C682.706 268.937 682.653 268.671 682.548 268.435C682.479 268.279 682.355 268.03 682.34 267.875" stroke="#2B2B2B" stroke-width="2" stroke-linecap="round" stroke-linejoin="round"/>
</g>
<g filter="url(#filter2_d)">
<path d="M54.9061 425.869C57.4749 425.089 62.8646 418.977 64.9427 417.737C66.5013 416.807 71.4703 415.888 76.1338 420.27C79.5509 424.28 79.4011 428.554 76.9666 433.826C75.6565 436.663 71.6987 443.246 74.4588 445.84C80.8789 451.873 83.9781 453.83 91.713 458.062C94.5401 459.609 101.119 462.91 103.456 465.105C106.847 468.293 95.7183 470.842 90.85 470.024C81.7239 468.492 79.5567 464.202 69.9847 460.795C68.8917 465.356 62.3846 472.281 57.6344 473.937C52.3496 475.781 46.9695 475.092 40.6358 469.938C35.1244 464.759 32.5296 460.724 30.7061 455.019C28.909 449.396 28.724 445.546 31.4925 440.589C33.0329 437.831 40.7322 433.306 39.7566 428.397C35.0421 422.37 28.6468 401.99 32.2324 398.175C36.3441 398.047 47.081 425.7 54.9061 425.869Z" fill="#F4C4C4" stroke="#2B2B2B" stroke-width="3" stroke-linecap="round" stroke-linejoin="round"/>
<path d="M68.7793 423.976C68.8573 423.94 68.9333 423.907 69.0034 423.877C69.0445 423.929 69.0813 423.98 69.1131 424.031C69.5257 424.2 69.6956 424.699 69.0561 424.903C69.0552 424.904 69.0543 424.904 69.0534 424.904C68.9398 425.026 68.7745 425.148 68.5484 425.27C68.3023 425.402 67.4948 425.616 67.4779 425.069C67.4714 424.861 68.0205 424.438 68.161 424.289C68.3593 424.078 68.578 423.987 68.7793 423.976Z" fill="#F4C4C4"/>
<path d="M69.37 423.725C69.3009 423.758 67.7629 424.33 67.9514 424.646C68.2241 425.102 68.6274 425.04 69.0561 424.903C70.1093 424.567 68.9672 423.431 68.161 424.289C68.0205 424.438 67.4714 424.861 67.4779 425.069C67.4948 425.616 68.3023 425.402 68.5484 425.27C69.5951 424.705 69.3408 424.151 68.6625 423.514" stroke="#2B2B2B" stroke-width="3" stroke-linecap="round" stroke-linejoin="round"/>
<path d="M70.3793 429.885C70.0056 429.534 70.0805 429.284 70.3381 428.974C70.3605 428.921 70.4085 428.865 70.4888 428.804C70.5006 428.795 70.5132 428.786 70.5266 428.777C70.7598 428.619 71.8507 427.893 72.0754 428.08C72.2661 428.24 72.2869 428.495 72.2006 428.769C72.2007 428.772 72.2008 428.774 72.2009 428.777C72.207 428.975 72.1274 429.094 72.0083 429.17C71.6157 429.787 70.8358 430.314 70.3793 429.885Z" fill="#F4C4C4"/>
<path d="M72.1884 427.96C71.2576 428.104 71.1337 428.118 70.5199 428.771C70.131 429.185 69.9279 429.461 70.3793 429.885C71.1372 430.597 72.7861 428.674 72.0754 428.08C71.8507 427.893 70.7598 428.619 70.5266 428.777C69.8918 429.21 70.9109 429.47 71.2716 429.364C71.5926 429.27 72.2176 429.317 72.2009 428.777C72.1749 427.942 71.3322 428.389 71.0432 428.696" stroke="#2B2B2B" stroke-width="3" stroke-linecap="round" stroke-linejoin="round"/>
<path d="M64.7311 430.229C64.4525 429.82 64.3678 429.228 64.3262 428.638C64.6014 429.029 64.9391 429.383 65.1139 429.809C65.8951 431.71 67.6279 432.885 69.1094 434.13C69.4262 434.396 68.6758 434.018 68.2873 433.987C67.7645 433.945 66.7239 432.568 66.3704 432.236C65.7649 431.667 65.1703 430.874 64.7311 430.229Z" fill="#F4C4C4"/>
<path d="M64.2239 427.273C64.3617 428.108 64.2196 429.478 64.7311 430.229C65.1703 430.874 65.7649 431.667 66.3704 432.236C66.7239 432.568 67.7645 433.945 68.2873 433.987C68.6758 434.018 69.4262 434.396 69.1094 434.13C67.6279 432.885 65.8951 431.71 65.1139 429.809C64.8512 429.169 64.2208 428.69 63.9871 428.007C63.8222 427.525 64.3519 426.979 64.2021 426.573" stroke="#2B2B2B" stroke-width="3" stroke-linecap="round" stroke-linejoin="round"/>
</g>
<defs>
<filter id="filter0_d" x="21.5713" y="1.90234" width="116.623" height="100.216" filterUnits="userSpaceOnUse" color-interpolation-filters="sRGB">
<feFlood flood-opacity="0" result="BackgroundImageFix"/>
<feColorMatrix in="SourceAlpha" type="matrix" values="0 0 0 0 0 0 0 0 0 0 0 0 0 0 0 0 0 0 127 0"/>
<feOffset dx="-4" dy="4"/>
<feColorMatrix type="matrix" values="0 0 0 0 0.796078 0 0 0 0 0.913725 0 0 0 0 0.937255 0 0 0 1 0"/>
<feBlend mode="normal" in2="BackgroundImageFix" result="effect1_dropShadow"/>
<feBlend mode="normal" in="SourceGraphic" in2="effect1_dropShadow" result="shape"/>
</filter>
<filter id="filter1_d" x="647.804" y="236.614" width="74.2755" height="93.4664" filterUnits="userSpaceOnUse" color-interpolation-filters="sRGB">
<feFlood flood-opacity="0" result="BackgroundImageFix"/>
<feColorMatrix in="SourceAlpha" type="matrix" values="0 0 0 0 0 0 0 0 0 0 0 0 0 0 0 0 0 0 127 0"/>
<feOffset dx="-4" dy="4"/>
<feColorMatrix type="matrix" values="0 0 0 0 1 0 0 0 0 0.921569 0 0 0 0 0.827451 0 0 0 1 0"/>
<feBlend mode="normal" in2="BackgroundImageFix" result="effect1_dropShadow"/>
<feBlend mode="normal" in="SourceGraphic" in2="effect1_dropShadow" result="shape"/>
</filter>
<filter id="filter2_d" x="27.8799" y="396.674" width="81.7083" height="83.6917" filterUnits="userSpaceOnUse" color-interpolation-filters="sRGB">
<feFlood flood-opacity="0" result="BackgroundImageFix"/>
<feColorMatrix in="SourceAlpha" type="matrix" values="0 0 0 0 0 0 0 0 0 0 0 0 0 0 0 0 0 0 127 0"/>
<feOffset dx="4" dy="4"/>
<feColorMatrix type="matrix" values="0 0 0 0 0.958333 0 0 0 0 0.766667 0 0 0 0 0.766667 0 0 0 1 0"/>
<feBlend mode="normal" in2="BackgroundImageFix" result="effect1_dropShadow"/>
<feBlend mode="normal" in="SourceGraphic" in2="effect1_dropShadow" result="shape"/>
</filter>
</defs>
</svg>
