<svg width="57" height="55" viewBox="0 0 57 55" fill="none" xmlns="http://www.w3.org/2000/svg">
<g filter="url(#filter0_d)">
<path d="M20.6869 4.89109C25.5534 8.8979 25.0121 14.0254 25.1126 17.0395C28.919 14.5019 30.9996 10.1718 35.3206 7.88416C37.1574 6.91174 40.5289 5.88686 42.6603 5.88686C46.7249 5.88686 50.1483 7.1001 52.8204 10.884C59.3238 20.093 50.7712 26.8392 44.8206 30.3842C38.8531 33.9393 37.3205 33.384 30.8205 37.884C27.4867 40.192 23.3858 44.1555 22.3205 47.884C21.4223 51.0277 16.5233 42.1801 15.8205 40.384C14.5396 37.1107 11.2474 32.3815 9.32045 29.384C5.60058 23.5975 -2.17955 14.6423 4.82055 5.88708C8.82054 0.884077 15.8205 0.884277 20.6869 4.89109Z" fill="#F46D69"/>
<path d="M20.6869 4.89109C25.5534 8.8979 25.0121 14.0254 25.1126 17.0395C28.919 14.5019 30.9996 10.1718 35.3206 7.88416C37.1574 6.91174 40.5289 5.88686 42.6603 5.88686C46.7249 5.88686 50.1483 7.1001 52.8204 10.884C59.3238 20.093 50.7712 26.8392 44.8206 30.3842C38.8531 33.9393 37.3205 33.384 30.8205 37.884C27.4867 40.192 23.3858 44.1555 22.3205 47.884C21.4223 51.0277 16.5233 42.1801 15.8205 40.384C14.5396 37.1107 11.2474 32.3815 9.32045 29.384C5.60058 23.5975 -2.17955 14.6423 4.82055 5.88708C8.82054 0.884077 15.8205 0.884277 20.6869 4.89109Z" stroke="black" stroke-width="3" stroke-linecap="round" stroke-linejoin="round"/>
</g>
<defs>
<filter id="filter0_d" x="0.500854" y="0.501221" width="56.1505" height="53.5532" filterUnits="userSpaceOnUse" color-interpolation-filters="sRGB">
<feFlood flood-opacity="0" result="BackgroundImageFix"/>
<feColorMatrix in="SourceAlpha" type="matrix" values="0 0 0 0 0 0 0 0 0 0 0 0 0 0 0 0 0 0 127 0"/>
<feOffset dy="4"/>
<feColorMatrix type="matrix" values="0 0 0 0 0.956863 0 0 0 0 0.427451 0 0 0 0 0.411765 0 0 0 1 0"/>
<feBlend mode="normal" in2="BackgroundImageFix" result="effect1_dropShadow"/>
<feBlend mode="normal" in="SourceGraphic" in2="effect1_dropShadow" result="shape"/>
</filter>
</defs>
</svg>
