<svg width="130" height="117" viewBox="0 0 130 117" fill="none" xmlns="http://www.w3.org/2000/svg">
<g filter="url(#filter0_d)">
<path d="M44.3853 54.1757C44.2682 51.3969 39.5314 44.4078 38.8247 42.0019C38.2947 40.1975 38.659 34.9745 44.2626 31.4301C49.1695 29.0395 53.4186 30.2959 58.0781 34.103C60.5855 36.1517 66.1651 41.8259 69.4816 39.7281C77.196 34.8485 79.9616 32.2458 86.2095 25.5811C88.4931 23.1451 93.5076 17.3987 96.3149 15.623C100.39 13.0453 100.067 24.8703 97.9874 29.5429C94.0884 38.3021 89.223 39.366 83.3279 48.0874C87.621 50.3644 92.884 58.6849 93.3166 63.8792C93.798 69.6582 91.7147 74.8777 84.9051 79.8981C78.2827 84.087 73.563 85.6459 67.3672 85.9988C61.2614 86.3466 57.3508 85.5358 53.0944 81.4754C50.7259 79.2161 48.1782 70.3205 43.0012 70.0289C35.7344 73.1989 13.6332 74.3405 10.7332 69.7557C11.6692 65.5976 42.1911 61.9826 44.3853 54.1757Z" fill="#CBE9EF" stroke="#2B2B2B" stroke-width="3" stroke-linecap="round" stroke-linejoin="round"/>
<path d="M46.0771 39.7675C46.0612 39.6799 46.0473 39.595 46.0353 39.5169C46.0982 39.4891 46.1595 39.4656 46.219 39.4469C46.4949 39.0765 47.0396 39.0352 47.0791 39.7297C47.0792 39.7307 47.0792 39.7317 47.0793 39.7327C47.1722 39.8782 47.2512 40.0755 47.3151 40.3339C47.3846 40.6152 47.3899 41.4805 46.837 41.3561C46.6263 41.3086 46.3444 40.6483 46.2308 40.4687C46.0704 40.2151 46.0363 39.9724 46.0771 39.7675Z" fill="#CBE9EF"/>
<path d="M45.9787 39.11C45.9938 39.1878 46.169 40.8788 46.5347 40.7713C47.0636 40.616 47.1056 40.1954 47.0791 39.7297C47.014 38.586 45.5787 39.4379 46.2308 40.4687C46.3444 40.6483 46.6263 41.3086 46.837 41.3561C47.3899 41.4805 47.3846 40.6152 47.3151 40.3339C47.0195 39.1377 46.3982 39.2495 45.5832 39.765" stroke="#2B2B2B" stroke-width="3" stroke-linecap="round" stroke-linejoin="round"/>
<path d="M52.4195 39.6917C51.9704 39.9758 51.7393 39.8359 51.4945 39.4971C51.4476 39.4611 51.4031 39.3982 51.3635 39.3022C51.3576 39.2879 51.3519 39.273 51.3462 39.2572C51.2472 38.9821 50.8014 37.6998 51.0477 37.523C51.2568 37.3729 51.518 37.418 51.7708 37.5756C51.7736 37.5762 51.7765 37.5768 51.7794 37.5775C51.979 37.6224 52.0778 37.733 52.1233 37.8722C52.6406 38.4258 52.968 39.3447 52.4195 39.6917Z" fill="#CBE9EF"/>
<path d="M50.9563 37.3784C50.8596 38.3495 50.8417 38.4774 51.3382 39.2623C51.6527 39.7595 51.8771 40.0348 52.4195 39.6917C53.3301 39.1157 51.8268 36.9635 51.0477 37.523C50.8014 37.6998 51.2472 38.9821 51.3462 39.2572C51.6155 40.006 52.1404 39.0509 52.1278 38.6616C52.1166 38.3153 52.3257 37.7004 51.7794 37.5775C50.9344 37.3873 51.1649 38.3484 51.3987 38.718" stroke="#2B2B2B" stroke-width="3" stroke-linecap="round" stroke-linejoin="round"/>
<path d="M51.303 45.4474C50.8205 45.621 50.204 45.5526 49.6015 45.4417C50.0649 45.2668 50.508 45.0198 50.98 44.9545C53.0897 44.6629 54.7168 43.2285 56.3493 42.0644C56.6983 41.8154 56.1245 42.4703 55.9928 42.8521C55.8157 43.3657 54.1648 44.0534 53.74 44.3221C53.0124 44.7823 52.0639 45.1737 51.303 45.4474Z" fill="#CBE9EF"/>
<path d="M48.2057 45.1911C49.0788 45.2689 50.4169 45.7662 51.303 45.4474C52.0639 45.1737 53.0124 44.7823 53.74 44.3221C54.1648 44.0534 55.8157 43.3657 55.9928 42.8521C56.1245 42.4703 56.6983 41.8154 56.3493 42.0644C54.7168 43.2285 53.0897 44.6629 50.98 44.9545C50.2707 45.0526 49.6268 45.5611 48.881 45.6187C48.3545 45.6593 47.9443 44.9868 47.4976 45.0317" stroke="#2B2B2B" stroke-width="3" stroke-linecap="round" stroke-linejoin="round"/>
</g>
<defs>
<filter id="filter0_d" x="0.930481" y="0.423584" width="128.661" height="116.155" filterUnits="userSpaceOnUse" color-interpolation-filters="sRGB">
<feFlood flood-opacity="0" result="BackgroundImageFix"/>
<feColorMatrix in="SourceAlpha" type="matrix" values="0 0 0 0 0 0 0 0 0 0 0 0 0 0 0 0 0 0 127 0"/>
<feOffset dx="4" dy="4"/>
<feColorMatrix type="matrix" values="0 0 0 0 0.796078 0 0 0 0 0.913725 0 0 0 0 0.937255 0 0 0 1 0"/>
<feBlend mode="normal" in2="BackgroundImageFix" result="effect1_dropShadow"/>
<feBlend mode="normal" in="SourceGraphic" in2="effect1_dropShadow" result="shape"/>
</filter>
</defs>
</svg>
