<svg width="122" height="120" viewBox="0 0 122 120" fill="none" xmlns="http://www.w3.org/2000/svg">
<g filter="url(#filter0_d)">
<path d="M44.7342 43.2199C45.1964 46.1099 46.1181 52.2643 46.3296 53.9084C42.474 57.5355 37.9344 60.3728 32.7818 62.5729C27.233 64.9423 24.6409 65.1289 20.2836 66.3958C16.3621 67.5359 11.0802 66.7277 8.93249 70.2631C8.32449 71.264 13.1167 75.2388 15.3167 75.9679C19.0109 77.1923 23.6412 78.1741 27.6145 77.307C31.7066 76.4139 33.7647 79.7707 36.0395 82.2293C38.2799 84.6507 40.0721 88.3805 42.3124 90.8018C46.6441 95.4834 52.0038 99.2365 58.9982 97.4809C68.4125 95.1179 74.52 89.7546 77.6549 82.9834C79.1302 79.797 79.9675 75.2012 80.0965 71.8772C80.2669 67.4894 79.3041 60.7117 80.1242 56.3692C80.191 54.6486 87.1181 53.7687 92.4804 48.8072C96.3572 45.2202 96.9935 43.5256 98.8923 39.004C99.7554 36.9488 100.185 32.8314 100.076 30.721C99.9112 27.5554 98.7654 25.1217 97.475 23.7271C95.3896 25.6566 95.2115 30.245 88.9555 36.0334C84.8071 39.3188 80.1296 41.4348 76.3459 42.7239C73.5081 43.6908 71.3072 45.1742 69.6269 44.5172C68.8485 44.2128 65.8039 40.5226 65.4923 40.0486C63.9302 37.6718 62.3727 35.9885 60.5984 34.0708C59.2202 32.5813 57.4174 30.9317 56.1437 30.4514C54.1797 29.7109 51.5999 29.1262 49.5414 30.216C47.1462 31.4841 46.0232 32.5982 45.0459 35.1903C44.7142 36.0701 44.272 40.3299 44.7342 43.2199Z" fill="#FFEBD3" stroke="#2B2B2B" stroke-width="3" stroke-linecap="round" stroke-linejoin="round"/>
<path d="M50.5692 37.8934C50.5249 37.5637 50.6163 37.2161 50.7464 36.9114C50.7797 36.7137 50.8512 36.4916 51.0343 36.6895C51.2862 36.9617 51.4534 37.2108 51.5974 37.548C51.6721 37.7228 51.8203 38.0838 51.5714 38.1663C51.2981 38.2568 51.1104 38.2514 50.8281 38.212C50.5676 38.1757 50.6058 38.1662 50.5692 37.8934Z" fill="#FFEBD3"/>
<path d="M50.7665 36.8655C50.6259 37.1809 50.5227 37.547 50.5692 37.8934C50.6058 38.1662 50.5676 38.1757 50.8281 38.212C51.1104 38.2514 51.2981 38.2568 51.5714 38.1663C51.8203 38.0838 51.6721 37.7228 51.5974 37.548C51.4534 37.2108 51.2862 36.9617 51.0343 36.6895C50.7877 36.423 50.7436 36.9181 50.7226 37.0895C50.6986 37.2854 50.691 37.482 50.8299 37.6322C50.9662 37.7794 51.0711 37.5884 51.1901 37.4784" stroke="#2B2B2B" stroke-width="2" stroke-linecap="round" stroke-linejoin="round"/>
<path d="M54.1831 35.2833C54.0161 35.5063 53.3344 37.0955 54.0243 36.9734C54.5036 36.8885 54.6181 36.5048 54.4299 36.0758C54.3709 35.9412 54.2731 35.8331 54.1658 35.73C54.0196 35.5896 54.0399 36.092 54.0382 36.1351C54.0265 36.4364 54.0986 36.7763 54.2529 36.3671" stroke="#2B2B2B" stroke-width="2" stroke-linecap="round" stroke-linejoin="round"/>
<path d="M52.8478 41.8301C53.3523 41.8497 53.8324 41.8497 54.3082 41.6631C54.5587 41.5649 54.8567 41.5572 55.0992 41.4536C55.4381 41.3089 55.7352 41.0246 56.0015 40.7782C56.3168 40.4866 56.6677 40.2337 56.9847 39.9403C57.1705 39.7684 57.2329 39.6768 57.2677 39.4273C57.305 39.1591 57.3844 38.875 57.409 38.6147C57.4334 38.3566 57.5038 38.094 57.5138 37.8359C57.5204 37.6662 57.5192 37.3874 57.5741 37.2417" stroke="#2B2B2B" stroke-width="2" stroke-linecap="round" stroke-linejoin="round"/>
</g>
<defs>
<filter id="filter0_d" x="0.88031" y="0.880371" width="120.376" height="118.346" filterUnits="userSpaceOnUse" color-interpolation-filters="sRGB">
<feFlood flood-opacity="0" result="BackgroundImageFix"/>
<feColorMatrix in="SourceAlpha" type="matrix" values="0 0 0 0 0 0 0 0 0 0 0 0 0 0 0 0 0 0 127 0"/>
<feOffset dx="-4" dy="4"/>
<feColorMatrix type="matrix" values="0 0 0 0 1 0 0 0 0 0.921569 0 0 0 0 0.827451 0 0 0 1 0"/>
<feBlend mode="normal" in2="BackgroundImageFix" result="effect1_dropShadow"/>
<feBlend mode="normal" in="SourceGraphic" in2="effect1_dropShadow" result="shape"/>
</filter>
</defs>
</svg>
