<svg width="26" height="23" viewBox="0 0 26 23" fill="none" xmlns="http://www.w3.org/2000/svg">
<path d="M24.0609 13.5358L26.1948 4.19206C26.3488 3.51743 25.8336 2.875 25.1384 2.875H7.40864L6.9949 0.862051C6.8918 0.360318 6.44818 0 5.93355 0H1.3055C0.707185 0 0.222168 0.482686 0.222168 1.07812V1.79688C0.222168 2.39231 0.707185 2.875 1.3055 2.875H4.45994L7.63086 18.3027C6.87225 18.7369 6.36106 19.551 6.36106 20.4844C6.36106 21.8737 7.49278 23 8.88883 23C10.2849 23 11.4166 21.8737 11.4166 20.4844C11.4166 19.7803 11.1256 19.1441 10.6572 18.6875H20.1204C19.6521 19.1441 19.3611 19.7803 19.3611 20.4844C19.3611 21.8737 20.4928 23 21.8888 23C23.2849 23 24.4166 21.8737 24.4166 20.4844C24.4166 19.4884 23.8349 18.6277 22.9912 18.2201L23.2402 17.1296C23.3943 16.4549 22.879 15.8125 22.1838 15.8125H10.0677L9.77229 14.375H23.0045C23.5104 14.375 23.9488 14.0267 24.0609 13.5358Z" fill="#2B2B2B"/>
</svg>
