<svg width="28" height="31" viewBox="0 0 28 31" fill="none" xmlns="http://www.w3.org/2000/svg">
<g filter="url(#filter0_d)">
<path d="M12.5613 5.32322C14.006 8.2199 12.6729 10.4847 12.086 11.9051C14.4092 11.5382 16.2982 9.97151 18.8107 9.83024C19.8787 9.77019 21.6793 10.0128 22.6812 10.4668C24.5919 11.3328 25.9459 12.6253 26.406 14.951C27.5258 20.6112 22.0862 21.9205 18.5432 22.2983C14.99 22.6771 14.3864 22.0928 10.3841 22.7968C8.33144 23.1579 5.56982 24.124 4.28466 25.6277C3.20108 26.8956 2.75943 21.745 2.80689 20.7615C2.89339 18.9692 2.34066 16.0727 2.06541 14.2707C1.53406 10.7923 -0.239337 4.97786 4.89318 2.40522C7.82601 0.935121 11.1165 2.42655 12.5613 5.32322Z" fill="white"/>
<path d="M12.5613 5.32322C14.006 8.2199 12.6729 10.4847 12.086 11.9051C14.4092 11.5382 16.2982 9.97151 18.8107 9.83024C19.8787 9.77019 21.6793 10.0128 22.6812 10.4668C24.5919 11.3328 25.9459 12.6253 26.406 14.951C27.5258 20.6112 22.0862 21.9205 18.5432 22.2983C14.99 22.6771 14.3864 22.0928 10.3841 22.7968C8.33144 23.1579 5.56982 24.124 4.28466 25.6277C3.20108 26.8956 2.75943 21.745 2.80689 20.7615C2.89339 18.9692 2.34066 16.0727 2.06541 14.2707C1.53406 10.7923 -0.239337 4.97786 4.89318 2.40522C7.82601 0.935121 11.1165 2.42655 12.5613 5.32322Z" stroke="#2B2B2B" stroke-width="2" stroke-linecap="round" stroke-linejoin="round"/>
</g>
<defs>
<filter id="filter0_d" x="0.33667" y="0.827026" width="27.2185" height="30.0013" filterUnits="userSpaceOnUse" color-interpolation-filters="sRGB">
<feFlood flood-opacity="0" result="BackgroundImageFix"/>
<feColorMatrix in="SourceAlpha" type="matrix" values="0 0 0 0 0 0 0 0 0 0 0 0 0 0 0 0 0 0 127 0"/>
<feOffset dy="4"/>
<feColorMatrix type="matrix" values="0 0 0 0 0.960784 0 0 0 0 0.678431 0 0 0 0 0.721569 0 0 0 1 0"/>
<feBlend mode="normal" in2="BackgroundImageFix" result="effect1_dropShadow"/>
<feBlend mode="normal" in="SourceGraphic" in2="effect1_dropShadow" result="shape"/>
</filter>
</defs>
</svg>
