<svg xmlns="http://www.w3.org/2000/svg"  viewBox="0 0 64 64" width="64px" height="64px"><radialGradient id="iMgLtDcne2kF_7T~JXetga" cx="32.5" cy="32" r="31.751" gradientUnits="userSpaceOnUse" spreadMethod="reflect"><stop offset="0" stop-color="#edd7a1"/><stop offset=".258" stop-color="#f0dba9"/><stop offset=".667" stop-color="#f7e7c0"/><stop offset="1" stop-color="#fff3d8"/></radialGradient><path fill="url(#iMgLtDcne2kF_7T~JXetga)" d="M61.501,18.008H56c-1.1,0-2-0.9-2-2c0-1.1,0.9-2.008,2-2.008h3c1.85,0,3.32-1.69,2.94-3.6 C61.66,8.97,60.32,8,58.87,8H45.5C44.67,8,44,7.33,44,6.5C44,5.67,44.67,5,45.5,5h5.91c1.14,0,2.2-0.72,2.5-1.82 C54.36,1.52,53.1,0,51.5,0H7.59c-1.14,0-2.2,0.72-2.5,1.82C4.64,3.48,5.9,5,7.5,5h3c0.69,0,1.32,0.28,1.77,0.73 C12.72,6.18,13,6.81,13,7.5c0,1.38-1.12,2.5-2.5,2.5H4c-1.65,0-3,1.35-3,3c0,1.65,1.35,3,3,3h21c0.35,0,0.69-0.07,1-0.19V23 c0,0-10.282,19.859-10.05,21H5.5C3.025,44,1,46.025,1,48.5C1,50.975,3.025,53,5.5,53h19c1.38,0,2.5,1.12,2.5,2.5S25.88,58,24.5,58 H19c-1.66,0-3,1.34-3,3c0,1.66,1.34,3,3,3h40c1.66,0,3-1.34,3-3c0-1.66-1.34-3-3-3h-5.5c-1.38,0-2.5-1.12-2.5-2.5s1.12-2.5,2.5-2.5 h4c2.475,0,4.5-2.025,4.5-4.5c0-2.475-2.025-4.5-4.5-4.5H47.437C47.751,42.413,48.9,23,50,23h11.411c1.14,0,2.2-0.713,2.5-1.813 C64.351,19.527,63.091,18.008,61.501,18.008z"/><linearGradient id="iMgLtDcne2kF_7T~JXetgb" x1="245.618" x2="193.367" y1="225" y2="225" gradientTransform="rotate(90 225 32)" gradientUnits="userSpaceOnUse" spreadMethod="reflect"><stop offset="0" stop-color="#155cde"/><stop offset=".122" stop-color="#196ae1"/><stop offset=".509" stop-color="#2493e9"/><stop offset=".815" stop-color="#2bacee"/><stop offset="1" stop-color="#2eb5f0"/></linearGradient><path fill="url(#iMgLtDcne2kF_7T~JXetgb)" d="M6,48V16c0-1.657,1.343-3,3-3h46c1.657,0,3,1.343,3,3v32c0,1.657-1.343,3-3,3H9 C7.343,51,6,49.657,6,48z"/><path fill="#fff" d="M20.897 25.684l-3.113 9.285c0 0-.849-4.216-.933-4.746-1.903-4.341-4.71-4.099-4.71-4.099L15.45 39v-.003h3.344c.41 0 .778-.25.929-.631l4.768-11.996c.261-.657-.223-1.369-.929-1.369h-1.717C21.416 25.002 21.034 25.276 20.897 25.684zM25.473 39h1.633c.492 0 .911-.358.988-.844l1.894-11.999c.096-.607-.373-1.156-.988-1.156h-1.672c-.493 0-.913.36-.988.847l-1.854 11.999C24.392 38.454 24.86 39 25.473 39zM49.506 25.002h-2.367c-.4 0-.762.239-.919.606l-5.138 11.999C40.799 38.267 41.283 39 42.001 39h1.42c.417 0 .79-.259.937-.649l.505-1.35h4.576l.232 1.19C49.763 38.661 50.174 39 50.653 39h1.279c.632 0 1.105-.579.98-1.198l-2.426-11.999C50.391 25.337 49.981 25.002 49.506 25.002zM45.876 34.327l1.989-5.29 1.041 5.29H45.876zM35.58 29.083c0-.771.634-1.345 2.451-1.345.483 0 .994.143 1.43.313.586.228 1.236-.11 1.36-.726l.158-.784c.104-.518-.207-1.026-.717-1.164-.659-.178-1.599-.375-2.529-.375-3.842 0-5.823 1.838-5.823 4.164 0 4.207 5.064 3.631 5.064 5.792 0 .37-.294 1.227-2.403 1.227-1.039 0-1.905-.187-2.516-.377-.55-.171-1.124.181-1.25.743l-.19.849c-.113.507.174 1.017.671 1.172C31.948 38.777 32.99 39 34.397 39c2.62 0 6.255-1.96 6.255-4.775C40.652 30.839 35.58 30.595 35.58 29.083z"/><linearGradient id="iMgLtDcne2kF_7T~JXetgc" x1="13.672" x2="13.672" y1="32.567" y2="24.34" gradientUnits="userSpaceOnUse" spreadMethod="reflect"><stop offset="0" stop-color="#feaa53"/><stop offset=".612" stop-color="#ffcd49"/><stop offset="1" stop-color="#ffde44"/></linearGradient><path fill="url(#iMgLtDcne2kF_7T~JXetgc)" d="M17.341,32.567l-1.229-6.042c0,0-0.556-1.31-2.002-1.31h-3.755 c-0.377,0-0.492,0.513-0.147,0.665C12.452,26.864,16.193,28.99,17.341,32.567z"/></svg>