<svg width="205" height="206" viewBox="0 0 205 206" fill="none" xmlns="http://www.w3.org/2000/svg">
<path d="M88.4267 37.8092C83.6493 33.0086 79.8274 15.3322 83.6493 8.1661C87.4712 2.43322 91.9861 1 98.937 1C108.577 1 114.193 10.8905 116.136 19.6319C117.596 26.2018 119.407 32.3436 123.78 37.8092C128.376 43.5549 131.58 46.4753 135.245 53.0737C137.424 56.9954 138.112 59.762 139.545 64.5395C140.023 67.6956 140.665 68.9673 141.441 72.4601C143.076 79.816 146.711 86.5155 149.189 94.5501C150.248 97.9813 150.936 101.325 151.966 104.67C152.996 108.014 154.245 110.961 155.638 113.747C158.341 119.152 160.088 119.627 160.088 126.168C160.088 129.295 158.177 129.512 157.221 130.468C154.833 131.901 155.045 132.033 152.444 133.334C150.958 134.077 148.622 134.767 146.233 134.399C144.322 134.399 143.845 133.334 144.322 130.468C144.821 129.913 146.711 123.779 146.233 124.257C145.447 124.257 145.278 129.512 142.411 129.99C139.66 128.557 140.359 126.128 140.978 124.735C141.934 122.585 142.411 117.425 142.411 115.658C142.411 113.818 141.634 112.699 140.978 110.403C140.023 107.058 139.386 105.147 138.112 102.281C136.201 97.9813 135.705 95.0788 134.29 92.2484C131.328 86.3248 128.384 81.1345 126.646 75.0497M126.646 75.0497C126.168 73.3772 122.346 65.0172 122.346 65.0172C121.391 64.5394 125.64 72.4601 126.646 75.0497ZM126.646 75.0497C127.601 78.1038 128.206 85.5347 128.206 88.4265C128.206 92.0912 129.162 99.4145 128.206 104.67C127.29 109.71 126.923 112.238 125.213 115.658C123.731 118.621 121.799 122.623 120.435 125.69C117.966 131.246 116.75 135.17 114.225 140.5C106.103 161.686 100.37 170.12 95.1151 187.319C94.0933 190.663 90.2185 197.777 87.949 200.695C85.5314 203.804 81.8389 204.995 78.3942 204.995C70.7504 203.562 72.4482 200.218 60.7178 199.262C54.0292 199.262 39.697 197.351 39.697 190.663C39.697 183.975 51.6405 186.363 54.9847 186.363C59.2295 186.363 66.2214 188.208 69.3169 184.93C71.3398 182.788 73.5635 179.197 75.0498 175.853C76.9608 171.553 78.3046 167.178 79.3495 162.476C80.7827 158.654 82.4548 153.877 83.6491 150.055C86.0378 142.411 86.9933 138.111 90.3375 128.557C92.5112 122.346 92.6917 118.739 90.8152 111.358C90.0197 108.229 88.4265 104.67 87.471 100.37C86.1777 94.5501 85.7801 91.4306 85.5601 87.471C85.1756 80.5507 83.1714 71.2278 82.6936 64.5395C82.589 63.075 77.9162 71.2278 76.0053 73.1388C73.1388 76.0052 70.3868 79.235 67.8837 81.7381C64.8038 84.8179 61.3976 87.2687 58.3289 90.3374C55.9579 92.7084 54.507 97.1808 54.507 100.37" stroke="#2B2B2B" stroke-width="2" stroke-linecap="round" stroke-linejoin="round"/>
<g filter="url(#filter0_d)">
<path d="M190.185 151.488C188.752 149.099 186.634 146.858 185.885 145.277C185.136 143.696 187.796 151.01 186.841 160.565C184.452 158.654 183.974 151.488 179.675 145.277C178.242 150.055 177.764 155.787 177.286 161.998C177.286 163.329 165.343 139.818 171.075 147.188C174.42 151.488 167.254 140.022 165.343 126.168C164.51 120.132 163.76 116.135 164.51 108.491C165.588 97.5032 167.087 93.9372 168.687 90.3372C170.598 86.0375 176.009 79.8072 179.675 79.3491C188.752 78.2146 192.412 86.1512 195.44 95.5924C199.563 108.447 201.651 115.657 202.606 129.99C202.989 135.723 202.606 142.411 202.606 149.099C202.606 152.453 203.573 161.307 202.606 159.132C200.5 154.393 199.658 150.369 197.351 145.755C194.007 137.156 193.052 131.114 193.052 132.856C192.096 140.978 195.44 153.399 194.007 158.654C192.574 157.594 192.39 154.354 190.185 151.488Z" fill="#5E60B3"/>
<path d="M190.185 151.488L189.328 152.002C189.347 152.035 189.369 152.067 189.392 152.097L190.185 151.488ZM202.606 159.132L201.693 159.538L202.606 159.132ZM202.606 129.99L201.609 130.056L202.606 129.99ZM164.51 108.491L163.515 108.394H163.515L164.51 108.491ZM165.343 126.168L166.333 126.031L165.343 126.168ZM171.075 147.188L170.286 147.802H170.286L171.075 147.188ZM177.286 161.998L176.289 161.921C176.287 161.947 176.286 161.972 176.286 161.998H177.286ZM179.675 145.277L180.497 144.708C180.278 144.392 179.898 144.229 179.518 144.289C179.139 144.35 178.827 144.622 178.717 144.99L179.675 145.277ZM186.841 160.565L186.216 161.346C186.502 161.575 186.891 161.629 187.229 161.487C187.566 161.345 187.799 161.029 187.836 160.664L186.841 160.565ZM193.052 132.856L194.045 132.973C194.049 132.934 194.052 132.895 194.052 132.856H193.052ZM197.351 145.755L196.419 146.117C196.43 146.146 196.443 146.174 196.457 146.202L197.351 145.755ZM194.007 158.654L193.412 159.458C193.678 159.654 194.023 159.707 194.335 159.599C194.647 159.491 194.885 159.235 194.972 158.917L194.007 158.654ZM195.44 95.5924L194.488 95.8978L195.44 95.5924ZM179.675 79.3491L179.551 78.3568L179.551 78.3568L179.675 79.3491ZM168.687 90.3372L169.601 90.7433L168.687 90.3372ZM184.982 145.705C185.41 146.61 186.202 147.657 186.982 148.684C187.793 149.753 188.645 150.864 189.328 152.002L191.043 150.973C190.292 149.723 189.368 148.519 188.575 147.475C187.751 146.389 187.109 145.525 186.789 144.849L184.982 145.705ZM201.693 159.538C201.761 159.692 201.861 159.896 202.006 160.064C202.075 160.145 202.222 160.3 202.457 160.394C202.749 160.511 203.101 160.503 203.406 160.315C203.652 160.165 203.773 159.955 203.824 159.853C203.882 159.737 203.915 159.624 203.936 159.543C203.977 159.377 203.998 159.197 204.011 159.032C204.062 158.379 204.027 157.305 203.968 156.138C203.844 153.719 203.606 150.744 203.606 149.099H201.606C201.606 150.808 201.852 153.937 201.97 156.24C202.031 157.434 202.057 158.375 202.017 158.875C202.013 158.932 202.008 158.977 202.003 159.011C201.998 159.045 201.995 159.06 201.995 159.059C201.995 159.058 201.997 159.049 202.002 159.035C202.007 159.02 202.017 158.994 202.034 158.96C202.058 158.912 202.148 158.74 202.362 158.61C202.634 158.443 202.95 158.437 203.202 158.538C203.398 158.617 203.502 158.737 203.526 158.764C203.578 158.825 203.572 158.843 203.52 158.726L201.693 159.538ZM203.606 149.099C203.606 142.499 203.989 135.696 203.604 129.923L201.609 130.056C201.988 135.749 201.606 142.322 201.606 149.099H203.606ZM163.515 108.394C162.752 116.17 163.521 120.278 164.352 126.304L166.333 126.031C165.499 119.986 164.768 116.1 165.505 108.589L163.515 108.394ZM171.865 146.574C171.497 146.101 171.181 145.728 170.916 145.456C170.784 145.321 170.65 145.196 170.516 145.092C170.397 145.001 170.211 144.872 169.978 144.803C169.717 144.727 169.247 144.697 168.868 145.071C168.57 145.364 168.531 145.727 168.522 145.867C168.501 146.189 168.583 146.552 168.663 146.844C169.003 148.09 170 150.377 171.127 152.756C172.269 155.167 173.591 157.767 174.63 159.685C175.148 160.641 175.604 161.444 175.938 161.974C176.095 162.224 176.259 162.468 176.404 162.633C176.444 162.677 176.501 162.738 176.572 162.797C176.619 162.836 176.78 162.969 177.025 163.026C177.165 163.058 177.376 163.076 177.607 162.992C177.849 162.904 178.016 162.742 178.118 162.584C178.287 162.322 178.286 162.061 178.286 161.998H176.286C176.286 161.977 176.28 161.745 176.437 161.501C176.533 161.352 176.693 161.196 176.926 161.111C177.15 161.03 177.35 161.048 177.479 161.078C177.701 161.13 177.835 161.246 177.849 161.258C177.87 161.275 177.885 161.289 177.891 161.296C177.895 161.3 177.898 161.303 177.9 161.305C177.901 161.306 177.902 161.307 177.902 161.308C177.902 161.308 177.902 161.307 177.901 161.305C177.899 161.304 177.898 161.302 177.895 161.299C177.891 161.294 177.885 161.286 177.877 161.275C177.861 161.255 177.841 161.227 177.816 161.191C177.766 161.119 177.704 161.026 177.63 160.909C177.333 160.436 176.901 159.679 176.389 158.733C175.368 156.847 174.062 154.28 172.935 151.9C171.793 149.49 170.878 147.363 170.592 146.316C170.515 146.035 170.52 145.956 170.518 145.997C170.518 145.997 170.511 146.259 170.272 146.494C169.951 146.811 169.564 146.766 169.415 146.723C169.293 146.687 169.245 146.637 169.293 146.675C169.327 146.701 169.39 146.756 169.485 146.853C169.675 147.047 169.938 147.354 170.286 147.802L171.865 146.574ZM164.352 126.304C165.324 133.35 167.628 139.768 169.25 143.855C170.083 145.952 170.69 147.328 170.912 147.985C170.975 148.174 170.956 148.165 170.953 148.07C170.951 148.035 170.95 147.938 170.983 147.814C171.017 147.689 171.113 147.447 171.373 147.272C171.646 147.087 171.927 147.091 172.089 147.121C172.239 147.149 172.34 147.205 172.375 147.226C172.474 147.285 172.48 147.319 172.334 147.153C172.223 147.027 172.07 146.838 171.865 146.574L170.286 147.802C170.499 148.076 170.681 148.302 170.832 148.473C170.947 148.605 171.14 148.82 171.36 148.949C171.426 148.988 171.553 149.055 171.724 149.087C171.909 149.122 172.207 149.122 172.493 148.929C172.767 148.743 172.873 148.486 172.913 148.338C172.953 148.191 172.954 148.065 172.951 147.995C172.942 147.757 172.859 147.501 172.807 147.347C172.565 146.63 171.889 145.08 171.109 143.117C169.507 139.082 167.272 132.839 166.333 126.031L164.352 126.304ZM178.283 162.075C178.763 155.839 179.236 150.219 180.633 145.565L178.717 144.99C177.247 149.89 176.765 155.736 176.289 161.921L178.283 162.075ZM178.853 145.846C180.916 148.826 182.073 152.052 183.028 154.856C183.498 156.237 183.932 157.556 184.4 158.64C184.86 159.706 185.417 160.707 186.216 161.346L187.466 159.784C187.07 159.468 186.672 158.856 186.236 157.847C185.808 156.856 185.406 155.637 184.921 154.211C183.965 151.402 182.734 147.939 180.497 144.708L178.853 145.846ZM187.836 160.664C188.325 155.774 187.889 151.466 187.428 148.587C187.198 147.147 186.96 146.059 186.832 145.449C186.799 145.295 186.776 145.181 186.761 145.099C186.738 144.98 186.752 145.017 186.751 145.1C186.75 145.122 186.75 145.229 186.709 145.362C186.685 145.442 186.514 145.951 185.921 146.048C185.434 146.128 185.122 145.83 185.102 145.812C185.024 145.741 184.978 145.676 184.967 145.661C184.93 145.608 184.927 145.591 184.982 145.705L186.789 144.849C186.75 144.766 186.681 144.62 186.6 144.506C186.578 144.475 186.522 144.399 186.436 144.321C186.407 144.296 186.089 143.994 185.597 144.075C184.999 144.173 184.824 144.687 184.797 144.776C184.753 144.918 184.751 145.038 184.751 145.076C184.749 145.227 184.781 145.394 184.794 145.465C184.814 145.573 184.843 145.709 184.875 145.861C185.004 146.477 185.232 147.518 185.453 148.903C185.897 151.675 186.312 155.801 185.846 160.465L187.836 160.664ZM194.052 132.856C194.052 132.752 194.056 132.741 194.051 132.776C194.049 132.789 194.043 132.82 194.032 132.86C194.022 132.895 193.997 132.976 193.941 133.071C193.892 133.157 193.761 133.351 193.498 133.469C193.19 133.608 192.885 133.561 192.675 133.463C192.499 133.38 192.395 133.267 192.355 133.222C192.308 133.167 192.279 133.121 192.267 133.099C192.241 133.057 192.232 133.031 192.237 133.043C192.245 133.063 192.265 133.117 192.298 133.224C192.434 133.661 192.647 134.48 192.984 135.695C193.645 138.079 194.73 141.774 196.419 146.117L198.283 145.392C196.628 141.136 195.563 137.511 194.911 135.16C194.591 134.007 194.356 133.105 194.208 132.63C194.17 132.509 194.129 132.386 194.086 132.282C194.066 132.232 194.033 132.157 193.987 132.08C193.964 132.041 193.925 131.98 193.869 131.915C193.82 131.858 193.708 131.738 193.523 131.652C193.305 131.549 192.993 131.503 192.677 131.645C192.408 131.766 192.27 131.967 192.214 132.063C192.108 132.244 192.082 132.421 192.075 132.463C192.054 132.596 192.052 132.743 192.052 132.856H194.052ZM194.972 158.917C195.374 157.444 195.425 155.551 195.327 153.5C195.228 151.432 194.97 149.1 194.702 146.718C194.16 141.899 193.583 136.894 194.045 132.973L192.058 132.739C191.564 136.94 192.182 142.206 192.715 146.942C192.984 149.337 193.234 151.603 193.329 153.596C193.425 155.606 193.357 157.236 193.042 158.391L194.972 158.917ZM196.457 146.202C197.58 148.449 198.35 150.558 199.11 152.727C199.867 154.887 200.619 157.123 201.693 159.538L203.52 158.726C202.487 156.402 201.765 154.256 200.998 152.066C200.234 149.885 199.429 147.675 198.246 145.308L196.457 146.202ZM203.604 129.923C202.641 115.474 200.526 108.175 196.392 95.2869L194.488 95.8978C198.6 108.719 200.661 115.841 201.609 130.056L203.604 129.923ZM196.392 95.2869C194.879 90.5682 193.162 86.0604 190.605 82.8785C189.315 81.272 187.79 79.9758 185.944 79.1652C184.093 78.3523 181.978 78.0535 179.551 78.3568L179.799 80.3413C181.911 80.0774 183.657 80.3452 185.14 80.9964C186.627 81.6498 187.909 82.7151 189.046 84.1311C191.346 86.9942 192.973 91.1753 194.488 95.8978L196.392 95.2869ZM179.551 78.3568C178.41 78.4994 177.23 79.0714 176.118 79.8277C174.991 80.5937 173.858 81.6009 172.799 82.7129C170.688 84.9285 168.785 87.6544 167.773 89.9311L169.601 90.7433C170.5 88.7204 172.257 86.1812 174.247 84.0923C175.238 83.052 176.264 82.1469 177.243 81.4816C178.236 80.8064 179.107 80.4278 179.799 80.3413L179.551 78.3568ZM167.773 89.9311C166.128 93.6319 164.603 97.3023 163.515 108.394L165.505 108.589C166.574 97.704 168.045 94.2425 169.601 90.7433L167.773 89.9311ZM189.392 152.097C190.396 153.403 190.95 154.803 191.452 156.108C191.696 156.741 191.942 157.39 192.224 157.944C192.506 158.498 192.872 159.058 193.412 159.458L194.602 157.85C194.425 157.72 194.231 157.478 194.006 157.036C193.782 156.595 193.576 156.057 193.319 155.389C192.819 154.092 192.178 152.439 190.978 150.878L189.392 152.097Z" fill="#2B2B2B"/>
</g>
<path d="M156.743 114.702C158.959 113.805 161.521 113.269 163.432 113.269" stroke="#2B2B2B" stroke-width="2" stroke-linecap="round" stroke-linejoin="round"/>
<path d="M158.654 118.046C159.457 117.89 163.033 117.888 163.432 117.091" stroke="#2B2B2B" stroke-width="2" stroke-linecap="round" stroke-linejoin="round"/>
<path d="M159.704 122.378C159.194 122.589 158.952 123.174 159.164 123.684C159.375 124.194 159.96 124.437 160.47 124.225L159.704 122.378ZM162.984 123.24C163.478 123.488 164.079 123.287 164.326 122.793C164.573 122.299 164.373 121.699 163.879 121.452L162.984 123.24ZM159.704 126.2C159.194 126.411 158.952 126.996 159.164 127.506C159.375 128.016 159.96 128.259 160.471 128.047L159.704 126.2ZM163.678 126.874C164.068 127.265 164.701 127.266 165.093 126.877C165.484 126.487 165.485 125.854 165.096 125.462L163.678 126.874ZM160.47 124.225C160.755 124.107 161.066 123.946 161.335 123.807C161.622 123.66 161.887 123.526 162.144 123.419C162.729 123.175 162.94 123.218 162.984 123.24L163.879 121.452C162.968 120.996 161.985 121.319 161.375 121.573C161.035 121.715 160.703 121.884 160.422 122.028C160.125 122.181 159.897 122.298 159.704 122.378L160.47 124.225ZM160.471 128.047C160.825 127.9 161.222 127.625 161.513 127.429C161.852 127.202 162.166 126.995 162.48 126.842C162.796 126.689 163.031 126.633 163.202 126.638C163.334 126.641 163.486 126.68 163.678 126.874L165.096 125.462C164.553 124.917 163.918 124.656 163.256 124.638C162.632 124.621 162.063 124.822 161.607 125.043C161.15 125.265 160.725 125.549 160.398 125.769C160.024 126.02 159.828 126.148 159.704 126.2L160.471 128.047Z" fill="#2B2B2B"/>
<path d="M83.9346 17.3442C84.9615 17.4191 85.808 17.5302 86.7452 17.7708C87.2054 17.8889 87.6422 18.0579 88.1407 18.0976" stroke="#2B2B2B" stroke-width="2" stroke-linecap="round" stroke-linejoin="round"/>
<path d="M92.7261 16.7655C94.0266 15.6717 95.1718 14.7541 96.863 14.1266C97.6042 13.8515 99.0717 13.5032 99.4144 12.9436" stroke="#2B2B2B" stroke-width="2" stroke-linecap="round" stroke-linejoin="round"/>
<path d="M94.2154 19.6318C95.2613 20.9706 95.5675 19.6318 95.0161 19.6318C94.337 19.6318 94.2052 20.2597 93.6816 20.5215" stroke="#2B2B2B" stroke-width="2" stroke-linecap="round" stroke-linejoin="round"/>
<path d="M87.8803 21.5427C87.8803 21.5427 89.677 22.2989 89.2937 20.9574C89.1834 20.5714 88.0894 21.0365 87.8801 21.0365" stroke="#2B2B2B" stroke-width="2" stroke-linecap="round" stroke-linejoin="round"/>
<path d="M88.4265 31.5756C91.2898 29.9394 94.1297 28.2314 97.5036 28.2314C100.341 28.2314 103.712 29.4247 106.103 30.6201" stroke="#2B2B2B" stroke-width="2" stroke-linecap="round" stroke-linejoin="round"/>
<path d="M84.5365 34.3137C81.7982 38.7762 78.8342 41.6829 76.4829 46.3854C74.7679 49.8156 70.8937 54.208 68.3614 57.3734C66.4504 59.7621 64.5492 62.3523 62.1507 65.0173C59.826 67.6003 57.3649 70.6705 54.9846 73.1389C51.7255 76.5187 50.0659 80.7104 46.8829 84.0703C44.9459 86.1149 42.6602 89.0948 40.1747 90.3375" stroke="#2B2B2B" stroke-width="2" stroke-linecap="round" stroke-linejoin="round"/>
<path d="M40.1747 90.3375C38.8644 90.0498 37.8818 88.7664 36.8305 87.9488C36.3785 87.5972 35.1628 86.9512 34.78 86.7598" stroke="#2B2B2B" stroke-width="2" stroke-linecap="round" stroke-linejoin="round"/>
<path d="M29.6643 91.293C32.053 91.7707 34.1066 93.753 35.8749 94.6372" stroke="#2B2B2B" stroke-width="2" stroke-linecap="round" stroke-linejoin="round"/>
<path d="M57.6411 91.7708C58.0414 93.8222 58.3288 98.9369 57.6412 101.326" stroke="#2B2B2B" stroke-width="2" stroke-linecap="round" stroke-linejoin="round"/>
<path d="M54.5068 99.8923C57.851 102.281 58.9595 102.558 61.1952 104.67C62.5341 105.934 64.1426 106.821 65.5416 107.94C66.2584 108.513 70.7744 113.114 71.7055 113.269" stroke="#2B2B2B" stroke-width="2" stroke-linecap="round" stroke-linejoin="round"/>
<g filter="url(#filter1_d)">
<path d="M77.0657 110.88C73.8719 109.925 70.2725 114.224 65.9727 118.524C63.584 121.868 65.22 124.11 67.4059 124.735C68.2022 124.962 70.2724 125.212 72.1833 123.779C76.0052 120.913 82.6936 114.224 77.0657 110.88Z" fill="#5E60B3"/>
<path d="M77.0657 110.88C73.8719 109.925 70.2725 114.224 65.9727 118.524C63.584 121.868 65.22 124.11 67.4059 124.735C68.2022 124.962 70.2724 125.212 72.1833 123.779C76.0052 120.913 82.6936 114.224 77.0657 110.88Z" stroke="#2B2B2B" stroke-width="2" stroke-linecap="round" stroke-linejoin="round"/>
</g>
<path d="M51.6404 107.536C54.4883 109.273 56.9759 111.406 59.5409 113.401C60.557 114.191 64.5394 116.613 65.4948 118.046" stroke="#2B2B2B" stroke-width="2" stroke-linecap="round" stroke-linejoin="round"/>
<path d="M36.8305 94.637C38.5466 93.6836 39.1765 92.1364 40.1591 90.4578C40.455 89.5701 43.2649 89.5667 44.3428 90.6446C44.6953 90.9971 44.7456 93.5125 44.3615 93.8198C42.2029 95.5467 40.724 98.5115 38.1419 99.946C36.8305 100.675 34.4418 101.325 34.4418 98.9367C34.4418 97.5378 35.5458 95.3507 36.8305 94.637Z" stroke="#2B2B2B" stroke-width="2" stroke-linecap="round" stroke-linejoin="round"/>
<path d="M44.9521 93.2042C47.3248 93.2042 50.9543 92.4761 49.2364 96.3415C48.4114 98.1978 47.2946 98.5053 45.9075 99.8924C44.671 101.129 41.6153 104.192 39.6969 104.192C37.5328 104.192 38.7414 101.143 38.7414 99.4146" stroke="#2B2B2B" stroke-width="2" stroke-linecap="round" stroke-linejoin="round"/>
<path d="M49.7295 96.0701C52.5922 96.0701 52.5985 96.9739 52.5985 100.039C52.5985 102.856 50.2862 102.952 48.5642 104.578C46.8702 106.178 45.4298 108.014 43.5189 107.536C41.6079 106.58 42.3392 103.916 42.8489 102.897" stroke="#2B2B2B" stroke-width="2" stroke-linecap="round" stroke-linejoin="round"/>
<path d="M52.5959 100.848C54.1564 100.848 55.2712 100.465 55.9401 101.803C56.3714 102.666 54.3512 103.784 54.0291 104.67C53.535 106.029 51.9988 107.908 50.685 108.492C49.7174 108.922 47.8185 110.403 46.863 109.925C45.9076 109.447 46.3853 107.196 46.3853 106.581" stroke="#2B2B2B" stroke-width="2" stroke-linecap="round" stroke-linejoin="round"/>
<path d="M45.9076 111.852C48.8136 111.852 52.3788 112.949 55.0357 111.552C57.3327 110.344 59.3277 114.702 60.7175 114.702" stroke="#2B2B2B" stroke-width="2" stroke-linecap="round" stroke-linejoin="round"/>
<path d="M61.1953 114.702C59.4833 117.578 58.2652 120.913 55.9602 124.675C52.1182 130.945 47.8185 137.634 43.9966 143.844C41.9486 146.68 36.3528 158.654 33.8461 162.067C33.8461 161.521 33.4863 149.1 33.4863 146.711C33.4863 145.024 33.0086 140.058 33.0086 138.589C33.0086 137.634 29.1867 147.189 27.2757 151.966C26.987 152.688 23.9478 160.512 23.9315 160.088C23.8574 158.161 24.65 134.687 23.9315 134.767C23.213 134.847 16.7654 143.745 13.899 146.711C12.0547 148.619 6.9458 154.584 7.21062 153.326C7.59753 151.488 9.33969 148.619 11.0325 144.322C11.988 141.897 11.9566 138.589 11.5827 139.067C10.1163 140.941 1 148.144 1 147.666C2.34582 145.389 6.66452 133.812 8.16599 130.945C13.4211 120.913 17.9074 111.463 20.5872 106.103C22.4982 102.281 28.7088 93.2039 30.142 91.293" stroke="#2B2B2B" stroke-width="2" stroke-linecap="round" stroke-linejoin="round"/>
<path d="M36.8306 79.3494C40.6525 75.5275 42.5634 73.6165 46.3854 72.1832C48.7741 71.2875 51.6405 71.2278 54.507 73.1388" stroke="#2B2B2B" stroke-width="2" stroke-linecap="round" stroke-linejoin="round"/>
<path d="M65.3737 84.6047C66.4502 86.9934 66.9282 89.3821 67.3906 93.2041C67.726 95.976 67.8837 97.9815 67.3906 100.37C66.9665 102.425 66.4504 105.148 65.3737 107.536" stroke="#2B2B2B" stroke-width="2" stroke-linecap="round" stroke-linejoin="round"/>
<path d="M105.147 162.476C107.779 166.727 118.524 181.586 113.747 185.885C110.86 188.484 103.718 191.943 106.58 196.396C113.269 202.606 130.945 201.173 134.767 198.784C138.589 196.396 142.411 185.575 142.411 181.586C142.411 178.974 138.831 171.952 137.634 169.642C134.574 163.742 134.767 161.998 131.901 155.788C129.034 149.577 127.601 146.233 125.212 140.022C124.268 135.704 121.351 131.306 119.957 127.123" stroke="#2B2B2B" stroke-width="2" stroke-linecap="round" stroke-linejoin="round"/>
<path d="M50.6854 197.829C50.6854 195.447 48.7743 196.396 50.6852 193.529" stroke="#2B2B2B" stroke-width="2" stroke-linecap="round" stroke-linejoin="round"/>
<path d="M54.0294 198.785C54.0294 197.485 53.0737 196.396 54.0294 194.963" stroke="#2B2B2B" stroke-width="2" stroke-linecap="round" stroke-linejoin="round"/>
<path d="M44.3659 195.918C44.7958 194.724 43.6184 193.986 44.3659 193.052C44.8177 192.487 45.4304 191.618 45.9077 191.141" stroke="#2B2B2B" stroke-width="2" stroke-linecap="round" stroke-linejoin="round"/>
<path d="M115.18 199.74C114.613 198.339 114.224 197.871 114.224 196.396C114.224 195.307 114.741 194.485 116.135 193.529" stroke="#2B2B2B" stroke-width="2" stroke-linecap="round" stroke-linejoin="round"/>
<path d="M118.625 200.548C118.625 198.643 118.211 196.179 119.058 194.485" stroke="#2B2B2B" stroke-width="2" stroke-linecap="round" stroke-linejoin="round"/>
<path d="M122.996 200.153C122.955 198.358 122.346 196.678 122.346 194.871C122.346 194.106 122.346 193.34 122.346 192.574" stroke="#2B2B2B" stroke-width="2" stroke-linecap="round" stroke-linejoin="round"/>
<path d="M127.124 200.217C125.69 198.784 126.316 196.859 125.912 195.18" stroke="#2B2B2B" stroke-width="2" stroke-linecap="round" stroke-linejoin="round"/>
<path d="M196.266 97.1321C197.951 96.4081 199.634 95.4477 201.391 94.9068C201.881 94.7559 202.813 94.4714 203.108 94.1678" stroke="#2B2B2B" stroke-width="2" stroke-linecap="round" stroke-linejoin="round"/>
<path d="M197.829 101.913C198.7 101.017 200.492 99.4686 201.672 99.0039C202.389 98.7217 202.75 97.3286 203.374 97.2253" stroke="#2B2B2B" stroke-width="2" stroke-linecap="round" stroke-linejoin="round"/>
<path d="M198.784 107.043C199.146 106 199.878 103.884 200.687 103.075C201.102 102.66 202.664 101.984 203.025 101.803" stroke="#2B2B2B" stroke-width="2" stroke-linecap="round" stroke-linejoin="round"/>
<g filter="url(#filter2_d)">
<path d="M34.4422 86.9932C32.422 89.0134 31.898 89.4954 29.6647 91.2929C28.0704 92.3578 26.7435 92.708 25.3647 92.2484C22.4986 91.2929 22.8582 87.1111 23.9316 86.0377C25.0689 84.9004 32.2066 77.6936 35.3975 78.8716C36.8307 79.4007 37.7862 80.3746 37.7862 82.2158C37.7862 84.2852 35.747 85.6884 34.4422 86.9932Z" fill="#5E60B3"/>
<path d="M34.4422 86.9932C32.422 89.0134 31.898 89.4954 29.6647 91.2929C28.0704 92.3578 26.7435 92.708 25.3647 92.2484C22.4986 91.2929 22.8582 87.1111 23.9316 86.0377C25.0689 84.9004 32.2066 77.6936 35.3975 78.8716C36.8307 79.4007 37.7862 80.3746 37.7862 82.2158C37.7862 84.2852 35.747 85.6884 34.4422 86.9932Z" stroke="#2B2B2B" stroke-width="2" stroke-linecap="round" stroke-linejoin="round"/>
</g>
<defs>
<filter id="filter0_d" x="163.202" y="78.2407" width="40.8342" height="88.8119" filterUnits="userSpaceOnUse" color-interpolation-filters="sRGB">
<feFlood flood-opacity="0" result="BackgroundImageFix"/>
<feColorMatrix in="SourceAlpha" type="matrix" values="0 0 0 0 0 0 0 0 0 0 0 0 0 0 0 0 0 0 127 0"/>
<feOffset dy="4"/>
<feColorMatrix type="matrix" values="0 0 0 0 0.368627 0 0 0 0 0.376471 0 0 0 0 0.701961 0 0 0 1 0"/>
<feBlend mode="normal" in2="BackgroundImageFix" result="effect1_dropShadow"/>
<feBlend mode="normal" in="SourceGraphic" in2="effect1_dropShadow" result="shape"/>
</filter>
<filter id="filter1_d" x="63.7937" y="109.744" width="16.4365" height="20.1653" filterUnits="userSpaceOnUse" color-interpolation-filters="sRGB">
<feFlood flood-opacity="0" result="BackgroundImageFix"/>
<feColorMatrix in="SourceAlpha" type="matrix" values="0 0 0 0 0 0 0 0 0 0 0 0 0 0 0 0 0 0 127 0"/>
<feOffset dy="4"/>
<feColorMatrix type="matrix" values="0 0 0 0 0.368627 0 0 0 0 0.376471 0 0 0 0 0.701961 0 0 0 1 0"/>
<feBlend mode="normal" in2="BackgroundImageFix" result="effect1_dropShadow"/>
<feBlend mode="normal" in="SourceGraphic" in2="effect1_dropShadow" result="shape"/>
</filter>
<filter id="filter2_d" x="22.1426" y="77.7417" width="16.6436" height="19.7052" filterUnits="userSpaceOnUse" color-interpolation-filters="sRGB">
<feFlood flood-opacity="0" result="BackgroundImageFix"/>
<feColorMatrix in="SourceAlpha" type="matrix" values="0 0 0 0 0 0 0 0 0 0 0 0 0 0 0 0 0 0 127 0"/>
<feOffset dy="4"/>
<feColorMatrix type="matrix" values="0 0 0 0 0.368627 0 0 0 0 0.376471 0 0 0 0 0.701961 0 0 0 1 0"/>
<feBlend mode="normal" in2="BackgroundImageFix" result="effect1_dropShadow"/>
<feBlend mode="normal" in="SourceGraphic" in2="effect1_dropShadow" result="shape"/>
</filter>
</defs>
</svg>
