<svg width="283" height="245" viewBox="0 0 283 245" fill="none" xmlns="http://www.w3.org/2000/svg">
<path d="M182.017 149.785C185.145 154.712 185.216 160.044 187.538 165.358C189.612 172.058 191.293 175.076 193.233 182.972C193.672 186.596 197.143 193.115 196.939 196.725C196.799 199.182 195.654 204.546 195.372 207.055C195.009 210.28 195.056 213.453 196.913 214.907C198.769 216.361 206.04 217.069 208.746 217.484C211.322 217.878 215.251 219.396 217.793 219.682C220.238 219.957 223.38 220.311 224.682 219.277C225.382 218.32 224.157 216.295 222.677 215.786C218.207 214.252 210.845 209.605 209.344 204.991C208.028 195.144 208.513 182.562 207.435 175.276C206.264 167.357 204.996 164.991 204.044 158.73C203.356 154.207 201.128 147.373 201.397 147.403" stroke="#2B2B2B" stroke-width="2" stroke-linecap="round" stroke-linejoin="round"/>
<path d="M162.608 150.277C162.067 155.831 161.01 158.389 159.071 163.689C156.031 171.999 154.52 182.251 151.007 188.322C149.716 190.554 147.844 198.473 147.575 200.867C147.26 203.66 152.533 207.083 155.945 209.083C157.855 210.203 158.566 212.231 157.406 212.425C156.389 212.596 154.344 212.532 152 211.817C148.093 210.624 146.629 209.651 142.596 209.197C139.976 208.902 137.762 209.057 134.939 209.008C133.154 208.977 131.648 209.526 129.667 208.415C128.629 207.625 129.661 204.259 129.876 203.724C131.257 200.297 133.861 197.774 134.99 194.197C136.384 189.781 138.549 186.515 140.418 181.876C143.222 174.918 145.719 168.81 148.26 162.473C149.897 158.388 151.769 152.839 152.262 148.456" stroke="#2B2B2B" stroke-width="2" stroke-linecap="round" stroke-linejoin="round"/>
<path d="M204.06 147.821C201.138 147.492 199.683 147.21 196.343 148.164C191.375 149.222 190.977 150.793 186.406 150.279C185.907 150.223 181.249 149.708 180.883 150.072C180.124 150.829 179.386 150.723 179.186 149.663C178.861 147.936 177.403 143.166 176.041 141.838C175.531 141.34 175.187 144.397 175.06 145.528C174.996 146.092 173.921 150.061 173.502 150.039C170.857 149.897 167.985 149.198 165.423 150.007C160.108 150.552 155.845 149.575 151.456 148.435C150.774 148.258 143.172 148.063 143.076 147.492C142.97 146.864 142.893 143.521 143.179 142.988C146.018 137.698 146.156 134.294 146.814 128.445C146.98 126.973 148.115 122.605 147.623 121.262" stroke="#2B2B2B" stroke-width="2" stroke-linecap="round" stroke-linejoin="round"/>
<path d="M156.191 99.1926C157.976 99.3936 160.026 99.0636 161.757 98.8785C166.268 98.3959 170.01 98.0141 174.981 98.5737C177.93 98.9056 180.896 98.3365 183.731 98.6555C185.754 98.8833 188.069 98.1251 189.717 99.3294C190.35 99.7922 191.739 100.849 192.609 102.351C192.606 104.791 191.701 106.827 192.23 109.311C192.935 112.623 195.148 115.701 194.918 121.333C195.531 126.655 197.741 132.157 199.022 135.13C202.075 140.323 201.628 143.542 204.06 147.821" stroke="#2B2B2B" stroke-width="2" stroke-linecap="round" stroke-linejoin="round"/>
<path d="M196.893 215.077C191.928 214.518 184.364 213.09 179.399 212.531C171.489 211.641 165.818 211.579 158.069 210.706" stroke="#2B2B2B" stroke-width="2" stroke-linecap="round" stroke-linejoin="round"/>
<path d="M129.028 207.67C121.256 206.795 114.274 207.134 106.556 206.266C104.691 206.056 100.181 205.54 98.4754 206.251C93.8113 208.196 107.879 212.159 109.509 212.343C113.986 212.846 121.824 213.729 126.269 214.229C131.854 214.858 137.842 215.532 145.424 216.385C150.213 216.924 159.391 217.957 166.973 218.811C173.358 219.53 182.407 221.356 193.62 222.619C203.352 223.714 212.575 225.156 222.307 226.252C228.968 227.002 238.269 228.049 245.452 228.857C251.881 229.177 253.992 229.553 254.81 228.294C255.788 226.788 253.901 225.373 253.174 224.877C250.116 223.32 246.525 222.916 242.978 222.113C240.22 221.488 227.414 219.752 224.757 218.849" stroke="#2B2B2B" stroke-width="2" stroke-linecap="round" stroke-linejoin="round"/>
<g filter="url(#filter0_d)">
<path d="M213.303 227.259C211.21 226.905 210.712 228.473 210.948 230.227C211.114 231.458 211.944 232.558 212.629 233.245C213.319 233.937 215.195 233.533 215.602 231.963C216.316 229.214 214.336 227.434 213.303 227.259Z" fill="#AECEA6"/>
<path d="M213.303 227.259C211.21 226.905 210.712 228.473 210.948 230.227C211.114 231.458 211.944 232.558 212.629 233.245C213.319 233.937 215.195 233.533 215.602 231.963C216.316 229.214 214.336 227.434 213.303 227.259Z" stroke="#2B2B2B" stroke-width="2" stroke-linecap="round" stroke-linejoin="round"/>
</g>
<g filter="url(#filter1_d)">
<path d="M207.038 236.656C207.571 235.1 207.965 233.633 207.532 232.266C206.901 230.281 206.61 229.623 205.851 228.844C205.092 228.066 203.945 227.822 202.349 227.642C199.954 227.372 198.817 230.304 198.573 232.471C198.26 235.246 200.745 239.157 203.929 238.731C205.571 238.512 206.268 237.709 207.038 236.656Z" fill="#AECEA6"/>
<path d="M207.038 236.656C207.571 235.1 207.965 233.633 207.532 232.266C206.901 230.281 206.61 229.623 205.851 228.844C205.092 228.066 203.945 227.822 202.349 227.642C199.954 227.372 198.817 230.304 198.573 232.471C198.26 235.246 200.745 239.157 203.929 238.731C205.571 238.512 206.268 237.709 207.038 236.656Z" stroke="#2B2B2B" stroke-width="2" stroke-linecap="round" stroke-linejoin="round"/>
</g>
<g filter="url(#filter2_d)">
<path d="M130.379 224.39C133.437 225.947 133.841 222.355 133.576 221.113C133.312 219.871 132.34 217.741 131.143 217.606C129.945 217.472 128.571 218.276 128.434 220.13C128.292 222.048 128.917 223.013 130.379 224.39Z" fill="#AECEA6"/>
<path d="M130.379 224.39C133.437 225.947 133.841 222.355 133.576 221.113C133.312 219.871 132.34 217.741 131.143 217.606C129.945 217.472 128.571 218.276 128.434 220.13C128.292 222.048 128.917 223.013 130.379 224.39Z" stroke="#2B2B2B" stroke-width="2" stroke-linecap="round" stroke-linejoin="round"/>
</g>
<g filter="url(#filter3_d)">
<path d="M119.51 227.612C122.303 227.926 124.052 226.743 124.438 223.317C124.618 221.721 124.526 219.565 123.735 218.793C122.643 217.727 122.319 217.017 120.767 216.439C118.803 215.94 118.95 215.83 117.974 216.124C115.046 217.007 115.188 219.335 115.04 220.643C114.65 224.113 116.362 226.854 119.51 227.612Z" fill="#AECEA6"/>
<path d="M119.51 227.612C122.303 227.926 124.052 226.743 124.438 223.317C124.618 221.721 124.526 219.565 123.735 218.793C122.643 217.727 122.319 217.017 120.767 216.439C118.803 215.94 118.95 215.83 117.974 216.124C115.046 217.007 115.188 219.335 115.04 220.643C114.65 224.113 116.362 226.854 119.51 227.612Z" stroke="#2B2B2B" stroke-width="2" stroke-linecap="round" stroke-linejoin="round"/>
</g>
<path d="M163.022 67.2285C162.263 70.376 161.742 70.8288 160.308 73.3888C159.198 75.37 159.872 81.6768 156.795 79.4593C154.165 77.5632 151.486 75.5016 148.51 74.0814C147.767 73.7264 145.591 72.7701 145.099 72.0809C144.391 71.0915 145.754 68.5667 146.109 67.703C147.68 63.8852 147.181 61.6716 149.818 58.8724C151.195 57.4109 152.694 56.1264 153.541 55.2822C155.537 53.2918 158.982 52.324 161.266 54.0994C164.251 56.4187 166.826 59.5623 169.265 62.3987C170.43 63.7526 172.044 64.6326 173.141 66.0864C173.852 67.0287 174.82 68.9636 175.759 69.6326C176.642 70.2623 176.935 71.2374 177.675 71.9601C177.796 72.0781 178.233 69.0948 178.285 68.6265C178.403 67.5783 179.402 63.2878 180.395 63.2828C181.389 63.2778 185.663 71.7977 185.937 75.8399C186.156 79.0586 186.155 82.5308 186.859 85.6647C187.384 87.9994 188.647 90.135 188.895 92.447C189.109 94.4512 188.719 96.5407 188.489 98.5859" stroke="#2B2B2B" stroke-width="2" stroke-linecap="round" stroke-linejoin="round"/>
<path d="M157.948 79.9931C156.844 82.4152 155.402 84.6616 155.099 87.3506C154.891 89.1954 154.585 91.9118 154.869 92.9823C155.586 95.6756 156.029 99.4457 156.402 102.231C156.755 104.871 156.933 106.699 157.44 109.639C157.842 111.973 157.304 114.432 157.053 116.666C156.792 118.979 154.391 119.593 153.276 121.495C152.382 123.02 151.266 123.384 149.106 122.642C148.391 122.396 147.769 121.67 147.265 121.164C146.664 120.562 146.672 119.135 145.166 118.157C143.425 115.397 142.748 113.525 144.777 110.839C145.14 110.359 146.163 107.139 146.822 107.029C148.054 106.379 149.27 106.327 149.332 105.776C149.413 105.055 148.913 102.819 148.603 101.976C146.34 95.8052 145.373 89.8596 143.397 83.6086C142.936 82.1521 142.295 79.0394 144.25 76.0266C144.784 74.8743 145.75 73.5729 145.818 72.9665" stroke="#2B2B2B" stroke-width="2" stroke-linecap="round" stroke-linejoin="round"/>
<path d="M147.924 111.598C146.593 112.66 145.667 115.486 144.193 116.027" stroke="#2B2B2B" stroke-width="2" stroke-linecap="round" stroke-linejoin="round"/>
<path d="M150.262 113.893C149.515 115.414 147.293 116.587 146.318 118.691" stroke="#2B2B2B" stroke-width="2" stroke-linecap="round" stroke-linejoin="round"/>
<path d="M151.82 116.481C150.74 118.386 147.877 119.196 147.6 121.664" stroke="#2B2B2B" stroke-width="2" stroke-linecap="round" stroke-linejoin="round"/>
<path d="M185 69.9999C188.744 70.4214 194 68.4999 197.5 65.5C210.5 49.9999 207.442 35.6783 194 23.5C187.536 16.3066 172.757 17.1758 165.13 19.7805C157.947 22.2334 151.076 29.7486 150.159 37.8969C149.48 43.9313 150.867 48.8986 156.079 53.5154" stroke="#2B2B2B" stroke-width="2" stroke-linecap="round" stroke-linejoin="round"/>
<path d="M180.456 63.1293C182.818 56.9332 188.526 56.0526 190.323 47.2674C190.804 42.9958 189.852 37.0975 184.541 34.4932C175.985 30.2972 170.119 35.2943 166.121 39.6937C162.734 43.4211 161.214 49.3212 158.164 52.9419" stroke="#2B2B2B" stroke-width="2" stroke-linecap="round" stroke-linejoin="round"/>
<path d="M185.36 44.6881C183.57 44.9425 185.579 42.744 185.36 44.6881Z" stroke="#2B2B2B" stroke-width="2" stroke-linecap="round" stroke-linejoin="round"/>
<path d="M182.5 41.9998C181.348 41.4659 181.548 42.6423 181.948 42.6874C182.063 42.7003 182.848 42.0389 182.5 41.9998Z" stroke="#2B2B2B" stroke-width="2" stroke-linecap="round" stroke-linejoin="round"/>
<path d="M185.349 48.7561C184.148 49.1028 182.781 49.6512 180.786 49.4266C179.589 49.2918 178.481 48.359 178.117 47.3387C177.509 46.2289 177.333 45.7907 176.68 45.3668" stroke="#2B2B2B" stroke-width="2" stroke-linecap="round" stroke-linejoin="round"/>
<path d="M194.907 67.5846C196.368 68.9615 198.712 69.1322 201.112 69.8995C203.062 70.5232 207.259 72.3262 208.469 72.7483C213.541 74.5171 215.539 76.8455 221.099 79.0193C226.905 81.2893 228.367 82.6661 232.622 84.3574C235.542 83.8381 237.908 82.5277 240.698 80.8212C244.604 78.4321 249.372 75.3622 253.265 73.2844C256.751 71.4242 258.57 70.7539 262.532 69.9433C265.134 69.8763 280.082 71.2009 276.628 73.9547C276.184 74.3088 274.415 75.665 268.158 73.8095C264.439 74.5421 266.462 80.0793 262.381 82.0497C258.963 83.7004 255.153 81.6402 250.629 82.3432C249.65 82.6787 244.898 86.9043 244.368 87.7002C241.615 90.6232 241.169 92.7951 237.574 94.2095C234.292 94.6482 226.535 91.7546 222.989 90.9512C217.537 89.1252 215.586 88.5016 210.134 86.6755C207.408 85.7625 204.983 84.0751 202.777 83.8268C199.185 83.4225 194.303 93.3799 188.839 92.7648" stroke="#2B2B2B" stroke-width="2" stroke-linecap="round" stroke-linejoin="round"/>
<path d="M152.083 56.7026C149.185 53.2755 146.227 48.8388 142.297 46.7106C138.482 44.6453 133.439 41.2655 129.313 39.9956C115.135 35.6321 100.007 34.6763 82.4488 32.6999C63.5136 32.1849 38.9518 27.8038 32.7863 28.7262C26.9749 30.0926 24.0071 27.738 20.9891 29.4188C27.5621 53.5971 41.0193 70.4682 59.7696 76.2158C64.2666 80.0753 64.7412 103.851 107.615 110.697C117.401 120.689 137.424 133.45 145.763 134.389" stroke="#2B2B2B" stroke-width="2" stroke-linecap="round" stroke-linejoin="round"/>
<path d="M181.703 42.8114C181.814 42.6695 181.911 42.5044 182.039 42.3765C182.082 42.3336 182.157 42.3181 182.187 42.2663C182.229 42.195 182.3 42.0316 182.187 42.1562C182.109 42.2437 182.09 41.955 182 42" stroke="#2B2B2B" stroke-linecap="round" stroke-linejoin="round"/>
<path d="M185.072 44.397C185.084 44.4565 185.084 44.6843 185.133 44.7328C185.159 44.7588 185.273 44.7615 185.243 44.7411C185.161 44.6864 185.141 44.5799 185.072 44.5456" stroke="#2B2B2B" stroke-width="3" stroke-linecap="round" stroke-linejoin="round"/>
<path d="M166.327 31.1231C167.8 28.6402 172.847 21.6504 170.905 23.7745C168.697 26.1893 167.14 28.9466 164.591 31.1231C163.962 31.6601 162.494 33.916 161.416 33.6727C160.569 33.4816 162.735 29.517 162.93 29.0985C163.35 28.197 160.458 31.0086 160.013 31.4606C158.549 32.9468 161.879 28.3999 161.01 29.6984C159.475 31.9904 157.687 34.5369 157.687 37.3845C157.687 39.7785 157.355 42.0471 157.355 44.4519C157.355 45.2139 157.299 49.1689 157.687 48.5C158.572 46.9713 158.829 42.619 160.013 41.2666C161.576 39.4808 163.483 38.7354 165.164 37.0283C166.617 35.5524 167.847 34.2905 169.484 32.9978C169.804 32.7445 171.636 32.1355 170.794 32.1355C169.225 32.1355 167.067 33.8026 165.81 34.76C162.619 37.1898 160.933 40.004 158.61 43.2709C158.249 43.7778 157.742 44.2272 157.41 44.7331C156.883 45.5357 158.272 43.0102 158.61 42.1086C159.748 39.0701 160.183 36.0059 162.025 33.3165C163.335 31.4046 165.145 29.3799 166.954 27.9362C168.357 26.8173 165.526 28.951 165.145 29.2672C164.317 29.9556 163.122 30.0198 162.173 30.4483C161.107 30.9295 160.639 31.9665 160.013 32.8853C158.643 34.8948 156.782 37.2934 156.69 39.8215C156.673 40.297 156.415 45.8816 156.173 45.9517C154.28 46.501 153.834 37.2442 154.05 36.0347C154.653 32.6697 157.416 30.3004 159.09 27.4113C159.969 25.8938 162.169 24.5151 163.742 23.962C165.488 23.3485 167.647 22.0123 169.484 22.0123C171.472 22.0123 173.442 21 175.465 21C177.428 21 179.391 21 181.354 21C183.929 21 185.921 21.4037 188.332 22.3498C190.745 23.2962 191.842 24.9783 193.409 26.9239C195.039 28.9465 196.529 31.2914 197.563 33.6539C199.156 37.2931 201.222 41.6225 201.551 45.633C201.744 47.9938 202.623 51.4083 201.218 53.469C199.511 55.9731 197.49 57.5551 195.422 59.6554C193.889 61.2112 192.689 62.686 190.419 63.1985C187.998 63.7446 187.594 62.8591 187.594 60.4802C187.594 57.92 190.891 57.4295 192.911 56.8434C193.751 56.5997 195.776 54.9644 194.905 55.7561C193.563 56.9749 192.204 58.161 190.917 59.4679C189.766 60.6365 189.13 61.9392 188.259 63.2922C187.052 65.1665 189.519 62.2269 189.994 61.755C191.857 59.9056 194.014 58.416 195.828 56.506C196.872 55.4062 197.509 53.4395 198.043 52.0443C198.7 50.3284 198.523 50.1648 197.378 51.5381C195.782 53.4538 194.091 55.0845 192.246 56.7497C192.102 56.8794 189.292 58.5782 189.292 57.9307C189.292 56.4577 192.389 54.0724 193.243 52.9816C195.266 50.3996 195.975 47.5706 195.495 44.2832C194.844 39.8219 194.308 35.5751 191.415 31.9855C189.375 29.4533 187.927 27.6295 184.88 26.2115C181.874 24.8122 176.932 22.3579 173.97 25.1992C171.593 27.4789 165.159 35.0081 167.471 32.6604C169.438 30.6636 171.595 28.5438 173.711 26.7364C174.118 26.3887 176.969 23.3862 176.13 24.7118C174.943 26.5865 172.992 27.8025 171.828 29.7359C171.526 30.2384 170.974 30.6084 170.72 31.1231C170.594 31.3795 172.547 29.7077 172.807 29.4359C175.325 26.7963 178.239 24.7805 180.911 22.3685C183.201 20.3015 179.598 26.4281 179.213 27.1489C178.386 28.6949 175.006 28.3131 174.5 30C174.071 31.4328 178.5 27.4488 178.5 29.7359C179.988 28.2572 181.738 28.4351 183.606 27.4863C184.911 26.8241 182.823 29.7718 182.683 29.5484C182.094 28.6087 184.524 24.8897 185.416 24.2432C185.571 24.1304 184.603 27.4126 184.603 27.8987C184.603 29.7661 186.035 28.0825 186.597 27.4301C187.014 26.9467 188.591 24.878 188.591 26.4365C188.591 28.9134 184.979 29.0226 185.416 31.4606C185.574 32.3434 189.963 33.0799 190.437 32.3229C191.037 31.3655 190.953 33.148 190.991 33.4477C191.231 35.3471 191.508 37.5287 192.246 39.2966C193.908 43.2754 195.569 37.9323 195.569 35.8473C195.569 33.6379 195.524 31.7981 193.908 30.1108C192.876 29.0342 190.697 27.9856 189.994 26.7364C187.82 22.8731 195.385 33.9692 196.714 38.2093C197.453 40.5669 197.425 42.8865 197.895 45.2768C198.043 46.0287 198.533 49.5782 199.058 47.6576C200.285 43.1718 198.043 38.086 198.043 33.4477C198.043 31.683 196.88 31.7605 199.058 33.6727C199.058 35.4178 200.183 37.3233 200.48 39.0342C201.267 43.5659 200.811 47.7862 199.889 52.2318C199.28 55.1705 197.248 57.4746 195.052 59.2992C193.921 60.2393 192.559 60.739 191.415 61.6425C190.613 62.2764 189.84 62.7126 188.923 63.1048C188.124 63.4466 184.726 64.0933 184.197 63.1797C183.372 61.7559 183.994 62.549 184.603 63.4422C185.275 64.428 186.727 64.7416 187.262 65.6918C188.105 67.191 191.261 62.756 191.766 62.3362C193.124 61.2084 195.168 61.265 196.714 60.4802" stroke="#AECEA6" stroke-width="3" stroke-linecap="round" stroke-linejoin="round"/>
<defs>
<filter id="filter0_d" x="209.895" y="226.208" width="6.85937" height="12.3608" filterUnits="userSpaceOnUse" color-interpolation-filters="sRGB">
<feFlood flood-opacity="0" result="BackgroundImageFix"/>
<feColorMatrix in="SourceAlpha" type="matrix" values="0 0 0 0 0 0 0 0 0 0 0 0 0 0 0 0 0 0 127 0"/>
<feOffset dy="4"/>
<feColorMatrix type="matrix" values="0 0 0 0 0.698039 0 0 0 0 0.819608 0 0 0 0 0.658824 0 0 0 1 0"/>
<feBlend mode="normal" in2="BackgroundImageFix" result="effect1_dropShadow"/>
<feBlend mode="normal" in="SourceGraphic" in2="effect1_dropShadow" result="shape"/>
</filter>
<filter id="filter1_d" x="197.546" y="226.624" width="11.1705" height="17.1395" filterUnits="userSpaceOnUse" color-interpolation-filters="sRGB">
<feFlood flood-opacity="0" result="BackgroundImageFix"/>
<feColorMatrix in="SourceAlpha" type="matrix" values="0 0 0 0 0 0 0 0 0 0 0 0 0 0 0 0 0 0 127 0"/>
<feOffset dy="4"/>
<feColorMatrix type="matrix" values="0 0 0 0 0.698039 0 0 0 0 0.819608 0 0 0 0 0.658824 0 0 0 1 0"/>
<feBlend mode="normal" in2="BackgroundImageFix" result="effect1_dropShadow"/>
<feBlend mode="normal" in="SourceGraphic" in2="effect1_dropShadow" result="shape"/>
</filter>
<filter id="filter2_d" x="127.414" y="216.592" width="7.2294" height="13.1831" filterUnits="userSpaceOnUse" color-interpolation-filters="sRGB">
<feFlood flood-opacity="0" result="BackgroundImageFix"/>
<feColorMatrix in="SourceAlpha" type="matrix" values="0 0 0 0 0 0 0 0 0 0 0 0 0 0 0 0 0 0 127 0"/>
<feOffset dy="4"/>
<feColorMatrix type="matrix" values="0 0 0 0 0.698039 0 0 0 0 0.819608 0 0 0 0 0.658824 0 0 0 1 0"/>
<feBlend mode="normal" in2="BackgroundImageFix" result="effect1_dropShadow"/>
<feBlend mode="normal" in="SourceGraphic" in2="effect1_dropShadow" result="shape"/>
</filter>
<filter id="filter3_d" x="113.985" y="214.963" width="11.5303" height="17.6973" filterUnits="userSpaceOnUse" color-interpolation-filters="sRGB">
<feFlood flood-opacity="0" result="BackgroundImageFix"/>
<feColorMatrix in="SourceAlpha" type="matrix" values="0 0 0 0 0 0 0 0 0 0 0 0 0 0 0 0 0 0 127 0"/>
<feOffset dy="4"/>
<feColorMatrix type="matrix" values="0 0 0 0 0.698039 0 0 0 0 0.819608 0 0 0 0 0.658824 0 0 0 1 0"/>
<feBlend mode="normal" in2="BackgroundImageFix" result="effect1_dropShadow"/>
<feBlend mode="normal" in="SourceGraphic" in2="effect1_dropShadow" result="shape"/>
</filter>
</defs>
</svg>
