<svg width="244" height="308" viewBox="0 0 244 308" fill="none" xmlns="http://www.w3.org/2000/svg">
<path d="M102.749 55.5123C103.77 50.8568 104.698 46.8648 105.43 42.1065C106.237 36.8562 106.813 30.954 107.105 25.6843C107.343 21.4149 106.685 17.7598 105.765 13.6191C104.424 9.26218 101.907 6.29944 98.3913 3.56486C95.3753 1.21911 90.3481 0.734777 86.3264 2.22424C83.0584 3.43458 79.7568 7.92164 77.6123 10.2677C74.2608 13.9339 71.4466 20.9954 70.5742 25.6844C69.6389 30.7115 70.0829 33.8736 70.9095 38.4199C71.7578 43.0858 71.6952 48.7629 72.9205 53.6643C74.5963 60.3672 81.6593 60.5395 85.9912 60.5395C91.071 60.5395 98.3916 59.5341 100.593 53.6643" stroke="#2B2B2B" stroke-width="2" stroke-linecap="round" stroke-linejoin="round"/>
<path d="M105.765 38.0846C104.42 39.1131 104.173 40.7658 101.408 41.7712C97.7211 43.1118 90.3479 42.7767 88.6722 38.4198C87.9854 36.3595 87.6667 35.4035 87.6667 33.3926" stroke="#2B2B2B" stroke-width="2" stroke-linecap="round" stroke-linejoin="round"/>
<path d="M97.0508 24.6789C97.9023 23.4943 96.3806 21.9978 97.0508 24.6789ZM97.0508 24.6789C97.026 25.1019 96.4148 24.2754 96.7157 23.6736" stroke="#2B2B2B" stroke-width="2" stroke-linecap="round" stroke-linejoin="round"/>
<path d="M99.2661 23.0241C100.991 24.2787 99.8676 21.844 99.3967 22.6679C98.9897 23.3802 99.935 24.0636 100.207 23.2486" stroke="#2B2B2B" stroke-width="2" stroke-linecap="round" stroke-linejoin="round"/>
<path d="M71.2449 42.1064C66.8372 49.3961 64.3797 55.498 61.5256 63.2206C58.1742 74.6156 56.8336 85.3403 55.1579 96.7352C53.4821 108.13 52.4767 117.849 51.8064 126.228C51.6455 128.239 50.4658 132.909 50.4658 134.942" stroke="#2B2B2B" stroke-width="2" stroke-linecap="round" stroke-linejoin="round"/>
<path d="M66.8876 95.0596C64.5666 101.894 64.0065 106.078 61.8604 112.822C60.1847 119.86 60.1847 127.234 58.1738 135.277C57.5035 137.958 55.4305 143.017 54.1521 144.661C52.8734 146.305 57.2942 148.578 56.4981 151.364C56.2029 152.397 53.5463 161.083 52.1412 161.083C50.1303 161.083 50.4655 157.449 50.4655 155.386C50.4655 153.69 50.4655 152.034 49.1249 153.276C47.4492 155.386 46.4437 159.408 46.4437 164.435C46.4437 167.148 46.5118 167.858 44.6678 168.457C43.3066 167.858 43.5737 165.834 43.5737 165.056C43.5737 162.513 44.1559 159.951 44.6678 157.449C44.9294 156.17 45.6346 154.545 45.6346 153.276C45.6346 152.619 43.5737 159.394 43.5737 158.737" stroke="#2B2B2B" stroke-width="2" stroke-linecap="round" stroke-linejoin="round"/>
<path d="M40.3681 160.413C40.3429 161.673 40.3681 161.083 40.0762 162.424C40.0636 162.866 39.6302 164.3 39.6301 165.184C39.63 166.249 39.6979 167.675 40.3681 168.121C41.3735 168.792 42.4612 167.895 43.4274 166.446" stroke="#2B2B2B" stroke-width="2" stroke-linecap="round" stroke-linejoin="round"/>
<path d="M49.07 137.705C47.188 139.144 46.2986 140.947 45.0753 142.87C44.0388 144.498 43.0172 146.255 41.8821 147.895C41.0522 149.094 41.0273 150.734 40.5463 152.08C40.0061 153.593 39.406 154.415 39.406 156.056" stroke="#2B2B2B" stroke-width="2" stroke-linecap="round" stroke-linejoin="round"/>
<path d="M38.4004 159.743C38.0735 160.41 37.0598 162.424 37.0598 163.765C37.395 164.77 38.3214 165.44 39.4058 165.44" stroke="#2B2B2B" stroke-width="2" stroke-linecap="round" stroke-linejoin="round"/>
<path d="M43.7626 161.083C41.3157 160.251 39.0544 158.836 36.7246 157.732C35.4655 157.136 34.3786 156.391 33.3731 155.386C32.703 154.716 32.3677 154.634 32.3677 153.375C32.3677 152.338 33.74 151.255 34.7137 152.034C36.4857 153.452 36.5548 153.876 38.4003 155.386C39.7916 156.524 42.7572 158.067 44.0978 159.408" stroke="#2B2B2B" stroke-width="2" stroke-linecap="round" stroke-linejoin="round"/>
<path d="M30.5212 152.131C30.5212 150.023 32.1925 148.874 32.703 147.342" stroke="#2B2B2B" stroke-width="2" stroke-linecap="round" stroke-linejoin="round"/>
<path d="M28.0022 150.757C28.0022 149.001 29.3513 148.427 29.3513 146.672" stroke="#2B2B2B" stroke-width="2" stroke-linecap="round" stroke-linejoin="round"/>
<path d="M28.346 148.683C27.8585 147.507 26.5406 148.423 26 147.342" stroke="#2B2B2B" stroke-width="2" stroke-linecap="round" stroke-linejoin="round"/>
<path d="M64.6413 96.4858C66.0858 98.486 68.0905 100.86 68.8141 103.228C69.1254 104.247 69.6791 105.239 69.6791 106.333C69.6791 107.634 69.4501 108.968 69.4501 110.327C69.4501 113.655 69.8427 117.3 69.272 120.581C68.8975 122.734 68.5342 125.232 68.5342 127.413C68.5342 128.576 68.3823 130.279 68.0635 131.395C67.3988 133.721 66.548 136.636 65.341 138.748C64.6307 139.991 64.0451 141.704 63.738 143.086C63.5199 144.067 63.7148 145.053 63.2673 145.948" stroke="#2B2B2B" stroke-width="2" stroke-linecap="round" stroke-linejoin="round"/>
<path d="M60.9773 142.972C69.132 142.972 72.7642 144.815 80.6288 146.672C85.7588 147.884 97.199 150.485 102.413 148.348C106.369 146.727 107.356 146.658 111.127 144.661C112.241 144.072 115.989 141.365 117.16 140.975" stroke="#2B2B2B" stroke-width="2" stroke-linecap="round" stroke-linejoin="round"/>
<path d="M72.2502 147.007C74.2395 154.342 77.6126 159.072 78.2829 167.116C78.9532 175.159 79.2969 185.534 79.2969 191.976" stroke="#2B2B2B" stroke-width="2" stroke-linecap="round" stroke-linejoin="round"/>
<path d="M93.3643 147.342C89.0074 158.737 90.3182 165.545 86.9966 177.17C83.7012 188.704 79.6234 199.96 75.2665 214.036C73.2556 224.761 68.2284 246.546 59.3745 261.132" stroke="#2B2B2B" stroke-width="2" stroke-linecap="round" stroke-linejoin="round"/>
<path d="M121.852 156.056C121.574 163.554 117.16 170.803 115.484 179.852C114.081 187.431 106.77 205.658 106.435 210.015C105.43 218.393 101.748 222.731 100.067 229.453C97.3863 235.151 95.1605 240.244 93.0296 246.21C90.5878 253.048 91.6889 259.616 91.6889 266.319C91.6889 271.011 88.6726 278.42 88.6726 279.39" stroke="#2B2B2B" stroke-width="2" stroke-linecap="round" stroke-linejoin="round"/>
<path d="M59.5146 261.246C62.1176 261.246 64.6386 260.546 67.1601 261.246C68.8505 261.716 70.2927 262.82 71.969 263.193C73.6863 263.574 74.3912 266.395 75.9368 266.989C76.9988 267.398 78.254 267.289 79.0169 268.052C79.8872 268.923 81.2109 269.182 82.1464 269.948C83.2961 270.889 84.1816 271.974 85.1361 273.141C86.3467 274.621 87.5049 277.725 88.3372 279.39" stroke="#2B2B2B" stroke-width="2" stroke-linecap="round" stroke-linejoin="round"/>
<path d="M78.9529 276.709C81.1152 277.606 83.6903 278.868 85.9247 279.566C86.4765 279.738 87.5298 279.831 88.1002 279.668C88.1816 279.644 89.2594 277.098 89.3424 276.933" stroke="#2B2B2B" stroke-width="2" stroke-linecap="round" stroke-linejoin="round"/>
<path d="M59.1794 266.319C60.8154 265.501 61.9847 264.655 63.2012 263.303C63.7488 262.695 65.8645 261.663 66.2175 260.957" stroke="#2B2B2B" stroke-width="2" stroke-linecap="round" stroke-linejoin="round"/>
<path d="M56.4983 266.319C58.2176 266.319 61.1903 266.319 63.2012 266.319C64.5418 266.319 65.3556 266.17 66.2441 266.17C67.4697 266.17 67.5365 265.891 68.534 265.305C69.0269 265.015 70.6711 263.445 70.9096 262.968" stroke="#2B2B2B" stroke-width="2" stroke-linecap="round" stroke-linejoin="round"/>
<path d="M82.6397 270.341C80.9156 272.686 79.5215 275.237 78.2828 277.714C77.6869 278.906 76.9422 281.401 79.6234 283.077C80.4589 283.077 81.0309 285.594 80.2937 285.758C79.9585 287.434 76.8153 290.739 74.5962 291.79C72.6074 292.732 70.4569 292.332 68.8987 291.12C66.527 289.275 65.2121 286.373 62.5309 284.417C61.1903 283.439 59.3222 281.613 57.8389 281.401C54.4874 279.725 52.1379 279.887 50.4657 277.044C50.0932 276.411 49.761 274.022 50.1305 273.357C50.879 272.01 54.1525 270.676 57.5039 272.017C59.1797 273.022 62.8663 274.363 64.4123 275.1" stroke="#2B2B2B" stroke-width="2" stroke-linecap="round" stroke-linejoin="round"/>
<path d="M61.4354 273.497C61.4354 272.434 61.6584 271.009 61.4226 269.948C61.252 269.18 60.216 269.375 59.6543 269.375C57.7884 269.375 57.7715 270.659 57.7715 272.123" stroke="#2B2B2B" stroke-width="2" stroke-linecap="round" stroke-linejoin="round"/>
<path d="M58.1738 270.006C58.1145 267.515 56.498 265.649 54.8223 266.319C53.4817 266.654 54.152 270.676 54.152 271.011C54.539 271.509 53.8915 270.59 53.7637 270.406C53.4885 270.008 53.233 268.805 53.1466 268.33C53.0069 267.562 52.9599 266.941 52.4763 266.319C51.8546 265.52 50.6681 265.313 49.7951 265.313C48.1194 265.313 48.0734 267.167 48.1194 267.995C48.1514 268.572 49.3574 269.052 49.7951 269.335C50.5321 269.812 50.8651 271.411 51.4708 272.016C51.5927 272.138 50.8474 272.204 50.8005 272.016C50.4654 270.676 49.7563 269.129 48.7895 268.815C47.7842 268.489 45.438 270.006 46.7788 272.016C47.4491 273.022 48.66 273.814 49.7563 274.362" stroke="#2B2B2B" stroke-width="2" stroke-linecap="round" stroke-linejoin="round"/>
<path d="M46.1086 262.633C46.4832 264.672 49.46 264.644 47.114 269.001C46.011 271.482 42.1522 271.543 41.4163 269.336C40.6413 267.011 40.5029 265.254 41.7518 263.303C42.54 262.071 42.472 260.28 43.7624 259.617C44.4342 259.271 45.4381 258.611 47.114 259.281C48.1193 259.683 49.0542 260.146 49.4599 260.957" stroke="#2B2B2B" stroke-width="2" stroke-linecap="round" stroke-linejoin="round"/>
<path d="M97.6167 230.676C98.0555 232.723 99.384 234.489 100.085 236.451C101.498 240.408 103.08 240.498 104.089 244.535C105.269 249.253 105.43 253.584 107.413 259.951C107.534 263.115 109.452 265.984 109.452 270.006C109.452 272.017 108.81 273.357 106.771 275.033C104.788 275.703 99.6094 275.835 98.0567 276.709C96.4807 277.595 91.689 278.62 91.689 281.066C91.689 282.067 91.7881 283.356 93.6998 283.747C95.4744 283.747 102.038 278.8 101.408 280.06C101.102 280.672 94.7053 283.412 95.3756 285.087C97.7216 289.444 104.425 286.093 108.781 284.417C111.077 284.162 113.339 285.907 115.484 284.752C119.248 282.726 120.847 282.071 124.867 281.066C127.55 280.395 130.612 280.524 131.236 277.714C131.861 274.904 130.791 273.568 130.231 272.687C127.885 270.006 125.204 270.006 125.204 265.314C125.204 263.481 123.528 257.27 121.852 255.259" stroke="#2B2B2B" stroke-width="2" stroke-linecap="round" stroke-linejoin="round"/>
<path d="M105.765 260.622C109.116 260.957 111.211 259.434 113.473 258.611C115.284 257.952 116.871 256.421 118.835 255.93C122.074 255.12 122.508 254.589 125.538 254.589" stroke="#2B2B2B" stroke-width="2" stroke-linecap="round" stroke-linejoin="round"/>
<path d="M120.176 266.654C121.046 267.803 122.187 268.213 122.187 269.671C122.187 271.127 122.025 272.706 121.517 274.028C120.862 275.73 119.506 277.379 118.5 279.725" stroke="#2B2B2B" stroke-width="2" stroke-linecap="round" stroke-linejoin="round"/>
<path d="M116.622 190.831C116.622 196.664 117.937 199.509 118.5 205.323C118.946 209.932 120.227 215.487 120.846 220.069C121.845 227.461 122.539 226.633 124.533 233.81C125.169 236.101 125.538 246.546 125.538 251.908" stroke="#2B2B2B" stroke-width="2" stroke-linecap="round" stroke-linejoin="round"/>
<path d="M122.767 92.0193C122.767 99.3411 123.192 102.433 124.198 110.476C125.538 117.179 128.22 124.282 128.22 130.92C128.22 135.972 129.56 141.05 129.56 146.002" stroke="#2B2B2B" stroke-width="2" stroke-linecap="round" stroke-linejoin="round"/>
<path d="M107.44 22.333C112.272 23.0909 120.996 24.7354 123.863 29.0359C127.884 32.7225 131.236 38.42 132.241 44.4526C133.917 54.507 134.847 62.2956 134.847 72.9575C134.847 83.6865 134.847 96.7354 136.598 108.13C137.628 114.833 139.614 116.509 140.62 124.217C141.96 130.585 150.619 131.816 152.35 135.277" stroke="#2B2B2B" stroke-width="2" stroke-linecap="round" stroke-linejoin="round"/>
<path d="M128.22 160.748C127.998 159.274 127.972 157.798 127.884 156.306C127.71 153.337 127.214 152.37 127.884 148.683C128.555 146.298 129.472 146.002 131.236 146.002C132.248 146.002 132.99 150.349 133.094 151.029C133.365 152.811 133.247 153.71 133.71 156.306C133.71 156.737 134.252 158.938 134.252 158.067C134.252 156.051 133.917 152.379 133.917 150.359C133.917 148.731 133.827 147.873 134.252 146.298C134.489 145.421 135.436 144.817 135.928 144.996C137.332 145.507 137.47 147.785 137.939 149.018C138.797 151.274 139.611 156.157 139.611 157.732C139.279 155.636 139.611 148.309 139.95 146.298C140.263 145.026 140.429 143.512 141.961 143.321C142.842 143.21 144.157 145.043 144.642 145.667C145.982 147.678 146.317 151.364 146.988 154.045C147.323 155.051 148.328 158.703 148.328 159.408" stroke="#2B2B2B" stroke-width="2" stroke-linecap="round" stroke-linejoin="round"/>
<path d="M150.345 137.447C151.062 136.042 152.095 135.277 153.61 135.277C155.146 135.277 156.53 135.732 157.377 136.953C157.744 137.482 156.796 139.545 156.372 139.969C155.083 141.258 153.975 141.737 153.02 140.304M150.345 137.447C149.358 137.447 148.073 137.885 147.658 138.964C147.309 139.871 147.067 141.32 146.988 142.315C146.829 144.301 148.991 144.817 150.004 146.337C151.157 148.067 153.319 149.3 154.361 146.672C155.701 144.326 153.831 141.926 153.02 140.304M150.345 137.447C151.311 137.447 152.531 139.57 153.02 140.304" stroke="#2B2B2B" stroke-width="2" stroke-linecap="round" stroke-linejoin="round"/>
<path d="M148.404 159.777C149.24 158.198 150.203 157.361 151.345 156.056C152.076 155.221 153.142 154.488 153.356 153.375C153.621 151.997 154.073 150.893 154.073 149.48C154.073 148.867 154.112 148.285 153.842 147.745" stroke="#2B2B2B" stroke-width="2" stroke-linecap="round" stroke-linejoin="round"/>
<path d="M128.219 160.748C128.649 161.512 130.23 161.848 131.236 161.512C132.576 160.842 133.359 160.436 134.252 160.413C135.667 160.376 137.268 161.753 139.279 162.424C141.625 162.759 144.306 163.094 145.982 162.089C147.076 161.104 148.328 161.215 148.328 159.407" stroke="#2B2B2B" stroke-width="2" stroke-linecap="round" stroke-linejoin="round"/>
<path d="M158.944 138.434C159.86 138.64 160.394 139.634 162.069 139.634" stroke="#2B2B2B" stroke-width="2" stroke-linecap="round" stroke-linejoin="round"/>
<path d="M84.9858 81.6538C84.9858 84.4177 85.321 85.0053 85.321 87.3513C85.321 88.6919 84.9858 90.3676 85.9913 91.0379C86.5908 91.0379 89.4624 90.4635 89.6779 90.0325" stroke="#2B2B2B" stroke-width="2" stroke-linecap="round" stroke-linejoin="round"/>
<path d="M93.029 82.6592C94.0147 84.335 94.2601 85.7236 94.0343 87.3513C94.0343 87.9854 93.6102 89.3583 93.029 89.6973C91.8892 90.3622 91.1372 89.1745 90.6829 88.3567C89.9836 87.0981 89.3423 86.0107 89.3423 83.9998C89.3423 82.6592 89.485 81.6538 91.018 81.6538C91.6631 81.6538 92.6464 82.0089 93.029 82.6592Z" stroke="#2B2B2B" stroke-width="2" stroke-linecap="round" stroke-linejoin="round"/>
<path d="M95.0403 81.6536C95.8951 82.7819 96.0387 83.1494 96.716 84.3347C97.0318 84.8874 97.6869 87.4799 98.3917 88.3565C99.7323 88.0213 100.403 81.4737 100.403 80.313" stroke="#2B2B2B" stroke-width="2" stroke-linecap="round" stroke-linejoin="round"/>
<path d="M104.759 79.6428C103.084 81.9888 103.754 84.2428 103.754 87.3512C103.754 89.4507 103.878 89.6972 105.43 89.6972C106.982 89.6972 107.025 89.1654 108.446 88.6918" stroke="#2B2B2B" stroke-width="2" stroke-linecap="round" stroke-linejoin="round"/>
<path d="M104.089 86.0105C105.688 85.3865 106.77 84.6699 108.111 84.6699" stroke="#2B2B2B" stroke-width="2" stroke-linecap="round" stroke-linejoin="round"/>
<path d="M174.118 55.1772C171.453 49.4797 171.403 41.4438 173.129 36.0738C173.837 33.8703 174.118 31.5945 174.118 28.7006C174.118 24.4605 175.877 18.6462 177.486 15.2948C179.738 10.6027 184.854 7.58643 188.546 7.58643C200.062 7.58643 202.263 13.9295 204.633 24.3437C205.058 26.2126 205.699 29.9757 206.309 31.7169C208.093 36.8164 207.984 46.4634 206.309 50.4851C204.316 53.6166 204.065 54.4817 201.281 57.0394C197.908 60.1393 194.78 63.5558 190.222 63.5558C180.502 63.5558 175.339 57.0394 175.877 57.0394" stroke="#2B2B2B" stroke-width="2" stroke-linecap="round" stroke-linejoin="round"/>
<path d="M172.652 39.0044C176.816 39.4253 175.475 47.804 184.524 42.7768C186.535 41.6596 188.542 37.7705 188.881 36.7441" stroke="#2B2B2B" stroke-width="2" stroke-linecap="round" stroke-linejoin="round"/>
<path d="M182.341 32.5905C182.352 33.0645 181.907 33.3274 182.442 33.5203C182.974 33.7118 183.075 33.0787 183.061 32.7057C183.047 32.3092 182.585 32.3101 182.361 32.5591C182.237 32.6965 182.89 32.9969 182.89 33.1778" stroke="#2B2B2B" stroke-width="2" stroke-linecap="round" stroke-linejoin="round"/>
<path d="M178.517 29.6203C178.901 29.6203 179.381 29.6971 179.763 29.6122C179.909 29.5798 180.123 29.2397 179.893 29.1886C179.373 29.0729 178.874 29.1341 178.631 29.6203C178.417 30.0486 178.631 30.4666 179.03 29.9787C179.347 29.5915 179.705 29.1886 179.03 29.1886" stroke="#2B2B2B" stroke-width="2" stroke-linecap="round" stroke-linejoin="round"/>
<path d="M182.513 90.3677C183.062 92.0434 183.183 92.9232 183.183 94.3894C183.183 96.6665 183.854 98.8112 183.854 101.092" stroke="#2B2B2B" stroke-width="2" stroke-linecap="round" stroke-linejoin="round"/>
<path d="M182.769 94.4291C183.791 94.1812 184.909 94.3209 185.881 94.0218C186.118 93.9489 187.254 93.9696 187.325 93.719C187.443 93.3056 187.325 92.8102 187.325 92.3784C187.325 91.7924 187.249 89.9228 187.249 89.3621C187.249 88.5229 187.372 91.4395 187.312 91.7082C187.115 92.598 187.54 94.3893 187.54 95.7299C187.54 97.0705 187.778 97.6851 188.211 99.4165" stroke="#2B2B2B" stroke-width="2" stroke-linecap="round" stroke-linejoin="round"/>
<path d="M192.232 98.4107C192.232 95.1793 192.232 93.7186 192.903 90.7023C193.238 89.1955 193.745 88.6122 194.206 88.3563C194.673 88.0969 194.914 89.3618 195.584 90.3673C196.589 92.3781 196.933 93.7167 197.595 96.0646C197.751 96.6197 197.93 97.4052 198.6 98.0755" stroke="#2B2B2B" stroke-width="2" stroke-linecap="round" stroke-linejoin="round"/>
<path d="M191.42 93.4028C192.672 93.4028 195.491 93.7807 196.589 93.0488" stroke="#2B2B2B" stroke-width="2" stroke-linecap="round" stroke-linejoin="round"/>
<path d="M198.935 90.3674C201.172 89.8459 203.917 89.8874 205.638 89.0269" stroke="#2B2B2B" stroke-width="2" stroke-linecap="round" stroke-linejoin="round"/>
<path d="M202.27 88.3567C202.27 90.7139 202.182 91.7151 202.27 94.0542C202.319 95.3409 202.556 97.2055 202.957 98.4111" stroke="#2B2B2B" stroke-width="2" stroke-linecap="round" stroke-linejoin="round"/>
<path d="M211.336 86.3457C210.4 86.5738 209.66 86.6808 208.655 87.016C208.091 87.3381 207.026 87.3334 206.644 88.0214C206.308 89.362 206.91 91.1596 207.288 92.7837C207.462 93.5327 207.653 97.0704 208.655 97.0704C209.325 97.4055 210.33 97.4055 211.001 97.0704C211.671 96.7352 212.229 95.8413 212.341 96.0649" stroke="#2B2B2B" stroke-width="2" stroke-linecap="round" stroke-linejoin="round"/>
<path d="M207.314 93.0485C208.634 93.0485 209.346 92.3782 210.665 92.3782" stroke="#2B2B2B" stroke-width="2" stroke-linecap="round" stroke-linejoin="round"/>
<path d="M177.151 77.967C177.821 83.3294 174.719 87.2878 173.464 92.0432C172.684 95.0004 170.557 98.1301 169.777 101.092C169.267 103.031 168.292 106.649 167.431 108.465C166.248 110.964 165.007 116.582 163.41 118.855C161.142 122.081 161.039 122.831 160.058 126.898C159.618 127.944 159.82 129.278 159.388 130.25C158.995 131.134 158.566 132.824 158.047 133.601" stroke="#2B2B2B" stroke-width="2" stroke-linecap="round" stroke-linejoin="round"/>
<path d="M141.29 125.223C143.527 123.858 144.472 123.143 145.982 121.201C149.135 117.147 148.179 108.573 150.339 103.773C151.175 101.915 153.055 97.3725 153.691 95.3946C157.934 86.1423 154.361 81.6537 159.053 74.6156C162.404 68.9181 162.754 64.6966 164.751 60.2043C166.56 51.5216 165.421 40.4307 173.464 33.7278" stroke="#2B2B2B" stroke-width="2" stroke-linecap="round" stroke-linejoin="round"/>
<path d="M168.556 98.7461C167.43 101.427 169.442 114.687 169.442 116.174C169.442 117.88 169.542 122.188 169.442 123.882C169.18 128.344 168.613 131.902 167.43 136.282C166.924 138.153 165.523 140.883 164.75 142.65C164.188 143.936 163.745 146.984 163.745 148.348C163.745 150.291 168.182 146.568 169.442 146.337C173.085 145.668 178.342 146.227 181.843 144.996C186.56 143.337 189.208 142.879 194.243 142.65C201.616 142.315 202.287 139.634 210.33 139.634C213.678 139.218 217.033 136.282 221.39 137.623" stroke="#2B2B2B" stroke-width="2" stroke-linecap="round" stroke-linejoin="round"/>
<path d="M220.516 110.503C220.516 114.025 220.224 117.521 220.224 121.058C220.224 125.265 220.662 129.461 220.662 133.673C220.662 135.092 220.621 136.519 220.662 137.938C220.758 141.327 222.391 144.494 222.818 147.828C223.157 150.473 224.502 152.851 225.072 155.417C225.528 157.468 226.446 159.328 225.769 161.432C225.136 163.403 224.994 164.901 223.613 166.54C222.205 168.209 220.535 169.9 219.044 171.473C217.658 172.936 215.511 173.767 214.352 175.442C213.989 175.966 213.516 177.155 213.682 177.506C213.682 178.511 214.823 178.622 215.357 178.652C218.438 178.823 221.123 176.65 223.807 175.442C223.807 175.442 223.044 175.842 222.786 176.171C221.756 176.835 220.127 177.588 219.044 178.176C218.396 178.528 217.09 179.215 217.033 180.187C216.946 181.664 218.929 181.863 220.049 181.863C221.383 181.863 224.625 180.315 225.591 179.349C226.041 178.899 225.881 179.179 225.469 179.463C225.011 179.778 224.493 180.124 224.164 180.582C223.608 181.353 221.054 181.762 220.37 182.446C219.912 182.904 219.379 183.874 220.385 184.544C221.725 185.214 225.282 184.544 227.758 184.544C230.233 184.544 231.522 182.976 233.641 182.446C235.224 182.05 238.015 182.012 237.812 180.187C237.76 179.716 237.29 178.075 235.911 177.768C234.036 177.352 237.124 175.53 237.29 174.785C237.526 173.721 237.298 172.384 237.298 171.291C237.298 168.31 237.616 165.025 237.29 162.089C237.112 160.492 237.475 158.612 237.812 157.062C238.182 155.359 238.531 154.423 238.818 152.705C239.254 150.086 239.823 144.678 239.823 141.98C239.823 135.948 240.089 135.457 240.654 130.657C240.654 127.569 240.654 125.558 240.654 123.212C241.251 119.119 241.606 114.667 242.478 110.656C243.652 105.255 242.478 99.8874 242.478 94.3895C241.603 87.0018 240.374 79.7592 240.654 78.6377C239.705 63.8912 233.641 54.1719 229.098 48.1394C224.555 42.1068 208.319 37.2853 208.319 37.7497" stroke="#2B2B2B" stroke-width="2" stroke-linecap="round" stroke-linejoin="round"/>
<path d="M225.747 161.083C224.221 159.95 223.066 159.072 221.725 157.397C220.385 156.056 220.05 155.051 216.363 154.38C215.358 154.198 213.347 153.413 213.347 152.034C213.347 150.43 213.061 149.307 211.906 148.152C210.714 146.96 205.307 142.463 204.901 146.109C204.848 146.594 204.481 147.362 204.245 147.787C203.85 148.497 204.958 148.388 205.266 148.079C205.746 147.599 206.732 147.248 207.058 146.693C207.361 146.177 208.154 146.025 208.404 145.526" stroke="#2B2B2B" stroke-width="2" stroke-linecap="round" stroke-linejoin="round"/>
<path d="M203.963 148.347C203.963 150.693 205.974 153.039 208.32 154.38C209.43 155.49 211.027 155.962 210.885 157.732C210.745 159.479 210.666 160.993 210.666 162.759C210.666 164.309 211.882 166.127 212.677 167.451C213.815 169.347 216.522 171.119 217.369 172.813" stroke="#2B2B2B" stroke-width="2" stroke-linecap="round" stroke-linejoin="round"/>
<path d="M236.86 176.171C238.07 176.359 239.185 177.027 239.823 178.176C240.383 179.184 240.965 179.737 241.164 180.857C241.394 182.151 240.887 183.328 239.823 184.208C238.586 185.232 237.477 186.89 236.137 187.895C235.218 188.354 233.819 189.236 232.785 189.236C231.528 189.236 230.676 189.087 229.769 188.23C228.994 187.499 227.623 185.314 226.752 184.879" stroke="#2B2B2B" stroke-width="2" stroke-linecap="round" stroke-linejoin="round"/>
<path d="M168.608 147.007C170.909 150.939 169.442 157.076 169.442 161.418C169.442 166.326 171.547 176.196 170.113 180.857C168.575 188.9 167.767 191.613 167.767 199.625C167.767 204.098 168.608 208.339 167.767 213.366" stroke="#2B2B2B" stroke-width="2" stroke-linecap="round" stroke-linejoin="round"/>
<path d="M173.062 209.416C173.777 213.467 174.354 215.965 175.81 219.734C177.816 224.926 177.486 227.598 177.486 233.14C177.486 234.937 177.03 239.201 176.481 240.848" stroke="#2B2B2B" stroke-width="2" stroke-linecap="round" stroke-linejoin="round"/>
<path d="M176.11 228.406C178.362 233.811 179.497 239.286 179.497 245.205C179.497 248.809 179.162 255.259 182.178 256.935C187.584 256.935 187.22 260.603 189.135 261.698C191.021 262.776 195.417 257.979 196.925 256.935C200.944 254.153 200.276 251.238 208.655 251.238C214.687 248.892 205.303 251.573 204.298 242.189C204.298 236.491 203.293 230.574 203.293 224.761C203.293 216.927 202.693 207.414 202.369 199.625C202.087 192.877 202.369 185.214 200.947 180.522C199.611 177.051 197.595 173.088 197.595 169.462C197.595 165.591 198.6 165.302 198.6 161.754C198.6 158.116 199.321 154.657 199.321 151.029C199.321 145.331 202.369 144.326 202.369 139.081" stroke="#2B2B2B" stroke-width="2" stroke-linecap="round" stroke-linejoin="round"/>
<path d="M194.163 181.517C193.85 179.914 193.459 178.47 193.459 176.828" stroke="#2B2B2B" stroke-width="2" stroke-linecap="round" stroke-linejoin="round"/>
<path d="M208.464 243.88C208.431 242.228 207.644 240.837 207.526 239.243C207.427 237.909 207.062 238.692 207.344 239.608C207.779 241.021 208.698 241.858 208.698 243.411" stroke="#2B2B2B" stroke-width="2" stroke-linecap="round" stroke-linejoin="round"/>
<path d="M194.039 259.06C194.039 259.728 193.99 260.359 193.924 261.02" stroke="#2B2B2B" stroke-width="2" stroke-linecap="round" stroke-linejoin="round"/>
<path d="M193.924 259.982C193.924 261.995 193.98 264.018 193.924 266.031C193.888 267.346 193.358 268.375 192.233 269C191.09 269.635 189.613 269.483 188.389 270.131C187.642 270.526 187.256 271.956 186.601 272.611M186.601 272.611C186.366 272.611 186.334 274.621 186.306 274.802M186.601 272.611C185.771 273.441 184.054 273.841 182.968 274.142C182.227 274.348 180.762 275.487 180.373 276.186C179.656 277.478 181.352 279.362 182.513 279.768C183.051 279.956 184.314 280.228 184.64 279.576C185.046 278.764 185.482 277.993 185.851 277.166C186.177 276.439 186.187 275.574 186.306 274.802M186.601 272.611C187.206 273.022 188.211 275.703 189.552 276.709C189.879 277.56 190.161 279.406 189.552 280.05C188.792 280.852 188.886 281.231 187.876 281.736C187.089 282.129 184.971 280.855 184.929 280.05C184.879 279.115 186.128 276.186 186.306 274.802" stroke="#2B2B2B" stroke-width="2" stroke-linecap="round" stroke-linejoin="round"/>
<path d="M189.426 280.396C189.954 280.66 189.426 281.736 190.892 282.071C192.357 282.406 194.616 277.487 194.616 276.712C194.616 276.52 192.278 281.755 193.908 282.792C195.155 283.586 196.743 283.778 197.93 283.076C198.571 282.697 199.696 281.736 199.896 281.177C200.175 280.394 201.787 276.592 201.593 277.044C201.287 277.758 200.946 279.624 200.946 280.396C200.946 281.029 201.12 282.607 201.951 282.792C203.627 282.071 204.352 280.674 204.586 280.396C205.336 279.503 205.688 277.833 205.688 276.705C205.688 273.783 205.973 272.234 205.973 269.335C205.973 266.794 204.586 266.41 204.586 263.973C204.586 262.765 205.572 258.55 205.572 257.214C205.572 255.252 205.342 249.37 205.342 251.332" stroke="#2B2B2B" stroke-width="2" stroke-linecap="round" stroke-linejoin="round"/>
<path d="M202.804 282.241C202.596 283.492 202.425 285.581 201.952 286.763C201.37 288.218 199.33 291.484 200.611 293.131C201.009 293.642 209.318 290.877 212.006 290.45C215.79 289.849 216.433 290.379 220.05 289.109C222.957 288.089 225.424 287.468 228.428 286.763C229.837 286.433 233.175 284.763 234.126 283.412C234.81 282.439 235.261 280.853 235.558 279.725C236.372 276.645 237.514 274.496 236.654 271.4C236.212 269.808 235.443 267.761 235.443 266.095C235.443 265.55 234.363 261.431 234.126 260.957" stroke="#2B2B2B" stroke-width="2" stroke-linecap="round" stroke-linejoin="round"/>
<path d="M204.24 292.126C203.857 293.274 203.466 294.298 202.622 295.142C202.103 295.661 201.5 296.304 200.946 296.818C200.299 297.419 198.676 297.843 197.788 297.92C195.806 298.092 193.728 298.135 191.733 298.157C190.178 298.174 188.604 299.134 187.205 299.834C185.04 300.916 184.331 303.644 186.2 305.513C187.354 306.667 190.256 307.039 191.227 305.513C191.803 304.607 191.707 303.139 191.848 302.085C192.004 300.914 191.989 300.015 191.989 298.828C191.989 297.305 191.943 300.085 191.989 300.541C192.132 301.966 191.645 303.817 191.989 305.192C192.223 306.129 194.501 306.23 195.346 306.23C196.183 306.23 196.72 305.753 197.26 305.192C198.193 302.085 199.325 296.763 198.973 297.926C198.63 299.058 198.37 300.155 198.255 301.373C198.132 302.676 197.8 303.581 198.6 304.861C200.276 307.542 202.75 304.851 203.963 303.856C204.656 303.287 204.956 302.934 205.303 302.085C205.577 301.414 205.303 300.504 206.644 300.839C207.367 300.77 208.069 301.386 208.795 301.386C210.488 301.386 212.183 301.409 213.876 301.386C216.324 301.353 218.96 300.407 221.251 299.605C223.292 298.891 225.214 298.471 226.768 296.799C228.141 295.319 228.869 291.96 228.869 290.026C228.869 289.144 228.639 288.304 228.639 287.431C228.639 287.023 228.463 286.504 228.293 286.163" stroke="#2B2B2B" stroke-width="2" stroke-linecap="round" stroke-linejoin="round"/>
<path d="M233.12 284.417C233.12 285.907 233.834 288.655 234.126 290.115C234.293 290.951 234.967 291.621 235.131 292.461C235.378 293.721 234.186 295.534 232.727 295.94C231.001 296.419 231.171 296.383 229.434 296.818C228.888 296.954 227.65 297.488 227.088 297.488C225.895 297.835 224.407 298.829 223.736 298.829" stroke="#2B2B2B" stroke-width="2" stroke-linecap="round" stroke-linejoin="round"/>
<path d="M230.104 188.565C226.381 192.288 228.054 196.409 226.753 200.966C225.73 204.543 221.725 206.242 221.725 210.35C221.725 213.448 222.537 215.545 223.736 218.393C225.639 222.913 226.539 226.466 228.093 231.129C229.733 236.049 230.574 240.716 232.45 245.54C234.111 249.811 234.126 256.434 234.126 260.957" stroke="#2B2B2B" stroke-width="2" stroke-linecap="round" stroke-linejoin="round"/>
<path d="M2 103.202C5.86663 103.202 9.76327 103.34 13.6283 103.202C15.1459 103.148 16.4674 101.644 17.989 102.079C19.9204 102.631 13.9492 109.381 12.7034 110.073C7.1625 113.152 17.985 109.042 17.064 107.43C15.9641 105.506 7.58686 106.704 6.09635 107.959C4.38258 109.402 8.95514 108.939 9.66414 108.488C13.998 105.73 13.2258 106.822 11.7784 110.338C11.1488 111.867 14.347 111.527 15.0819 111.527C16.4156 111.527 13.4649 112.433 12.7694 113.245C9.86282 116.636 16.1697 110.732 15.3462 111.791C13.3019 114.419 17.6008 114.734 16.5354 117.473C15.5288 120.062 20.5766 119.208 19.7729 122.825C19.2515 125.171 18.1963 126.983 20.1032 129.101C21.5987 130.763 25.768 142.528 23.9353 137.03C22.6512 133.178 21.2637 129.801 21.0282 125.798C20.942 124.332 19.758 124.674 18.6497 124.609C16.8751 124.504 18.1093 122.67 16.7997 122.296C12.6086 121.099 18.0613 118.603 16.0069 116.548C14.431 114.972 13.7602 113.024 11.5141 111.527" stroke="#B2D1A8" stroke-width="3" stroke-linecap="round" stroke-linejoin="round"/>
<path d="M206.383 149.859C207.027 149.467 210.437 147.704 208.44 149.701C207.386 150.755 208.274 150.098 208.985 150.738C209.91 151.571 210.697 149.035 210.197 151.283C209.997 152.184 210.289 152.794 210.971 153.339C211.671 153.9 211.844 154.341 212.711 154.851C213.309 155.203 213.027 156.644 213.027 157.294C213.027 157.75 212.759 159.616 213.097 159.913C213.339 160.124 214.505 157.107 214.679 156.89C215.163 156.286 214.547 158.085 215.4 158.085C216.339 158.085 217.146 158.346 218.089 158.401C219.464 158.482 218.377 158.682 217.773 157.927C217.477 157.557 216.875 157.996 216.578 157.698C216.121 157.241 216.964 157.051 217.298 157.312C218.479 158.23 221.16 159.664 221.253 161.249C221.35 162.903 223.371 164.251 221.429 165.361C220.818 165.71 220.464 166.466 219.987 166.943C219.361 167.57 218.513 167.581 217.896 168.103C217.12 168.76 219.446 166.928 218.727 167.646C217.846 168.527 216.53 168.021 216.824 167.646C217.236 167.119 218.51 164.973 217.702 164.166C217.17 163.634 215.725 163.909 215.242 163.305C215.065 163.084 213.958 162.336 214.047 162.514C214.369 163.159 216.464 167.043 217.14 165.186C217.481 164.249 217.953 162.514 216.507 162.514C216.218 162.514 215.409 162.198 215.699 162.198C216.066 162.198 216.643 162.68 216.982 162.83C217.82 163.203 218.299 163.951 219.038 164.342C220.354 165.038 218.03 162.455 217.773 162.198C217.212 161.637 216.48 160.811 215.734 160.598C214.78 160.326 214.546 159.178 215.875 159.368C216.987 159.527 219.671 160.868 219.671 162.198" stroke="#F46D69" stroke-width="3" stroke-linecap="round" stroke-linejoin="round"/>
<path d="M231.797 185.581C231.902 185.527 233.917 184.435 233.931 184.678C233.946 184.936 233.52 185.376 233.315 185.535C233.053 185.739 232.007 185.745 232.34 185.745C233.093 185.745 233.712 185.19 234.405 184.942C234.901 184.766 235.451 184.536 235.901 184.286C236.313 184.057 236.771 183.906 237.178 183.647C237.608 183.373 238.363 183.328 238.363 182.69C238.363 181.985 238.363 181.279 238.363 180.574C238.363 180.056 238.387 179.552 238.276 179.056C238.231 178.85 238.166 178.645 238.035 178.481C237.986 178.421 238.048 179.197 238.117 179.343C238.381 179.902 238.8 180.363 239.083 180.903C239.213 181.148 239.266 181.433 239.266 181.705C239.266 182.19 238.865 182.367 238.477 182.626C237.758 183.105 236.952 183.454 236.234 183.944C235.7 184.308 234.938 184.887 234.556 185.417C234.229 185.869 233.799 186.709 233.274 186.958C233.056 187.061 232.726 186.822 232.536 186.73C232.153 186.544 231.828 186.217 231.432 186.073C231.06 185.938 230.61 186.079 230.402 185.663" stroke="#F46D69" stroke-width="2" stroke-linecap="round" stroke-linejoin="round"/>
</svg>
