<svg width="205" height="220" viewBox="0 0 305 320" fill="none" xmlns="http://www.w3.org/2000/svg">
<path d="M146.647 145.589C148.657 140.298 151.239 137.066 154.119 132.245C156.962 127.486 160.723 121.596 162.659 116.232C164.395 111.424 165.502 106.521 167.463 101.821C168.658 98.9565 170.132 97.0171 172.801 94.3484" stroke="#2B2B2B" stroke-width="3" stroke-linecap="round" stroke-linejoin="round"/>
<path d="M165.52 223.132C165.286 207.215 167.116 196.283 171.353 181.032C174.775 168.711 176.775 164.238 180.273 151.994C178.138 133.313 203.073 88.3258 222.439 107.692C226.776 112.029 233.547 120.288 234.716 125.84C238.503 143.828 237.018 156.523 234.716 174.945C233.428 185.244 230.49 196.714 230.49 208.038C230.49 217.124 230.49 225.766 230.49 234.725" stroke="#2B2B2B" stroke-width="3" stroke-linecap="round" stroke-linejoin="round"/>
<path d="M165.862 211.24C172.729 208.461 181.898 210.488 188.813 212.308C193.399 213.515 214.587 226.12 221.906 228.321" stroke="#2B2B2B" stroke-width="3" stroke-linecap="round" stroke-linejoin="round"/>
<path d="M197.352 216.578C196.343 217.95 194.441 218.694 193.083 219.78C191.936 220.698 193.346 222.053 194.151 224.584C195.339 228.32 197.593 230.44 198.421 233.658C200.04 239.958 202.779 247.09 207.494 251.805" stroke="#2B2B2B" stroke-width="3" stroke-linecap="round" stroke-linejoin="round"/>
<path d="M193.617 238.462C200.415 234.509 205.694 232.057 213.366 232.057" stroke="#2B2B2B" stroke-width="3" stroke-linecap="round" stroke-linejoin="round"/>
<path d="M191.508 229.889C193.876 226.763 194.496 223.735 198.421 223.516C199.709 223.445 200.022 222.983 201.623 221.915C202.691 221.204 203.607 220.314 204.826 220.314" stroke="#2B2B2B" stroke-width="3" stroke-linecap="round" stroke-linejoin="round"/>
<path d="M198.784 243.923C202.28 243.363 205.416 243.454 208.689 242.363C210.941 241.612 212.16 240.38 214.146 239.245C217.358 237.409 220.251 234.752 223.507 233.124" stroke="#2B2B2B" stroke-width="3" stroke-linecap="round" stroke-linejoin="round"/>
<path d="M223.845 233.124C227.413 234.03 235.127 236.284 237.918 238.995C240.432 241.438 242.722 244.706 242.722 248.069C242.722 250.408 241.654 254.474 239.519 256.609C236.851 259.278 229.476 261.702 226.176 261.947C213.575 262.88 197.887 262.48 189.97 258.333C185.611 256.049 182.408 254.474 178.672 251.272" stroke="#2B2B2B" stroke-width="3" stroke-linecap="round" stroke-linejoin="round"/>
<path d="M147.178 195.531C148.828 200.286 152.472 203.547 155.71 207.247C157.532 209.329 161.592 212.842 165.328 213.375" stroke="#2B2B2B" stroke-width="3" stroke-linecap="round" stroke-linejoin="round"/>
<path d="M146.927 195.228C146.927 198.085 146.246 201.498 146.647 204.301C146.947 206.405 146.927 208.116 146.927 210.311C146.927 211.543 147.499 213.299 146.927 214.443C146.591 215.114 145.676 216.262 145.046 216.578" stroke="#2B2B2B" stroke-width="2" stroke-linecap="round" stroke-linejoin="round"/>
<path d="M120.251 206.728C124.615 206.728 128.93 206.911 133.256 207.469C134.837 207.673 137.21 207.831 138.795 207.469C141.173 206.925 143.884 206.653 145.046 204.329" stroke="#2B2B2B" stroke-width="3" stroke-linecap="round" stroke-linejoin="round"/>
<path d="M133.837 211.24C133.303 212.841 130.634 211.24 131.702 214.976C132.235 217.112 134.535 221.445 135.438 222.983C136.093 224.099 139.174 230.989 140.242 232.59C141.309 234.192 144.887 240.063 146.113 240.063C149.316 240.063 149.975 237.762 151.451 236.86C152.738 236.074 154.894 235.347 156.254 234.725C157.124 234.328 157.956 233.123 158.91 233.123" stroke="#2B2B2B" stroke-width="3" stroke-linecap="round" stroke-linejoin="round"/>
<path d="M135.972 235.259C139.545 234.187 141.726 233.788 145.045 232.057C146.436 231.331 151.517 229.924 153.044 229.924" stroke="#2B2B2B" stroke-width="3" stroke-linecap="round" stroke-linejoin="round"/>
<path d="M136.505 227.257C139.279 226.297 142.082 225.651 145.046 225.651C146.021 225.651 148.248 226.185 149.316 225.117" stroke="#2B2B2B" stroke-width="3" stroke-linecap="round" stroke-linejoin="round"/>
<path d="M127.182 222.992C129.766 222.007 131.168 221.559 134.904 220.314C136.505 219.78 138.698 218.179 140.242 218.179" stroke="#2B2B2B" stroke-width="3" stroke-linecap="round" stroke-linejoin="round"/>
<path d="M142.739 210.521C140.413 212.212 139.708 213.291 139.708 216.044C139.708 217.37 140.792 218.237 141.843 218.179C142.974 218.116 144.137 217.092 145.045 216.638" stroke="#2B2B2B" stroke-width="3" stroke-linecap="round" stroke-linejoin="round"/>
<path d="M145.045 216.578C151.45 220.314 163.193 225.651 171.199 227.786C176.003 230.989 176.862 234.972 178.672 238.461C181.738 244.376 175.31 252.156 169.064 253.94C160.012 254.862 146.113 255.541 135.438 251.805C129.739 248.898 125.297 248.603 120.493 241.511C118.056 237.914 117.072 235.892 116.223 232.59C115.163 228.469 114.045 219.611 113.02 215.51C111.525 209.528 111.378 204.828 109.167 199.141C108.187 196.621 107.147 194.117 106.179 191.601C104.607 187.512 104.29 179.549 105.247 175.242C107.083 166.979 102.077 156.556 105.468 148.926C106.376 146.884 108.029 144.752 108.029 142.524" stroke="#2B2B2B" stroke-width="3" stroke-linecap="round" stroke-linejoin="round"/>
<path d="M107.683 141.853C107.82 138.229 109.501 134.248 110.601 130.797C111.911 126.686 114.714 122.358 117.29 118.886C122.27 112.175 129.567 113.564 132.769 117.3C136.954 119.16 140.929 127.018 142.377 130.797C145.402 138.695 146.304 144.162 147.234 152.528C148.815 166.761 147.234 181.892 147.234 195.761" stroke="#2B2B2B" stroke-width="3" stroke-linecap="round" stroke-linejoin="round"/>
<path d="M115.689 232.057C111.865 230.108 109.284 227.704 105.308 224.893C98.0753 219.78 94.291 215.404 89.0015 211.24C80.6522 204.668 75.124 200.368 69.253 199.498C64.8166 198.841 62.2949 199.158 60.0993 202.7C58.7747 204.838 58.5777 206.628 58.5777 209.105C58.5777 211.803 59.0421 214.443 60.0993 217.112C62.848 224.05 64.7845 225.565 69.253 231.523C70.8625 233.669 77.2593 238.396 80.3611 241.092C89.0018 248.603 97.5418 250.738 107.149 256.609C111.052 259.496 117.728 260.862 122.34 262.399C128.464 264.441 132.896 267.965 139.174 269.419C145.715 270.935 152.336 273.644 158.923 275.291C166.126 277.091 173.094 278.41 179.74 281.696C181.651 282.64 187.761 283.94 189.881 284.364C195.257 285.44 198.897 286.38 215.501 284.924C222.973 283.297 224.83 280.797 227.777 275.824C229.734 272.523 227.608 265.802 226.561 262.399" stroke="#2B2B2B" stroke-width="3" stroke-linecap="round" stroke-linejoin="round"/>
<path d="M200.022 285.965C199.51 289.436 198.42 292.61 198.42 296.107C198.42 297.524 201.037 298.242 202.157 298.242C204.292 298.242 206.211 298.28 208.562 297.708C210.359 297.271 212.05 297.174 213.899 297.174" stroke="#2B2B2B" stroke-width="3" stroke-linecap="round" stroke-linejoin="round"/>
<path d="M221.905 282.763C227.948 282.763 228.52 288.581 228.52 292.904C228.52 296.537 228.626 299.964 228.52 303.579C228.383 308.214 226.176 311.586 221.372 312.119C218.169 312.119 215.453 311.009 214.967 307.849C214.481 304.69 214.433 300.377 214.433 298.775C214.433 296.64 213.444 288.634 215.5 286.499" stroke="#2B2B2B" stroke-width="3" stroke-linecap="round" stroke-linejoin="round"/>
<path d="M192.549 284.898C192.549 288.915 193.083 292.904 191.482 295.039C189.67 297.455 187.647 298.633 186.144 299.309C183.3 300.59 181.631 300.725 178.672 301.444C175.489 302.219 171.276 303.267 167.997 303.267C165.978 303.267 164.195 303.267 162.125 303.267" stroke="#2B2B2B" stroke-width="3" stroke-linecap="round" stroke-linejoin="round"/>
<path d="M162.659 303.579C168.822 303.579 189.497 301.824 195.592 300.938C198.881 300.459 211.111 300.377 214.433 300.377" stroke="#2B2B2B" stroke-width="3" stroke-linecap="round" stroke-linejoin="round"/>
<path d="M160.525 296.641C161.581 299.002 161.948 301.642 162.004 304.22C162.004 306.884 162.199 310.05 161.592 312.653C161.04 315.019 160.098 316.389 157.855 317.457C153.585 318.524 151.467 312.686 150.383 310.518C149.391 307.849 149.268 305.208 149.392 302.672C149.473 301 149.708 299.672 150.04 298.776C150.497 297.542 151.451 295.573 152.518 294.506C155.187 292.904 155.521 292.856 158.39 293.972C159.91 294.563 159.895 295.233 160.525 296.641Z" stroke="#2B2B2B" stroke-width="3" stroke-linecap="round" stroke-linejoin="round"/>
<path d="M156.255 307.316C157.655 307.283 156.746 307.712 156.788 306.248C156.805 305.66 156.369 305.092 155.572 305.181C154.446 305.306 156.836 305.91 156.255 306.782" stroke="#2B2B2B" stroke-width="3" stroke-linecap="round" stroke-linejoin="round"/>
<path d="M217.102 298.979C219.738 298.979 221.617 299.36 224.179 299.217C225.056 299.169 222.385 298.979 222.048 298.979C221.225 298.979 220.482 299.217 219.652 299.217" stroke="#2B2B2B" stroke-width="3" stroke-linecap="round" stroke-linejoin="round"/>
<path d="M81.1942 242.198C80.9471 243.109 81.2127 247.659 82.0623 248.603C82.9037 249.538 84.227 250.652 84.7316 251.806C85.7138 254.051 83.8678 257.694 83.8678 260.15" stroke="#2B2B2B" stroke-width="3" stroke-linecap="round" stroke-linejoin="round"/>
<path d="M97.0078 251.805C96.0707 252.742 94.8725 253.406 94.3391 255.008C94.3394 256.075 95.5244 257.67 95.94 258.21C96.6313 259.109 98.1679 259.238 99.1428 259.811C99.8269 260.214 100.923 261.413 101.812 261.413" stroke="#2B2B2B" stroke-width="3" stroke-linecap="round" stroke-linejoin="round"/>
<path d="M94.8727 268.885C95.2755 267.006 97.0254 265.116 98.6373 264.08C100.106 263.136 101.514 261.86 102.925 260.811C104.19 259.872 105.116 259.611 106.615 259.278C107.302 259.125 108.217 258.744 109.119 258.244" stroke="#2B2B2B" stroke-width="3" stroke-linecap="round" stroke-linejoin="round"/>
<path d="M79.3939 268.885C85.2652 267.284 93.8199 269.248 95.4065 269.953C96.7809 270.564 99.6765 270.922 101.811 271.346C105.548 272.088 109.406 271.346 112.93 271.346" stroke="#2B2B2B" stroke-width="3" stroke-linecap="round" stroke-linejoin="round"/>
<path d="M63.6195 264.676C63.8604 259.858 68.1872 258.903 71.9213 259.812C75.791 260.753 77.7208 264.471 79.3938 269.953C79.3938 275.291 77.3303 278.273 74.6305 278.916C71.8439 279.579 68.5211 277.761 66.584 275.824C63.9551 273.195 63.4536 267.994 63.6195 264.676Z" stroke="#2B2B2B" stroke-width="3" stroke-linecap="round" stroke-linejoin="round"/>
<path d="M71.9214 259.812C74.2277 259.812 75.6576 260.346 78.3264 260.346C80.9952 260.345 82.5642 260.071 83.6639 260.346" stroke="#2B2B2B" stroke-width="3" stroke-linecap="round" stroke-linejoin="round"/>
<path d="M114.088 269.953C118.136 269.953 119.425 269.953 123.162 269.44" stroke="#2B2B2B" stroke-width="3" stroke-linecap="round" stroke-linejoin="round"/>
<path d="M112.487 265.149C111.817 267.444 112.487 268.639 112.487 271.021C112.487 271.674 113.739 277.925 115.155 279.027C116.417 280.008 119.425 281.696 122.459 279.26C125.297 276.358 124.763 270.31 124.763 267.284C123.617 263.422 122.093 261.947 118.358 261.947C115.286 261.947 113.319 262.296 112.487 265.149Z" stroke="#2B2B2B" stroke-width="3" stroke-linecap="round" stroke-linejoin="round"/>
<path d="M56.9619 185.28C63.6642 185.28 70.3571 185.628 77.0457 185.724C79.6686 185.761 82.2778 185.89 84.8917 185.946C85.8123 185.966 86.753 186.18 87.6551 186.341C88.8757 186.558 90.1579 186.198 91.3684 186.501C92.8811 186.879 94.7175 187.119 96.266 187.291C97.0255 187.375 97.717 187.854 98.4989 187.932C99.255 188.008 100.045 187.944 100.806 187.944C101.724 187.944 102.596 187.722 103.483 187.722C104.55 187.722 104.928 187.278 105.814 186.834" stroke="#2B2B2B" stroke-width="3" stroke-linecap="round" stroke-linejoin="round"/>
<path d="M165.907 30.3748L166.211 29.422L165.907 30.3748ZM156.968 30.2309L157.327 31.1643V31.1643L156.968 30.2309ZM174.603 34.4227L174.126 35.3015L174.126 35.3016L174.603 34.4227ZM174.697 34.4738L174.22 35.3526V35.3526L174.697 34.4738ZM217.363 65.0799L216.729 65.8531L217.363 65.0799ZM224.244 70.7049L224.935 69.9815C224.915 69.9632 224.895 69.9456 224.875 69.9288L224.244 70.7049ZM245.225 88.604L245.856 87.8279L245.848 87.8215L245.225 88.604ZM245.225 88.6043L244.595 89.3805L244.603 89.3868L245.225 88.6043ZM255.608 97.0636L254.958 97.824L255.608 97.0636ZM284.464 130.908L283.615 131.437L283.615 131.437L284.464 130.908ZM284.535 130.997L285.242 130.29L285.242 130.29L284.535 130.997ZM296.67 162.209L295.681 162.357L295.681 162.358L296.67 162.209ZM296.689 162.289L295.738 162.597L295.738 162.598L296.689 162.289ZM298.066 166.486L297.116 166.8L298.066 166.486ZM302.87 185.978L301.871 186.026L302.87 185.978ZM295.176 208.251L295.882 208.959C295.928 208.914 295.969 208.864 296.005 208.811L295.176 208.251ZM279.091 218.222L278.757 217.28L279.091 218.222ZM262.101 219.307L261.774 220.252L262.101 219.307ZM246.798 213.121L246.368 214.024L246.798 213.121ZM231.88 203.544L232.582 202.832L232.582 202.831L231.88 203.544ZM231.173 203.55L231.886 204.251L231.886 204.251L231.173 203.55ZM231.179 204.257L231.88 203.544L231.179 204.257ZM246.368 214.024L246.798 213.121L246.368 214.024ZM261.774 220.252L262.101 219.307H262.101L261.774 220.252ZM279.425 219.165L279.091 218.222L279.425 219.165ZM295.917 208.925L295.21 208.218H295.21L295.917 208.925ZM295.978 208.851L295.149 208.291L295.149 208.291L295.978 208.851ZM303.869 185.929L304.868 185.881V185.881L303.869 185.929ZM299.009 166.152L299.959 165.838L299.958 165.836L299.009 166.152ZM299.006 166.141L298.056 166.454L298.057 166.457L299.006 166.141ZM297.653 162.02L296.664 162.168C296.672 162.223 296.685 162.276 296.702 162.328L297.653 162.02ZM285.283 130.331L284.434 130.86C284.474 130.924 284.521 130.983 284.574 131.036L285.283 130.331ZM256.257 96.3033L256.907 95.5429L256.257 96.3033ZM245.791 87.7757L245.169 88.5582L245.791 87.7757ZM224.92 69.9678L225.611 69.2444L225.611 69.2444L224.92 69.9678ZM224.89 69.9414L225.521 69.1656L225.521 69.1653L224.89 69.9414ZM218.008 64.3153L217.373 65.0877L217.374 65.0885L218.008 64.3153ZM218.005 64.313L218.64 63.5405L218.64 63.5398L218.005 64.313ZM175.175 33.5949L174.697 34.4737L174.697 34.4738L175.175 33.5949ZM175.043 33.5234L175.52 32.6446C175.508 32.6379 175.495 32.6314 175.483 32.6252L175.043 33.5234ZM175.043 33.5233L174.566 34.4021C174.578 34.4088 174.59 34.4153 174.603 34.4214L175.043 33.5233ZM166.211 29.422L166.514 28.4691L166.514 28.4691L166.211 29.422ZM156.609 29.2976L156.968 30.2309V30.2309L156.609 29.2976ZM124.829 68.517L123.902 68.1417L124.829 68.517ZM115.593 95.0705L114.64 94.7667L114.64 94.7667L115.593 95.0705ZM115.405 95.6615L114.452 95.3578V95.3578L115.405 95.6615ZM107.598 118.06L108.518 118.452H108.518L107.598 118.06ZM103.574 125.88L104.446 126.371V126.371L103.574 125.88ZM102.106 128.466L102.975 128.962L102.975 128.961L102.106 128.466ZM102.106 128.466L102.964 128.981C102.967 128.975 102.971 128.968 102.974 128.962L102.106 128.466ZM102.106 128.466L101.249 127.952C101.245 127.958 101.241 127.965 101.237 127.971L102.106 128.466ZM99.2352 133.612L100.119 134.08L99.2352 133.612ZM86.7675 146.014L87.3336 146.838L87.3378 146.835L86.7675 146.014ZM86.7656 146.015L86.1995 145.191L86.1954 145.194L86.7656 146.015ZM83.3762 148.382L82.7995 147.565L83.3762 148.382ZM61.811 158.149L62.1024 159.105L62.1062 159.104L61.811 158.149ZM61.8075 158.15L61.5161 157.193L61.5123 157.194L61.8075 158.15ZM58.8736 159.063L58.2834 159.87C58.5402 160.058 58.8709 160.112 59.1742 160.016L58.8736 159.063ZM58.3306 159.032L57.8354 158.163L57.8354 158.163L58.3306 159.032ZM54.8046 160.662L54.4308 159.735C54.426 159.736 54.4213 159.738 54.4166 159.74L54.8046 160.662ZM54.804 160.662L55.1778 161.59C55.1826 161.588 55.1873 161.586 55.192 161.584L54.804 160.662ZM53.3146 161.286L53.7262 162.197H53.7262L53.3146 161.286ZM51.727 162.007L51.3119 161.098L51.3115 161.098L51.727 162.007ZM51.7208 162.01L52.1358 162.92L52.1362 162.92L51.7208 162.01ZM43.7293 165.36L43.4019 164.415L43.7293 165.36ZM34.0115 166.974L34.0759 165.976H34.0759L34.0115 166.974ZM28.6708 167.26L28.7846 168.253H28.7846L28.6708 167.26ZM23.2088 168.138L22.9853 167.163L22.9852 167.163L23.2088 168.138ZM23.105 168.174L22.6738 167.272H22.6738L23.105 168.174ZM19.6727 170.768L20.4864 171.349H20.4864L19.6727 170.768ZM18.0625 174.82L19.0305 175.07H19.0305L18.0625 174.82ZM15.8922 179.801L15.0217 179.309L15.0217 179.309L15.8922 179.801ZM15.415 180.636L14.5479 180.138H14.5479L15.415 180.636ZM13.2803 184.78L14.2049 185.161H14.2049L13.2803 184.78ZM13.2757 194.871L12.3407 195.226L12.3407 195.226L13.2757 194.871ZM15.3686 196.02L15.4255 195.021H15.4255L15.3686 196.02ZM18.5073 195.553L18.2138 194.597H18.2138L18.5073 195.553ZM21.6912 194.058L21.1283 193.231L21.1283 193.231L21.6912 194.058ZM23.7329 191.825L23.0699 191.076C22.9618 191.172 22.8757 191.29 22.8176 191.422L23.7329 191.825ZM24.0293 191.496L25.0032 191.723C25.1105 191.263 24.8811 190.791 24.4532 190.591C24.0253 190.39 23.5156 190.517 23.2311 190.894L24.0293 191.496ZM22.8246 197.875L23.8165 198.002L23.8165 198.002L22.8246 197.875ZM22.8207 197.95L21.821 197.973V197.973L22.8207 197.95ZM24.101 201.016L23.3408 201.666L23.3409 201.666L24.101 201.016ZM26.8738 202.958L26.53 203.897H26.53L26.8738 202.958ZM30.0445 202.992L30.4422 203.909H30.4422L30.0445 202.992ZM32.1971 200.153L31.227 199.91L32.1971 200.153ZM36.0739 188.512L35.1795 188.065H35.1795L36.0739 188.512ZM39.0888 181.557L38.1505 181.211L38.1503 181.211L39.0888 181.557ZM39.2143 181.216L38.9282 180.258C38.6265 180.348 38.3849 180.575 38.276 180.87L39.2143 181.216ZM40.2104 181.196L40.8309 180.412L40.8309 180.412L40.2104 181.196ZM40.411 182.218L41.4082 182.293V182.293L40.411 182.218ZM38.6106 187.889L37.6875 187.505L38.6106 187.889ZM37.0344 191.521L37.9488 191.926L37.9488 191.926L37.0344 191.521ZM36.9155 191.79L37.8298 192.195L37.8298 192.195L36.9155 191.79ZM35.4402 195.169L34.5193 194.779H34.5193L35.4402 195.169ZM33.4821 201.116L34.4765 201.222L33.4821 201.116ZM34.8361 207.498L34.0529 208.12L34.0529 208.12L34.8361 207.498ZM36.7928 208.824L36.5568 209.796H36.5568L36.7928 208.824ZM39.0743 208.473L39.5646 209.345L39.5646 209.345L39.0743 208.473ZM43.4774 204.458L42.6938 203.837H42.6938L43.4774 204.458ZM46.7398 199.46L47.6161 199.942L47.6161 199.942L46.7398 199.46ZM46.9943 198.995L47.8723 199.474C47.878 199.463 47.8834 199.453 47.8887 199.442L46.9943 198.995ZM46.9944 198.995L46.1164 198.516C46.1107 198.526 46.1053 198.537 46.1 198.548L46.9944 198.995ZM51.3232 191.711L52.1531 192.269L51.3232 191.711ZM54.6229 187.478L55.3431 188.172L55.3431 188.172L54.6229 187.478ZM57.5908 185.464L57.7514 186.451L57.7517 186.451L57.5908 185.464ZM57.6785 185.442L58.0145 186.384L58.0146 186.384L57.6785 185.442ZM61.1325 183.318L61.7524 184.102H61.7524L61.1325 183.318ZM61.1893 183.273L60.5695 182.488L60.5694 182.488L61.1893 183.273ZM62.4649 182.34L61.9489 181.484L61.9489 181.484L62.4649 182.34ZM61.9489 181.484L61.4329 180.627L61.4329 180.627L61.9489 181.484ZM60.5695 182.488L61.1893 183.273L61.1893 183.273L60.5695 182.488ZM60.5577 182.497L59.9379 181.713L59.9379 181.713L60.5577 182.497ZM57.3825 184.486L57.5593 185.47C57.6157 185.46 57.6711 185.445 57.7249 185.425L57.3825 184.486ZM53.9026 186.784L53.1823 186.091H53.1823L53.9026 186.784ZM50.4933 191.153L51.3232 191.711L50.4933 191.153ZM46.1153 198.518L45.2373 198.039L45.237 198.04L46.1153 198.518ZM46.1136 198.521L46.9916 199L46.9919 198.999L46.1136 198.521ZM45.8636 198.979L44.9874 198.497L44.9874 198.497L45.8636 198.979ZM42.6938 203.837L43.4774 204.458H43.4774L42.6938 203.837ZM38.5841 207.602L39.0743 208.473H39.0744L38.5841 207.602ZM37.0288 207.852L36.7928 208.824L36.7928 208.824L37.0288 207.852ZM35.6192 206.877L36.4023 206.255L36.4023 206.255L35.6192 206.877ZM34.4765 201.222L35.4709 201.327L34.4765 201.222ZM36.3611 195.558L35.4402 195.169H35.4402L36.3611 195.558ZM37.8303 192.194L38.7446 192.599L38.7446 192.599L37.8303 192.194ZM37.9488 191.926L38.8631 192.331L38.8631 192.331L37.9488 191.926ZM39.5336 188.274L40.4567 188.659L39.5336 188.274ZM41.4082 182.293L40.411 182.218L41.4082 182.293ZM40.8309 180.412L40.2104 181.196L40.2104 181.196L40.8309 180.412ZM38.6626 180.345L38.9959 181.288L38.6626 180.345ZM38.3605 180.642L37.4232 180.294L37.4231 180.294L38.3605 180.642ZM38.1508 181.21L39.0892 181.556H39.0892L38.1508 181.21ZM35.1795 188.065L36.0739 188.512H36.0739L35.1795 188.065ZM31.227 199.91L30.2569 199.668L31.227 199.91ZM29.6468 202.074L30.0445 202.992H30.0445L29.6468 202.074ZM27.2177 202.018L26.8738 202.958H26.8738L27.2177 202.018ZM24.8612 200.366L25.6214 199.717L25.6214 199.717L24.8612 200.366ZM23.8215 197.963L22.8298 197.835C22.8227 197.889 22.8202 197.944 22.8222 197.999L23.8215 197.963ZM26.9056 184.606L25.9478 184.318H25.9478L26.9056 184.606ZM27.4989 182.693L26.5603 182.348C26.5556 182.361 26.5511 182.374 26.5468 182.387L27.4989 182.693ZM28.0769 181.114L27.1376 180.771H27.1376L28.0769 181.114ZM28.5621 179.827L29.4716 180.243L29.4716 180.243L28.5621 179.827ZM28.6789 179.626L29.5129 180.178L29.5135 180.177L28.6789 179.626ZM28.7194 179.564L29.554 180.115L29.5553 180.113L28.7194 179.564ZM29.2001 178.746L30.0784 179.224L30.0784 179.224L29.2001 178.746ZM29.2329 178.241L28.2637 178.487L28.2637 178.487L29.2329 178.241ZM28.8534 177.828L29.1379 176.869H29.1379L28.8534 177.828ZM28.3104 177.967L27.629 177.235L27.6289 177.236L28.3104 177.967ZM28.1488 178.168L27.3075 177.628L27.3075 177.628L28.1488 178.168ZM27.5898 179.389L26.6583 179.025H26.6583L27.5898 179.389ZM26.5532 182.367L27.4917 182.712C27.4965 182.699 27.501 182.686 27.5052 182.673L26.5532 182.367ZM26.5012 182.508L27.4397 182.854L27.4397 182.854L26.5012 182.508ZM26.0278 183.908L26.9774 184.221L26.9774 184.221L26.0278 183.908ZM25.9271 184.213L24.9777 183.899L24.9777 183.899L25.9271 184.213ZM25.8641 184.403L24.9149 184.088L24.9149 184.088L25.8641 184.403ZM24.912 187.17L25.8519 187.511H25.8519L24.912 187.17ZM23.8548 189.786L22.9504 189.359L22.9504 189.359L23.8548 189.786ZM23.3684 190.695L24.2111 191.233L24.2111 191.233L23.3684 190.695ZM23.0367 191.103L22.4689 190.28L22.4689 190.28L23.0367 191.103ZM22.855 191.332L21.9238 190.967L21.9238 190.967L22.855 191.332ZM21.1283 193.231L20.5653 192.405H20.5653L21.1283 193.231ZM18.2138 194.597L17.9203 193.641H17.9203L18.2138 194.597ZM15.4255 195.021L15.4823 194.023H15.4823L15.4255 195.021ZM14.2107 194.516L13.2757 194.871L13.2757 194.871L14.2107 194.516ZM14.2049 185.161L13.2803 184.78L14.2049 185.161ZM16.2716 181.153L17.1388 181.651H17.1388L16.2716 181.153ZM16.7627 180.293L17.6332 180.786H17.6332L16.7627 180.293ZM19.0305 175.07L19.9985 175.321H19.9985L19.0305 175.07ZM20.4864 171.349L19.6727 170.768H19.6727L20.4864 171.349ZM23.4863 169.1L23.2654 168.125C23.1919 168.141 23.1205 168.166 23.0526 168.199L23.4863 169.1ZM28.7846 168.253L28.6708 167.26H28.6708L28.7846 168.253ZM33.9471 167.971L34.0115 166.974L33.9471 167.971ZM44.0567 166.305L43.7293 165.36H43.7293L44.0567 166.305ZM52.1484 162.914L51.7358 162.003L51.7333 162.005L52.1484 162.914ZM52.1538 162.912L52.5664 163.823L52.5689 163.822L52.1538 162.912ZM53.7262 162.197L54.1378 163.108L53.7262 162.197ZM55.0944 161.625L55.4688 162.552H55.4688L55.0944 161.625ZM58.2895 160.195L58.6111 159.248C58.3508 159.159 58.0656 159.182 57.8226 159.31L58.2895 160.195ZM58.6014 160.198L58.9042 161.151H58.9042L58.6014 160.198ZM62.0951 159.108L62.3902 160.064L62.3934 160.063L62.0951 159.108ZM62.0973 159.107L61.8023 158.152L61.7991 158.153L62.0973 159.107ZM83.9529 149.199L83.3762 148.382L83.9529 149.199ZM87.327 146.844L86.7571 146.022L87.327 146.844ZM100.119 134.08L99.2352 133.612L100.119 134.08ZM102.965 128.979L103.834 129.474L103.834 129.474L102.965 128.979ZM102.966 128.977L102.097 128.482L102.097 128.482L102.966 128.977ZM104.446 126.371L103.574 125.88V125.88L104.446 126.371ZM108.518 118.452L107.598 118.06H107.598L108.518 118.452ZM116.348 95.9948L115.395 95.691V95.6911L116.348 95.9948ZM116.546 95.3742L115.593 95.0705L115.593 95.0705L116.546 95.3742ZM125.756 68.8923L126.683 69.2675L125.756 68.8923ZM166.211 29.422C163.063 28.4196 159.784 28.0764 156.609 29.2976L157.327 31.1643C159.921 30.1666 162.696 30.4018 165.604 31.3277L166.211 29.422ZM175.081 33.5439C172.347 32.0599 169.317 30.4112 166.211 29.422L165.604 31.3277C168.497 32.2491 171.359 33.7994 174.126 35.3015L175.081 33.5439ZM175.175 33.5949L175.081 33.5439L174.126 35.3016L174.22 35.3526L175.175 33.5949ZM217.997 64.3066C203.841 52.698 191.077 42.2275 175.175 33.5949L174.22 35.3526C189.93 43.8807 202.554 54.2288 216.729 65.8531L217.997 64.3066ZM224.875 69.9288C222.534 68.0267 220.248 66.1522 217.997 64.3066L216.729 65.8531C218.979 67.6983 221.268 69.5756 223.614 71.481L224.875 69.9288ZM245.848 87.8215C239.344 82.6463 232.487 77.1889 224.935 69.9815L223.554 71.4284C231.178 78.7048 238.1 84.2124 244.602 89.3865L245.848 87.8215ZM245.856 87.8282L245.855 87.8279L244.594 89.3801L244.595 89.3804L245.856 87.8282ZM256.257 96.3033C252.863 93.4038 249.405 90.6526 245.848 87.8218L244.603 89.3868C248.165 92.2212 251.595 94.9509 254.958 97.824L256.257 96.3033ZM285.313 130.379C275.141 114.05 265.898 104.538 256.257 96.3033L254.958 97.824C264.465 105.945 273.566 115.305 283.615 131.437L285.313 130.379ZM285.242 130.29C285.269 130.317 285.293 130.347 285.313 130.379L283.615 131.437C283.676 131.534 283.747 131.623 283.828 131.704L285.242 130.29ZM297.659 162.061C296.06 151.399 293.379 138.427 285.242 130.29L283.828 131.704C291.442 139.318 294.074 151.642 295.681 162.357L297.659 162.061ZM297.64 161.981C297.649 162.007 297.655 162.033 297.659 162.06L295.681 162.358C295.694 162.439 295.712 162.519 295.738 162.597L297.64 161.981ZM299.016 166.173C298.573 164.831 298.113 163.437 297.64 161.98L295.738 162.598C296.212 164.06 296.674 165.459 297.116 166.8L299.016 166.173ZM303.869 185.929C303.58 179.978 301.568 173.907 299.016 166.173L297.116 166.8C299.695 174.611 301.598 180.403 301.871 186.026L303.869 185.929ZM296.005 208.811C302.161 199.699 304.209 192.931 303.869 185.929L301.871 186.026C302.184 192.467 300.346 198.813 294.348 207.691L296.005 208.811ZM279.425 219.165C285.56 216.99 291.528 213.302 295.882 208.959L294.47 207.543C290.34 211.661 284.633 215.197 278.757 217.28L279.425 219.165ZM261.774 220.252C266.901 222.027 273.282 221.342 279.425 219.165L278.757 217.28C272.837 219.378 266.958 219.931 262.428 218.362L261.774 220.252ZM246.368 214.024C252.079 216.747 257.836 218.889 261.774 220.252L262.428 218.362C258.526 217.012 252.846 214.897 247.229 212.219L246.368 214.024ZM231.179 204.257C234.968 207.986 240.666 211.305 246.368 214.024L247.229 212.219C241.583 209.526 236.128 206.322 232.582 202.832L231.179 204.257ZM231.886 204.251C231.692 204.448 231.376 204.451 231.179 204.257L232.582 202.831C231.991 202.25 231.042 202.258 230.461 202.848L231.886 204.251ZM231.88 203.544C232.077 203.738 232.08 204.054 231.886 204.251L230.461 202.848C229.879 203.439 229.887 204.389 230.477 204.97L231.88 203.544ZM246.798 213.121C241.125 210.415 235.548 207.154 231.88 203.544L230.477 204.97C234.388 208.818 240.208 212.194 245.938 214.926L246.798 213.121ZM262.101 219.307C258.181 217.95 252.463 215.822 246.798 213.121L245.938 214.926C251.696 217.672 257.491 219.828 261.447 221.197L262.101 219.307ZM279.091 218.222C273.06 220.36 266.93 220.979 262.101 219.307L261.447 221.197C266.872 223.075 273.505 222.324 279.759 220.107L279.091 218.222ZM295.21 208.218C290.965 212.462 285.112 216.088 279.091 218.222L279.759 220.107C286.041 217.881 292.154 214.102 296.624 209.632L295.21 208.218ZM295.149 208.291C295.167 208.264 295.188 208.24 295.21 208.218L296.624 209.632C296.691 209.564 296.752 209.491 296.806 209.411L295.149 208.291ZM302.87 185.978C303.197 192.709 301.248 199.275 295.149 208.291L296.806 209.412C303.062 200.163 305.222 193.174 304.868 185.881L302.87 185.978ZM298.06 166.465C300.635 174.264 302.59 180.207 302.87 185.978L304.868 185.881C304.572 179.782 302.509 173.561 299.959 165.838L298.06 166.465ZM298.057 166.457L298.061 166.468L299.958 165.836L299.954 165.824L298.057 166.457ZM296.702 162.328C297.166 163.759 297.619 165.132 298.056 166.454L299.955 165.827C299.518 164.504 299.066 163.136 298.604 161.711L296.702 162.328ZM284.574 131.036C292.409 138.905 295.063 151.506 296.664 162.168L298.642 161.871C297.048 151.261 294.346 138.015 285.991 129.625L284.574 131.036ZM255.608 97.0636C265.172 105.233 274.335 114.659 284.434 130.86L286.131 129.802C275.91 113.404 266.605 103.827 256.907 95.5429L255.608 97.0636ZM245.169 88.5582C248.74 91.3998 252.193 94.1466 255.608 97.0636L256.907 95.5429C253.461 92.5995 249.981 89.8312 246.414 86.9931L245.169 88.5582ZM224.23 70.6911C231.834 77.95 238.688 83.4024 245.169 88.5582L246.414 86.9931C239.932 81.8365 233.143 76.4342 225.611 69.2444L224.23 70.6911ZM224.259 70.7172C224.249 70.7091 224.239 70.7004 224.23 70.6912L225.611 69.2444C225.582 69.2167 225.552 69.1904 225.521 69.1656L224.259 70.7172ZM217.374 65.0885C219.627 66.9358 221.916 68.8135 224.26 70.7175L225.521 69.1653C223.182 67.2646 220.895 65.3897 218.642 63.542L217.374 65.0885ZM217.37 65.0855L217.373 65.0877L218.643 63.5428L218.64 63.5405L217.37 65.0855ZM174.697 34.4738C190.497 43.0505 203.2 53.4644 217.371 65.0863L218.64 63.5398C204.487 51.9335 191.644 41.3974 175.652 32.7161L174.697 34.4738ZM174.566 34.4022L174.697 34.4737L175.652 32.7161L175.52 32.6446L174.566 34.4022ZM174.603 34.4214L174.603 34.4215L175.483 32.6252L175.482 32.6252L174.603 34.4214ZM165.907 30.3748C168.892 31.3254 171.826 32.9146 174.566 34.4021L175.52 32.6445C172.811 31.174 169.711 29.4872 166.514 28.4691L165.907 30.3748ZM156.968 30.2309C159.853 29.1215 162.88 29.4107 165.907 30.3748L166.514 28.4691C163.247 27.4286 159.716 27.0312 156.25 28.3642L156.968 30.2309ZM125.756 68.8923C132.828 51.4254 142.214 35.9054 156.968 30.2309L156.25 28.3642C140.642 34.3672 130.99 50.6379 123.902 68.1417L125.756 68.8923ZM116.546 95.3742C119.288 86.7725 122.227 77.61 125.756 68.8923L123.902 68.1417C120.34 76.9407 117.38 86.1739 114.64 94.7667L116.546 95.3742ZM116.357 95.9653L116.546 95.3742L114.64 94.7667L114.452 95.3578L116.357 95.9653ZM108.518 118.452C111.197 112.157 113.69 104.333 116.357 95.9653L114.452 95.3578C111.775 103.754 109.312 111.479 106.678 117.669L108.518 118.452ZM104.446 126.371C105.997 123.615 107.514 120.812 108.518 118.452L106.678 117.669C105.721 119.916 104.255 122.633 102.703 125.39L104.446 126.371ZM102.975 128.961C103.46 128.11 103.956 127.24 104.446 126.371L102.703 125.389C102.216 126.254 101.723 127.119 101.238 127.971L102.975 128.961ZM102.974 128.962L102.975 128.962L101.238 127.97L101.238 127.97L102.974 128.962ZM102.964 128.981L102.964 128.981L101.249 127.952L101.249 127.952L102.964 128.981ZM100.119 134.08C100.921 132.564 101.922 130.809 102.975 128.962L101.237 127.971C100.189 129.811 99.1715 131.595 98.3514 133.144L100.119 134.08ZM87.3378 146.835C90.6057 144.567 93.0075 142.902 94.9759 141.051C96.9725 139.174 98.5088 137.121 100.119 134.08L98.3514 133.144C96.8252 136.027 95.4152 137.893 93.6058 139.594C91.7683 141.322 89.5045 142.897 86.1973 145.192L87.3378 146.835ZM87.3317 146.839L87.3336 146.838L86.2014 145.189L86.1995 145.191L87.3317 146.839ZM83.9529 149.199C85.1836 148.331 86.3051 147.552 87.3359 146.837L86.1954 145.194C85.165 145.909 84.0375 146.692 82.7995 147.565L83.9529 149.199ZM62.1062 159.104C69.6629 156.769 75.9951 154.817 83.9529 149.199L82.7995 147.565C75.1194 152.987 69.0515 154.865 61.5158 157.193L62.1062 159.104ZM62.099 159.106L62.1024 159.105L61.5196 157.192L61.5161 157.193L62.099 159.106ZM59.1742 160.016C60.1746 159.701 61.1479 159.4 62.1027 159.105L61.5123 157.194C60.5583 157.489 59.5796 157.792 58.5729 158.109L59.1742 160.016ZM58.8258 159.901C58.6477 160.002 58.4356 159.981 58.2834 159.87L59.4637 158.255C59.0031 157.919 58.3668 157.86 57.8354 158.163L58.8258 159.901ZM55.1785 161.59C56.2627 161.152 57.5077 160.652 58.8258 159.901L57.8354 158.163C56.6496 158.839 55.522 159.295 54.4308 159.735L55.1785 161.59ZM55.192 161.584L55.1927 161.584L54.4166 159.74L54.4159 159.741L55.192 161.584ZM53.7262 162.197C54.1756 161.994 54.6537 161.801 55.1778 161.59L54.4301 159.735C53.9138 159.943 53.3965 160.151 52.903 160.374L53.7262 162.197ZM52.142 162.917C52.6724 162.675 53.1999 162.435 53.7262 162.197L52.903 160.374C52.3727 160.614 51.8418 160.856 51.3119 161.098L52.142 162.917ZM52.1362 162.92L52.1424 162.917L51.3115 161.098L51.3053 161.101L52.1362 162.92ZM44.0567 166.305C46.8035 165.353 49.507 164.119 52.1358 162.92L51.3057 161.1C48.661 162.307 46.044 163.5 43.4019 164.415L44.0567 166.305ZM33.9471 167.971C37.3732 168.192 40.7578 167.448 44.0567 166.305L43.4019 164.415C40.2347 165.513 37.1337 166.173 34.0759 165.976L33.9471 167.971ZM28.7846 168.253C30.7968 168.023 32.7492 167.894 33.9471 167.971L34.0759 165.976C32.6877 165.886 30.5845 166.034 28.5571 166.266L28.7846 168.253ZM23.4323 169.112C24.7573 168.809 26.7795 168.483 28.7846 168.253L28.5571 166.266C26.5083 166.501 24.4072 166.837 22.9853 167.163L23.4323 169.112ZM23.5362 169.076C23.503 169.092 23.4682 169.104 23.4325 169.112L22.9852 167.163C22.8778 167.188 22.7733 167.224 22.6738 167.272L23.5362 169.076ZM20.4864 171.349C21.1023 170.487 21.9876 169.816 23.5362 169.076L22.6738 167.272C20.9738 168.084 19.7513 168.938 18.859 170.186L20.4864 171.349ZM19.0305 175.07C19.4778 173.345 19.8602 172.225 20.4864 171.349L18.859 170.186C17.9974 171.392 17.5433 172.837 17.0945 174.569L19.0305 175.07ZM16.7627 180.293C17.6588 178.709 18.5156 177.057 19.0305 175.07L17.0945 174.569C16.6473 176.293 15.8975 177.76 15.0217 179.309L16.7627 180.293ZM16.2821 181.134C16.4427 180.855 16.6041 180.574 16.7627 180.293L15.0217 179.309C14.8671 179.583 14.7091 179.857 14.5479 180.138L16.2821 181.134ZM14.2049 185.161C14.7986 183.719 15.5356 182.434 16.2821 181.134L14.5479 180.138C13.809 181.424 13.0066 182.819 12.3556 184.4L14.2049 185.161ZM14.2107 194.516C13.1802 191.799 12.9692 188.162 14.2049 185.161L12.3556 184.4C10.894 187.949 11.1626 192.12 12.3407 195.226L14.2107 194.516ZM15.4255 195.021C15.0654 195.001 14.7604 194.935 14.5427 194.832C14.3415 194.736 14.2543 194.631 14.2107 194.516L12.3407 195.226C12.8833 196.656 14.3952 196.966 15.3118 197.018L15.4255 195.021ZM18.2138 194.597C17.1794 194.915 16.1853 195.065 15.4255 195.021L15.3118 197.018C16.3826 197.079 17.6237 196.871 18.8008 196.509L18.2138 194.597ZM21.1283 193.231C20.2816 193.808 19.2443 194.281 18.2138 194.597L18.8008 196.509C19.9897 196.144 21.2155 195.592 22.2542 194.884L21.1283 193.231ZM22.8176 191.422C22.5392 192.055 21.9417 192.677 21.1283 193.231L22.2542 194.884C23.2224 194.225 24.158 193.342 24.6482 192.227L22.8176 191.422ZM23.2311 190.894C23.1651 190.981 23.1108 191.04 23.0699 191.076L24.396 192.573C24.5659 192.423 24.7091 192.256 24.8276 192.099L23.2311 190.894ZM23.8165 198.002C24.0566 196.128 24.4851 193.946 25.0032 191.723L23.0555 191.269C22.5289 193.528 22.0846 195.782 21.8327 197.748L23.8165 198.002ZM23.8204 197.927C23.821 197.952 23.8197 197.977 23.8165 198.002L21.8327 197.748C21.8232 197.823 21.8192 197.898 21.821 197.973L23.8204 197.927ZM24.8612 200.366C24.2284 199.626 23.8401 198.771 23.8204 197.927L21.821 197.973C21.8541 199.396 22.4958 200.677 23.3408 201.666L24.8612 200.366ZM27.2177 202.018C26.3416 201.698 25.4928 201.105 24.8612 200.366L23.3409 201.666C24.1893 202.659 25.3221 203.454 26.53 203.897L27.2177 202.018ZM29.6468 202.074C28.9567 202.374 28.0975 202.341 27.2177 202.018L26.53 203.897C27.7275 204.335 29.1426 204.473 30.4422 203.909L29.6468 202.074ZM31.227 199.91C30.9196 201.14 30.3178 201.784 29.6468 202.074L30.4422 203.909C31.7987 203.321 32.7422 202.095 33.1673 200.395L31.227 199.91ZM35.1795 188.065C33.4538 191.517 32.1495 196.22 31.227 199.91L33.1673 200.395C34.0913 196.699 35.3521 192.192 36.9683 188.96L35.1795 188.065ZM38.1503 181.211C37.5357 182.881 36.879 184.666 35.1795 188.065L36.9683 188.96C38.7124 185.471 39.3978 183.612 40.0272 181.902L38.1503 181.211ZM38.276 180.87L38.1505 181.211L40.027 181.903L40.1525 181.562L38.276 180.87ZM40.8309 180.412C40.336 180.02 39.6502 180.042 38.9282 180.258L39.5003 182.174C39.7442 182.102 39.8487 182.104 39.8569 182.104C39.8609 182.105 39.7388 182.098 39.5899 181.98L40.8309 180.412ZM41.4082 182.293C41.462 181.576 41.369 180.838 40.8309 180.412L39.5899 181.98C39.4266 181.851 39.3993 181.721 39.4053 181.744C39.4108 181.765 39.4336 181.88 39.4138 182.143L41.4082 182.293ZM39.5336 188.274C40.506 185.941 41.2981 183.761 41.4082 182.293L39.4138 182.143C39.332 183.234 38.6835 185.115 37.6875 187.505L39.5336 188.274ZM37.9488 191.926C38.4951 190.693 39.042 189.454 39.5336 188.274L37.6875 187.505C37.2056 188.661 36.6672 189.881 36.1201 191.116L37.9488 191.926ZM37.8298 192.195L37.9488 191.926L36.1201 191.116L36.0011 191.385L37.8298 192.195ZM36.3611 195.558C36.8192 194.476 37.3225 193.34 37.8298 192.195L36.0012 191.385C35.4953 192.527 34.9851 193.678 34.5193 194.779L36.3611 195.558ZM34.4765 201.222C34.6123 199.945 35.3628 197.917 36.3611 195.558L34.5193 194.779C33.5452 197.08 32.6604 199.386 32.4877 201.01L34.4765 201.222ZM35.6192 206.877C34.761 205.796 34.1954 203.865 34.4765 201.222L32.4877 201.01C32.1712 203.986 32.7667 206.501 34.0529 208.12L35.6192 206.877ZM37.0288 207.852C36.5364 207.733 36.0462 207.414 35.6192 206.877L34.0529 208.12C34.7028 208.939 35.5547 209.552 36.5568 209.796L37.0288 207.852ZM38.5841 207.602C38.046 207.904 37.516 207.971 37.0288 207.852L36.5568 209.796C37.5742 210.043 38.6206 209.876 39.5646 209.345L38.5841 207.602ZM42.6938 203.837C41.4494 205.406 40.0594 206.772 38.5841 207.602L39.5646 209.345C41.3591 208.336 42.9384 206.747 44.261 205.079L42.6938 203.837ZM45.8636 198.979C45.0102 200.53 43.9347 202.272 42.6938 203.837L44.261 205.079C45.594 203.398 46.7298 201.554 47.6161 199.942L45.8636 198.979ZM46.1163 198.516C46.0188 198.695 45.9346 198.849 45.8636 198.979L47.6161 199.942C47.6892 199.809 47.7754 199.651 47.8723 199.474L46.1163 198.516ZM46.1 198.548L46.0999 198.548L47.8887 199.442L47.8888 199.442L46.1 198.548ZM50.4933 191.153C48.5712 194.012 46.9204 197.041 46.1164 198.516L47.8724 199.473C48.6777 197.996 50.2888 195.042 52.1531 192.269L50.4933 191.153ZM53.9026 186.784C52.7395 187.992 51.5691 189.553 50.4933 191.153L52.1531 192.269C53.2003 190.712 54.2962 189.259 55.3431 188.172L53.9026 186.784ZM57.4303 184.477C56.8187 184.577 56.2189 184.873 55.6555 185.258C55.0841 185.648 54.4962 186.168 53.9026 186.784L55.3431 188.172C55.8752 187.619 56.3591 187.199 56.7841 186.909C57.2173 186.613 57.5387 186.486 57.7514 186.451L57.4303 184.477ZM57.3426 184.5C57.3712 184.49 57.4004 184.482 57.43 184.477L57.7517 186.451C57.841 186.437 57.9289 186.414 58.0145 186.384L57.3426 184.5ZM60.5126 182.533C59.5721 183.276 58.5609 184.065 57.3425 184.5L58.0146 186.384C59.5872 185.823 60.8406 184.823 61.7524 184.102L60.5126 182.533ZM60.5694 182.488L60.5126 182.533L61.7524 184.102L61.8092 184.058L60.5694 182.488ZM61.9489 181.484C61.5005 181.754 61.0365 182.119 60.5695 182.488L61.809 184.058C62.3009 183.669 62.6617 183.389 62.9809 183.197L61.9489 181.484ZM63.4019 181.004C62.8832 181.004 62.3955 181.215 61.9489 181.484L62.9809 183.197C63.1344 183.104 63.2442 183.054 63.3186 183.027C63.3915 183.002 63.4148 183.004 63.4019 183.004V181.004ZM62.9019 181.504C62.9019 181.228 63.1258 181.004 63.4019 181.004V183.004C64.2304 183.004 64.9019 182.333 64.9019 181.504H62.9019ZM63.4019 182.004C63.1258 182.004 62.9019 181.78 62.9019 181.504H64.9019C64.9019 180.676 64.2303 180.004 63.4019 180.004V182.004ZM62.4649 182.34C62.8499 182.108 63.1502 182.004 63.4019 182.004V180.004C62.6165 180.004 61.9415 180.321 61.4329 180.627L62.4649 182.34ZM61.1893 183.273C61.6684 182.895 62.081 182.572 62.4649 182.34L61.4329 180.627C60.9202 180.936 60.4052 181.344 59.9498 181.703L61.1893 183.273ZM61.1774 183.282L61.1893 183.273L59.9498 181.703L59.9379 181.713L61.1774 183.282ZM57.7249 185.425C59.1216 184.916 60.2537 184.012 61.1774 183.282L59.9379 181.713C58.9752 182.473 58.0864 183.165 57.0401 183.546L57.7249 185.425ZM54.6229 187.478C55.7312 186.327 56.738 185.617 57.5593 185.47L57.2057 183.501C55.715 183.769 54.3278 184.901 53.1823 186.091L54.6229 187.478ZM51.3232 191.711C52.3847 190.133 53.5179 188.625 54.6229 187.478L53.1823 186.091C51.9612 187.359 50.7536 188.974 49.6635 190.595L51.3232 191.711ZM46.9934 198.997C47.7967 197.523 49.4307 194.526 51.3232 191.711L49.6635 190.595C47.7131 193.496 46.0395 196.568 45.2373 198.039L46.9934 198.997ZM46.9919 198.999L46.9937 198.996L45.237 198.04L45.2352 198.043L46.9919 198.999ZM46.7398 199.46C46.8114 199.33 46.8961 199.175 46.9916 199L45.2356 198.043C45.1394 198.219 45.0568 198.371 44.9874 198.497L46.7398 199.46ZM43.4774 204.458C44.7644 202.835 45.87 201.042 46.7399 199.46L44.9874 198.497C44.1504 200.018 43.1051 201.708 41.9102 203.216L43.4774 204.458ZM39.0744 208.473C40.7093 207.554 42.1939 206.077 43.4774 204.458L41.9102 203.216C40.7048 204.736 39.4095 205.99 38.0938 206.73L39.0744 208.473ZM36.7928 208.824C37.5449 209.007 38.3331 208.89 39.0743 208.473L38.0938 206.73C37.7593 206.918 37.4875 206.935 37.2647 206.88L36.7928 208.824ZM34.8361 207.498C35.3747 208.177 36.0458 208.643 36.7928 208.824L37.2647 206.88C37.0266 206.823 36.7173 206.651 36.4023 206.255L34.8361 207.498ZM33.4821 201.116C33.1833 203.926 33.764 206.148 34.8361 207.498L36.4023 206.255C35.7578 205.443 35.2076 203.804 35.4709 201.327L33.4821 201.116ZM35.4402 195.169C34.4542 197.498 33.6364 199.666 33.4821 201.116L35.4709 201.327C35.5881 200.225 36.271 198.336 37.282 195.948L35.4402 195.169ZM36.916 191.789C36.4094 192.932 35.9025 194.076 35.4402 195.169L37.282 195.948C37.7367 194.874 38.2366 193.746 38.7446 192.599L36.916 191.789ZM37.0345 191.521L36.9159 191.789L38.7446 192.599L38.8631 192.331L37.0345 191.521ZM38.6106 187.889C38.1238 189.057 37.5812 190.287 37.0344 191.521L38.8631 192.331C39.409 191.099 39.9602 189.85 40.4567 188.659L38.6106 187.889ZM40.411 182.218C40.315 183.497 39.5946 185.528 38.6106 187.889L40.4567 188.659C41.4178 186.352 42.2812 184.023 42.4054 182.367L40.411 182.218ZM40.2104 181.196C40.2677 181.241 40.3293 181.32 40.3731 181.492C40.4197 181.675 40.4334 181.919 40.411 182.218L42.4054 182.367C42.4624 181.608 42.4151 180.39 41.4515 179.628L40.2104 181.196ZM38.9959 181.288C39.7873 181.008 40.1003 181.109 40.2104 181.196L41.4515 179.628C40.4693 178.851 39.2279 179.084 38.3293 179.402L38.9959 181.288ZM39.2979 180.99C39.2463 181.129 39.1356 181.238 38.9959 181.288L38.3293 179.402C37.91 179.55 37.5781 179.877 37.4232 180.294L39.2979 180.99ZM39.0892 181.556C39.1592 181.365 39.2281 181.178 39.2979 180.99L37.4231 180.294C37.3521 180.485 37.2822 180.675 37.2123 180.865L39.0892 181.556ZM36.0739 188.512C37.7934 185.073 38.4641 183.254 39.0892 181.556L37.2123 180.865C36.6021 182.522 35.96 184.268 34.2851 187.618L36.0739 188.512ZM32.1971 200.153C33.1204 196.459 34.4029 191.854 36.0739 188.512L34.2851 187.618C32.5047 191.179 31.1787 195.98 30.2569 199.668L32.1971 200.153ZM30.0445 202.992C31.0575 202.553 31.8307 201.618 32.1971 200.153L30.2569 199.668C30.0089 200.659 29.5791 201.014 29.2491 201.157L30.0445 202.992ZM26.8738 202.958C27.9131 203.338 29.0501 203.423 30.0445 202.992L29.2491 201.157C28.8626 201.324 28.281 201.343 27.5615 201.079L26.8738 202.958ZM24.101 201.016C24.8411 201.882 25.8319 202.576 26.8738 202.958L27.5615 201.079C26.8513 200.819 26.1446 200.329 25.6214 199.717L24.101 201.016ZM22.8222 197.999C22.862 199.114 23.3722 200.163 24.101 201.016L25.6214 199.717C25.1032 199.11 24.8405 198.477 24.8209 197.928L22.8222 197.999ZM25.9478 184.318C24.7175 188.418 23.3532 193.784 22.8298 197.835L24.8133 198.091C25.316 194.201 26.6441 188.956 27.8634 184.893L25.9478 184.318ZM26.5468 182.387C26.3537 182.988 26.1525 183.636 25.9478 184.318L27.8634 184.893C28.0647 184.222 28.262 183.587 28.451 182.998L26.5468 182.387ZM27.1376 180.771C26.9941 181.164 26.8075 181.675 26.5603 182.348L28.4375 183.038C28.6855 182.363 28.8728 181.85 29.0163 181.457L27.1376 180.771ZM27.6525 179.412C27.5547 179.626 27.4252 179.983 27.1376 180.771L29.0163 181.457C29.3251 180.611 29.4163 180.364 29.4716 180.243L27.6525 179.412ZM27.845 179.074C27.7778 179.175 27.7232 179.257 27.6525 179.412L29.4716 180.243C29.4768 180.232 29.4784 180.229 29.4776 180.23C29.4763 180.233 29.4744 180.236 29.4727 180.239C29.4717 180.241 29.473 180.238 29.4798 180.228C29.4873 180.216 29.4967 180.202 29.5129 180.178L27.845 179.074ZM27.8848 179.014L27.8443 179.075L29.5135 180.177L29.554 180.115L27.8848 179.014ZM28.3218 178.267C28.0873 178.698 27.9626 178.895 27.8835 179.016L29.5553 180.113C29.6681 179.942 29.8208 179.697 30.0784 179.224L28.3218 178.267ZM28.261 178.507C28.261 178.423 28.2819 178.341 28.3218 178.267L30.0784 179.224C30.1982 179.004 30.261 178.757 30.261 178.507H28.261ZM28.2637 178.487C28.2614 178.478 28.2603 178.472 28.2599 178.469C28.2595 178.467 28.2596 178.466 28.2598 178.469C28.26 178.472 28.2604 178.476 28.2606 178.483C28.2608 178.489 28.261 178.497 28.261 178.507H30.261C30.261 178.4 30.256 178.207 30.2022 177.995L28.2637 178.487ZM28.5689 178.787C28.4417 178.749 28.3554 178.662 28.3125 178.596C28.2934 178.567 28.2823 178.541 28.2756 178.524C28.272 178.515 28.2692 178.506 28.2669 178.498C28.2646 178.49 28.2629 178.484 28.2637 178.487L30.2022 177.995C30.1852 177.928 30.0012 177.125 29.1379 176.869L28.5689 178.787ZM28.9917 178.699C28.9938 178.698 28.9887 178.702 28.9822 178.708C28.976 178.713 28.9688 178.719 28.9606 178.725C28.9451 178.736 28.9218 178.752 28.8897 178.766C28.8171 178.798 28.6965 178.824 28.5689 178.787L29.1379 176.869C28.271 176.612 27.6789 177.189 27.629 177.235L28.9917 178.699ZM28.9901 178.709C28.9945 178.702 28.9982 178.696 29.0012 178.692C29.0042 178.688 29.0063 178.685 29.0073 178.684C29.0083 178.682 29.0078 178.683 29.0057 178.685C29.0036 178.688 28.999 178.693 28.9918 178.699L27.6289 177.236C27.4692 177.384 27.3623 177.542 27.3075 177.628L28.9901 178.709ZM28.5214 179.752C28.7377 179.198 28.8981 178.852 28.9901 178.709L27.3075 177.628C27.0926 177.962 26.868 178.488 26.6583 179.025L28.5214 179.752ZM27.5052 182.673C27.8905 181.474 28.2411 180.47 28.5214 179.752L26.6583 179.025C26.3576 179.796 25.9931 180.842 25.6012 182.061L27.5052 182.673ZM27.4397 182.854L27.4917 182.712L25.6147 182.022L25.5626 182.163L27.4397 182.854ZM26.9774 184.221C27.1802 183.607 27.3383 183.129 27.4397 182.854L25.5627 182.163C25.4466 182.479 25.2752 182.998 25.0783 183.594L26.9774 184.221ZM26.8765 184.527C26.911 184.422 26.9447 184.32 26.9774 184.221L25.0783 183.594C25.0456 183.693 25.0121 183.795 24.9777 183.899L26.8765 184.527ZM26.8133 184.718C26.8347 184.653 26.8557 184.589 26.8765 184.527L24.9777 183.899C24.957 183.961 24.9361 184.024 24.9149 184.088L26.8133 184.718ZM25.8519 187.511C26.2045 186.541 26.5367 185.552 26.8133 184.718L24.9149 184.088C24.6396 184.919 24.3147 185.886 23.9722 186.828L25.8519 187.511ZM24.7592 190.213C25.124 189.44 25.5 188.48 25.8519 187.511L23.9722 186.828C23.6274 187.777 23.2761 188.669 22.9504 189.359L24.7592 190.213ZM24.2111 191.233C24.3929 190.948 24.5769 190.599 24.7592 190.213L22.9504 189.359C22.787 189.706 22.6439 189.971 22.5257 190.156L24.2111 191.233ZM23.6044 191.926C23.8364 191.766 24.0383 191.503 24.2111 191.233L22.5257 190.156C22.4651 190.251 22.423 190.306 22.4017 190.331C22.3912 190.343 22.3892 190.344 22.3959 190.338C22.4002 190.334 22.425 190.31 22.4689 190.28L23.6044 191.926ZM23.7862 191.697C23.7498 191.789 23.6866 191.869 23.6045 191.926L22.4689 190.28C22.2227 190.449 22.0329 190.689 21.9238 190.967L23.7862 191.697ZM21.6912 194.058C22.6254 193.422 23.4228 192.625 23.7862 191.697L21.9238 190.967C21.7692 191.363 21.3417 191.876 20.5653 192.405L21.6912 194.058ZM18.5073 195.553C19.617 195.213 20.7485 194.7 21.6912 194.058L20.5653 192.405C19.8147 192.916 18.8716 193.349 17.9203 193.641L18.5073 195.553ZM15.3686 196.02C16.2839 196.072 17.4016 195.893 18.5073 195.553L17.9203 193.641C16.9571 193.937 16.0866 194.057 15.4823 194.023L15.3686 196.02ZM13.2757 194.871C13.5851 195.687 14.4902 195.97 15.3686 196.02L15.4823 194.023C15.1594 194.005 15.0175 193.95 14.9823 193.933C14.95 193.918 15.0722 193.968 15.1457 194.162L13.2757 194.871ZM13.2803 184.78C11.9316 188.056 12.1714 191.959 13.2757 194.871L15.1457 194.162C14.1891 191.64 14.0067 188.269 15.1296 185.542L13.2803 184.78ZM15.4044 180.655C14.6676 181.938 13.904 183.266 13.2803 184.78L15.1296 185.542C15.696 184.166 16.3939 182.948 17.1388 181.651L15.4044 180.655ZM15.8922 179.801C15.7308 180.087 15.5683 180.37 15.4044 180.655L17.1388 181.651C17.3022 181.366 17.468 181.078 17.6332 180.786L15.8922 179.801ZM18.0625 174.82C17.5814 176.675 16.7781 178.234 15.8922 179.801L17.6332 180.786C18.5395 179.183 19.4497 177.438 19.9985 175.321L18.0625 174.82ZM19.6727 170.768C18.9287 171.809 18.5104 173.092 18.0625 174.82L19.9985 175.321C20.4454 173.598 20.7919 172.641 21.3 171.93L19.6727 170.768ZM23.0526 168.199C21.4579 168.967 20.4186 169.724 19.6727 170.768L21.3 171.93C21.7726 171.269 22.4792 170.695 23.92 170.001L23.0526 168.199ZM28.6708 167.26C26.6708 167.489 24.6378 167.814 23.2654 168.125L23.7072 170.075C24.9858 169.786 26.9423 169.471 28.8984 169.247L28.6708 167.26ZM34.0115 166.974C32.7184 166.89 30.6906 167.028 28.6708 167.26L28.8984 169.247C30.9031 169.017 32.78 168.898 33.8827 168.969L34.0115 166.974ZM43.7293 165.36C40.4963 166.481 37.2535 167.183 34.0115 166.974L33.8827 168.969C37.4929 169.202 41.0193 168.416 44.3841 167.25L43.7293 165.36ZM51.7333 162.005C49.0886 163.211 46.4204 164.428 43.7293 165.36L44.3841 167.25C47.1798 166.281 49.9343 165.024 52.5635 163.824L51.7333 162.005ZM51.7412 162.001L51.7358 162.003L52.5611 163.825L52.5664 163.823L51.7412 162.001ZM53.3146 161.286C52.7916 161.522 52.2656 161.762 51.7387 162.002L52.5689 163.822C53.0964 163.581 53.6189 163.343 54.1378 163.108L53.3146 161.286ZM54.72 160.698C54.2255 160.897 53.7438 161.092 53.3146 161.286L54.1378 163.108C54.5229 162.934 54.9644 162.756 55.4688 162.552L54.72 160.698ZM57.8226 159.31C56.7476 159.878 55.6879 160.307 54.72 160.698L55.4688 162.552C56.4288 162.165 57.5788 161.701 58.7565 161.079L57.8226 159.31ZM58.2986 159.245C58.4031 159.211 58.5134 159.215 58.6111 159.248L57.9679 161.142C58.2607 161.241 58.5882 161.251 58.9042 161.151L58.2986 159.245ZM61.8001 158.153C60.6664 158.503 59.5011 158.862 58.2986 159.245L58.9042 161.151C60.0978 160.771 61.2554 160.414 62.3902 160.064L61.8001 158.153ZM61.7991 158.153L61.7969 158.154L62.3934 160.063L62.3956 160.062L61.7991 158.153ZM83.3762 148.382C75.5598 153.9 69.3439 155.823 61.8023 158.152L62.3924 160.063C69.9556 157.727 76.4355 155.73 84.5295 150.016L83.3762 148.382ZM86.7571 146.022C85.7265 146.737 84.6037 147.516 83.3762 148.382L84.5295 150.016C85.7495 149.155 86.866 148.381 87.897 147.666L86.7571 146.022ZM99.2352 133.612C97.6506 136.605 96.1612 138.562 94.2849 140.328C92.3818 142.118 90.0663 143.727 86.7571 146.022L87.897 147.666C91.1685 145.396 93.6213 143.698 95.6552 141.784C97.7158 139.846 99.332 137.704 101.003 134.548L99.2352 133.612ZM102.096 128.484C101.052 130.316 100.048 132.077 99.2352 133.612L101.003 134.548C101.798 133.046 102.785 131.314 103.834 129.474L102.096 128.484ZM102.097 128.482L102.096 128.484L103.834 129.474L103.835 129.472L102.097 128.482ZM103.574 125.88C103.081 126.756 102.584 127.627 102.097 128.482L103.835 129.472C104.322 128.618 104.821 127.743 105.317 126.861L103.574 125.88ZM107.598 118.06C106.617 120.364 105.126 123.124 103.574 125.88L105.317 126.861C106.868 124.105 108.41 121.26 109.438 118.843L107.598 118.06ZM115.395 95.6911C112.726 104.063 110.251 111.826 107.598 118.06L109.438 118.843C112.136 112.505 114.641 104.642 117.301 96.2985L115.395 95.6911ZM115.593 95.0705L115.395 95.691L117.301 96.2985L117.499 95.678L115.593 95.0705ZM124.829 68.517C121.283 77.2753 118.334 86.4732 115.593 95.0705L117.499 95.678C120.242 87.0718 123.17 77.9447 126.683 69.2675L124.829 68.517ZM156.609 29.2976C141.428 35.1363 131.909 51.0316 124.829 68.517L126.683 69.2675C133.748 51.819 143 36.6745 157.327 31.1643L156.609 29.2976Z" fill="#2B2B2B"/>
<path d="M19.0801 172.276C14.81 171.742 11.0969 172.943 6.80376 172.943C4.66876 172.943 3.06419 172.437 2.5579 172.943C2.0154 173.485 2 175.292 2 176.012C2 178.728 3.64239 181.034 5.55567 182.948C7.03053 184.423 12.1843 185.065 14.2763 184.019" stroke="#2B2B2B" stroke-width="3" stroke-linecap="round" stroke-linejoin="round"/>
<path d="M158.923 29.231C153.528 27.0981 150.383 20.1572 144.019 16.8254C135.438 10.0159 129.212 7.48115 120.493 4.67851C113.813 2.53154 100.192 0.465501 93.2715 3.61109C88.9005 5.59795 86.3328 7.22959 86.3328 12.6847C86.3328 19.0642 95.2297 24.3498 98.6091 29.231C102.992 35.5616 106.527 45.976 107.15 53.7538C107.802 61.9081 107.667 69.5291 109.295 77.6707C111.35 87.9437 105.014 109.827 101.854 116.312" stroke="#2B2B2B" stroke-width="3" stroke-linecap="round" stroke-linejoin="round"/>
<path d="M86.3328 13.7522C89.0204 18.3369 88.4678 22.826 92.7378 27.6297C98.1262 36.8101 100.21 43.6423 101.812 50.5811C102.879 61.7898 101.812 70.3299 100.21 79.9374C97.7885 85.9247 96.382 95.6922 94.339 101.821C91.6601 109.858 87.7857 115.61 85.2653 123.171" stroke="#2B2B2B" stroke-width="3" stroke-linecap="round" stroke-linejoin="round"/>
<path d="M87.6814 6.8252C84.6577 10.5208 82.7721 12.0471 79.9278 15.887C78.812 17.3933 76.5019 23.1127 76.1659 24.9608C75.3869 29.2451 76.1659 30.832 76.1659 36.1695C76.1659 39.3721 77.7928 42.5746 78.8603 46.8446C80.4615 50.0471 87.6814 59.6546 89.5353 64.9921C91.1366 71.9309 90.6028 76.2009 88.4678 81.5384C79.394 94.3485 65.5165 116.232 64.9827 125.306" stroke="#2B2B2B" stroke-width="3" stroke-linecap="round" stroke-linejoin="round"/>
<path d="M106.616 26.0285C106.616 23.9289 106.248 23.2442 106.615 21.2247C106.985 19.1893 108.216 18.0222 108.941 17.8096" stroke="#2B2B2B" stroke-width="3" stroke-linecap="round" stroke-linejoin="round"/>
<path d="M109.284 8.94854C113.02 7.17996 115.689 6.81357 119.925 7.17996" stroke="#2B2B2B" stroke-width="3" stroke-linecap="round" stroke-linejoin="round"/>
<path d="M117.09 40.486C121.32 40.486 128.883 39.7137 132.769 37.7708C140.624 33.8431 141.538 27.8132 141.538 19.2266" stroke="#2B2B2B" stroke-width="3" stroke-linecap="round" stroke-linejoin="round"/>
<path d="M122.094 11.8338C119.688 13.7135 121.091 12.9459 122.681 12.4159C124.229 12.6847 124.759 11.838 123.823 11.786C122.094 11.0835 120.493 11.4901 120.493 13.2182" stroke="#2B2B2B" stroke-width="2" stroke-linecap="round" stroke-linejoin="round"/>
<path d="M119.673 22.4672C118.324 22.4672 114.901 22.852 115.854 23.8058C116.445 24.3963 118.577 23.7724 119.142 23.3333C120.721 22.1052 120.51 21.7585 118.453 21.7585C116.788 21.7585 116.839 22.5067 116.839 23.8845" stroke="#2B2B2B" stroke-width="2" stroke-linecap="round" stroke-linejoin="round"/>
<path d="M67.5458 213.432C69.0585 213.1 67.5458 202.509 67.5458 206.238C67.5458 209.569 75.2034 218.92 74.2681 222.194C72.9915 226.662 78.4224 213.693 78.4224 222.949C78.4224 226.495 79.922 225.521 82.5011 224.611C83.5739 224.232 84.402 232.856 85.9 234.354C87.8325 236.287 88.7144 232.387 90.6585 235.79C91.1066 236.574 89.6582 231.466 87.9394 229.747C86.3413 228.149 85.2202 223.925 85.2202 226.726C85.2202 229.96 89.1006 233.332 87.7883 229.067C87.3462 227.63 78.1402 213.472 80.8394 218.87C83.7388 224.669 87.8069 226.698 92.6979 230.502C96.3197 233.319 100.181 236.049 103.952 238.66C109.256 242.332 106.717 241.227 102.895 237.829C101.1 236.234 83.9943 217.981 82.8032 219.173C80.8559 221.12 97.363 228.265 98.816 228.992C107.049 233.108 104.233 232.334 98.5139 227.33C95.3532 224.564 103.268 234.484 104.179 238.584C105.211 243.229 92.4037 237.477 90.3564 236.847C81.7867 234.21 92.2049 238.427 94.0575 239.868C98.7472 243.516 105.293 244.718 109.995 248.479C113.81 251.531 109.677 238.905 108.635 237.602C106.421 234.835 108.911 243.448 111.732 244.702C116.949 247.021 121.891 252.067 125.705 255.881C126.187 256.363 128.888 262.018 128.727 257.996C128.575 254.207 118.963 255.697 116.326 253.54C113.403 251.148 114.845 243.624 111.807 241.454C110.481 240.507 113.162 246.299 114.073 247.119C117.42 250.132 120.313 249.741 123.353 253.54C124.998 255.596 131.446 255.76 131.446 258.978C131.446 264.181 148.123 260.123 150.48 263.766C152.171 266.38 146.652 264.498 138.168 262.377C136.887 262.057 126.842 259.338 131.144 260.715C135.159 262 140.735 263.132 144.966 263.661C147.352 263.959 149.889 263.736 152.293 263.736C155.415 263.736 142.927 263.736 142.927 263.736C142.927 263.736 157.429 263.736 164.68 263.736C169.045 263.736 180.454 257.143 172.913 260.715C167.694 263.187 152.777 261.017 147.005 261.017C143.072 261.017 139.592 262.882 135.525 262.301C133.84 262.061 125.727 258.515 131.144 258.298C137.567 258.041 145.864 261.285 152.293 261.285C157.731 261.285 173.593 260.715 179.031 260.715C184.856 260.715 175.056 261.749 180.391 262.377C185.108 262.932 187.811 266.456 193.231 266.456C198.443 266.456 203.648 265.977 208.639 267.513C213.713 269.074 214.966 274.613 208.262 274.613C200.325 274.613 196.869 269.319 190.21 266.758C184.943 264.732 178.494 262.377 172.913 262.377C170.771 262.377 160.275 262.702 158.939 264.038C157.31 265.668 173.205 269.175 174.952 269.175C181.459 269.175 187.236 269.341 193.382 270.459C199.482 271.568 209.849 270.534 196.705 270.534C186.113 270.534 175.712 270.544 165.36 269.25C162.257 268.862 149.133 267.768 154.256 262.075C159.705 256.021 166.819 262.539 172.988 263.661C174.524 263.94 189.399 263.298 185.829 265.398C181.604 267.883 174.184 270.137 182.43 271.969C185.566 272.666 187.866 273.253 191.267 273.253C193.785 273.253 198.82 270.736 198.82 273.253C198.82 278.103 177.321 274.613 182.43 274.613C188.65 274.613 202.577 281.218 208.262 278.692C220.012 281.411 219.791 264.269 222.315 267.513C222.611 267.894 199.729 275.973 197.385 275.973C189.308 275.973 185.406 275.133 179.031 271.592C173.934 268.76 169.869 263.736 163.396 263.736C157.661 263.736 152.947 263.776 147.761 261.319C141.498 258.353 136.38 258.711 130.09 255.881C126.566 254.295 108.484 244.638 108.484 239.868C108.484 236.473 110.578 240.072 108.333 237.266C98.0811 238.474 101.369 231.282 99.8962 230.502C98.05 229.525 100.882 227.257 98.816 227.028C95.4098 226.649 94.746 223.709 92.0181 222.345C85.446 219.059 72.4683 207.073 64.2224 209.429C58.611 211.032 78.6655 229.112 79.8575 230.502C81.7264 232.683 89.542 237.682 92.3203 237.904C98.1521 238.371 103.386 243.588 108.333 246.062" stroke="#CBE9EF" stroke-width="5" stroke-linecap="round" stroke-linejoin="round"/>
</svg>
