<svg width="25" height="22" viewBox="0 0 25 22" fill="none" xmlns="http://www.w3.org/2000/svg">
<path d="M24.2203 3.10457C23.1733 1.00858 20.1572 -0.706309 16.6489 0.29214C14.9724 0.764489 13.5098 1.77745 12.4998 3.16554C11.4899 1.77745 10.0272 0.764489 8.35078 0.29214C4.83464 -0.691065 1.82638 1.00858 0.779353 3.10457C-0.689613 6.03894 -0.0801479 9.33916 2.59212 12.9138C4.68618 15.7109 7.6788 18.5462 12.0232 21.8388C12.1605 21.9433 12.3296 22 12.5037 22C12.6778 22 12.847 21.9433 12.9843 21.8388C17.3208 18.5539 20.3213 15.7414 22.4153 12.9138C25.0798 9.33916 25.6893 6.03894 24.2203 3.10457Z" fill="#2B2B2B"/>
</svg>
