<svg width="35" height="35" viewBox="0 0 35 35" fill="none" xmlns="http://www.w3.org/2000/svg">
<circle cx="17.5" cy="17.5" r="17.5" fill="#C4C4C4"/>
<path d="M12.25 10.2105C12.25 13.0833 14.6055 15.4211 17.5 15.4211C20.3945 15.4211 22.75 13.0833 22.75 10.2105C22.75 7.33779 20.3945 5 17.5 5C14.6055 5 12.25 7.33779 12.25 10.2105ZM26.8333 27H28V25.8421C28 21.3738 24.3355 17.7368 19.8333 17.7368H15.1667C10.6633 17.7368 7 21.3738 7 25.8421V27H26.8333Z" fill="#2B2B2B"/>
<circle cx="17.5" cy="17.5" r="17.5" fill="#F4C4C4"/>
<path d="M12.25 10.2105C12.25 13.0833 14.6055 15.4211 17.5 15.4211C20.3945 15.4211 22.75 13.0833 22.75 10.2105C22.75 7.33779 20.3945 5 17.5 5C14.6055 5 12.25 7.33779 12.25 10.2105ZM26.8333 27H28V25.8421C28 21.3738 24.3355 17.7368 19.8333 17.7368H15.1667C10.6633 17.7368 7 21.3738 7 25.8421V27H26.8333Z" fill="#2B2B2B"/>
</svg>
