<svg width="99" height="36" viewBox="0 0 99 36" fill="none" xmlns="http://www.w3.org/2000/svg">
<path d="M51.4953 20.0073C51.4953 21.5652 51.0399 22.7636 50.1231 23.6025C49.2063 24.4413 47.8941 24.8608 46.1803 24.8608C44.9819 24.8608 43.9513 24.6391 43.0705 24.2017C42.1957 23.7643 41.6384 23.0212 41.6384 23.0212C41.3808 22.6617 41.3987 22.1224 41.6983 21.8049L42.6571 20.7263C42.9567 20.4087 43.3761 20.4447 43.5918 20.8042C43.5918 20.8042 43.7895 21.1457 44.3708 21.5053C44.928 21.8648 45.5452 22.0445 46.2043 22.0445C46.8814 22.0445 47.3788 21.8828 47.7203 21.5832C48.0618 21.2656 48.2356 20.8222 48.2356 20.223C48.2356 19.7017 47.9959 19.2223 47.5405 18.8029C47.0851 18.3834 46.2642 17.8441 45.0898 17.203C43.8135 16.484 42.8967 15.7649 42.3814 15.0279C41.8661 14.2909 41.5845 13.428 41.5845 12.4334C41.5845 11.0372 42.0399 9.91672 42.9567 9.09581C43.8734 8.27491 45.1078 7.85547 46.6837 7.85547C47.6424 7.85547 48.4753 8.03523 49.1943 8.39475C49.9134 8.75427 50.4886 9.39542 50.4886 9.39542C50.7702 9.71299 50.7702 10.2523 50.4706 10.5758L49.5958 11.5346C49.2962 11.8521 48.8588 11.8342 48.6011 11.4746C48.6011 11.4746 48.5232 11.3548 48.0618 11.0971C47.6064 10.8155 47.1271 10.6777 46.6477 10.6777C46.0905 10.6777 45.6291 10.8155 45.3115 11.1151C44.97 11.4147 44.8142 11.7742 44.8142 12.1937C44.8142 13.0505 46.4859 14.2729 46.4859 14.2729C46.8455 14.5306 47.2409 14.7942 47.3847 14.8721C47.5226 14.95 48.0798 15.2916 48.4633 15.5133C48.4633 15.5133 50.1171 16.5918 50.6744 17.3288C51.1957 18.0718 51.4953 18.9706 51.4953 20.0073Z" fill="#F1F1F1"/>
<path d="M56.4568 23.7223C56.4568 24.1598 56.0973 24.5193 55.6599 24.5193H54.066C53.6286 24.5193 53.269 24.1598 53.269 23.7223V8.982C53.269 8.54458 53.6286 8.18506 54.066 8.18506H55.6599C56.0973 8.18506 56.4568 8.54458 56.4568 8.982V23.7223Z" fill="#F1F1F1"/>
<path d="M72.8747 23.7225C72.8747 24.1599 72.5152 24.5194 72.0778 24.5194H70.5439C70.1064 24.5194 69.5492 24.2198 69.3095 23.8603L62.6164 14.1532C62.3767 13.7937 62.161 13.8536 62.161 14.291V23.7165C62.161 24.1539 61.8015 24.5134 61.3641 24.5134H59.8301C59.3927 24.5134 59.0332 24.1539 59.0332 23.7165V8.97614C59.0332 8.53872 59.3927 8.1792 59.8301 8.1792H61.3641C61.8015 8.1792 62.3588 8.4788 62.5985 8.83832L69.2735 18.5034C69.5132 18.8629 69.7289 18.803 69.7289 18.3656V8.98213C69.7289 8.54471 70.0885 8.18519 70.5259 8.18519H72.0598C72.4972 8.18519 72.8568 8.54471 72.8568 8.98213V23.7225H72.8747Z" fill="#F1F1F1"/>
<path d="M87.2197 17.3707C87.2197 17.8081 87.1777 18.5092 87.1178 18.9466C87.1178 18.9466 86.7223 21.9846 85.6857 23.123C84.6671 24.2795 83.193 24.8428 81.2816 24.8428C79.3881 24.8428 77.9321 24.2435 76.8954 23.0631C75.8588 21.8827 75.4394 18.9286 75.4394 18.9286C75.3795 18.4912 75.3375 17.7902 75.3375 17.3527V8.96393C75.3375 8.52651 75.697 8.16699 76.1345 8.16699H77.8302C78.2676 8.16699 78.6271 8.52651 78.6271 8.96393V17.91C78.6271 18.3474 78.6691 19.0485 78.729 19.4859C78.729 19.4859 78.8668 20.5465 79.3042 21.0858C79.7596 21.625 80.4187 21.9067 81.2756 21.9067C82.1744 21.9067 82.8515 21.649 83.2889 21.1097C83.7263 20.5884 83.8462 19.4919 83.8462 19.4919C83.9061 19.0545 83.948 18.3534 83.948 17.916V8.9879C83.948 8.55048 84.3076 8.19096 84.745 8.19096H86.4407C86.8781 8.19096 87.2377 8.55048 87.2377 8.9879V17.3767H87.2197V17.3707Z" fill="#F1F1F1"/>
<path d="M99 20.0073C99 21.5652 98.5446 22.7636 97.6279 23.6025C96.7111 24.4413 95.3928 24.8608 93.6851 24.8608C92.4867 24.8608 91.4501 24.6391 90.5753 24.2017C89.7004 23.7643 89.1432 23.0212 89.1432 23.0212C88.8855 22.6617 88.9035 22.1224 89.2031 21.8049L90.1618 20.7263C90.4614 20.4087 90.8809 20.4447 91.0966 20.8042C91.0966 20.8042 91.2943 21.1457 91.8755 21.5053C92.4328 21.8648 93.05 22.0445 93.7091 22.0445C94.3862 22.0445 94.8835 21.8828 95.2251 21.5832C95.5666 21.2656 95.7464 20.8222 95.7464 20.223C95.7464 19.7017 95.5067 19.2223 95.0513 18.8029C94.5959 18.3834 93.775 17.8441 92.6006 17.203C91.3243 16.484 90.4075 15.7649 89.8922 15.0279C89.3769 14.2909 89.0952 13.428 89.0952 12.4334C89.0952 11.0372 89.5506 9.91672 90.4674 9.09581C91.3842 8.27491 92.6185 7.85547 94.1944 7.85547C95.1532 7.85547 95.986 8.03523 96.7051 8.39475C97.4241 8.75427 97.9994 9.39542 97.9994 9.39542C98.281 9.71299 98.281 10.2523 97.9814 10.5758L97.1066 11.5346C96.807 11.8521 96.3695 11.8342 96.1119 11.4746C96.1119 11.4746 96.034 11.3548 95.5726 11.0971C95.1172 10.8155 94.6378 10.6777 94.1585 10.6777C93.6012 10.6777 93.1398 10.8155 92.8223 11.1151C92.4867 11.4147 92.3249 11.7742 92.3249 12.1937C92.3249 13.0505 93.9967 14.2729 93.9967 14.2729C94.3562 14.5306 94.7517 14.7942 94.8955 14.8721C95.0333 14.95 95.5906 15.2916 95.9741 15.5133C95.9741 15.5133 97.6278 16.5918 98.1851 17.3288C98.7184 18.0718 99 18.9706 99 20.0073Z" fill="#F1F1F1"/>
<path d="M17.6584 35.3888C27.4074 35.3888 35.3109 27.4674 35.3109 17.6944C35.3109 7.92143 27.4074 0 17.6584 0C7.90945 0 0 7.92143 0 17.6944C0 27.4674 7.90346 35.3888 17.6584 35.3888Z" fill="#F1F1F1"/>
<path d="M28.3602 13.1168V22.2666C28.3602 22.5842 28.1026 22.8478 27.785 22.8478C27.4674 22.8478 27.2098 22.5902 27.2098 22.2666V13.1168C27.2098 12.0383 26.3349 11.1574 25.2564 11.1574C24.1778 11.1574 23.303 12.0383 23.303 13.1168V22.2666C23.303 23.9863 21.9068 25.3825 20.1931 25.3825C18.4794 25.3825 17.0833 23.9863 17.0833 22.2666V13.1168C17.0833 12.0383 16.2084 11.1574 15.1299 11.1574C14.0513 11.1574 13.1765 12.0383 13.1765 13.1168V22.2666C13.1765 23.9863 11.7804 25.3825 10.0666 25.3825C8.35293 25.3825 6.95679 23.9863 6.95679 22.2666V13.1168C6.95679 12.7992 7.21444 12.5356 7.53202 12.5356C7.8496 12.5356 8.10725 12.7933 8.10725 13.1168V22.2666C8.10725 23.3452 8.98209 24.226 10.0606 24.226C11.1392 24.226 12.014 23.3452 12.014 22.2666V13.1168C12.014 11.3971 13.4102 10.001 15.1239 10.001C16.8376 10.001 18.2337 11.3971 18.2337 13.1168V22.2666C18.2337 23.3452 19.1086 24.226 20.1871 24.226C21.2657 24.226 22.1405 23.3452 22.1405 22.2666V13.1168C22.1405 11.3971 23.5367 10.001 25.2504 10.001C26.9641 10.001 28.3602 11.4031 28.3602 13.1168Z" fill="#2B2B2B"/>
<path d="M44.0892 31.0146C44.0892 31.3562 43.9634 31.6198 43.7177 31.8056C43.4721 31.9973 43.1365 32.0872 42.7171 32.0872C42.2617 32.0872 41.9081 32.0273 41.6625 31.9134V31.482C41.8183 31.5479 41.992 31.6018 42.1778 31.6378C42.3635 31.6737 42.5493 31.6977 42.7291 31.6977C43.0287 31.6977 43.2504 31.6438 43.4002 31.5299C43.55 31.4161 43.6279 31.2603 43.6279 31.0566C43.6279 30.9247 43.5979 30.8169 43.544 30.733C43.49 30.6491 43.4002 30.5652 43.2743 30.4933C43.1485 30.4214 42.9567 30.3375 42.7051 30.2476C42.3456 30.1218 42.0879 29.966 41.9381 29.7922C41.7883 29.6185 41.7104 29.3848 41.7104 29.1032C41.7104 28.8036 41.8243 28.5699 42.046 28.3961C42.2677 28.2223 42.5613 28.1325 42.9328 28.1325C43.3163 28.1325 43.6698 28.2044 43.9874 28.3422L43.8496 28.7317C43.532 28.5998 43.2204 28.5339 42.9208 28.5339C42.6811 28.5339 42.5014 28.5878 42.3635 28.6837C42.2317 28.7856 42.1658 28.9294 42.1658 29.1092C42.1658 29.241 42.1898 29.3548 42.2377 29.4387C42.2856 29.5226 42.3695 29.6005 42.4834 29.6724C42.6032 29.7443 42.783 29.8222 43.0227 29.9061C43.4241 30.0499 43.7058 30.2057 43.8556 30.3675C44.0113 30.5353 44.0892 30.751 44.0892 31.0146ZM48.733 32.0392H48.2057L46.8036 30.1697L46.4022 30.5293V32.0392H45.9528V28.1924H46.4022V30.1038L48.1458 28.1924H48.6731L47.1272 29.8641L48.733 32.0392ZM52.7657 32.0392L52.2863 30.8169H50.7404L50.267 32.0392H49.8116L51.3336 28.1744H51.7111L53.2271 32.0392H52.7657ZM52.1425 30.4094L51.6931 29.217C51.6332 29.0672 51.5733 28.8815 51.5133 28.6598C51.4774 28.8275 51.4175 29.0133 51.3456 29.217L50.8902 30.4094H52.1425ZM56.0193 32.0392H55.5699V28.5878H54.3535V28.1924H57.2417V28.5878H56.0253V32.0392H56.0193ZM61.0466 32.0392H58.9015V28.1924H61.0466V28.5878H59.3509V29.8282H60.9448V30.2237H59.3509V31.6378H61.0466V32.0392ZM62.982 28.1864H64.0726C64.5819 28.1864 64.9534 28.2643 65.1811 28.4141C65.4088 28.5639 65.5227 28.8096 65.5227 29.1391C65.5227 29.3668 65.4567 29.5586 65.3309 29.7024C65.2051 29.8522 65.0193 29.948 64.7737 29.99V30.0139C65.3549 30.1158 65.6485 30.4214 65.6485 30.9367C65.6485 31.2783 65.5346 31.5479 65.301 31.7396C65.0673 31.9314 64.7437 32.0273 64.3243 32.0273H62.982V28.1864ZM63.4254 29.8342H64.1625C64.48 29.8342 64.7077 29.7863 64.8456 29.6844C64.9834 29.5825 65.0553 29.4147 65.0553 29.1811C65.0553 28.9653 64.9774 28.8096 64.8216 28.7137C64.6658 28.6178 64.4201 28.5699 64.0846 28.5699H63.4254V29.8342ZM63.4254 30.2177V31.6558H64.2284C64.54 31.6558 64.7737 31.5958 64.9294 31.476C65.0852 31.3562 65.1631 31.1644 65.1631 30.9127C65.1631 30.6731 65.0852 30.4993 64.9235 30.3855C64.7617 30.2716 64.522 30.2177 64.1924 30.2177H63.4254ZM70.8975 30.1098C70.8975 30.727 70.7417 31.2124 70.4301 31.5659C70.1185 31.9194 69.6871 32.0932 69.1298 32.0932C68.5606 32.0932 68.1232 31.9194 67.8176 31.5719C67.512 31.2243 67.3562 30.733 67.3562 30.1038C67.3562 29.4747 67.512 28.9893 67.8176 28.6478C68.1232 28.3002 68.5666 28.1265 69.1358 28.1265C69.6871 28.1265 70.1185 28.3002 70.4301 28.6538C70.7417 29.0073 70.8975 29.4867 70.8975 30.1098ZM67.8296 30.1098C67.8296 30.6311 67.9374 31.0266 68.1591 31.2962C68.3808 31.5659 68.7044 31.6977 69.1298 31.6977C69.5553 31.6977 69.8788 31.5659 70.0946 31.2962C70.3103 31.0266 70.4181 30.6311 70.4181 30.1098C70.4181 29.5945 70.3103 29.199 70.0946 28.9354C69.8788 28.6657 69.5553 28.5339 69.1358 28.5339C68.7104 28.5339 68.3868 28.6717 68.1591 28.9414C67.9374 29.199 67.8296 29.5945 67.8296 30.1098ZM75.2537 32.0392L74.7743 30.8169H73.2284L72.755 32.0392H72.2996L73.8216 28.1744H74.1991L75.7151 32.0392H75.2537ZM74.6365 30.4094L74.1931 29.217C74.1332 29.0672 74.0732 28.8815 74.0133 28.6598C73.9714 28.8275 73.9175 29.0133 73.8456 29.217L73.3902 30.4094H74.6365ZM77.7763 30.4394V32.0392H77.3269V28.1924H78.3815C78.8549 28.1924 79.2024 28.2823 79.4241 28.462C79.6518 28.6418 79.7657 28.9174 79.7657 29.2769C79.7657 29.7863 79.508 30.1278 78.9927 30.3076L80.0353 32.0392H79.508L78.5792 30.4394H77.7763ZM77.7763 30.0499H78.3875C78.7051 30.0499 78.9328 29.99 79.0826 29.8641C79.2324 29.7383 79.3043 29.5466 79.3043 29.3009C79.3043 29.0492 79.2264 28.8635 79.0766 28.7496C78.9268 28.6358 78.6871 28.5819 78.3575 28.5819H77.7763V30.0499ZM84.8109 30.0739C84.8109 30.709 84.6372 31.1944 84.2896 31.5299C83.9481 31.8655 83.4507 32.0333 82.8036 32.0333H81.737V28.1864H82.9175C83.5167 28.1864 83.984 28.3542 84.3136 28.6837C84.6491 29.0193 84.8109 29.4807 84.8109 30.0739ZM84.3376 30.0918C84.3376 29.5885 84.2117 29.211 83.9601 28.9594C83.7084 28.7077 83.3369 28.5759 82.8396 28.5759H82.1864V31.6498H82.7317C83.265 31.6498 83.6665 31.5179 83.9361 31.2603C84.2057 30.9966 84.3376 30.6072 84.3376 30.0918ZM88.9274 31.0146C88.9274 31.3562 88.8016 31.6198 88.5559 31.8056C88.3103 31.9973 87.9747 32.0872 87.5553 32.0872C87.0999 32.0872 86.7463 32.0273 86.5007 31.9134V31.482C86.6565 31.5479 86.8302 31.6018 87.016 31.6378C87.2017 31.6737 87.3875 31.6977 87.5673 31.6977C87.8669 31.6977 88.0886 31.6438 88.2384 31.5299C88.3882 31.4161 88.4661 31.2603 88.4661 31.0566C88.4661 30.9247 88.4361 30.8169 88.3822 30.733C88.3282 30.6491 88.2384 30.5652 88.1125 30.4933C87.9867 30.4214 87.7949 30.3375 87.5433 30.2476C87.1838 30.1218 86.9261 29.966 86.7763 29.7922C86.6265 29.6185 86.5486 29.3848 86.5486 29.1032C86.5486 28.8036 86.6625 28.5699 86.8842 28.3961C87.1059 28.2223 87.3995 28.1325 87.771 28.1325C88.1545 28.1325 88.508 28.2044 88.8256 28.3422L88.6878 28.7317C88.3702 28.5998 88.0586 28.5339 87.759 28.5339C87.5193 28.5339 87.3396 28.5878 87.2017 28.6837C87.0699 28.7856 87.004 28.9294 87.004 29.1092C87.004 29.241 87.028 29.3548 87.0759 29.4387C87.1238 29.5226 87.2077 29.6005 87.3216 29.6724C87.4414 29.7443 87.6152 29.8222 87.8609 29.9061C88.2623 30.0499 88.5439 30.2057 88.6937 30.3675C88.8495 30.5353 88.9274 30.751 88.9274 31.0146Z" fill="#F1F1F1"/>
</svg>
