<svg width="81" height="99" viewBox="0 0 81 99" fill="none" xmlns="http://www.w3.org/2000/svg">
<path d="M14.1236 77.7885C14.1837 78.7216 14.0423 79.6566 13.7089 80.5301C13.3756 81.4036 12.858 82.195 12.1915 82.8507C10.8979 84.0319 9.04736 84.6225 6.64001 84.6225C5.12807 84.6583 3.62864 84.3405 2.26123 83.6944C1.47905 83.2783 0.792281 82.7036 0.244798 82.007C0.071896 81.7554 -0.0135074 81.454 0.00173761 81.1491C0.0169827 80.8442 0.132031 80.5527 0.329168 80.3196L1.67908 78.801C1.75904 78.6966 1.86396 78.614 1.98418 78.5607C2.10441 78.5075 2.23609 78.4853 2.36713 78.4962C2.49817 78.5071 2.62437 78.5508 2.73412 78.6232C2.84387 78.6956 2.93367 78.7945 2.99525 78.9107C3.28184 79.3181 3.65678 79.6555 4.09205 79.8978C4.85999 80.3976 5.7575 80.6616 6.67376 80.6571C7.44092 80.7101 8.20075 80.4789 8.80831 80.0075C9.05908 79.7586 9.2536 79.4589 9.37877 79.1286C9.50393 78.7982 9.55683 78.4448 9.53389 78.0923C9.5223 77.7086 9.429 77.3317 9.26024 76.9869C9.09147 76.6421 8.85112 76.3373 8.5552 76.0927C7.49112 75.2175 6.33391 74.462 5.10449 73.84C3.62841 73.1044 2.32783 72.06 1.29098 70.7774C0.543243 69.7074 0.15071 68.4295 0.168865 67.1242C0.129221 66.2487 0.281627 65.3751 0.61539 64.5648C0.949154 63.7544 1.45619 63.0269 2.10093 62.4333C3.56844 61.2121 5.4421 60.5886 7.34872 60.6868C8.5703 60.6594 9.78123 60.9195 10.8838 61.4462C11.5641 61.8132 12.1797 62.2891 12.7062 62.8551C12.9103 63.0888 13.0228 63.3886 13.0228 63.6988C13.0228 64.0091 12.9103 64.3089 12.7062 64.5425L11.4744 65.8924C11.3905 66.003 11.2807 66.0911 11.1546 66.149C11.0285 66.207 10.8901 66.2329 10.7516 66.2246C10.6131 66.2162 10.4788 66.1739 10.3605 66.1012C10.2423 66.0286 10.1439 65.9279 10.0739 65.8081C9.85666 65.5844 9.59899 65.4041 9.31453 65.2765C8.71937 64.8968 8.02938 64.6921 7.32341 64.6859C6.64046 64.6422 5.96682 64.8627 5.44197 65.3018C5.21894 65.4864 5.04022 65.7186 4.91901 65.9815C4.7978 66.2443 4.73721 66.5311 4.7417 66.8205C4.7417 68.027 7.09561 69.7481 7.09561 69.7481C7.60183 70.1109 8.15867 70.4821 8.36115 70.5918C8.56364 70.7015 9.33984 71.1824 9.87981 71.4946C11.0145 72.2115 12.0597 73.0612 12.993 74.0257C13.7523 75.1317 14.1475 76.4472 14.1236 77.7885Z" fill="#2A2A2A"/>
<path d="M21.0842 83.0196C21.082 83.3165 20.963 83.6007 20.7531 83.8106C20.5431 84.0206 20.259 84.1395 19.9621 84.1417H17.7094C17.4125 84.1395 17.1283 84.0206 16.9184 83.8106C16.7084 83.6007 16.5895 83.3165 16.5873 83.0196V62.2647C16.5895 61.9678 16.7084 61.6836 16.9184 61.4737C17.1283 61.2637 17.4125 61.1448 17.7094 61.1426H19.9874C20.2799 61.1513 20.5576 61.2731 20.7621 61.4824C20.9667 61.6916 21.0821 61.9721 21.0842 62.2647V83.0196Z" fill="#2A2A2A"/>
<path d="M44.2267 83.0196C44.2245 83.3166 44.1055 83.6007 43.8956 83.8106C43.6856 84.0206 43.4015 84.1395 43.1046 84.1417H40.9447C40.605 84.1224 40.2736 84.0293 39.9735 83.8691C39.6734 83.7088 39.4117 83.4852 39.2067 83.2137L29.7826 69.5458C29.4451 69.0396 29.1414 69.124 29.1414 69.7399V83.0112C29.1392 83.3081 29.0203 83.5922 28.8103 83.8022C28.6003 84.0122 28.3162 84.1311 28.0193 84.1333H25.8594C25.5625 84.1311 25.2784 84.0122 25.0684 83.8022C24.8584 83.5922 24.7395 83.3081 24.7373 83.0112V62.2563C24.7395 61.9594 24.8584 61.6752 25.0684 61.4653C25.2784 61.2553 25.5625 61.1364 25.8594 61.1342H28.0193C28.359 61.1535 28.6903 61.2466 28.9905 61.4068C29.2906 61.5671 29.5522 61.7907 29.7573 62.0622L39.1561 75.671C39.4935 76.1773 39.7973 76.0929 39.7973 75.477V62.2647C39.7995 61.9678 39.9184 61.6837 40.1284 61.4737C40.3383 61.2637 40.6225 61.1448 40.9194 61.1426H43.0793C43.3762 61.1448 43.6603 61.2637 43.8703 61.4737C44.0802 61.6837 44.1992 61.9678 44.2014 62.2647V83.0196H44.2267Z" fill="#2A2A2A"/>
<path d="M64.4247 74.0765C64.4189 74.8182 64.3711 75.5591 64.2813 76.2954C64.2813 76.2954 63.7244 80.5729 62.2648 82.2013C60.8052 83.8296 58.7551 84.6227 56.0637 84.6227C54.911 84.6855 53.7587 84.4909 52.6905 84.0532C51.6223 83.6154 50.6649 82.9453 49.8878 82.0916C48.4282 80.4042 47.8376 76.2701 47.8376 76.2701C47.7479 75.5338 47.7 74.7929 47.6942 74.0512V62.2394C47.6964 61.9425 47.8154 61.6584 48.0253 61.4484C48.2353 61.2384 48.5194 61.1195 48.8163 61.1173H51.204C51.4965 61.126 51.7742 61.2478 51.9788 61.4571C52.1833 61.6664 52.2987 61.9468 52.3008 62.2394V74.8358C52.3066 75.5776 52.3544 76.3184 52.4442 77.0547C52.5555 77.8587 52.8437 78.6281 53.2879 79.3074C54.0391 80.0377 55.0455 80.4463 56.0932 80.4463C57.1409 80.4463 58.1473 80.0377 58.8985 79.3074C59.3323 78.6188 59.6009 77.8391 59.6831 77.0294C59.7729 76.2931 59.8208 75.5523 59.8266 74.8105V62.2732C59.8288 61.9762 59.9477 61.6921 60.1577 61.4822C60.3676 61.2722 60.6518 61.1533 60.9487 61.1511H63.3363C63.6333 61.1533 63.9174 61.2722 64.1274 61.4822C64.3373 61.6921 64.4562 61.9762 64.4585 62.2732V74.0849L64.4247 74.0765Z" fill="#2A2A2A"/>
<path d="M80.9866 77.7889C81.0467 78.7219 80.9053 79.6569 80.5719 80.5304C80.2385 81.4039 79.721 82.1954 79.0545 82.8511C77.7636 84.0323 75.9075 84.6228 73.503 84.6228C72.008 84.6517 70.5265 84.3341 69.1748 83.6948C68.3926 83.2787 67.7059 82.704 67.1584 82.0074C66.9855 81.7558 66.9001 81.4543 66.9153 81.1494C66.9306 80.8445 67.0456 80.5531 67.2427 80.32L68.5927 78.8013C68.6726 78.697 68.7775 78.6143 68.8978 78.5611C69.018 78.5078 69.1497 78.4856 69.2807 78.4966C69.4117 78.5075 69.5379 78.5512 69.6477 78.6236C69.7574 78.696 69.8472 78.7948 69.9088 78.911C70.1954 79.3185 70.5704 79.6559 71.0056 79.8981C71.7736 80.398 72.6711 80.6619 73.5873 80.6575C74.3545 80.7105 75.1143 80.4792 75.7219 80.0078C75.9742 79.7597 76.1703 79.4604 76.2969 79.1299C76.4235 78.7995 76.4778 78.4458 76.4559 78.0926C76.4443 77.7089 76.351 77.3321 76.1823 76.9873C76.0135 76.6425 75.7731 76.3376 75.4772 76.0931C74.4131 75.2178 73.2559 74.4624 72.0265 73.8404C70.5504 73.1048 69.2498 72.0603 68.213 70.7778C67.4653 69.7078 67.0727 68.4298 67.0909 67.1246C67.048 66.251 67.1965 65.3786 67.5258 64.5684C67.8552 63.7581 68.3575 63.0296 68.9976 62.4336C70.4617 61.2115 72.3321 60.585 74.237 60.6787C75.4586 60.6513 76.6695 60.9114 77.7721 61.4381C78.4524 61.8051 79.068 62.281 79.5945 62.847C79.7986 63.0807 79.9111 63.3805 79.9111 63.6907C79.9111 64.001 79.7986 64.3008 79.5945 64.5344L78.3627 65.8843C78.2788 65.9949 78.1689 66.083 78.0429 66.141C77.9168 66.1989 77.7783 66.2248 77.6398 66.2165C77.5013 66.2082 77.367 66.1658 77.2488 66.0931C77.1306 66.0205 77.0321 65.9198 76.9621 65.8C76.7449 65.5764 76.4873 65.396 76.2028 65.2685C75.6076 64.8887 74.9176 64.684 74.2117 64.6779C73.5287 64.6341 72.8551 64.8546 72.3302 65.2938C72.1086 65.4795 71.9308 65.712 71.8097 65.9745C71.6887 66.2371 71.6273 66.5233 71.63 66.8124C71.63 68.0189 73.9839 69.74 73.9839 69.74C74.4901 70.1028 75.0469 70.4741 75.2494 70.5837C75.4519 70.6934 76.2281 71.1743 76.7681 71.4865C77.9028 72.2034 78.9479 73.0531 79.8813 74.0176C80.6407 75.1255 81.0277 76.4464 80.9866 77.7889Z" fill="#2A2A2A"/>
<path d="M40.4891 49.8286C45.4195 49.842 50.2431 48.3921 54.3491 45.6626C58.4551 42.9331 61.6589 39.0467 63.555 34.4954C65.4511 29.9441 65.9541 24.9326 65.0004 20.0952C64.0467 15.2579 61.6792 10.8123 58.1976 7.32116C54.7159 3.83008 50.2767 1.4505 45.442 0.483695C40.6073 -0.483114 35.5944 0.0063162 31.0379 1.89002C26.4815 3.77373 22.5864 6.96701 19.8458 11.0656C17.1052 15.1642 15.6423 19.9838 15.6422 24.9143C15.6378 28.1816 16.277 31.4179 17.5232 34.4382C18.7695 37.4586 20.5985 40.2039 22.9057 42.5174C25.213 44.8309 27.9533 46.6673 30.9703 47.9218C33.9872 49.1762 37.2217 49.8242 40.4891 49.8286Z" fill="white"/>
<path d="M55.5743 18.4684V31.3516C55.6109 31.4774 55.6178 31.6099 55.5944 31.7388C55.571 31.8676 55.5179 31.9893 55.4393 32.0941C55.3607 32.1989 55.2588 32.2839 55.1416 32.3425C55.0245 32.4011 54.8953 32.4316 54.7643 32.4316C54.6333 32.4316 54.5041 32.4011 54.387 32.3425C54.2698 32.2839 54.1679 32.1989 54.0894 32.0941C54.0108 31.9893 53.9577 31.8676 53.9342 31.7388C53.9108 31.6099 53.9177 31.4774 53.9544 31.3516V18.4684C53.9544 18.1072 53.8832 17.7495 53.745 17.4158C53.6068 17.0821 53.4042 16.7789 53.1488 16.5235C52.8934 16.2681 52.5902 16.0655 52.2565 15.9273C51.9228 15.7891 51.5651 15.7179 51.2039 15.7179C50.8427 15.7179 50.4851 15.7891 50.1514 15.9273C49.8177 16.0655 49.5145 16.2681 49.2591 16.5235C49.0036 16.7789 48.8011 17.0821 48.6628 17.4158C48.5246 17.7495 48.4535 18.1072 48.4535 18.4684V31.3516C48.4535 32.5129 47.9921 33.6267 47.1709 34.4479C46.3498 35.2691 45.236 35.7304 44.0747 35.7304C42.9134 35.7304 41.7996 35.2691 40.9784 34.4479C40.1572 33.6267 39.6959 32.5129 39.6959 31.3516V18.4684C39.6959 17.7389 39.4061 17.0393 38.8903 16.5235C38.3745 16.0077 37.6749 15.7179 36.9454 15.7179C36.216 15.7179 35.5164 16.0077 35.0006 16.5235C34.4848 17.0393 34.195 17.7389 34.195 18.4684V31.3516C34.195 32.5129 33.7337 33.6267 32.9125 34.4479C32.0913 35.2691 30.9775 35.7304 29.8162 35.7304C28.6549 35.7304 27.5411 35.2691 26.72 34.4479C25.8988 33.6267 25.4374 32.5129 25.4374 31.3516V18.4684C25.4008 18.3426 25.3939 18.2101 25.4173 18.0812C25.4407 17.9524 25.4938 17.8307 25.5724 17.7259C25.651 17.6211 25.7529 17.5361 25.8701 17.4775C25.9872 17.4189 26.1164 17.3885 26.2474 17.3885C26.3784 17.3885 26.5075 17.4189 26.6247 17.4775C26.7418 17.5361 26.8438 17.6211 26.9223 17.7259C27.0009 17.8307 27.054 17.9524 27.0775 18.0812C27.1009 18.2101 27.094 18.3426 27.0573 18.4684V31.3516C27.0573 32.0811 27.3471 32.7807 27.8629 33.2965C28.3787 33.8123 29.0783 34.1021 29.8078 34.1021C30.5372 34.1021 31.2368 33.8123 31.7526 33.2965C32.2685 32.7807 32.5582 32.0811 32.5582 31.3516V18.4684C32.5582 17.3071 33.0196 16.1933 33.8407 15.3721C34.6619 14.5509 35.7757 14.0896 36.937 14.0896C38.0983 14.0896 39.2121 14.5509 40.0333 15.3721C40.8545 16.1933 41.3158 17.3071 41.3158 18.4684V31.3516C41.3158 32.0811 41.6056 32.7807 42.1214 33.2965C42.6372 33.8123 43.3368 34.1021 44.0662 34.1021C44.7957 34.1021 45.4953 33.8123 46.0111 33.2965C46.5269 32.7807 46.8167 32.0811 46.8167 31.3516V18.4684C46.8167 17.8934 46.93 17.324 47.15 16.7927C47.3701 16.2614 47.6926 15.7787 48.0992 15.3721C48.5058 14.9655 48.9885 14.643 49.5198 14.4229C50.051 14.2029 50.6204 14.0896 51.1955 14.0896C51.7705 14.0896 52.3399 14.2029 52.8712 14.4229C53.4024 14.643 53.8851 14.9655 54.2917 15.3721C54.6983 15.7787 55.0209 16.2614 55.2409 16.7927C55.461 17.324 55.5743 17.8934 55.5743 18.4684Z" fill="#2A2A2A"/>
<path d="M10.6476 96.7465C10.6581 96.9629 10.6152 97.1785 10.5224 97.3742C10.4297 97.5699 10.2901 97.7398 10.116 97.8686C9.70418 98.1552 9.20792 98.2948 8.70707 98.2652C8.20046 98.2881 7.69466 98.2047 7.22217 98.0205V97.413C7.45577 97.5111 7.69894 97.5846 7.94775 97.6324C8.20322 97.6851 8.46313 97.7133 8.72395 97.7168C9.05617 97.742 9.38765 97.6592 9.66889 97.4805C9.77246 97.4039 9.85578 97.3031 9.91164 97.1869C9.96751 97.0708 9.99423 96.9428 9.98949 96.814C9.99413 96.654 9.95317 96.496 9.87137 96.3584C9.77345 96.2173 9.6433 96.1016 9.49171 96.0209C9.23451 95.8838 8.96643 95.7681 8.6902 95.675C8.27214 95.5569 7.89152 95.3332 7.58496 95.0254C7.3633 94.7519 7.24927 94.4068 7.26435 94.0551C7.25768 93.8635 7.29711 93.673 7.37933 93.4998C7.46154 93.3266 7.58414 93.1756 7.73682 93.0596C8.09876 92.7975 8.53917 92.6666 8.98549 92.6883C9.49551 92.6835 10.001 92.784 10.4704 92.9836L10.2763 93.532C9.86337 93.353 9.41873 93.2583 8.96862 93.2536C8.6915 93.2406 8.41721 93.3143 8.18398 93.4645C8.09296 93.5348 8.02015 93.6258 7.9717 93.7301C7.92324 93.8343 7.90056 93.9487 7.90556 94.0636C7.89925 94.2243 7.9341 94.3841 8.00681 94.5276C8.09398 94.6635 8.21264 94.7764 8.35272 94.8566C8.59476 94.9903 8.84903 95.1005 9.11205 95.1857C9.54636 95.3124 9.94697 95.5344 10.2848 95.8353C10.5217 96.079 10.6522 96.4067 10.6476 96.7465ZM17.1862 98.1892H16.4438L14.4695 95.5569L13.9042 96.0631V98.1892H13.2715V92.8065H13.9042V95.4979L16.3594 92.8065H17.1018L14.9251 95.1604L17.1862 98.1892ZM22.8643 98.1892L22.1893 96.5019H20.0126L19.3461 98.1892H18.7049L20.8479 92.7474H21.3794L23.5139 98.1892H22.8643ZM22.0206 95.8944L21.3878 94.207C21.2886 93.9505 21.2041 93.6885 21.1347 93.4224C21.0723 93.6886 20.9934 93.9506 20.8985 94.207L20.2573 95.8944H22.0206ZM27.4793 98.1892H26.8465V93.3296H25.1591V92.8065H29.2258V93.3633H27.5384V98.223L27.4793 98.1892ZM34.5579 98.1892H31.5037V92.8065H34.5242V93.3633H32.1365V95.1098H34.3807V95.6666H32.1365V97.6577H34.5242L34.5579 98.1892ZM37.2493 92.8065H38.8017C39.3416 92.7674 39.8818 92.8784 40.3625 93.1271C40.5245 93.2408 40.654 93.3947 40.7383 93.5738C40.8226 93.7528 40.8589 93.9507 40.8435 94.1479C40.8542 94.4365 40.758 94.7189 40.5735 94.941C40.3695 95.1664 40.0907 95.3103 39.7888 95.346C40.6325 95.4894 41.0206 95.9197 41.0206 96.6453C41.0319 96.8587 40.9936 97.0719 40.9087 97.268C40.8238 97.4642 40.6946 97.638 40.5313 97.7758C40.1345 98.0679 39.6478 98.2112 39.1561 98.1808H37.2493V92.8065ZM37.8736 95.1266H38.9114C39.2458 95.1535 39.5807 95.0801 39.8732 94.9157C39.975 94.8294 40.0548 94.7201 40.1061 94.5969C40.1575 94.4737 40.1788 94.3401 40.1685 94.207C40.1782 94.0778 40.1527 93.9484 40.0948 93.8325C40.0369 93.7167 39.9486 93.6187 39.8395 93.5489C39.5173 93.3915 39.1594 93.3216 38.8017 93.3464H37.8736V95.1266ZM37.8736 95.6666V97.6915H39.0042C39.352 97.7167 39.6986 97.6278 39.9913 97.4384C40.1049 97.3415 40.1939 97.2192 40.2511 97.0814C40.3083 96.9435 40.332 96.7941 40.3204 96.6453C40.3314 96.5031 40.3063 96.3604 40.2473 96.2306C40.1883 96.1007 40.0973 95.988 39.9829 95.9028C39.6714 95.7223 39.3126 95.6399 38.9536 95.6666H37.8736ZM48.3945 95.5147C48.4369 96.2561 48.2024 96.9867 47.7365 97.5649C47.5055 97.8167 47.2213 98.014 46.9047 98.1424C46.588 98.2708 46.2468 98.3272 45.9056 98.3074C45.5626 98.329 45.219 98.2744 44.8995 98.1475C44.58 98.0206 44.2926 97.8245 44.0579 97.5733C43.5946 96.9876 43.3633 96.2517 43.4083 95.5063C43.3611 94.7657 43.5929 94.0343 44.0579 93.4561C44.2943 93.2048 44.5832 93.0087 44.904 92.8818C45.2249 92.7549 45.5697 92.7004 45.9141 92.7221C46.2538 92.7036 46.5934 92.7605 46.9085 92.8889C47.2236 93.0173 47.5064 93.2139 47.7365 93.4645C48.1939 94.0309 48.428 94.7453 48.3945 95.4725V95.5147ZM44.0748 95.5147C44.0276 96.1141 44.1918 96.7111 44.5388 97.2021C44.7088 97.3939 44.9202 97.5445 45.157 97.6425C45.3938 97.7404 45.6498 97.7831 45.9056 97.7674C46.1604 97.7857 46.416 97.7441 46.6519 97.646C46.8878 97.5478 47.0974 97.3958 47.264 97.2021C47.6036 96.708 47.7643 96.1127 47.7196 95.5147C47.7692 94.9163 47.6081 94.3194 47.264 93.8273C47.0987 93.6343 46.8905 93.4827 46.6561 93.3845C46.4217 93.2863 46.1676 93.2444 45.9141 93.2621C45.6562 93.246 45.3981 93.2894 45.1597 93.3889C44.9213 93.4884 44.7089 93.6413 44.5388 93.8358C44.1999 94.3115 44.036 94.8898 44.0748 95.4725V95.5147ZM54.5282 98.2314L53.8532 96.544H51.6765L51.01 98.2314H50.3688L52.5118 92.7896H53.0433L55.1779 98.2314H54.5282ZM53.6845 95.9366L53.0602 94.2492C52.961 93.9927 52.8765 93.7307 52.8071 93.4645C52.748 93.7008 52.6721 93.9623 52.5708 94.2492L51.9296 95.9366H53.6845ZM58.1055 95.9366V98.1892H57.4474V92.8065H58.9323C59.4504 92.765 59.9673 92.8987 60.4003 93.1861C60.5645 93.3266 60.6935 93.5035 60.777 93.7027C60.8605 93.902 60.8962 94.118 60.8812 94.3336C60.8948 94.6638 60.7939 94.9886 60.5956 95.253C60.3973 95.5175 60.1137 95.7053 59.7929 95.7847L61.2609 98.223H60.5184L59.2107 95.9703L58.1055 95.9366ZM58.1055 95.3882H58.9492C59.2959 95.4177 59.6421 95.3252 59.9279 95.1266C60.0363 95.0265 60.1208 94.9032 60.1748 94.7659C60.2289 94.6285 60.2512 94.4807 60.24 94.3336C60.2521 94.188 60.2292 94.0417 60.1735 93.9067C60.1177 93.7717 60.0307 93.652 59.9194 93.5574C59.6152 93.374 59.2609 93.2913 58.907 93.3211H58.0633L58.1055 95.3882ZM68.0105 95.3882C68.0361 95.7621 67.9842 96.1372 67.8579 96.49C67.7315 96.8429 67.5336 97.1657 67.2765 97.4384C66.9918 97.6889 66.6604 97.8806 66.3012 98.0022C65.9421 98.1239 65.5624 98.1731 65.1841 98.1471H63.657V92.8065H65.3444C65.7023 92.785 66.0609 92.8359 66.3987 92.9563C66.7364 93.0766 67.0465 93.2638 67.3102 93.5067C67.5435 93.7656 67.7233 94.0682 67.8391 94.3969C67.955 94.7256 68.0046 95.0739 67.9851 95.4219L68.0105 95.3882ZM67.3439 95.3882C67.3659 95.1004 67.3303 94.8111 67.239 94.5373C67.1477 94.2635 67.0027 94.0106 66.8124 93.7936C66.5989 93.6027 66.3492 93.4566 66.0782 93.3639C65.8073 93.2711 65.5204 93.2336 65.2347 93.2536H64.2898V97.5818H65.0575C65.6698 97.6243 66.2746 97.4277 66.7449 97.0334C66.9401 96.8197 67.0912 96.5696 67.1897 96.2974C67.2881 96.0252 67.3319 95.7363 67.3186 95.4472L67.3439 95.3882ZM73.8067 96.6875C73.8168 96.9017 73.7744 97.1151 73.6833 97.3092C73.5921 97.5033 73.4549 97.6722 73.2836 97.8011C72.8717 98.0877 72.3754 98.2273 71.8746 98.1977C71.368 98.2206 70.8622 98.1372 70.3897 97.953V97.3455C70.6233 97.4436 70.8665 97.5171 71.1153 97.5649C71.3707 97.6176 71.6306 97.6458 71.8915 97.6493C72.2237 97.6746 72.5552 97.5917 72.8364 97.413C72.94 97.3364 73.0233 97.2356 73.0792 97.1194C73.135 97.0033 73.1618 96.8753 73.157 96.7465C73.1617 96.5865 73.1207 96.4285 73.0389 96.2909C72.941 96.1498 72.8108 96.0342 72.6592 95.9535C72.402 95.8163 72.1339 95.7006 71.8577 95.6075C71.4496 95.4879 71.0782 95.2674 70.7778 94.9663C70.5561 94.6929 70.4421 94.3478 70.4572 93.9961C70.4505 93.8044 70.4899 93.614 70.5722 93.4407C70.6544 93.2675 70.777 93.1165 70.9297 93.0005C71.2916 92.7385 71.732 92.6075 72.1783 92.6293C72.6883 92.6244 73.1939 92.725 73.6632 92.9246L73.4692 93.473C73.0562 93.2939 72.6116 93.1992 72.1615 93.1946C71.8843 93.1815 71.61 93.2552 71.3768 93.4055C71.2858 93.4757 71.213 93.5668 71.1645 93.671C71.1161 93.7753 71.0934 93.8897 71.0984 94.0045C71.0921 94.1653 71.1269 94.325 71.1996 94.4685C71.2868 94.6044 71.4055 94.7173 71.5455 94.7976C71.7868 94.9328 72.0412 95.0431 72.3049 95.1266C72.7392 95.2534 73.1398 95.4753 73.4776 95.7763C73.5917 95.9088 73.6775 96.0632 73.7297 96.23C73.782 96.3969 73.7995 96.5726 73.7813 96.7465L73.8067 96.6875Z" fill="#2A2A2A"/>
</svg>
