<svg width="22" height="22" viewBox="0 0 22 22" fill="none" xmlns="http://www.w3.org/2000/svg">
<path d="M21.6992 19.0223L17.4152 14.7383C17.2219 14.5449 16.9598 14.4375 16.6848 14.4375H15.9844C17.1703 12.9207 17.875 11.0129 17.875 8.9375C17.875 4.00039 13.8746 0 8.9375 0C4.00039 0 0 4.00039 0 8.9375C0 13.8746 4.00039 17.875 8.9375 17.875C11.0129 17.875 12.9207 17.1703 14.4375 15.9844V16.6848C14.4375 16.9598 14.5449 17.2219 14.7383 17.4152L19.0223 21.6992C19.4262 22.1031 20.0793 22.1031 20.4789 21.6992L21.6949 20.4832C22.0988 20.0793 22.0988 19.4262 21.6992 19.0223ZM8.9375 14.4375C5.89961 14.4375 3.4375 11.9797 3.4375 8.9375C3.4375 5.89961 5.89531 3.4375 8.9375 3.4375C11.9754 3.4375 14.4375 5.89531 14.4375 8.9375C14.4375 11.9754 11.9797 14.4375 8.9375 14.4375Z" fill="#2B2B2B"/>
</svg>
