<svg width="32" height="32" viewBox="0 0 32 32" fill="none" xmlns="http://www.w3.org/2000/svg">
<g filter="url(#filter0_d)">
<path d="M11.5474 2.6113C14.2942 4.84444 13.9887 7.70219 14.0454 9.38203C16.1938 7.96772 17.3681 5.55442 19.807 4.27945C20.8438 3.73749 22.7468 3.16628 23.9497 3.16628C26.2439 3.16628 28.1762 3.84246 29.6844 5.95138C33.355 11.0839 28.5277 14.8437 25.1691 16.8195C21.8009 18.8009 20.9358 18.4914 17.267 20.9994C15.3854 22.2857 13.0707 24.4947 12.4694 26.5728C11.9625 28.3249 9.19733 23.3938 8.80065 22.3928C8.07769 20.5684 6.21949 17.9327 5.13186 16.2621C3.03226 13.0371 -1.35905 8.04601 2.59199 3.16641C4.84969 0.378057 8.80065 0.378169 11.5474 2.6113Z" fill="#F46D69"/>
<path d="M11.5474 2.6113C14.2942 4.84444 13.9887 7.70219 14.0454 9.38203C16.1938 7.96772 17.3681 5.55442 19.807 4.27945C20.8438 3.73749 22.7468 3.16628 23.9497 3.16628C26.2439 3.16628 28.1762 3.84246 29.6844 5.95138C33.355 11.0839 28.5277 14.8437 25.1691 16.8195C21.8009 18.8009 20.9358 18.4914 17.267 20.9994C15.3854 22.2857 13.0707 24.4947 12.4694 26.5728C11.9625 28.3249 9.19733 23.3938 8.80065 22.3928C8.07769 20.5684 6.21949 17.9327 5.13186 16.2621C3.03226 13.0371 -1.35905 8.04601 2.59199 3.16641C4.84969 0.378057 8.80065 0.378169 11.5474 2.6113Z" stroke="#2B2B2B" stroke-width="2" stroke-linecap="round" stroke-linejoin="round"/>
</g>
<defs>
<filter id="filter0_d" x="0" y="0.000732422" width="32" height="31.9457" filterUnits="userSpaceOnUse" color-interpolation-filters="sRGB">
<feFlood flood-opacity="0" result="BackgroundImageFix"/>
<feColorMatrix in="SourceAlpha" type="matrix" values="0 0 0 0 0 0 0 0 0 0 0 0 0 0 0 0 0 0 127 0"/>
<feOffset dy="4"/>
<feColorMatrix type="matrix" values="0 0 0 0 0.960784 0 0 0 0 0.678431 0 0 0 0 0.721569 0 0 0 1 0"/>
<feBlend mode="normal" in2="BackgroundImageFix" result="effect1_dropShadow"/>
<feBlend mode="normal" in="SourceGraphic" in2="effect1_dropShadow" result="shape"/>
</filter>
</defs>
</svg>
