<svg width="59" height="60" viewBox="0 0 59 60" fill="none" xmlns="http://www.w3.org/2000/svg">
<g clip-path="url(#clip0)">
<path d="M29.47 59.06C35.313 59.0719 41.0283 57.3501 45.8923 54.1125C50.7564 50.8749 54.5507 46.2671 56.7949 40.8723C59.0392 35.4774 59.6325 29.5381 58.4999 23.8059C57.3673 18.0737 54.5596 12.8063 50.4321 8.67046C46.3047 4.53461 41.043 1.71618 35.3131 0.57189C29.5833 -0.572403 23.6427 0.00887561 18.2433 2.24216C12.8439 4.47544 8.22838 8.26033 4.98093 13.1178C1.73347 17.9753 3.92005e-05 23.687 2.71395e-05 29.53C-0.00522891 33.4044 0.753011 37.2418 2.23142 40.823C3.70983 44.4042 5.87942 47.659 8.61623 50.4014C11.353 53.1438 14.6034 55.32 18.1816 56.8057C21.7598 58.2913 25.5957 59.0574 29.47 59.06Z" fill="white"/>
<path d="M47.3299 21.89V37.16C47.3734 37.309 47.3816 37.4662 47.3538 37.6189C47.326 37.7716 47.2631 37.9158 47.1699 38.04C47.0768 38.1642 46.956 38.265 46.8172 38.3344C46.6783 38.4039 46.5252 38.44 46.3699 38.44C46.2147 38.44 46.0616 38.4039 45.9227 38.3344C45.7839 38.265 45.6631 38.1642 45.5699 38.04C45.4768 37.9158 45.4138 37.7716 45.3861 37.6189C45.3583 37.4662 45.3665 37.309 45.4099 37.16V21.89C45.4099 21.4619 45.3256 21.038 45.1618 20.6425C44.998 20.2469 44.7578 19.8876 44.4551 19.5848C44.1524 19.2821 43.793 19.042 43.3975 18.8782C43.002 18.7143 42.5781 18.63 42.1499 18.63C41.7218 18.63 41.2979 18.7143 40.9024 18.8782C40.5069 19.042 40.1475 19.2821 39.8448 19.5848C39.5421 19.8876 39.3019 20.2469 39.1381 20.6425C38.9743 21.038 38.8899 21.4619 38.8899 21.89V37.16C38.8899 38.5365 38.3431 39.8566 37.3698 40.8299C36.3965 41.8032 35.0764 42.35 33.6999 42.35C32.3235 42.35 31.0034 41.8032 30.0301 40.8299C29.0567 39.8566 28.5099 38.5365 28.5099 37.16V21.89C28.5099 21.0254 28.1665 20.1962 27.5551 19.5848C26.9437 18.9735 26.1146 18.63 25.2499 18.63C24.3853 18.63 23.5561 18.9735 22.9448 19.5848C22.3334 20.1962 21.9899 21.0254 21.9899 21.89V37.16C21.9899 38.5365 21.4431 39.8566 20.4698 40.8299C19.4965 41.8032 18.1764 42.35 16.7999 42.35C15.4235 42.35 14.1034 41.8032 13.1301 40.8299C12.1567 39.8566 11.6099 38.5365 11.6099 37.16V21.89C11.5665 21.741 11.5583 21.5839 11.5861 21.4311C11.6138 21.2784 11.6768 21.1342 11.7699 21.01C11.8631 20.8858 11.9839 20.785 12.1227 20.7156C12.2616 20.6462 12.4147 20.61 12.5699 20.61C12.7252 20.61 12.8783 20.6462 13.0172 20.7156C13.156 20.785 13.2768 20.8858 13.3699 21.01C13.4631 21.1342 13.526 21.2784 13.5538 21.4311C13.5816 21.5839 13.5734 21.741 13.5299 21.89V37.16C13.5299 38.0246 13.8734 38.8538 14.4848 39.4652C15.0961 40.0765 15.9253 40.42 16.7899 40.42C17.6546 40.42 18.4837 40.0765 19.0951 39.4652C19.7065 38.8538 20.0499 38.0246 20.0499 37.16V21.89C20.0499 21.2085 20.1842 20.5336 20.445 19.9039C20.7058 19.2742 21.0881 18.7021 21.5701 18.2201C22.052 17.7382 22.6241 17.3559 23.2538 17.0951C23.8835 16.8343 24.5584 16.7 25.2399 16.7C25.9215 16.7 26.5964 16.8343 27.2261 17.0951C27.8558 17.3559 28.4279 17.7382 28.9098 18.2201C29.3918 18.7021 29.7741 19.2742 30.0349 19.9039C30.2957 20.5336 30.4299 21.2085 30.4299 21.89V37.16C30.4299 38.0246 30.7734 38.8538 31.3848 39.4652C31.9961 40.0765 32.8253 40.42 33.6899 40.42C34.5546 40.42 35.3837 40.0765 35.9951 39.4652C36.6065 38.8538 36.9499 38.0246 36.9499 37.16V21.89C36.9499 20.5135 37.4967 19.1934 38.4701 18.2201C39.4434 17.2468 40.7635 16.7 42.1399 16.7C43.5164 16.7 44.8365 17.2468 45.8098 18.2201C46.7831 19.1934 47.3299 20.5135 47.3299 21.89Z" fill="#020203"/>
</g>
<defs>
<clipPath id="clip0">
<rect width="58.93" height="59.06" fill="white"/>
</clipPath>
</defs>
</svg>
