<svg width="376" height="20" viewBox="0 0 376 20" fill="none" xmlns="http://www.w3.org/2000/svg">
<path d="M6.24591 18.1974V10.0014H9.01091L9.42191 6.79236H6.24591V4.74836C6.24591 3.82236 6.50391 3.18836 7.83291 3.18836H9.51691V0.327365C8.69755 0.239556 7.87396 0.197157 7.04991 0.200364C4.60591 0.200364 2.92791 1.69236 2.92791 4.43136V6.78637H0.180908V9.99536H2.93391V18.1974H6.24591Z" fill="#F1F1F1"/>
<path d="M62.6566 0.200195C63.3156 0.200195 65.5551 0.385195 66.6096 2.7472C66.9611 3.5442 66.8776 4.8932 66.8076 5.9792V6.0182C66.7996 6.1382 66.7921 6.2502 66.7866 6.3592C66.8361 6.3877 66.9221 6.4192 67.0546 6.4192C67.2526 6.4087 67.4921 6.3387 67.7421 6.2187C67.8516 6.1587 67.9711 6.1482 68.0521 6.1482C68.1721 6.1482 68.2916 6.1692 68.3906 6.2082C68.6901 6.3072 68.8801 6.5287 68.8801 6.7682C68.8906 7.0677 68.6196 7.3282 68.0701 7.5467C68.0126 7.5647 67.9321 7.5962 67.8411 7.6247C67.5416 7.7157 67.0831 7.8642 66.9531 8.1662C66.8931 8.3147 66.9141 8.5152 67.0336 8.7442L67.0441 8.7547C67.0831 8.8457 68.0596 11.0697 70.2366 11.4292C70.4086 11.4607 70.5281 11.6087 70.5181 11.7702C70.5178 11.8213 70.507 11.8718 70.4866 11.9187C70.3276 12.2987 69.6376 12.5777 68.3901 12.7677C68.3511 12.8277 68.3096 13.0177 68.2806 13.1477C68.2584 13.2717 68.2289 13.3942 68.1921 13.5147C68.1401 13.6942 68.0096 13.7857 67.8196 13.7857H67.8016C67.7106 13.7857 67.5931 13.7647 67.4421 13.7362C67.1631 13.676 66.8785 13.6455 66.5931 13.6452C66.3926 13.6452 66.1946 13.6557 65.9836 13.6947C65.5851 13.7652 65.2361 14.0047 64.8351 14.2857C64.2676 14.6842 63.6191 15.1427 62.6396 15.1427C62.6006 15.1427 62.5616 15.1322 62.5196 15.1322H62.4206C61.4416 15.1322 60.8036 14.6842 60.2331 14.2752C59.8346 13.9937 59.4961 13.7542 59.0951 13.6842C58.8908 13.654 58.6846 13.6375 58.4781 13.6347C58.1186 13.6347 57.8401 13.6947 57.6291 13.7362C57.5111 13.7639 57.3907 13.7805 57.2696 13.7857C57.0196 13.7857 56.9206 13.6347 56.8816 13.5042C56.8401 13.3767 56.8216 13.2437 56.7906 13.1267C56.7591 13.0067 56.7201 12.7962 56.6811 12.7467C55.4026 12.5982 54.7151 12.3197 54.5536 11.9292C54.5316 11.8818 54.5192 11.8304 54.5171 11.7782C54.5139 11.697 54.5409 11.6174 54.5929 11.5549C54.6449 11.4924 54.7181 11.4514 54.7986 11.4397C56.9731 11.0802 57.9521 8.8537 57.9911 8.7602L58.0016 8.7422C58.1216 8.5102 58.1526 8.31269 58.0821 8.1617C57.9521 7.87269 57.4936 7.7242 57.1941 7.6227C57.1148 7.60297 57.0372 7.57688 56.9621 7.5447C56.2251 7.2532 56.1236 6.9247 56.1651 6.6957C56.2251 6.3752 56.6131 6.1672 56.9436 6.1672C57.0401 6.1672 57.1231 6.1852 57.1986 6.2167C57.4771 6.3442 57.7246 6.4147 57.9356 6.4147C58.0891 6.4147 58.1906 6.3757 58.2456 6.3472L58.2141 5.9672C58.1491 4.8837 58.0631 3.5322 58.4171 2.7432C59.4431 0.391695 61.6751 0.211695 62.3336 0.211695L62.6121 0.201195L62.6566 0.200195Z" fill="#F1F1F1"/>
<path d="M122.219 0.200195C117.819 0.200195 115.519 3.0002 115.519 6.1002C115.519 7.6002 116.319 9.10019 117.619 9.9002C118.019 10.1002 117.919 9.9002 118.219 8.7002C118.219 8.60019 118.219 8.5002 118.119 8.4002C116.319 6.2002 117.819 1.9002 122.019 1.9002C128.119 1.9002 126.919 10.3002 123.119 10.3002C122.319 10.4002 121.619 9.8002 121.619 9.0002V8.60019C122.019 7.5002 122.319 6.5002 122.419 5.4002C122.419 3.3002 119.319 3.6002 119.319 6.4002C119.319 6.9002 119.419 7.4002 119.619 7.8002C119.619 7.8002 118.619 11.9002 118.419 12.6002C118.219 13.8002 118.319 15.0002 118.519 16.1002C118.419 16.2002 118.519 16.2002 118.519 16.2002H118.619C119.319 15.2002 119.919 14.2002 120.319 13.1002C120.419 12.6002 120.919 10.8002 120.919 10.8002C121.419 11.5002 122.319 11.9002 123.219 11.9002C126.319 11.9002 128.519 9.2002 128.519 5.9002C128.519 2.6002 125.719 0.200195 122.219 0.200195Z" fill="#F1F1F1"/>
<path d="M186.119 9.8002C186.119 10.5958 185.803 11.3589 185.24 11.9215C184.678 12.4841 183.914 12.8002 183.119 12.8002C182.323 12.8002 181.56 12.4841 180.997 11.9215C180.435 11.3589 180.119 10.5958 180.119 9.8002C180.119 9.6292 180.137 9.4622 180.168 9.3002H179.119V13.2972C179.119 13.5752 179.344 13.8002 179.622 13.8002H186.617C186.75 13.7999 186.878 13.7468 186.972 13.6525C187.066 13.5582 187.119 13.4304 187.119 13.2972V9.3002H186.07C186.101 9.4622 186.119 9.6292 186.119 9.8002ZM183.119 11.8002C183.382 11.8001 183.642 11.7483 183.884 11.6477C184.127 11.5471 184.348 11.3997 184.533 11.2139C184.719 11.0281 184.866 10.8075 184.967 10.5648C185.067 10.3221 185.119 10.0619 185.119 9.7992C185.119 9.53649 185.067 9.27636 184.966 9.03368C184.866 8.79099 184.718 8.57049 184.533 8.38478C184.347 8.19906 184.126 8.05176 183.883 7.95128C183.641 7.85081 183.381 7.79913 183.118 7.7992C182.587 7.79933 182.078 8.01022 181.703 8.38548C181.328 8.76074 181.118 9.26963 181.118 9.8002C181.118 10.3308 181.329 10.8395 181.704 11.2146C182.079 11.5897 182.588 11.8003 183.119 11.8002ZM185.519 7.7002H186.718C186.797 7.7002 186.874 7.66862 186.93 7.61239C186.987 7.55616 187.019 7.47985 187.019 7.4002V6.2012C187.019 6.12137 186.987 6.0448 186.931 5.98836C186.874 5.93191 186.798 5.9002 186.718 5.9002H185.519C185.439 5.9002 185.362 5.93191 185.306 5.98836C185.25 6.0448 185.218 6.12137 185.218 6.2012V7.4002C185.219 7.5652 185.354 7.7002 185.519 7.7002ZM183.119 0.200195C180.573 0.200195 178.131 1.21162 176.331 3.01197C174.53 4.81232 173.519 7.25412 173.519 9.8002C173.519 12.3463 174.53 14.7881 176.331 16.5884C178.131 18.3888 180.573 19.4002 183.119 19.4002C184.379 19.4002 185.628 19.1519 186.793 18.6694C187.957 18.187 189.016 17.4799 189.907 16.5884C190.798 15.697 191.506 14.6387 191.988 13.474C192.47 12.3092 192.719 11.0609 192.719 9.8002C192.719 8.53951 192.47 7.29116 191.988 6.12643C191.506 4.96171 190.798 3.90341 189.907 3.01197C189.016 2.12053 187.957 1.4134 186.793 0.930952C185.628 0.448507 184.379 0.200195 183.119 0.200195ZM188.119 13.6892C188.119 14.3002 187.619 14.8002 187.008 14.8002H179.23C178.619 14.8002 178.119 14.3002 178.119 13.6892V5.9112C178.119 5.3002 178.619 4.8002 179.23 4.8002H187.008C187.619 4.8002 188.119 5.3002 188.119 5.9112V13.6892Z" fill="#F1F1F1"/>
<path d="M248.922 9.6332L246.676 8.5852C246.48 8.4942 246.319 8.5962 246.319 8.8132V10.7872C246.319 11.0042 246.48 11.1062 246.676 11.0152L248.921 9.9672C249.118 9.8752 249.118 9.7252 248.922 9.6332ZM247.319 0.200195C242.017 0.200195 237.719 4.4982 237.719 9.8002C237.719 15.1022 242.017 19.4002 247.319 19.4002C252.621 19.4002 256.919 15.1022 256.919 9.8002C256.919 4.4982 252.621 0.200195 247.319 0.200195ZM247.319 13.7002C242.405 13.7002 242.319 13.2572 242.319 9.8002C242.319 6.3432 242.405 5.9002 247.319 5.9002C252.233 5.9002 252.319 6.3432 252.319 9.8002C252.319 13.2572 252.233 13.7002 247.319 13.7002Z" fill="#F1F1F1"/>
<path d="M309.22 0.213695C310.093 0.200195 310.96 0.208195 311.827 0.200195C311.879 1.2207 312.246 2.2602 312.993 2.9817C313.739 3.7212 314.793 4.0597 315.819 4.1742V6.8587C314.858 6.8272 313.892 6.6272 313.019 6.2132C312.639 6.0412 312.285 5.8197 311.939 5.5932C311.934 7.5412 311.947 9.48669 311.926 11.4267C311.874 12.3587 311.567 13.2862 311.025 14.0542C310.153 15.3327 308.639 16.1662 307.085 16.1922C306.131 16.2467 305.179 15.9867 304.366 15.5077C303.02 14.7137 302.072 13.2602 301.934 11.7002C301.917 11.3698 301.914 11.0388 301.926 10.7082C302.046 9.4397 302.674 8.2262 303.648 7.4007C304.752 6.4392 306.298 5.9812 307.746 6.2522C307.76 7.2397 307.72 8.2262 307.72 9.2137C307.059 8.9997 306.286 9.0597 305.708 9.46119C305.285 9.73978 304.965 10.1496 304.798 10.6277C304.66 10.9657 304.7 11.3412 304.708 11.7002C304.866 12.7942 305.918 13.7137 307.041 13.6142C307.786 13.6062 308.499 13.1742 308.887 12.5417C309.013 12.3202 309.153 12.0937 309.161 11.8332C309.226 10.6407 309.2 9.4532 309.208 8.2607C309.214 5.5732 309.2 2.8932 309.221 0.214195L309.22 0.213695Z" fill="#F1F1F1"/>
<path d="M375.819 1.74443C375.267 1.99828 374.667 2.18097 374.049 2.25213C374.691 1.84527 375.172 1.20251 375.401 0.444434C374.798 0.82672 374.139 1.09479 373.45 1.23674C373.163 0.908715 372.815 0.647395 372.428 0.469064C372.042 0.290732 371.625 0.199211 371.204 0.200203C369.501 0.200203 368.131 1.67328 368.131 3.48097C368.131 3.73482 368.16 3.98866 368.206 4.23289C365.656 4.09059 363.381 2.79059 361.868 0.800203C361.593 1.30235 361.448 1.8741 361.45 2.45597C361.45 3.59443 361.993 4.59828 362.82 5.18866C362.332 5.16818 361.856 5.0252 361.43 4.77135V4.81174C361.43 6.40597 362.487 7.72712 363.894 8.03097C363.63 8.10422 363.358 8.14169 363.085 8.14251C362.885 8.14251 362.696 8.12135 362.505 8.09251C362.894 9.39251 364.028 10.3367 365.378 10.3675C364.322 11.2502 362.999 11.7694 361.562 11.7694C361.304 11.7694 361.066 11.7598 360.819 11.729C362.182 12.6617 363.799 13.2002 365.54 13.2002C371.193 13.2002 374.287 8.20404 374.287 3.86751C374.287 3.7252 374.287 3.58289 374.278 3.44059C374.876 2.97328 375.401 2.39443 375.819 1.74443Z" fill="#F1F1F1"/>
</svg>
