<svg width="253" height="141" viewBox="0 0 253 141" fill="none" xmlns="http://www.w3.org/2000/svg">
<g filter="url(#filter0_d)">
<path d="M67.8397 17.3526C70.8962 23.2837 71.4737 27.684 73.5043 34.7869C73.8543 39.2043 90.8905 40.1279 96.4226 41.1643C99.2986 41.7031 108.286 44.5776 108.017 46.0156C104.774 50.5806 89.9534 51.86 83.7522 51.5913C81.6234 52.7464 80.7936 59.6506 79.9792 62.1968C76.3861 73.4313 57.9638 82.7808 42.325 75.6833C33.2471 70.1127 31.3892 51.5901 30.7278 51.7792C27.9414 49.1733 23.8496 46.7213 20.8414 45.7592C14.7038 43.7962 10.3035 41.1945 5.92084 36.4149C5.15055 35.5748 -0.234985 27.1978 1.65029 26.6588C5.5894 25.5327 9.87442 26.4383 15.9857 28.7741C22.097 31.11 27.8489 32.1876 32.792 32.8159C37.106 33.6241 40.1006 33.2857 41.93 31.4557C44.0244 22.1194 46.5072 16.5225 52.471 13.5803C60.8203 9.46128 66.3114 14.3871 67.8397 17.3526Z" fill="#CBE9EF" stroke="#2B2B2B" stroke-width="2" stroke-linecap="round" stroke-linejoin="round"/>
<path d="M57.4681 20.8451C57.4071 20.9285 57.3049 20.9537 57.1916 20.9463C57.1524 20.9403 57.1133 20.9289 57.075 20.9117C56.9137 20.8389 56.7185 20.363 56.7748 20.1732C56.8801 19.818 57.1896 19.8502 57.4569 20.085C57.6583 20.262 57.6117 20.6486 57.4681 20.8451Z" fill="#CBE9EF"/>
<path d="M56.8426 19.8587C56.5515 20.0605 56.2606 20.4545 56.6465 20.739C56.8067 20.8571 57.2977 21.0781 57.4681 20.8451C57.6117 20.6486 57.6583 20.262 57.4569 20.085C57.1896 19.8502 56.8801 19.818 56.7748 20.1732C56.7185 20.363 56.9137 20.8389 57.075 20.9117C57.4085 21.0621 57.7994 20.7626 57.8769 20.4331C58.0825 19.5596 56.5473 19.2756 56.51 20.1369" stroke="#2B2B2B" stroke-width="2" stroke-linecap="round" stroke-linejoin="round"/>
<path d="M62.9211 22.1307C62.9375 22.101 62.9688 22.0771 63.0096 22.0583C63.0764 22.2031 63.1418 22.3831 63.0891 22.4159C62.981 22.4832 62.8865 22.1928 62.9211 22.1307Z" fill="#CBE9EF"/>
<path d="M62.7879 21.2732C62.4175 21.3791 62.1234 21.5534 61.991 21.9386C61.8942 22.2204 61.7506 22.5854 61.8292 22.8855C62.0454 23.7108 63.4835 23.2423 63.8159 22.7424C63.9543 22.5342 63.8759 22.1509 63.6428 22.0388C63.5177 21.9787 63.0089 21.9725 62.9211 22.1307C62.8865 22.1928 62.981 22.4832 63.0891 22.4159C63.1721 22.3642 62.962 21.9466 62.915 21.878" stroke="#2B2B2B" stroke-width="2" stroke-linecap="round" stroke-linejoin="round"/>
<path d="M54.1881 24.1897C54.5696 25.0274 55.2272 25.8796 55.9407 26.4668C56.2342 26.7084 56.4994 27.0356 56.8557 27.1847C57.4049 27.4145 57.8944 27.7321 58.3954 28.0497C59.0968 28.4943 59.7796 28.921 60.59 29.1142C60.8349 29.1725 61.7156 29.1955 61.7818 28.8421C61.8197 28.6397 60.4413 28.2495 60.2512 28.1781C59.7842 28.0028 59.367 27.8902 58.8819 27.7936C58.4564 27.7089 58.0109 27.6546 57.593 27.521C57.2821 27.4215 57.0437 27.1782 56.7492 27.0524C56.6126 26.994 56.4729 26.887 56.39 26.7658" stroke="#2B2B2B" stroke-width="2" stroke-linecap="round" stroke-linejoin="round"/>
</g>
<g filter="url(#filter1_d)">
<path d="M222.997 85.2662C217.496 84.393 213.24 86.684 208.225 89.2533C202.279 84.8958 198.798 75.8267 192.828 71.4522C192.057 70.8871 190.764 74.6629 190.492 76.2577C189.701 80.8987 191.863 88.2869 194.685 92.3663C194.223 93.8053 187.519 101.336 188.343 106.68C189.042 111.214 193.125 115.517 197.545 117.571C208.774 121.653 211.378 115.333 218.432 113.325C220.822 113.299 228.84 120.953 234.776 121.748C236.215 122.21 241.174 121.103 242.124 120.615C242.304 119.561 241.209 117.829 240.17 116.813C237.754 114.45 235.544 113.423 232.563 111.831C229.582 110.238 228.161 109.414 225.727 107.413C224.988 106.805 223.979 104.947 223.979 104.947C223.979 104.947 232.337 97.0534 231.684 92.8175C231.268 90.1203 227.597 86.2669 222.997 85.2662Z" fill="#B2D1A8" stroke="#2B2B2B" stroke-width="2" stroke-linecap="round" stroke-linejoin="round"/>
<path d="M222.896 92.4783C222.56 92.4361 222.608 92.1834 222.726 91.9534C222.721 91.9459 222.717 91.9381 222.713 91.9299C222.656 91.8196 222.739 91.7746 222.829 91.7774C222.883 91.779 222.939 91.7973 222.971 91.8288C223.04 91.896 223.105 91.9997 223.143 92.1049C223.216 92.3074 223.189 92.5152 222.896 92.4783Z" fill="#B2D1A8"/>
<path d="M222.941 91.6182C222.799 91.8125 222.362 92.4111 222.896 92.4783C223.341 92.5344 223.173 92.0254 222.971 91.8288C222.885 91.7441 222.622 91.7545 222.713 91.9299C222.824 92.1464 223.102 92.1345 223.287 92.0704C223.735 91.9156 223.208 91.6058 222.992 91.717" stroke="#2B2B2B" stroke-width="2" stroke-linecap="round" stroke-linejoin="round"/>
<path d="M226.575 94.8972C226.394 94.7651 225.642 94.1194 225.437 94.4328C225.221 94.7617 225.316 95.019 225.533 95.2731C225.698 95.4678 225.94 95.679 226.136 95.4111C226.272 95.2263 226.222 95.1141 226.257 94.9107" stroke="#2B2B2B" stroke-width="2" stroke-linecap="round" stroke-linejoin="round"/>
<path d="M218.996 93.4705C219.149 93.5822 218.709 94.126 218.438 94.1294C218.367 93.9042 218.366 93.7213 218.581 93.5977C218.702 93.5285 218.855 93.3668 218.996 93.4705Z" fill="#B2D1A8"/>
<path d="M218.109 93.2517C218.29 93.3909 218.345 93.526 218.379 93.7435C218.401 93.8851 218.204 94.0438 218.369 94.1162C218.624 94.2283 219.163 93.5923 218.996 93.4705C218.855 93.3668 218.702 93.5285 218.581 93.5977C218.361 93.7237 218.368 93.9113 218.442 94.1425C218.565 94.5232 218.72 94.9491 218.939 95.2766C219.488 96.0978 220.102 96.6217 220.886 97.1963C221.093 97.3482 221.356 97.4175 221.566 97.5714C221.728 97.6899 221.883 97.7952 222.079 97.8379C222.205 97.8652 222.315 97.905 222.443 97.9338C222.609 97.9707 222.776 97.9772 222.943 97.9989C223.001 98.0065 223.184 98.0796 223.152 98.0557" stroke="#2B2B2B" stroke-width="2" stroke-linecap="round" stroke-linejoin="round"/>
</g>
<defs>
<filter id="filter0_d" x="0.252563" y="11.0051" width="108.771" height="72.1477" filterUnits="userSpaceOnUse" color-interpolation-filters="sRGB">
<feFlood flood-opacity="0" result="BackgroundImageFix"/>
<feColorMatrix in="SourceAlpha" type="matrix" values="0 0 0 0 0 0 0 0 0 0 0 0 0 0 0 0 0 0 127 0"/>
<feOffset dy="4"/>
<feColorMatrix type="matrix" values="0 0 0 0 0.796078 0 0 0 0 0.913725 0 0 0 0 0.937255 0 0 0 1 0"/>
<feBlend mode="normal" in2="BackgroundImageFix" result="effect1_dropShadow"/>
<feBlend mode="normal" in="SourceGraphic" in2="effect1_dropShadow" result="shape"/>
</filter>
<filter id="filter1_d" x="187.273" y="70.3953" width="55.8706" height="56.463" filterUnits="userSpaceOnUse" color-interpolation-filters="sRGB">
<feFlood flood-opacity="0" result="BackgroundImageFix"/>
<feColorMatrix in="SourceAlpha" type="matrix" values="0 0 0 0 0 0 0 0 0 0 0 0 0 0 0 0 0 0 127 0"/>
<feOffset dy="4"/>
<feColorMatrix type="matrix" values="0 0 0 0 0.698039 0 0 0 0 0.819608 0 0 0 0 0.658824 0 0 0 1 0"/>
<feBlend mode="normal" in2="BackgroundImageFix" result="effect1_dropShadow"/>
<feBlend mode="normal" in="SourceGraphic" in2="effect1_dropShadow" result="shape"/>
</filter>
</defs>
</svg>
