<svg width="194" height="27" viewBox="0 0 194 27" fill="none" xmlns="http://www.w3.org/2000/svg">
<g filter="url(#filter0_d)">
<path d="M26 12.0918C23.9547 11.2152 20.1453 10.193 17.9511 10.193C17.9511 6.62161 17.3595 3.55992 16.757 2.0266C16.0476 1.61364 12.7487 6.09425 11.5981 9.24736C9.78583 9.24736 3 10.193 3 10.193C4.28972 12.7483 9.66354 14.5752 9.66354 15.2054C9.23364 16.468 7.29906 18.4373 6.22429 23.3799C11.5981 21.5007 14.3925 17.9997 14.3925 17.9997C14.3925 17.9997 20.9801 24.87 21.271 23.9076C20.8411 21.063 20.6262 17.9997 19.7664 15.8116C21.486 14.7678 24.9252 14.0611 26 12.0918Z" fill="#F5ADB8" stroke="#2B2B2B" stroke-width="2" stroke-linecap="round" stroke-linejoin="round"/>
<path d="M68 12.0918C65.8658 11.2152 61.8907 10.193 59.6011 10.193C59.6011 6.62161 58.9839 3.55992 58.3551 2.0266C57.6149 1.61364 54.1726 6.09425 52.972 9.24736C51.0809 9.24736 44 10.193 44 10.193C45.3458 12.7483 50.9533 14.5752 50.9533 15.2054C50.5047 16.468 48.486 18.4373 47.3645 23.3799C52.972 21.5007 55.8878 17.9997 55.8878 17.9997C55.8878 17.9997 62.7618 24.87 63.0654 23.9076C62.6168 21.063 62.3925 17.9997 61.4953 15.8116C63.2897 14.7678 66.8785 14.0611 68 12.0918Z" fill="#F5ADB8" stroke="#2B2B2B" stroke-width="2" stroke-linecap="round" stroke-linejoin="round"/>
<path d="M110 12.0918C107.866 11.2152 103.891 10.193 101.601 10.193C101.601 6.62161 100.984 3.55992 100.355 2.0266C99.6149 1.61364 96.1726 6.09425 94.972 9.24736C93.0809 9.24736 86 10.193 86 10.193C87.3458 12.7483 92.9533 14.5752 92.9533 15.2054C92.5047 16.468 90.486 18.4373 89.3645 23.3799C94.972 21.5007 97.8878 17.9997 97.8878 17.9997C97.8878 17.9997 104.762 24.87 105.065 23.9076C104.617 21.063 104.393 17.9997 103.495 15.8116C105.29 14.7678 108.879 14.0611 110 12.0918Z" fill="#F5ADB8" stroke="#2B2B2B" stroke-width="2" stroke-linecap="round" stroke-linejoin="round"/>
<path d="M152 12.0919C149.866 11.2153 145.891 10.193 143.601 10.193C143.601 6.62163 142.984 3.55995 142.355 2.02662C141.615 1.61366 138.173 6.09428 136.972 9.24738C135.081 9.24738 128 10.193 128 10.193C129.346 12.7483 134.953 14.5752 134.953 15.2055C134.505 16.4681 132.486 18.4373 131.364 23.3799C136.972 21.5007 139.888 17.9997 139.888 17.9997C139.888 17.9997 146.762 24.87 147.065 23.9076C146.617 21.0631 146.393 17.9997 145.495 15.8116C147.29 14.7678 150.879 14.0612 152 12.0919Z" fill="#F5ADB8" stroke="#2B2B2B" stroke-width="2" stroke-linecap="round" stroke-linejoin="round"/>
<path d="M193 12.0919C190.955 11.2153 187.145 10.193 184.951 10.193C184.951 6.62163 184.36 3.55995 183.757 2.02662C183.048 1.61366 179.749 6.09428 178.598 9.24738C176.786 9.24738 170 10.193 170 10.193C171.29 12.7483 176.664 14.5752 176.664 15.2055C176.234 16.4681 174.299 18.4373 173.224 23.3799C178.598 21.5007 181.393 17.9997 181.393 17.9997C181.393 17.9997 187.98 24.87 188.271 23.9076C187.841 21.0631 187.626 17.9997 186.766 15.8116C188.486 14.7678 191.925 14.0612 193 12.0919Z" fill="#F5ADB8" stroke="#2B2B2B" stroke-width="2" stroke-linecap="round" stroke-linejoin="round"/>
</g>
<defs>
<filter id="filter0_d" x="0" y="0.998779" width="194" height="26.0013" filterUnits="userSpaceOnUse" color-interpolation-filters="sRGB">
<feFlood flood-opacity="0" result="BackgroundImageFix"/>
<feColorMatrix in="SourceAlpha" type="matrix" values="0 0 0 0 0 0 0 0 0 0 0 0 0 0 0 0 0 0 127 0"/>
<feOffset dx="-2" dy="2"/>
<feColorMatrix type="matrix" values="0 0 0 0 0.960784 0 0 0 0 0.678431 0 0 0 0 0.721569 0 0 0 1 0"/>
<feBlend mode="normal" in2="BackgroundImageFix" result="effect1_dropShadow"/>
<feBlend mode="normal" in="SourceGraphic" in2="effect1_dropShadow" result="shape"/>
</filter>
</defs>
</svg>
