<svg width="19" height="18" viewBox="0 0 19 18" fill="none" xmlns="http://www.w3.org/2000/svg">
<path d="M8.14623 1.99806C8.68958 0.859378 10.3104 0.859377 10.8538 1.99806L11.8934 4.17685C12.2579 4.94062 12.984 5.46816 13.823 5.57876L16.2164 5.89426C17.4673 6.05915 17.9682 7.60066 17.0531 8.46929L15.3022 10.1314C14.6885 10.714 14.4111 11.5676 14.5652 12.3997L15.0048 14.7735C15.2345 16.0141 13.9232 16.9668 12.8143 16.3649L10.6925 15.2133C9.94876 14.8097 9.05124 14.8097 8.30746 15.2133L6.18569 16.3649C5.07681 16.9668 3.76553 16.0141 3.99525 14.7735L4.4348 12.3997C4.58888 11.5676 4.31154 10.714 3.69777 10.1314L1.94689 8.46929C1.03185 7.60066 1.53271 6.05915 2.78357 5.89426L5.177 5.57876C6.01601 5.46816 6.74211 4.94062 7.10656 4.17685L8.14623 1.99806Z" fill="#FFDA58" fill-opacity="0.69" stroke="black"/>
</svg>
