<svg width="1843" height="1598" viewBox="0 0 1843 1598" fill="none" xmlns="http://www.w3.org/2000/svg">
<path d="M598.784 607.393C603.103 618.161 601.302 628.608 603.904 639.839C605.519 653.687 607.705 660.197 608.621 676.335C608.159 683.578 612.57 697.581 610.856 704.562C609.689 709.312 605.498 719.38 604.032 724.18C602.149 730.35 601.085 736.569 604.185 740.086C607.285 743.603 621.235 747.634 626.373 749.43C631.265 751.14 638.39 755.535 643.253 757.02C647.931 758.448 653.943 760.283 656.863 758.737C658.58 757.121 656.925 752.718 654.216 751.185C646.04 746.558 633.344 734.797 632.09 725.233C633.103 705.51 638.633 681.098 639.179 666.466C639.772 650.563 638.157 645.478 638.576 632.895C638.879 623.806 637.011 609.637 637.526 609.794" stroke="#2B2B2B" stroke-width="2" stroke-linecap="round" stroke-linejoin="round"/>
<path d="M561.675 601.289C558.595 611.945 555.597 616.561 549.878 626.213C540.912 641.346 534.226 660.832 525.152 671.416C521.815 675.309 515.274 690.103 513.875 694.684C512.244 700.029 521.302 708.637 527.241 713.788C530.567 716.673 531.218 720.894 528.881 720.852C526.832 720.815 522.857 719.946 518.537 717.694C511.336 713.941 508.829 711.506 501.113 709.151C496.099 707.62 491.717 707.117 486.217 705.994C482.741 705.283 479.597 705.807 476.13 702.914C474.389 700.993 477.631 694.791 478.247 693.824C482.193 687.629 488.2 683.647 491.709 677.067C496.041 668.943 501.461 663.35 506.803 654.964C514.816 642.386 521.921 631.358 529.193 619.898C533.88 612.513 539.558 602.35 542.118 593.963" stroke="#2B2B2B" stroke-width="2" stroke-linecap="round" stroke-linejoin="round"/>
<path d="M643.578 611.58C637.988 609.874 635.247 608.793 628.372 609.442C618.277 609.699 616.928 612.626 608.182 609.957C607.226 609.665 598.311 606.962 597.465 607.541C595.705 608.745 594.302 608.269 594.297 606.124C594.289 602.631 593.176 592.779 590.999 589.687C590.183 588.528 588.398 594.376 587.737 596.54C587.408 597.621 583.861 604.985 583.05 604.789C577.933 603.55 572.575 601.137 567.273 601.787C556.689 600.915 548.712 597.453 540.55 593.629C539.281 593.034 524.495 589.885 524.516 588.734C524.539 587.468 525.603 580.907 526.357 579.97C533.832 570.664 535.34 564.061 538.756 552.872C539.616 550.055 543.425 541.931 542.951 539.128" stroke="#2B2B2B" stroke-width="2" stroke-linecap="round" stroke-linejoin="round"/>
<path d="M567.732 499.116C571.149 500.159 575.274 500.261 578.724 500.529C587.716 501.228 595.169 501.845 604.68 504.748C610.322 506.471 616.327 506.438 621.75 508.094C625.621 509.276 630.421 508.637 633.202 511.59C634.271 512.725 636.602 515.297 637.756 518.549C636.861 523.315 634.352 526.965 634.48 532.012C634.652 538.742 637.856 545.563 635.356 556.486C634.617 567.111 636.932 578.668 638.354 584.945C642.429 596.205 640.384 602.332 643.578 611.58" stroke="#2B2B2B" stroke-width="2" stroke-linecap="round" stroke-linejoin="round"/>
<path d="M605.086 740.41C595.586 737.51 581.323 731.967 571.823 729.067C556.688 724.446 545.629 722.26 530.802 717.734" stroke="#2B2B2B" stroke-width="2" stroke-linecap="round" stroke-linejoin="round"/>
<path d="M475.153 701.226C460.282 696.686 446.512 694.808 431.746 690.3C428.178 689.211 419.551 686.561 415.959 687.33C406.136 689.432 432.186 702.299 435.304 703.251C443.871 705.866 458.867 710.444 467.373 713.04C478.059 716.303 489.515 719.8 504.022 724.228C513.184 727.025 530.745 732.386 545.252 736.814C557.469 740.544 574.489 747.409 595.942 753.958C614.562 759.642 632.063 765.819 650.683 771.503C663.428 775.393 681.224 780.826 694.968 785.021C707.416 787.987 711.405 789.492 713.461 787.328C715.921 784.74 712.748 781.289 711.508 780.055C706.098 775.899 699.227 773.802 692.588 770.94C687.425 768.715 663.032 760.66 658.167 757.929" stroke="#2B2B2B" stroke-width="2" stroke-linecap="round" stroke-linejoin="round"/>
<g filter="url(#filter0_d)">
<path d="M631.719 770.193C627.758 768.739 626.215 771.623 626.037 775.136C625.913 777.602 627.135 780.054 628.223 781.646C629.32 783.25 633.132 783.144 634.501 780.223C636.896 775.112 633.675 770.911 631.719 770.193Z" fill="#B2D1A8"/>
<path d="M631.719 770.193C627.758 768.739 626.215 771.623 626.037 775.136C625.913 777.602 627.135 780.054 628.223 781.646C629.32 783.25 633.132 783.144 634.501 780.223C636.896 775.112 633.675 770.911 631.719 770.193Z" stroke="#2B2B2B" stroke-width="2" stroke-linecap="round" stroke-linejoin="round"/>
</g>
<g filter="url(#filter1_d)">
<path d="M616.054 786.277C617.664 783.43 618.968 780.707 618.619 777.879C618.109 773.768 617.779 772.376 616.579 770.579C615.379 768.782 613.227 767.886 610.173 766.954C605.592 765.555 602.301 770.869 601.035 775.015C599.414 780.325 602.847 788.873 609.225 789.201C612.512 789.37 614.168 788.054 616.054 786.277Z" fill="#B2D1A8"/>
<path d="M616.054 786.277C617.664 783.43 618.968 780.707 618.619 777.879C618.109 773.768 617.779 772.376 616.579 770.579C615.379 768.782 613.227 767.886 610.173 766.954C605.592 765.555 602.301 770.869 601.035 775.015C599.414 780.325 602.847 788.873 609.225 789.201C612.512 789.37 614.168 788.054 616.054 786.277Z" stroke="#2B2B2B" stroke-width="2" stroke-linecap="round" stroke-linejoin="round"/>
</g>
<g filter="url(#filter2_d)">
<path d="M471.704 734.395C477.113 738.55 479.211 731.678 479.146 729.154C479.081 726.63 477.957 722.114 475.667 721.415C473.376 720.716 470.397 721.787 469.454 725.361C468.479 729.058 469.349 731.172 471.704 734.395Z" fill="#B2D1A8"/>
<path d="M471.704 734.395C477.113 738.55 479.211 731.678 479.146 729.154C479.081 726.63 477.957 722.114 475.667 721.415C473.376 720.716 470.397 721.787 469.454 725.361C468.479 729.058 469.349 731.172 471.704 734.395Z" stroke="#2B2B2B" stroke-width="2" stroke-linecap="round" stroke-linejoin="round"/>
</g>
<g filter="url(#filter3_d)">
<path d="M449.29 736.734C454.634 738.366 458.484 736.691 460.485 730.135C461.417 727.081 462.023 722.834 460.758 721.038C459.011 718.557 458.637 717.051 455.816 715.355C452.158 713.666 452.486 713.504 450.471 713.724C444.427 714.383 443.857 718.985 443.093 721.487C441.066 728.126 443.414 734.106 449.29 736.734Z" fill="#B2D1A8"/>
<path d="M449.29 736.734C454.634 738.366 458.484 736.691 460.485 730.135C461.417 727.081 462.023 722.834 460.758 721.038C459.011 718.557 458.637 717.051 455.816 715.355C452.158 713.666 452.486 713.504 450.471 713.724C444.427 714.383 443.857 718.985 443.093 721.487C441.066 728.126 443.414 734.106 449.29 736.734Z" stroke="#2B2B2B" stroke-width="2" stroke-linecap="round" stroke-linejoin="round"/>
</g>
<path d="M592.72 439.136C590.092 445.011 588.908 445.706 585.174 450.187C582.283 453.654 581.306 466.226 576.1 460.772C571.648 456.108 567.163 451.104 561.866 447.245C560.541 446.28 556.638 443.62 555.926 442.093C554.904 439.902 558.486 435.464 559.495 433.905C563.956 427.016 563.786 422.508 569.959 417.998C573.182 415.643 576.58 413.678 578.542 412.337C583.167 409.174 590.252 408.537 594.071 412.838C599.059 418.458 602.946 425.539 606.681 431.97C608.464 435.04 611.299 437.347 612.913 440.588C613.959 442.688 615.146 446.822 616.737 448.471C618.235 450.024 618.452 452.036 619.636 453.718C619.829 453.993 621.768 448.321 622.042 447.425C622.654 445.42 626.167 437.398 628.111 437.75C630.054 438.102 635.305 456.309 634.37 464.309C633.625 470.678 632.359 477.464 632.595 483.845C632.77 488.599 634.462 493.232 634.103 497.841C633.793 501.836 632.269 505.777 631.075 509.69" stroke="#2B2B2B" stroke-width="2" stroke-linecap="round" stroke-linejoin="round"/>
<path d="M578.157 462.235C575.118 466.566 571.482 470.431 569.911 475.576C568.834 479.106 567.245 484.303 567.412 486.499C567.831 492.023 567.326 499.553 567.039 505.132C566.768 510.42 566.451 514.057 566.37 519.986C566.306 524.695 564.36 529.305 563.055 533.58C561.705 538.005 556.789 538.33 553.917 541.641C551.614 544.297 549.302 544.601 545.349 542.365C544.041 541.624 543.091 539.979 542.289 538.806C541.334 537.41 541.869 534.625 539.281 532.166C536.885 526.138 536.244 522.232 541.186 517.723C542.071 516.916 545.242 510.996 546.571 511.02C549.214 510.2 551.61 510.54 551.932 509.486C552.353 508.107 552.189 503.553 551.892 501.793C549.715 488.91 549.989 476.938 548.404 464.003C548.034 460.988 547.913 454.672 552.832 449.496C554.295 447.438 556.657 445.246 557.011 444.086" stroke="#2B2B2B" stroke-width="2" stroke-linecap="round" stroke-linejoin="round"/>
<path d="M547.062 520.351C544.072 521.942 541.235 527.128 538.156 527.648" stroke="#2B2B2B" stroke-width="2" stroke-linecap="round" stroke-linejoin="round"/>
<path d="M550.793 525.687C548.78 528.388 544.009 529.871 541.338 533.628" stroke="#2B2B2B" stroke-width="2" stroke-linecap="round" stroke-linejoin="round"/>
<path d="M552.896 531.313C550.091 534.643 544.202 535.184 542.761 539.905" stroke="#2B2B2B" stroke-width="2" stroke-linecap="round" stroke-linejoin="round"/>
<path d="M633.663 452.554C640.828 454.741 651.798 452.899 659.731 448.311C690.78 422.752 690.018 393.65 668.182 364.955C658.168 348.544 628.969 344.861 613.115 347.175C598.185 349.353 582.021 361.539 577.261 377.129C573.737 388.675 574.638 398.888 583.144 409.808" stroke="#2B2B2B" stroke-width="2" stroke-linecap="round" stroke-linejoin="round"/>
<path d="M627.284 437.472C634.156 426.223 645.633 426.581 652.344 410.066C654.839 401.893 655.125 390.019 645.695 382.996C630.501 371.68 617.216 379.31 607.802 386.453C599.826 392.504 594.707 403.481 587.428 409.447" stroke="#2B2B2B" stroke-width="2" stroke-linecap="round" stroke-linejoin="round"/>
<path d="M643.584 403.218C639.993 403.064 644.72 399.499 643.584 403.218Z" stroke="#2B2B2B" stroke-width="2" stroke-linecap="round" stroke-linejoin="round"/>
<path d="M638.705 397.043C637.233 395.515 636.879 397.832 637.645 398.066C637.863 398.133 639.371 397.246 638.705 397.043Z" stroke="#2B2B2B" stroke-width="2" stroke-linecap="round" stroke-linejoin="round"/>
<path d="M177 1195V707.5L265.224 679.5L348.464 687.5L505.972 774.5L739.741 840L1054.76 806L1241.17 861L1297 841.5L1362.79 783.5L1421.61 742L1535.26 702L1557.19 650.5L1566.16 594.5L1593.57 566.5L1617 564V1195H177Z" fill="#CBE9EF"/>
<path d="M642.081 411.164C639.607 411.404 636.736 411.978 632.919 410.813C630.628 410.114 628.804 407.887 628.464 405.761C627.679 403.371 627.495 402.45 626.373 401.384" stroke="#2B2B2B" stroke-width="2" stroke-linecap="round" stroke-linejoin="round"/>
<path d="M653.903 451.441C656.258 454.664 660.777 455.851 665.187 458.224C668.772 460.153 676.317 465.205 678.529 466.47C687.797 471.774 690.854 477.052 700.928 483.324C711.449 489.874 713.804 493.097 721.503 497.952C727.4 498 732.5 496.301 738.574 493.981C747.078 490.735 757.513 486.471 765.88 483.828C773.369 481.462 777.167 480.814 785.206 480.672C790.316 481.489 819.046 489.52 811.294 493.644C810.297 494.174 806.346 496.181 794.793 490.276C787.258 490.354 789.196 501.912 780.503 504.277C773.221 506.258 766.527 500.845 757.429 500.572C755.394 500.871 744.568 507.399 743.243 508.762C736.798 513.471 735.136 517.554 727.595 519.009C721.021 518.671 706.915 510.192 700.277 507.331C690.287 501.777 686.702 499.848 676.712 494.295C671.717 491.518 667.592 487.337 663.37 486.049C656.499 483.951 643.332 501.633 632.877 498.442" stroke="#2B2B2B" stroke-width="2" stroke-linecap="round" stroke-linejoin="round"/>
<path d="M575.176 414.582C570.761 406.829 566.595 397.082 559.688 391.491C552.986 386.066 544.359 377.625 536.758 373.641C510.64 359.951 481.423 352.575 447.827 342.32C411.009 334.419 364.603 316.914 352.218 316.472C340.363 317.027 335.42 311.345 328.91 313.531C332.953 363.176 353.11 401.047 387.661 419.106C395.045 428.287 387.315 474.924 468.611 503.914C484.098 527.005 518.583 559.234 534.539 564.105" stroke="#2B2B2B" stroke-width="2" stroke-linecap="round" stroke-linejoin="round"/>
<g filter="url(#filter4_d)">
<path d="M180.5 707C223.082 702.358 266 669 338.04 679.028C371.5 683.686 464.441 746.289 485.056 756.964C541.264 786.07 563.04 776.113 620.949 797.533C647.451 807.335 711.867 832.998 752.006 836.599C867.313 846.944 1014.29 774.624 1116.77 818.041C1263.48 880.199 1268.66 864.897 1363 782C1409.54 741.104 1468.65 717.348 1526 702.5C1581.5 679.5 1533.5 565.5 1621 554.5" stroke="#F5ADB8" stroke-width="8" stroke-linecap="square"/>
</g>
<g filter="url(#filter5_d)">
<path d="M1005.83 658.855C1005.83 655.94 1001.16 648.423 1000.52 645.874C1000.04 643.963 1000.64 638.508 1006.66 635.031C1011.89 632.732 1016.29 634.225 1021.01 638.407C1023.55 640.657 1029.16 646.831 1032.72 644.773C1041 639.985 1044 637.375 1050.83 630.657C1053.32 628.202 1058.81 622.393 1061.82 620.651C1066.2 618.122 1065.37 630.491 1062.99 635.298C1058.55 644.307 1053.41 645.218 1046.87 654.105C1051.27 656.669 1056.43 665.601 1056.67 671.059C1056.93 677.131 1054.53 682.509 1047.19 687.482C1040.08 691.592 1035.07 693.028 1028.57 693.139C1022.16 693.248 1018.1 692.236 1013.81 687.806C1011.43 685.341 1009.13 675.919 1003.72 675.398C995.981 678.414 972.789 678.687 969.944 673.765C971.098 669.449 1003.21 666.938 1005.83 658.855Z" fill="#F5ADB8" stroke="#2B2B2B" stroke-width="2" stroke-linecap="round" stroke-linejoin="round"/>
<path d="M1008.21 643.837C1008.19 643.745 1008.18 643.655 1008.17 643.573C1008.24 643.546 1008.31 643.524 1008.37 643.507C1008.67 643.131 1009.25 643.11 1009.26 643.839C1009.26 643.84 1009.26 643.841 1009.26 643.843C1009.35 643.999 1009.42 644.209 1009.48 644.482C1009.54 644.779 1009.51 645.686 1008.94 645.532C1008.72 645.474 1008.45 644.771 1008.34 644.578C1008.18 644.306 1008.16 644.05 1008.21 643.837Z" fill="#F5ADB8"/>
<path d="M1008.13 643.145C1008.14 643.227 1008.26 645.005 1008.64 644.907C1009.2 644.767 1009.27 644.328 1009.26 643.839C1009.24 642.639 1007.7 643.471 1008.34 644.578C1008.45 644.771 1008.72 645.474 1008.94 645.532C1009.51 645.686 1009.54 644.779 1009.48 644.482C1009.22 643.217 1008.57 643.308 1007.69 643.814" stroke="#2B2B2B" stroke-width="2" stroke-linecap="round" stroke-linejoin="round"/>
<path d="M1014.85 644.023C1014.37 644.301 1014.13 644.145 1013.89 643.78C1013.84 643.741 1013.8 643.673 1013.76 643.571C1013.76 643.556 1013.75 643.54 1013.75 643.523C1013.65 643.231 1013.24 641.869 1013.51 641.694C1013.73 641.546 1014 641.604 1014.26 641.78C1014.26 641.78 1014.27 641.781 1014.27 641.782C1014.48 641.837 1014.58 641.957 1014.62 642.105C1015.14 642.706 1015.44 643.682 1014.85 644.023Z" fill="#F5ADB8"/>
<path d="M1013.42 641.539C1013.27 642.552 1013.25 642.685 1013.74 643.528C1014.05 644.062 1014.27 644.359 1014.85 644.023C1015.83 643.458 1014.35 641.141 1013.51 641.694C1013.24 641.869 1013.65 643.231 1013.75 643.523C1014 644.318 1014.59 643.34 1014.59 642.932C1014.59 642.569 1014.84 641.934 1014.27 641.782C1013.39 641.548 1013.59 642.564 1013.82 642.96" stroke="#2B2B2B" stroke-width="2" stroke-linecap="round" stroke-linejoin="round"/>
<path d="M1013.44 650.003C1012.93 650.165 1012.29 650.067 1011.66 649.926C1012.15 649.762 1012.63 649.522 1013.12 649.473C1015.35 649.256 1017.11 647.822 1018.87 646.671C1019.24 646.425 1018.62 647.087 1018.46 647.481C1018.25 648.012 1016.5 648.663 1016.04 648.926C1015.26 649.378 1014.25 649.748 1013.44 650.003Z" fill="#F5ADB8"/>
<path d="M1010.21 649.605C1011.12 649.723 1012.5 650.3 1013.44 650.003C1014.25 649.748 1015.26 649.378 1016.04 648.926C1016.5 648.663 1018.25 648.012 1018.46 647.481C1018.62 647.087 1019.24 646.425 1018.87 646.671C1017.11 647.822 1015.35 649.256 1013.12 649.473C1012.38 649.547 1011.68 650.052 1010.9 650.081C1010.35 650.102 1009.94 649.38 1009.47 649.409" stroke="#2B2B2B" stroke-width="2" stroke-linecap="round" stroke-linejoin="round"/>
</g>
<g filter="url(#filter6_d)">
<path d="M1405.37 342.446L1405.34 342.627C1412.63 344.827 1417.42 345.715 1424.73 349.587C1426.16 350.347 1430.18 354.009 1429.57 356.045C1429.1 357.571 1425.19 359.311 1419.74 358.632C1418.32 358.456 1409.37 355.505 1407.05 357.581C1406.27 360.184 1403.5 365.724 1401.24 367.487C1396.76 370.972 1390.75 369.913 1385.8 366.163C1379.37 361.286 1379.09 354.695 1377.15 348.002C1376.04 344.178 1375.31 339.117 1375.04 336.259C1373.16 331.249 1366.54 325.387 1363.6 321.702C1362.57 320.404 1359.9 313.365 1361.39 312.151C1362.48 311.268 1375.04 320.609 1376.59 321.735C1388.01 330.734 1385.6 319.85 1396.21 320.435C1403.1 321.8 1406.02 327.282 1406.34 331.823C1406.54 334.541 1405.99 338.285 1405.37 342.446Z" fill="#B2D1A8" stroke="#2B2B2B" stroke-width="2" stroke-linecap="round" stroke-linejoin="round"/>
<path d="M1394.03 325.6C1394.18 325.309 1394.42 325.09 1394.73 325.002C1394.83 324.916 1394.93 324.838 1395.02 324.833C1395.24 324.82 1394.98 325.307 1394.93 325.385C1394.84 325.529 1394.75 325.641 1394.65 325.704C1394.61 325.921 1394.37 326.19 1394.14 326.155C1393.82 326.105 1393.93 325.799 1394.03 325.6Z" fill="#B2D1A8"/>
<path d="M1394.93 324.964C1394.53 325.002 1394.21 325.247 1394.03 325.6C1393.93 325.799 1393.82 326.105 1394.14 326.155C1394.54 326.216 1394.95 325.379 1394.36 325.446C1394.25 325.459 1394.08 325.674 1394.24 325.723C1394.6 325.833 1394.74 325.671 1394.93 325.385C1394.98 325.307 1395.24 324.82 1395.02 324.833C1394.84 324.843 1394.64 325.117 1394.47 325.204" stroke="#2B2B2B" stroke-width="2" stroke-linecap="round" stroke-linejoin="round"/>
<path d="M1397 326.775C1397.1 326.755 1397.26 326.828 1397.39 326.894C1397.51 326.775 1397.67 326.706 1397.86 326.606C1398.15 326.455 1398.48 326.558 1398.37 326.926C1398.33 327.055 1398.28 327.191 1398.21 327.308C1398.11 327.464 1397.97 327.587 1397.77 327.621C1397.63 327.645 1397.35 327.59 1397.12 327.49C1396.97 327.422 1396.84 327.331 1396.8 327.23C1396.76 327.131 1396.88 326.797 1397 326.775Z" fill="#B2D1A8"/>
<path d="M1398.47 327.421C1398.15 327.309 1397.86 327.114 1397.55 326.975C1397.43 326.918 1397.15 326.746 1397 326.775C1396.88 326.797 1396.76 327.131 1396.8 327.23C1396.91 327.48 1397.53 327.661 1397.77 327.621C1398.13 327.562 1398.28 327.227 1398.37 326.926C1398.48 326.558 1398.15 326.455 1397.86 326.606C1397.55 326.772 1397.32 326.853 1397.21 327.217C1397.12 327.523 1397 327.692 1397.37 327.804C1397.54 327.854 1397.7 327.86 1397.86 327.908" stroke="#2B2B2B" stroke-width="2" stroke-linecap="round" stroke-linejoin="round"/>
<path d="M1391.08 328.153C1391.45 328.655 1391.71 329.231 1392.01 329.778C1392.12 330 1392.21 330.236 1392.32 330.463C1392.42 330.669 1392.58 330.843 1392.7 331.036C1392.78 331.171 1392.94 331.251 1393.05 331.356C1393.26 331.54 1393.47 331.693 1393.69 331.854C1394.07 332.128 1394.49 332.356 1394.91 332.568C1395.46 332.849 1396.07 332.862 1396.67 332.784C1396.93 332.75 1397.28 332.766 1397.54 332.797C1397.69 332.814 1397.84 332.8 1397.98 332.843" stroke="#2B2B2B" stroke-width="2" stroke-linecap="round" stroke-linejoin="round"/>
</g>
<g filter="url(#filter7_d)">
<path d="M702.553 737.861C701.318 739.05 698.668 741.552 697.949 742.204C694.916 741.564 692.033 740.331 689.252 738.591C686.257 736.716 685.3 735.533 683.233 733.862C681.373 732.359 679.995 729.55 677.577 729.7C676.892 729.743 676.585 733.376 676.971 734.677C677.618 736.863 678.695 739.417 680.441 741.036C682.239 742.705 681.314 744.817 680.894 746.733C680.479 748.62 679.286 750.729 678.872 752.616C678.071 756.264 678.06 760.096 681.244 762.87C685.529 766.605 690.15 767.746 694.454 766.988C696.479 766.631 698.968 765.496 700.609 764.446C702.775 763.06 705.71 760.33 708.072 759.271C708.921 758.727 711.662 761.763 715.84 762.68C718.862 763.344 719.889 763.082 722.698 762.482C723.974 762.21 726.097 761.039 727.075 760.28C728.541 759.142 729.328 757.777 729.566 756.69C727.941 756.334 725.676 757.783 720.801 756.712C717.834 755.818 715.252 754.277 713.367 752.89C711.953 751.849 710.503 751.288 710.257 750.26C710.143 749.784 710.898 747.086 711.022 746.778C711.641 745.232 711.929 743.92 712.258 742.426C712.512 741.265 712.702 739.847 712.507 739.074C712.206 737.882 711.624 736.446 710.411 735.822C709 735.095 708.089 734.927 706.516 735.325C705.983 735.46 703.787 736.672 702.553 737.861Z" fill="#FFEBD3" stroke="#2B2B2B" stroke-width="2" stroke-linecap="round" stroke-linejoin="round"/>
<path d="M707.065 738.884C707.209 738.752 707.406 738.68 707.596 738.641C707.702 738.59 707.833 738.551 707.799 738.705C707.753 738.917 707.689 739.081 707.575 739.263C707.516 739.357 707.392 739.549 707.269 739.457C707.134 739.356 707.074 739.264 706.998 739.115C706.929 738.978 706.946 738.993 707.065 738.884Z" fill="#FFEBD3"/>
<path d="M707.625 738.635C707.426 738.673 707.216 738.746 707.065 738.884C706.946 738.993 706.929 738.978 706.998 739.115C707.074 739.264 707.134 739.356 707.269 739.457C707.392 739.549 707.516 739.357 707.575 739.263C707.689 739.081 707.753 738.917 707.799 738.705C707.845 738.497 707.592 738.641 707.503 738.689C707.4 738.743 707.303 738.805 707.278 738.922C707.253 739.037 707.379 739.023 707.472 739.044" stroke="#2B2B2B" stroke-width="2" stroke-linecap="round" stroke-linejoin="round"/>
<path d="M709.528 739.748C709.365 739.742 708.373 739.946 708.663 740.237C708.864 740.439 709.087 740.365 709.23 740.131C709.275 740.058 709.294 739.975 709.308 739.889C709.327 739.772 709.092 739.949 709.071 739.963C708.922 740.058 708.783 740.207 709.031 740.144" stroke="#2B2B2B" stroke-width="2" stroke-linecap="round" stroke-linejoin="round"/>
<path d="M705.935 741.296C706.095 741.545 706.255 741.776 706.504 741.942C706.635 742.03 706.738 742.17 706.869 742.252C707.052 742.367 707.288 742.415 707.496 742.46C707.742 742.514 707.981 742.598 708.228 742.652C708.372 742.684 708.437 742.684 708.569 742.617C708.71 742.545 708.873 742.488 709.007 742.413C709.139 742.338 709.289 742.284 709.416 742.203C709.5 742.149 709.633 742.055 709.722 742.033" stroke="#2B2B2B" stroke-width="2" stroke-linecap="round" stroke-linejoin="round"/>
</g>
<g filter="url(#filter8_d)">
<path d="M1315.35 455.798C1316.3 458.614 1314.8 460.538 1314.09 461.773C1316.25 461.699 1318.16 460.477 1320.45 460.631C1321.43 460.696 1323.03 461.121 1323.88 461.65C1325.51 462.659 1326.57 463.995 1326.7 466.177C1327 471.488 1321.9 472.074 1318.64 472.021C1315.37 471.967 1314.9 471.364 1311.18 471.558C1309.27 471.657 1306.64 472.23 1305.29 473.463C1304.14 474.502 1304.39 469.734 1304.56 468.839C1304.86 467.207 1304.73 464.492 1304.7 462.81C1304.66 459.564 1303.78 454.038 1308.76 452.26C1311.61 451.244 1314.41 452.982 1315.35 455.798Z" fill="#F46D69"/>
<path d="M1315.35 455.798C1316.3 458.614 1314.8 460.538 1314.09 461.773C1316.25 461.699 1318.16 460.477 1320.45 460.631C1321.43 460.696 1323.03 461.121 1323.88 461.65C1325.51 462.659 1326.57 463.995 1326.7 466.177C1327 471.488 1321.9 472.074 1318.64 472.021C1315.37 471.967 1314.9 471.364 1311.18 471.558C1309.27 471.657 1306.64 472.23 1305.29 473.463C1304.14 474.502 1304.39 469.734 1304.56 468.839C1304.86 467.207 1304.73 464.492 1304.7 462.81C1304.66 459.564 1303.78 454.038 1308.76 452.26C1311.61 451.244 1314.41 452.982 1315.35 455.798Z" stroke="#2B2B2B" stroke-width="2" stroke-linecap="round" stroke-linejoin="round"/>
</g>
<g filter="url(#filter9_d)">
<path d="M1282.4 512.171C1284.93 515.903 1283.45 519.127 1282.88 521.118C1286.08 520.334 1288.46 517.983 1291.96 517.48C1293.45 517.266 1296.02 517.37 1297.5 517.858C1300.34 518.79 1302.46 520.367 1303.51 523.45C1306.07 530.954 1298.66 533.399 1293.75 534.35C1288.83 535.303 1287.88 534.589 1282.38 536.038C1279.56 536.781 1275.85 538.429 1274.31 540.619C1273.01 542.466 1271.49 535.566 1271.39 534.232C1271.2 531.801 1269.92 527.958 1269.22 525.559C1267.87 520.928 1264.37 513.297 1271.13 509.185C1274.99 506.835 1279.87 508.439 1282.4 512.171Z" fill="#F46D69"/>
<path d="M1282.4 512.171C1284.93 515.903 1283.45 519.127 1282.88 521.118C1286.08 520.334 1288.46 517.983 1291.96 517.48C1293.45 517.266 1296.02 517.37 1297.5 517.858C1300.34 518.79 1302.46 520.367 1303.51 523.45C1306.07 530.954 1298.66 533.399 1293.75 534.35C1288.83 535.303 1287.88 534.589 1282.38 536.038C1279.56 536.781 1275.85 538.429 1274.31 540.619C1273.01 542.466 1271.49 535.566 1271.39 534.232C1271.2 531.801 1269.92 527.958 1269.22 525.559C1267.87 520.928 1264.37 513.297 1271.13 509.185C1274.99 506.835 1279.87 508.439 1282.4 512.171Z" stroke="#2B2B2B" stroke-width="2" stroke-linecap="round" stroke-linejoin="round"/>
</g>
<g filter="url(#filter10_d)">
<path d="M1224.96 423.198C1230.64 423.325 1233.07 427.25 1234.8 429.324C1236.13 425.415 1235.24 421.198 1237.08 417.18C1237.86 415.472 1239.71 412.874 1241.24 411.689C1244.14 409.43 1247.26 408.385 1251.25 409.574C1260.96 412.469 1258.54 421.99 1256.23 427.802C1253.91 433.632 1252.5 434.091 1250.32 440.884C1249.2 444.368 1248.44 449.448 1249.73 452.675C1250.81 455.396 1242.45 451.866 1240.96 450.987C1238.24 449.386 1233.29 447.873 1230.27 446.825C1224.43 444.803 1213.95 442.798 1214.15 432.72C1214.27 426.961 1219.28 423.07 1224.96 423.198Z" fill="#F46D69"/>
<path d="M1224.96 423.198C1230.64 423.325 1233.07 427.25 1234.8 429.324C1236.13 425.415 1235.24 421.198 1237.08 417.18C1237.86 415.472 1239.71 412.874 1241.24 411.689C1244.14 409.43 1247.26 408.385 1251.25 409.574C1260.96 412.469 1258.54 421.99 1256.23 427.802C1253.91 433.632 1252.5 434.091 1250.32 440.884C1249.2 444.368 1248.44 449.448 1249.73 452.675C1250.81 455.396 1242.45 451.866 1240.96 450.987C1238.24 449.386 1233.29 447.873 1230.27 446.825C1224.43 444.803 1213.95 442.798 1214.15 432.72C1214.27 426.961 1219.28 423.07 1224.96 423.198Z" stroke="#2B2B2B" stroke-width="2" stroke-linecap="round" stroke-linejoin="round"/>
</g>
<path d="M825.492 477.273C825.117 477.32 824.789 477.191 824.508 476.887C824.227 476.582 824.086 476.242 824.086 475.867C824.086 475.469 824.227 475.152 824.508 474.918C824.789 474.66 825.117 474.508 825.492 474.461C826.664 474.367 827.824 474.32 828.973 474.32C830.121 474.32 831.281 474.355 832.453 474.426C832.781 474.309 833.133 474.332 833.508 474.496C835.688 474.66 837.891 474.941 840.117 475.34C840.492 475.41 840.773 475.633 840.961 476.008C841.148 476.383 841.184 476.734 841.066 477.062C840.949 477.461 840.727 477.742 840.398 477.906C840.094 478.047 839.742 478.094 839.344 478.047C838.453 477.883 837.574 477.742 836.707 477.625C835.84 477.508 834.961 477.414 834.07 477.344C833.742 478.984 833.543 480.625 833.473 482.266C833.426 483.906 833.484 485.57 833.648 487.258C833.812 488.992 834.047 490.715 834.352 492.426C834.656 494.113 834.973 495.812 835.301 497.523C835.371 497.922 835.324 498.285 835.16 498.613C835.02 498.918 834.75 499.129 834.352 499.246C834 499.363 833.637 499.328 833.262 499.141C832.91 498.953 832.699 498.672 832.629 498.297C832.254 496.398 831.891 494.523 831.539 492.672C831.211 490.797 830.965 488.91 830.801 487.012C830.66 485.348 830.625 483.695 830.695 482.055C830.766 480.414 830.953 478.785 831.258 477.168C829.336 477.098 827.414 477.133 825.492 477.273ZM844.35 487.012C844.373 485.02 844.35 483.051 844.28 481.105C844.233 479.137 843.975 477.18 843.506 475.234C843.389 474.789 843.448 474.426 843.682 474.145C843.916 473.84 844.198 473.641 844.526 473.547C844.877 473.453 845.217 473.477 845.545 473.617C845.873 473.758 846.096 474.051 846.213 474.496C846.705 476.488 846.975 478.504 847.022 480.543C847.069 482.559 847.08 484.598 847.057 486.66C847.784 486.73 848.51 486.812 849.237 486.906C849.963 486.977 850.69 487.035 851.416 487.082C852.143 487.105 852.858 487.105 853.561 487.082C854.288 487.035 855.002 486.918 855.705 486.73C855.893 486.66 856.092 486.648 856.303 486.695C856.373 485.641 856.467 484.609 856.584 483.602C856.702 482.57 856.772 481.527 856.795 480.473C856.842 479.348 856.819 478.234 856.725 477.133C856.631 476.031 856.526 474.918 856.409 473.793C856.362 473.418 856.491 473.09 856.795 472.809C857.1 472.527 857.44 472.387 857.815 472.387C858.213 472.387 858.53 472.527 858.764 472.809C858.998 473.09 859.139 473.418 859.186 473.793C859.303 474.918 859.409 476.031 859.502 477.133C859.62 478.234 859.655 479.348 859.608 480.473C859.561 481.598 859.467 482.699 859.327 483.777C859.209 484.832 859.127 485.922 859.08 487.047C858.963 488.875 858.881 490.715 858.834 492.566C858.788 494.395 858.823 496.223 858.94 498.051C858.963 498.52 858.834 498.859 858.553 499.07C858.272 499.305 857.955 499.422 857.604 499.422C857.252 499.422 856.924 499.305 856.62 499.07C856.315 498.859 856.151 498.52 856.127 498.051C856.034 496.645 855.987 495.227 855.987 493.797C856.01 492.367 856.057 490.938 856.127 489.508C855.377 489.695 854.627 489.812 853.877 489.859C853.127 489.883 852.377 489.883 851.627 489.859C850.877 489.812 850.116 489.754 849.342 489.684C848.592 489.59 847.842 489.508 847.092 489.438C847.116 490.75 847.174 492.051 847.268 493.34C847.385 494.629 847.608 495.918 847.936 497.207C848.053 497.652 847.995 498.027 847.76 498.332C847.549 498.613 847.268 498.801 846.916 498.895C846.588 498.988 846.248 498.965 845.897 498.824C845.569 498.684 845.358 498.391 845.264 497.945C844.866 496.445 844.62 494.945 844.526 493.445C844.432 491.922 844.373 490.387 844.35 488.84C844.163 488.582 844.069 488.277 844.069 487.926C844.069 487.574 844.163 487.27 844.35 487.012ZM868.552 498.543C868.552 498.988 868.399 499.316 868.095 499.527C867.813 499.762 867.497 499.879 867.145 499.879C866.794 499.879 866.477 499.762 866.196 499.527C865.915 499.316 865.774 498.988 865.774 498.543C865.774 496.715 865.985 494.957 866.407 493.27C866.829 491.582 867.356 489.906 867.989 488.242C867.825 487.938 867.778 487.598 867.848 487.223C867.989 486.73 868.294 486.426 868.763 486.309C869.231 485.184 869.712 484.07 870.204 482.969C870.72 481.844 871.212 480.719 871.68 479.594C872.149 478.469 872.583 477.332 872.981 476.184C873.38 475.035 873.708 473.863 873.966 472.668C874.036 472.316 874.177 472.012 874.388 471.754C874.622 471.496 874.938 471.367 875.337 471.367C875.712 471.367 876.052 471.508 876.356 471.789C876.661 472.047 876.79 472.375 876.743 472.773C876.673 474.133 876.696 475.387 876.813 476.535C876.93 477.66 877.106 478.785 877.341 479.91C877.575 481.012 877.833 482.125 878.114 483.25C878.419 484.352 878.7 485.453 878.958 486.555C879.216 487.609 879.45 488.664 879.661 489.719C879.872 490.773 880.212 491.793 880.68 492.777C880.915 493.27 881.161 493.75 881.419 494.219C881.677 494.664 881.958 495.121 882.263 495.59C882.544 496.012 882.802 496.457 883.036 496.926C883.27 497.371 883.434 497.863 883.528 498.402C883.575 498.777 883.516 499.129 883.352 499.457C883.212 499.785 882.942 500.008 882.544 500.125C882.216 500.219 881.864 500.172 881.489 499.984C881.114 499.797 880.891 499.516 880.821 499.141C880.727 498.602 880.54 498.121 880.259 497.699C880.001 497.277 879.731 496.844 879.45 496.398C879.122 495.883 878.817 495.367 878.536 494.852C878.278 494.312 878.044 493.762 877.833 493.199C877.598 492.613 877.399 492.027 877.235 491.441C877.071 490.832 876.919 490.223 876.778 489.613C875.723 489.543 874.68 489.496 873.649 489.473C872.641 489.426 871.622 489.344 870.591 489.227C870.028 490.727 869.548 492.25 869.149 493.797C868.774 495.344 868.575 496.926 868.552 498.543ZM871.856 486.098C871.809 486.168 871.774 486.25 871.751 486.344C871.751 486.414 871.727 486.484 871.68 486.555C872.43 486.625 873.169 486.672 873.895 486.695C874.622 486.695 875.36 486.719 876.11 486.766C875.852 485.641 875.571 484.527 875.266 483.426C874.985 482.301 874.727 481.164 874.493 480.016C874.071 481.047 873.638 482.066 873.192 483.074C872.747 484.059 872.302 485.066 871.856 486.098ZM889.237 478.398C889.191 478.352 889.144 478.305 889.097 478.258C889.073 478.211 889.038 478.164 888.991 478.117C888.71 477.836 888.57 477.543 888.57 477.238C888.593 476.91 888.687 476.629 888.851 476.395C889.038 476.137 889.273 475.949 889.554 475.832C889.859 475.691 890.163 475.68 890.468 475.797C890.843 475.75 891.195 475.844 891.523 476.078C891.874 476.289 892.05 476.641 892.05 477.133C893.245 478.562 894.37 479.969 895.425 481.352C896.48 482.734 897.441 484.199 898.308 485.746C898.706 486.449 899.07 487.176 899.398 487.926C899.749 488.652 900.077 489.391 900.382 490.141C900.382 489.18 900.417 488.23 900.487 487.293C900.581 486.355 900.687 485.395 900.804 484.41C901.062 482.395 901.308 480.391 901.542 478.398C901.8 476.383 901.941 474.344 901.964 472.281C901.964 471.836 902.105 471.508 902.386 471.297C902.691 471.062 903.019 470.945 903.37 470.945C903.722 470.945 904.038 471.062 904.32 471.297C904.624 471.508 904.777 471.836 904.777 472.281C904.753 474.391 904.601 476.477 904.32 478.539C904.062 480.578 903.804 482.629 903.546 484.691C903.429 485.746 903.335 486.789 903.265 487.82C903.195 488.828 903.171 489.859 903.195 490.914C903.218 491.922 903.241 492.918 903.265 493.902C903.312 494.887 903.312 495.883 903.265 496.891C903.241 497.242 903.124 497.535 902.913 497.77C902.726 497.98 902.491 498.121 902.21 498.191C901.929 498.262 901.648 498.25 901.366 498.156C901.085 498.062 900.851 497.875 900.663 497.594C900.124 496.773 899.667 495.918 899.292 495.027C898.917 494.113 898.566 493.211 898.237 492.32C897.909 491.453 897.57 490.621 897.218 489.824C896.866 489.004 896.468 488.195 896.023 487.398C895.437 486.344 894.804 485.336 894.124 484.375C893.468 483.414 892.765 482.477 892.015 481.562C892.015 482.523 892.015 483.473 892.015 484.41C892.015 485.324 892.038 486.262 892.085 487.223C892.132 488.91 892.249 490.586 892.437 492.25C892.624 493.891 892.823 495.543 893.034 497.207C893.081 497.605 892.941 497.945 892.612 498.227C892.308 498.484 891.991 498.613 891.663 498.613C891.241 498.613 890.913 498.484 890.679 498.227C890.445 497.945 890.304 497.605 890.257 497.207C890.023 495.543 889.812 493.891 889.624 492.25C889.437 490.586 889.32 488.91 889.273 487.223C889.226 485.746 889.202 484.281 889.202 482.828C889.226 481.352 889.237 479.875 889.237 478.398ZM911.154 487.047C911.06 485.078 910.908 483.133 910.697 481.211C910.486 479.266 910.252 477.32 909.994 475.375C909.947 474.977 909.994 474.625 910.134 474.32C910.298 473.992 910.58 473.77 910.978 473.652C911.306 473.559 911.658 473.605 912.033 473.793C912.431 473.957 912.654 474.238 912.701 474.637C912.959 476.535 913.193 478.422 913.404 480.297C913.615 482.172 913.779 484.07 913.896 485.992C914.107 485.922 914.295 485.898 914.459 485.922C915.443 485.57 916.404 485.16 917.341 484.691C918.279 484.199 919.146 483.625 919.943 482.969C920.529 482.477 921.033 481.949 921.455 481.387C921.9 480.824 922.298 480.203 922.65 479.523C922.978 478.844 923.318 478.176 923.67 477.52C924.045 476.84 924.49 476.219 925.005 475.656C925.31 475.328 925.638 475.188 925.99 475.234C926.365 475.258 926.67 475.398 926.904 475.656C927.162 475.891 927.314 476.195 927.361 476.57C927.431 476.945 927.314 477.297 927.009 477.625C926.47 478.234 926.037 478.902 925.709 479.629C925.38 480.355 925.017 481.059 924.619 481.738C923.845 483.051 922.838 484.211 921.595 485.219C920.963 485.711 920.306 486.168 919.627 486.59C918.947 486.988 918.244 487.352 917.517 487.68C918.009 487.961 918.478 488.277 918.923 488.629C919.392 488.957 919.814 489.355 920.189 489.824C920.611 490.363 921.009 490.926 921.384 491.512C921.759 492.074 922.181 492.625 922.65 493.164C923.095 493.633 923.552 494.09 924.021 494.535C924.49 494.957 924.959 495.391 925.427 495.836C925.755 496.141 925.896 496.48 925.849 496.855C925.802 497.207 925.65 497.512 925.392 497.77C925.158 498.004 924.853 498.156 924.478 498.227C924.103 498.273 923.752 498.145 923.423 497.84C922.955 497.395 922.486 496.949 922.017 496.504C921.548 496.059 921.103 495.602 920.681 495.133C920.213 494.617 919.791 494.09 919.416 493.551C919.041 492.988 918.654 492.438 918.255 491.898C917.74 491.195 917.119 490.645 916.392 490.246C915.666 489.824 914.939 489.391 914.213 488.945C914.072 489.578 914.002 490.176 914.002 490.738C914.002 491.301 913.99 491.863 913.966 492.426C913.943 493.41 913.92 494.383 913.896 495.344C913.896 496.305 913.978 497.277 914.142 498.262C914.189 498.637 914.13 498.988 913.966 499.316C913.826 499.645 913.556 499.867 913.158 499.984C912.83 500.078 912.478 500.031 912.103 499.844C911.728 499.656 911.505 499.375 911.435 499C911.154 497.312 911.037 495.613 911.084 493.902C911.154 492.168 911.189 490.445 911.189 488.734C910.931 488.289 910.92 487.832 911.154 487.363V487.047ZM947.674 500.125C947.323 500.125 946.983 499.984 946.655 499.703C946.35 499.422 946.221 499.094 946.268 498.719C946.643 494.969 946.83 491.219 946.83 487.469C946.83 483.719 946.819 479.957 946.795 476.184C946.608 475.902 946.502 475.586 946.479 475.234C946.479 474.859 946.608 474.543 946.866 474.285C947.006 473.863 947.287 473.594 947.709 473.477C948.131 473.359 948.53 473.395 948.905 473.582C950.006 473.348 951.12 473.219 952.245 473.195C953.37 473.148 954.495 473.148 955.62 473.195C956.745 473.219 957.87 473.254 958.995 473.301C960.143 473.324 961.28 473.301 962.405 473.23C962.85 473.207 963.178 473.336 963.389 473.617C963.623 473.875 963.741 474.18 963.741 474.531C963.741 474.883 963.623 475.223 963.389 475.551C963.178 475.855 962.85 476.02 962.405 476.043C961.35 476.113 960.284 476.125 959.205 476.078C958.127 476.031 957.049 475.996 955.971 475.973C954.893 475.926 953.827 475.914 952.772 475.938C951.717 475.961 950.662 476.078 949.608 476.289C949.608 477.906 949.608 479.512 949.608 481.105C949.631 482.699 949.643 484.305 949.643 485.922C950.37 485.922 951.108 485.91 951.858 485.887C952.608 485.863 953.346 485.852 954.073 485.852C954.823 485.852 955.561 485.887 956.287 485.957C957.037 486.004 957.776 486.109 958.502 486.273C958.948 486.391 959.241 486.613 959.381 486.941C959.522 487.27 959.545 487.609 959.452 487.961C959.358 488.289 959.159 488.57 958.854 488.805C958.573 489.039 958.209 489.098 957.764 488.98C956.428 488.676 955.069 488.559 953.686 488.629C952.327 488.699 950.967 488.734 949.608 488.734C949.561 490.398 949.502 492.062 949.432 493.727C949.362 495.367 949.245 497.031 949.08 498.719C949.034 499.094 948.881 499.422 948.623 499.703C948.389 499.984 948.073 500.125 947.674 500.125ZM970.118 497.277C969.579 496.879 969.087 496.434 968.641 495.941C968.22 495.426 967.833 494.887 967.481 494.324C967.153 493.832 966.837 493.305 966.532 492.742C966.227 492.18 965.958 491.605 965.723 491.02C965.489 490.434 965.302 489.836 965.161 489.227C965.044 488.617 965.009 488.008 965.055 487.398C965.126 486.203 965.243 485.031 965.407 483.883C965.595 482.711 965.841 481.562 966.145 480.438C966.239 480.016 966.356 479.547 966.497 479.031C966.637 478.516 966.813 478.023 967.024 477.555C967.259 477.062 967.528 476.617 967.833 476.219C968.137 475.82 968.524 475.516 968.993 475.305C969.696 475 970.399 474.895 971.102 474.988C971.805 475.059 972.485 475.246 973.141 475.551C973.821 475.855 974.466 476.23 975.075 476.676C975.684 477.098 976.259 477.52 976.798 477.941C977.29 478.34 977.77 478.762 978.239 479.207C978.731 479.629 979.235 480.039 979.751 480.438C980.36 480.977 980.97 481.516 981.579 482.055C982.212 482.594 982.727 483.215 983.126 483.918C983.595 484.715 983.864 485.523 983.934 486.344C984.005 487.141 983.946 487.938 983.759 488.734C983.571 489.508 983.278 490.27 982.88 491.02C982.481 491.77 982.048 492.496 981.579 493.199C981.157 493.809 980.665 494.453 980.102 495.133C979.563 495.812 978.954 496.434 978.274 496.996C977.618 497.559 976.903 498.004 976.13 498.332C975.38 498.66 974.583 498.777 973.739 498.684C973.247 498.613 972.884 498.426 972.649 498.121C972.204 498.051 971.77 497.957 971.348 497.84C970.927 497.723 970.516 497.535 970.118 497.277ZM967.868 487.152C967.821 487.738 967.845 488.277 967.938 488.77C968.055 489.262 968.243 489.812 968.501 490.422C968.829 491.102 969.192 491.793 969.591 492.496C969.989 493.176 970.458 493.797 970.997 494.359C971.466 494.875 972.005 495.191 972.614 495.309C973.012 495.379 973.399 495.449 973.774 495.52C974.149 495.566 974.524 495.648 974.899 495.766C975.04 495.719 975.18 495.672 975.321 495.625C975.462 495.555 975.602 495.461 975.743 495.344C976.141 495.086 976.505 494.805 976.833 494.5C977.161 494.195 977.477 493.879 977.782 493.551C978.368 492.895 978.93 492.18 979.47 491.406C980.032 490.633 980.477 489.836 980.805 489.016C981.134 488.195 981.262 487.422 981.192 486.695C981.122 485.969 980.782 485.266 980.173 484.586C979.61 483.953 978.989 483.379 978.309 482.863C977.653 482.324 977.009 481.785 976.376 481.246C975.837 480.777 975.309 480.332 974.794 479.91C974.278 479.488 973.716 479.09 973.106 478.715C972.544 478.34 971.993 478.059 971.454 477.871C971.384 477.848 971.313 477.836 971.243 477.836C971.196 477.812 971.137 477.789 971.067 477.766L970.54 477.73C970.352 477.777 970.235 477.824 970.188 477.871C970.024 478.059 969.93 478.152 969.907 478.152C969.743 478.434 969.637 478.633 969.591 478.75C969.544 478.867 969.473 479.055 969.38 479.312C969.145 479.992 968.946 480.684 968.782 481.387C968.618 482.066 968.477 482.746 968.36 483.426C968.243 484.105 968.137 484.727 968.044 485.289C967.973 485.852 967.915 486.473 967.868 487.152ZM1003.35 498.121C1003.17 498.449 1002.87 498.672 1002.48 498.789C1002.1 498.906 1001.75 498.848 1001.42 498.613C1000.79 498.145 1000.18 497.664 999.593 497.172C999.007 496.656 998.374 496.199 997.695 495.801C997.085 495.426 996.476 495.086 995.866 494.781C995.257 494.453 994.671 494.078 994.109 493.656C993.429 493.141 992.796 492.578 992.21 491.969C992.187 493.141 992.198 494.312 992.245 495.484C992.292 496.633 992.363 497.793 992.456 498.965C992.503 499.363 992.374 499.691 992.07 499.949C991.765 500.23 991.437 500.371 991.085 500.371C990.663 500.371 990.335 500.23 990.101 499.949C989.866 499.691 989.726 499.363 989.679 498.965C989.538 497.277 989.456 495.625 989.433 494.008C989.409 492.367 989.445 490.715 989.538 489.051C989.351 488.793 989.163 488.535 988.976 488.277C988.788 487.996 988.613 487.715 988.448 487.434C988.308 487.152 988.249 486.883 988.273 486.625C988.32 486.367 988.413 486.145 988.554 485.957C988.718 485.77 988.905 485.617 989.116 485.5C989.351 485.383 989.597 485.336 989.855 485.359C989.902 484.82 989.96 484.281 990.03 483.742C990.101 483.18 990.171 482.629 990.241 482.09C990.312 481.715 990.37 481.352 990.417 481C990.488 480.625 990.546 480.25 990.593 479.875C990.64 479.688 990.663 479.512 990.663 479.348C990.687 479.184 990.722 479.008 990.769 478.82C990.769 478.727 990.792 478.609 990.839 478.469C990.863 478.164 990.874 477.871 990.874 477.59C990.874 477.285 990.886 476.98 990.909 476.676C990.933 476.301 990.968 475.902 991.015 475.48C991.085 475.035 991.179 474.613 991.296 474.215C991.437 473.793 991.624 473.406 991.859 473.055C992.093 472.703 992.409 472.434 992.808 472.246C993.183 472.082 993.558 471.988 993.933 471.965C994.331 471.941 994.718 471.965 995.093 472.035C995.491 472.105 995.878 472.211 996.253 472.352C996.628 472.469 996.991 472.598 997.343 472.738C998.163 473.043 998.972 473.395 999.769 473.793C1000.59 474.168 1001.32 474.66 1001.95 475.27C1002.56 475.879 1003.09 476.605 1003.53 477.449C1003.98 478.27 1004.18 479.125 1004.13 480.016C1004.08 480.555 1003.96 481.035 1003.78 481.457C1003.61 481.855 1003.38 482.266 1003.07 482.688C1002.32 483.742 1001.51 484.75 1000.65 485.711C999.78 486.672 998.855 487.551 997.87 488.348C997.402 488.723 996.886 489.098 996.323 489.473C995.784 489.848 995.21 490.164 994.601 490.422C994.812 490.609 995.023 490.797 995.234 490.984C995.445 491.172 995.667 491.336 995.902 491.477C996.511 491.875 997.12 492.25 997.73 492.602C998.363 492.93 998.972 493.293 999.558 493.691C1000.12 494.09 1000.67 494.512 1001.21 494.957C1001.75 495.402 1002.29 495.824 1002.83 496.223C1003.16 496.434 1003.37 496.715 1003.46 497.066C1003.58 497.418 1003.54 497.77 1003.35 498.121ZM993.863 487.68C994.425 487.375 994.929 487.059 995.374 486.73C995.843 486.379 996.3 486.004 996.745 485.605C997.214 485.184 997.671 484.738 998.116 484.27C998.562 483.801 998.995 483.332 999.417 482.863C999.581 482.652 999.734 482.465 999.874 482.301C1000.01 482.137 1000.14 481.984 1000.26 481.844C1000.38 481.68 1000.5 481.516 1000.61 481.352C1000.75 481.164 1000.89 480.953 1001.03 480.719C1001.08 480.648 1001.13 480.578 1001.18 480.508C1001.22 480.438 1001.27 480.367 1001.32 480.297C1001.34 479.641 1001.2 479.031 1000.89 478.469C1000.5 477.789 999.991 477.238 999.382 476.816C998.796 476.395 998.14 476.043 997.413 475.762C996.991 475.574 996.57 475.41 996.148 475.27C995.726 475.129 995.28 475 994.812 474.883C994.695 474.836 994.519 474.789 994.284 474.742C994.144 474.789 994.05 474.859 994.003 474.953C993.909 475.258 993.863 475.469 993.863 475.586C993.839 475.656 993.804 475.785 993.757 475.973C993.734 476.207 993.71 476.395 993.687 476.535C993.687 476.652 993.687 476.781 993.687 476.922C993.616 478.539 993.441 480.133 993.159 481.703C992.902 483.273 992.691 484.867 992.527 486.484C992.48 486.742 992.445 487.012 992.421 487.293C992.421 487.551 992.409 487.809 992.386 488.066C992.597 488.09 992.714 488.09 992.738 488.066C992.995 488.02 993.195 487.973 993.335 487.926C993.499 487.855 993.675 487.773 993.863 487.68ZM1021 475.445C1020.6 475.234 1020.38 474.953 1020.33 474.602C1020.28 474.227 1020.35 473.887 1020.54 473.582C1020.7 473.277 1020.96 473.055 1021.31 472.914C1021.64 472.773 1022 472.809 1022.4 473.02C1023.64 473.676 1024.68 474.508 1025.5 475.516C1026.32 476.5 1027 477.625 1027.54 478.891C1027.89 479.711 1028.23 480.52 1028.55 481.316C1028.91 482.113 1029.35 482.852 1029.89 483.531C1030.76 482.781 1031.54 481.949 1032.25 481.035C1032.95 480.121 1033.61 479.172 1034.21 478.188C1034.82 477.18 1035.4 476.16 1035.94 475.129C1036.5 474.098 1037.06 473.102 1037.62 472.141C1037.86 471.766 1038.15 471.555 1038.5 471.508C1038.88 471.461 1039.22 471.531 1039.52 471.719C1039.83 471.883 1040.05 472.141 1040.19 472.492C1040.33 472.82 1040.29 473.184 1040.05 473.582C1039.44 474.613 1038.83 475.668 1038.22 476.746C1037.64 477.801 1037.02 478.844 1036.36 479.875C1035.73 480.906 1035.04 481.902 1034.29 482.863C1033.56 483.801 1032.75 484.68 1031.86 485.5C1031.77 487.633 1031.7 489.754 1031.65 491.863C1031.62 493.949 1031.7 496.059 1031.86 498.191C1031.88 498.566 1031.74 498.883 1031.44 499.141C1031.13 499.422 1030.8 499.562 1030.45 499.562C1030.05 499.562 1029.73 499.422 1029.47 499.141C1029.21 498.883 1029.07 498.566 1029.05 498.191C1028.91 496.27 1028.84 494.359 1028.84 492.461C1028.86 490.562 1028.91 488.652 1028.98 486.73C1028.77 486.59 1028.59 486.414 1028.45 486.203C1027.65 485.336 1027.02 484.422 1026.55 483.461C1026.08 482.5 1025.62 481.492 1025.18 480.438C1024.73 479.383 1024.18 478.434 1023.53 477.59C1022.89 476.723 1022.05 476.008 1021 475.445ZM1047.48 497.277C1046.94 496.879 1046.45 496.434 1046.01 495.941C1045.58 495.426 1045.2 494.887 1044.85 494.324C1044.52 493.832 1044.2 493.305 1043.9 492.742C1043.59 492.18 1043.32 491.605 1043.09 491.02C1042.85 490.434 1042.67 489.836 1042.53 489.227C1042.41 488.617 1042.37 488.008 1042.42 487.398C1042.49 486.203 1042.61 485.031 1042.77 483.883C1042.96 482.711 1043.21 481.562 1043.51 480.438C1043.6 480.016 1043.72 479.547 1043.86 479.031C1044 478.516 1044.18 478.023 1044.39 477.555C1044.62 477.062 1044.89 476.617 1045.2 476.219C1045.5 475.82 1045.89 475.516 1046.36 475.305C1047.06 475 1047.76 474.895 1048.47 474.988C1049.17 475.059 1049.85 475.246 1050.51 475.551C1051.19 475.855 1051.83 476.23 1052.44 476.676C1053.05 477.098 1053.62 477.52 1054.16 477.941C1054.65 478.34 1055.14 478.762 1055.6 479.207C1056.1 479.629 1056.6 480.039 1057.12 480.438C1057.73 480.977 1058.33 481.516 1058.94 482.055C1059.58 482.594 1060.09 483.215 1060.49 483.918C1060.96 484.715 1061.23 485.523 1061.3 486.344C1061.37 487.141 1061.31 487.938 1061.12 488.734C1060.94 489.508 1060.64 490.27 1060.24 491.02C1059.85 491.77 1059.41 492.496 1058.94 493.199C1058.52 493.809 1058.03 494.453 1057.47 495.133C1056.93 495.812 1056.32 496.434 1055.64 496.996C1054.98 497.559 1054.27 498.004 1053.49 498.332C1052.74 498.66 1051.95 498.777 1051.1 498.684C1050.61 498.613 1050.25 498.426 1050.01 498.121C1049.57 498.051 1049.14 497.957 1048.71 497.84C1048.29 497.723 1047.88 497.535 1047.48 497.277ZM1045.23 487.152C1045.19 487.738 1045.21 488.277 1045.3 488.77C1045.42 489.262 1045.61 489.812 1045.87 490.422C1046.19 491.102 1046.56 491.793 1046.96 492.496C1047.35 493.176 1047.82 493.797 1048.36 494.359C1048.83 494.875 1049.37 495.191 1049.98 495.309C1050.38 495.379 1050.76 495.449 1051.14 495.52C1051.51 495.566 1051.89 495.648 1052.26 495.766C1052.4 495.719 1052.55 495.672 1052.69 495.625C1052.83 495.555 1052.97 495.461 1053.11 495.344C1053.51 495.086 1053.87 494.805 1054.2 494.5C1054.53 494.195 1054.84 493.879 1055.15 493.551C1055.73 492.895 1056.3 492.18 1056.83 491.406C1057.4 490.633 1057.84 489.836 1058.17 489.016C1058.5 488.195 1058.63 487.422 1058.56 486.695C1058.49 485.969 1058.15 485.266 1057.54 484.586C1056.98 483.953 1056.35 483.379 1055.67 482.863C1055.02 482.324 1054.37 481.785 1053.74 481.246C1053.2 480.777 1052.67 480.332 1052.16 479.91C1051.64 479.488 1051.08 479.09 1050.47 478.715C1049.91 478.34 1049.36 478.059 1048.82 477.871C1048.75 477.848 1048.68 477.836 1048.61 477.836C1048.56 477.812 1048.5 477.789 1048.43 477.766L1047.9 477.73C1047.72 477.777 1047.6 477.824 1047.55 477.871C1047.39 478.059 1047.3 478.152 1047.27 478.152C1047.11 478.434 1047 478.633 1046.96 478.75C1046.91 478.867 1046.84 479.055 1046.74 479.312C1046.51 479.992 1046.31 480.684 1046.15 481.387C1045.98 482.066 1045.84 482.746 1045.73 483.426C1045.61 484.105 1045.5 484.727 1045.41 485.289C1045.34 485.852 1045.28 486.473 1045.23 487.152ZM1066.87 489.438C1066.61 487.094 1066.43 484.773 1066.34 482.477C1066.25 480.156 1066.07 477.836 1065.81 475.516C1065.77 475.117 1065.9 474.789 1066.2 474.531C1066.53 474.25 1066.87 474.109 1067.22 474.109C1067.64 474.109 1067.97 474.25 1068.2 474.531C1068.44 474.789 1068.58 475.117 1068.63 475.516C1068.79 476.922 1068.91 478.316 1068.98 479.699C1069.07 481.059 1069.15 482.441 1069.22 483.848C1069.32 485.887 1069.49 487.949 1069.75 490.035C1069.77 490.293 1069.8 490.586 1069.82 490.914C1069.87 491.242 1069.9 491.488 1069.93 491.652C1069.97 491.98 1070.02 492.297 1070.07 492.602C1070.14 492.906 1070.21 493.211 1070.28 493.516C1070.42 494.102 1070.57 494.641 1070.74 495.133C1070.92 495.602 1071.19 496 1071.54 496.328L1071.86 496.504C1072.05 496.551 1072.21 496.574 1072.35 496.574C1072.52 496.551 1072.75 496.492 1073.06 496.398C1073.38 496.281 1073.66 496.141 1073.9 495.977C1074.53 495.555 1075.07 495.027 1075.52 494.395C1075.96 493.762 1076.35 493.105 1076.68 492.426C1077.05 491.676 1077.38 490.902 1077.66 490.105C1077.94 489.309 1078.18 488.5 1078.36 487.68C1078.83 485.617 1079.03 483.543 1078.96 481.457C1078.91 479.371 1078.76 477.297 1078.5 475.234C1078.46 474.859 1078.59 474.531 1078.89 474.25C1079.22 473.969 1079.55 473.828 1079.88 473.828C1080.3 473.828 1080.63 473.969 1080.86 474.25C1081.09 474.531 1081.24 474.859 1081.28 475.234C1081.59 477.484 1081.75 479.77 1081.77 482.09C1081.8 484.387 1081.52 486.637 1080.93 488.84C1080.72 489.637 1080.47 490.457 1080.19 491.301C1079.91 492.145 1079.57 492.965 1079.17 493.762C1078.8 494.535 1078.35 495.285 1077.84 496.012C1077.32 496.715 1076.74 497.324 1076.08 497.84C1075.42 498.355 1074.7 498.766 1073.9 499.07C1073.1 499.375 1072.29 499.445 1071.47 499.281C1070.84 499.164 1070.27 498.895 1069.75 498.473C1069.26 498.027 1068.86 497.535 1068.56 496.996C1067.95 495.824 1067.55 494.594 1067.36 493.305C1067.17 491.992 1067.01 490.703 1066.87 489.438ZM1101.72 498.121C1101.53 498.449 1101.24 498.672 1100.84 498.789C1100.47 498.906 1100.12 498.848 1099.79 498.613C1099.16 498.145 1098.55 497.664 1097.96 497.172C1097.37 496.656 1096.74 496.199 1096.06 495.801C1095.45 495.426 1094.84 495.086 1094.23 494.781C1093.62 494.453 1093.04 494.078 1092.48 493.656C1091.8 493.141 1091.16 492.578 1090.58 491.969C1090.55 493.141 1090.57 494.312 1090.61 495.484C1090.66 496.633 1090.73 497.793 1090.82 498.965C1090.87 499.363 1090.74 499.691 1090.44 499.949C1090.13 500.23 1089.8 500.371 1089.45 500.371C1089.03 500.371 1088.7 500.23 1088.47 499.949C1088.23 499.691 1088.09 499.363 1088.05 498.965C1087.91 497.277 1087.82 495.625 1087.8 494.008C1087.78 492.367 1087.81 490.715 1087.91 489.051C1087.72 488.793 1087.53 488.535 1087.34 488.277C1087.16 487.996 1086.98 487.715 1086.82 487.434C1086.67 487.152 1086.62 486.883 1086.64 486.625C1086.69 486.367 1086.78 486.145 1086.92 485.957C1087.09 485.77 1087.27 485.617 1087.48 485.5C1087.72 485.383 1087.96 485.336 1088.22 485.359C1088.27 484.82 1088.33 484.281 1088.4 483.742C1088.47 483.18 1088.54 482.629 1088.61 482.09C1088.68 481.715 1088.74 481.352 1088.78 481C1088.85 480.625 1088.91 480.25 1088.96 479.875C1089.01 479.688 1089.03 479.512 1089.03 479.348C1089.05 479.184 1089.09 479.008 1089.14 478.82C1089.14 478.727 1089.16 478.609 1089.21 478.469C1089.23 478.164 1089.24 477.871 1089.24 477.59C1089.24 477.285 1089.25 476.98 1089.28 476.676C1089.3 476.301 1089.34 475.902 1089.38 475.48C1089.45 475.035 1089.55 474.613 1089.66 474.215C1089.8 473.793 1089.99 473.406 1090.23 473.055C1090.46 472.703 1090.78 472.434 1091.17 472.246C1091.55 472.082 1091.92 471.988 1092.3 471.965C1092.7 471.941 1093.09 471.965 1093.46 472.035C1093.86 472.105 1094.25 472.211 1094.62 472.352C1095 472.469 1095.36 472.598 1095.71 472.738C1096.53 473.043 1097.34 473.395 1098.14 473.793C1098.96 474.168 1099.68 474.66 1100.32 475.27C1100.92 475.879 1101.45 476.605 1101.9 477.449C1102.34 478.27 1102.54 479.125 1102.5 480.016C1102.45 480.555 1102.33 481.035 1102.14 481.457C1101.98 481.855 1101.75 482.266 1101.44 482.688C1100.69 483.742 1099.88 484.75 1099.01 485.711C1098.15 486.672 1097.22 487.551 1096.24 488.348C1095.77 488.723 1095.25 489.098 1094.69 489.473C1094.15 489.848 1093.58 490.164 1092.97 490.422C1093.18 490.609 1093.39 490.797 1093.6 490.984C1093.81 491.172 1094.03 491.336 1094.27 491.477C1094.88 491.875 1095.49 492.25 1096.1 492.602C1096.73 492.93 1097.34 493.293 1097.92 493.691C1098.49 494.09 1099.04 494.512 1099.58 494.957C1100.12 495.402 1100.66 495.824 1101.19 496.223C1101.52 496.434 1101.73 496.715 1101.83 497.066C1101.94 497.418 1101.91 497.77 1101.72 498.121ZM1092.23 487.68C1092.79 487.375 1093.3 487.059 1093.74 486.73C1094.21 486.379 1094.67 486.004 1095.11 485.605C1095.58 485.184 1096.04 484.738 1096.48 484.27C1096.93 483.801 1097.36 483.332 1097.78 482.863C1097.95 482.652 1098.1 482.465 1098.24 482.301C1098.38 482.137 1098.51 481.984 1098.63 481.844C1098.75 481.68 1098.86 481.516 1098.98 481.352C1099.12 481.164 1099.26 480.953 1099.4 480.719C1099.45 480.648 1099.5 480.578 1099.54 480.508C1099.59 480.438 1099.64 480.367 1099.68 480.297C1099.71 479.641 1099.57 479.031 1099.26 478.469C1098.86 477.789 1098.36 477.238 1097.75 476.816C1097.16 476.395 1096.51 476.043 1095.78 475.762C1095.36 475.574 1094.94 475.41 1094.51 475.27C1094.09 475.129 1093.65 475 1093.18 474.883C1093.06 474.836 1092.89 474.789 1092.65 474.742C1092.51 474.789 1092.42 474.859 1092.37 474.953C1092.28 475.258 1092.23 475.469 1092.23 475.586C1092.21 475.656 1092.17 475.785 1092.12 475.973C1092.1 476.207 1092.08 476.395 1092.05 476.535C1092.05 476.652 1092.05 476.781 1092.05 476.922C1091.98 478.539 1091.81 480.133 1091.53 481.703C1091.27 483.273 1091.06 484.867 1090.89 486.484C1090.85 486.742 1090.81 487.012 1090.79 487.293C1090.79 487.551 1090.78 487.809 1090.75 488.066C1090.96 488.09 1091.08 488.09 1091.1 488.066C1091.36 488.02 1091.56 487.973 1091.7 487.926C1091.87 487.855 1092.04 487.773 1092.23 487.68ZM1126.46 497.277C1125.93 496.879 1125.43 496.434 1124.99 495.941C1124.57 495.426 1124.18 494.887 1123.83 494.324C1123.5 493.832 1123.18 493.305 1122.88 492.742C1122.57 492.18 1122.3 491.605 1122.07 491.02C1121.84 490.434 1121.65 489.836 1121.51 489.227C1121.39 488.617 1121.36 488.008 1121.4 487.398C1121.47 486.203 1121.59 485.031 1121.75 483.883C1121.94 482.711 1122.19 481.562 1122.49 480.438C1122.59 480.016 1122.7 479.547 1122.84 479.031C1122.98 478.516 1123.16 478.023 1123.37 477.555C1123.61 477.062 1123.88 476.617 1124.18 476.219C1124.48 475.82 1124.87 475.516 1125.34 475.305C1126.04 475 1126.75 474.895 1127.45 474.988C1128.15 475.059 1128.83 475.246 1129.49 475.551C1130.17 475.855 1130.81 476.23 1131.42 476.676C1132.03 477.098 1132.61 477.52 1133.14 477.941C1133.64 478.34 1134.12 478.762 1134.59 479.207C1135.08 479.629 1135.58 480.039 1136.1 480.438C1136.71 480.977 1137.32 481.516 1137.93 482.055C1138.56 482.594 1139.07 483.215 1139.47 483.918C1139.94 484.715 1140.21 485.523 1140.28 486.344C1140.35 487.141 1140.29 487.938 1140.11 488.734C1139.92 489.508 1139.62 490.27 1139.23 491.02C1138.83 491.77 1138.39 492.496 1137.93 493.199C1137.5 493.809 1137.01 494.453 1136.45 495.133C1135.91 495.812 1135.3 496.434 1134.62 496.996C1133.96 497.559 1133.25 498.004 1132.48 498.332C1131.73 498.66 1130.93 498.777 1130.09 498.684C1129.59 498.613 1129.23 498.426 1129 498.121C1128.55 498.051 1128.12 497.957 1127.7 497.84C1127.27 497.723 1126.86 497.535 1126.46 497.277ZM1124.21 487.152C1124.17 487.738 1124.19 488.277 1124.29 488.77C1124.4 489.262 1124.59 489.812 1124.85 490.422C1125.18 491.102 1125.54 491.793 1125.94 492.496C1126.34 493.176 1126.8 493.797 1127.34 494.359C1127.81 494.875 1128.35 495.191 1128.96 495.309C1129.36 495.379 1129.75 495.449 1130.12 495.52C1130.5 495.566 1130.87 495.648 1131.25 495.766C1131.39 495.719 1131.53 495.672 1131.67 495.625C1131.81 495.555 1131.95 495.461 1132.09 495.344C1132.49 495.086 1132.85 494.805 1133.18 494.5C1133.51 494.195 1133.82 493.879 1134.13 493.551C1134.71 492.895 1135.28 492.18 1135.82 491.406C1136.38 490.633 1136.82 489.836 1137.15 489.016C1137.48 488.195 1137.61 487.422 1137.54 486.695C1137.47 485.969 1137.13 485.266 1136.52 484.586C1135.96 483.953 1135.34 483.379 1134.66 482.863C1134 482.324 1133.36 481.785 1132.72 481.246C1132.18 480.777 1131.66 480.332 1131.14 479.91C1130.62 479.488 1130.06 479.09 1129.45 478.715C1128.89 478.34 1128.34 478.059 1127.8 477.871C1127.73 477.848 1127.66 477.836 1127.59 477.836C1127.54 477.812 1127.48 477.789 1127.41 477.766L1126.89 477.73C1126.7 477.777 1126.58 477.824 1126.54 477.871C1126.37 478.059 1126.28 478.152 1126.25 478.152C1126.09 478.434 1125.98 478.633 1125.94 478.75C1125.89 478.867 1125.82 479.055 1125.73 479.312C1125.49 479.992 1125.29 480.684 1125.13 481.387C1124.96 482.066 1124.82 482.746 1124.71 483.426C1124.59 484.105 1124.48 484.727 1124.39 485.289C1124.32 485.852 1124.26 486.473 1124.21 487.152ZM1159.7 498.121C1159.51 498.449 1159.22 498.672 1158.82 498.789C1158.45 498.906 1158.1 498.848 1157.77 498.613C1157.14 498.145 1156.53 497.664 1155.94 497.172C1155.35 496.656 1154.72 496.199 1154.04 495.801C1153.43 495.426 1152.82 495.086 1152.21 494.781C1151.6 494.453 1151.02 494.078 1150.46 493.656C1149.78 493.141 1149.14 492.578 1148.56 491.969C1148.53 493.141 1148.55 494.312 1148.59 495.484C1148.64 496.633 1148.71 497.793 1148.8 498.965C1148.85 499.363 1148.72 499.691 1148.42 499.949C1148.11 500.23 1147.78 500.371 1147.43 500.371C1147.01 500.371 1146.68 500.23 1146.45 499.949C1146.21 499.691 1146.07 499.363 1146.03 498.965C1145.89 497.277 1145.8 495.625 1145.78 494.008C1145.76 492.367 1145.79 490.715 1145.89 489.051C1145.7 488.793 1145.51 488.535 1145.32 488.277C1145.14 487.996 1144.96 487.715 1144.8 487.434C1144.65 487.152 1144.6 486.883 1144.62 486.625C1144.67 486.367 1144.76 486.145 1144.9 485.957C1145.06 485.77 1145.25 485.617 1145.46 485.5C1145.7 485.383 1145.94 485.336 1146.2 485.359C1146.25 484.82 1146.31 484.281 1146.38 483.742C1146.45 483.18 1146.52 482.629 1146.59 482.09C1146.66 481.715 1146.72 481.352 1146.76 481C1146.83 480.625 1146.89 480.25 1146.94 479.875C1146.99 479.688 1147.01 479.512 1147.01 479.348C1147.03 479.184 1147.07 479.008 1147.12 478.82C1147.12 478.727 1147.14 478.609 1147.19 478.469C1147.21 478.164 1147.22 477.871 1147.22 477.59C1147.22 477.285 1147.23 476.98 1147.26 476.676C1147.28 476.301 1147.31 475.902 1147.36 475.48C1147.43 475.035 1147.53 474.613 1147.64 474.215C1147.78 473.793 1147.97 473.406 1148.21 473.055C1148.44 472.703 1148.76 472.434 1149.15 472.246C1149.53 472.082 1149.9 471.988 1150.28 471.965C1150.68 471.941 1151.06 471.965 1151.44 472.035C1151.84 472.105 1152.23 472.211 1152.6 472.352C1152.98 472.469 1153.34 472.598 1153.69 472.738C1154.51 473.043 1155.32 473.395 1156.12 473.793C1156.94 474.168 1157.66 474.66 1158.3 475.27C1158.9 475.879 1159.43 476.605 1159.88 477.449C1160.32 478.27 1160.52 479.125 1160.48 480.016C1160.43 480.555 1160.31 481.035 1160.12 481.457C1159.96 481.855 1159.73 482.266 1159.42 482.688C1158.67 483.742 1157.86 484.75 1156.99 485.711C1156.13 486.672 1155.2 487.551 1154.22 488.348C1153.75 488.723 1153.23 489.098 1152.67 489.473C1152.13 489.848 1151.56 490.164 1150.95 490.422C1151.16 490.609 1151.37 490.797 1151.58 490.984C1151.79 491.172 1152.01 491.336 1152.25 491.477C1152.86 491.875 1153.47 492.25 1154.08 492.602C1154.71 492.93 1155.32 493.293 1155.9 493.691C1156.47 494.09 1157.02 494.512 1157.56 494.957C1158.1 495.402 1158.64 495.824 1159.17 496.223C1159.5 496.434 1159.71 496.715 1159.81 497.066C1159.92 497.418 1159.89 497.77 1159.7 498.121ZM1150.21 487.68C1150.77 487.375 1151.28 487.059 1151.72 486.73C1152.19 486.379 1152.65 486.004 1153.09 485.605C1153.56 485.184 1154.02 484.738 1154.46 484.27C1154.91 483.801 1155.34 483.332 1155.76 482.863C1155.93 482.652 1156.08 482.465 1156.22 482.301C1156.36 482.137 1156.49 481.984 1156.61 481.844C1156.73 481.68 1156.84 481.516 1156.96 481.352C1157.1 481.164 1157.24 480.953 1157.38 480.719C1157.43 480.648 1157.48 480.578 1157.52 480.508C1157.57 480.438 1157.62 480.367 1157.66 480.297C1157.69 479.641 1157.55 479.031 1157.24 478.469C1156.84 477.789 1156.34 477.238 1155.73 476.816C1155.14 476.395 1154.49 476.043 1153.76 475.762C1153.34 475.574 1152.92 475.41 1152.49 475.27C1152.07 475.129 1151.63 475 1151.16 474.883C1151.04 474.836 1150.87 474.789 1150.63 474.742C1150.49 474.789 1150.4 474.859 1150.35 474.953C1150.26 475.258 1150.21 475.469 1150.21 475.586C1150.19 475.656 1150.15 475.785 1150.1 475.973C1150.08 476.207 1150.06 476.395 1150.03 476.535C1150.03 476.652 1150.03 476.781 1150.03 476.922C1149.96 478.539 1149.79 480.133 1149.51 481.703C1149.25 483.273 1149.04 484.867 1148.87 486.484C1148.83 486.742 1148.79 487.012 1148.77 487.293C1148.77 487.551 1148.76 487.809 1148.73 488.066C1148.94 488.09 1149.06 488.09 1149.08 488.066C1149.34 488.02 1149.54 487.973 1149.68 487.926C1149.85 487.855 1150.02 487.773 1150.21 487.68ZM1182.81 490.316C1182.7 491.746 1182.27 493.023 1181.55 494.148C1180.82 495.25 1179.86 496.188 1178.66 496.961C1177.87 497.453 1177.01 497.898 1176.1 498.297C1175.18 498.695 1174.27 499 1173.36 499.211C1172.54 499.398 1171.73 499.48 1170.93 499.457C1170.16 499.434 1169.37 499.375 1168.58 499.281C1168.39 499.492 1168.15 499.633 1167.87 499.703C1167.61 499.797 1167.36 499.809 1167.1 499.738C1166.56 499.598 1166.23 499.258 1166.11 498.719C1165.83 498.438 1165.69 498.098 1165.69 497.699C1165.69 497.184 1165.93 496.773 1166.4 496.469C1166.54 495.531 1166.64 494.594 1166.71 493.656C1166.81 492.719 1166.88 491.77 1166.92 490.809C1166.99 489.684 1167.05 488.57 1167.1 487.469C1167.15 486.367 1167.16 485.254 1167.13 484.129C1167.13 483.426 1167.11 482.699 1167.06 481.949C1167.02 481.199 1166.99 480.461 1166.99 479.734C1166.99 478.984 1167.03 478.246 1167.1 477.52C1167.19 476.793 1167.37 476.09 1167.63 475.41C1167.51 475.035 1167.53 474.648 1167.7 474.25C1167.86 473.852 1168.18 473.605 1168.65 473.512C1168.93 473.207 1169.25 473.066 1169.63 473.09C1170.03 473.113 1170.36 473.242 1170.61 473.477C1171.76 473.57 1172.88 473.793 1173.95 474.145C1175.06 474.473 1176.06 475.012 1176.98 475.762C1178.1 476.652 1179 477.73 1179.68 478.996C1180.36 480.238 1180.91 481.527 1181.34 482.863C1181.52 483.449 1181.71 484.047 1181.9 484.656C1182.11 485.266 1182.29 485.887 1182.43 486.52C1182.59 487.152 1182.71 487.785 1182.78 488.418C1182.85 489.051 1182.86 489.684 1182.81 490.316ZM1176.94 494.711C1177.25 494.523 1177.52 494.336 1177.75 494.148C1178.01 493.961 1178.27 493.738 1178.52 493.48C1178.74 493.246 1178.9 493.059 1179.02 492.918C1179.13 492.777 1179.27 492.566 1179.44 492.285C1179.84 491.465 1180.02 490.539 1180 489.508C1180 488.922 1179.95 488.383 1179.86 487.891C1179.77 487.375 1179.63 486.801 1179.44 486.168C1179.25 485.512 1179.05 484.867 1178.84 484.234C1178.65 483.578 1178.43 482.945 1178.17 482.336C1177.99 481.82 1177.73 481.27 1177.4 480.684C1177.09 480.074 1176.78 479.57 1176.45 479.172C1175.63 478.188 1174.7 477.484 1173.67 477.062C1172.64 476.617 1171.52 476.359 1170.3 476.289C1170.04 476.945 1169.88 477.637 1169.81 478.363C1169.76 479.066 1169.75 479.781 1169.77 480.508C1169.79 481.234 1169.83 481.961 1169.88 482.688C1169.95 483.414 1169.97 484.117 1169.95 484.797C1169.85 486.789 1169.76 488.758 1169.66 490.703C1169.59 492.648 1169.43 494.605 1169.17 496.574C1169.59 496.621 1170.02 496.656 1170.44 496.68C1170.88 496.703 1171.32 496.691 1171.74 496.645C1172.63 496.551 1173.52 496.328 1174.41 495.977C1175.33 495.602 1176.17 495.18 1176.94 494.711ZM1188.98 477.836C1188.51 477.695 1188.23 477.391 1188.14 476.922C1188.02 476.594 1188.05 476.242 1188.24 475.867C1188.43 475.469 1188.72 475.246 1189.12 475.199C1191.39 474.848 1193.67 474.66 1195.94 474.637C1198.24 474.59 1200.53 474.555 1202.83 474.531C1203.28 474.531 1203.62 474.672 1203.85 474.953C1204.09 475.234 1204.2 475.551 1204.2 475.902C1204.2 476.254 1204.09 476.582 1203.85 476.887C1203.62 477.168 1203.28 477.309 1202.83 477.309C1201 477.355 1199.16 477.379 1197.31 477.379C1195.46 477.379 1193.61 477.473 1191.76 477.66C1191.8 478.598 1191.86 479.535 1191.93 480.473C1192 481.387 1192.07 482.312 1192.14 483.25C1193.92 483.156 1195.69 483.039 1197.45 482.898C1199.23 482.758 1201.01 482.734 1202.8 482.828C1203.24 482.852 1203.58 483.016 1203.82 483.32C1204.05 483.625 1204.17 483.953 1204.17 484.305C1204.17 484.656 1204.05 484.973 1203.82 485.254C1203.58 485.535 1203.24 485.664 1202.8 485.641C1201.04 485.547 1199.29 485.57 1197.56 485.711C1195.85 485.852 1194.11 485.969 1192.35 486.062C1192.5 487.75 1192.62 489.438 1192.74 491.125C1192.88 492.789 1192.98 494.465 1193.02 496.152C1193.84 495.965 1194.67 495.789 1195.52 495.625C1196.36 495.438 1197.21 495.297 1198.05 495.203C1198.89 495.086 1199.74 495.027 1200.58 495.027C1201.42 495.027 1202.27 495.098 1203.11 495.238C1203.49 495.309 1203.77 495.531 1203.96 495.906C1204.14 496.281 1204.19 496.633 1204.1 496.961C1203.98 497.359 1203.76 497.641 1203.43 497.805C1203.1 497.969 1202.74 498.016 1202.34 497.945C1201.59 497.805 1200.83 497.758 1200.05 497.805C1199.28 497.852 1198.52 497.934 1197.77 498.051C1196.9 498.191 1196.03 498.355 1195.17 498.543C1194.32 498.73 1193.48 498.93 1192.64 499.141C1192.24 499.234 1191.86 499.164 1191.51 498.93C1191.18 498.883 1190.89 498.754 1190.63 498.543C1190.37 498.332 1190.25 498.016 1190.25 497.594C1190.2 495.602 1190.1 493.633 1189.96 491.688C1189.85 489.742 1189.71 487.785 1189.54 485.816C1189.28 485.559 1189.13 485.242 1189.09 484.867C1189.06 484.469 1189.17 484.129 1189.4 483.848C1189.21 481.855 1189.07 479.852 1188.98 477.836ZM1224.5 498.121C1224.31 498.449 1224.02 498.672 1223.62 498.789C1223.25 498.906 1222.9 498.848 1222.57 498.613C1221.94 498.145 1221.33 497.664 1220.74 497.172C1220.15 496.656 1219.52 496.199 1218.84 495.801C1218.23 495.426 1217.62 495.086 1217.01 494.781C1216.4 494.453 1215.82 494.078 1215.26 493.656C1214.58 493.141 1213.94 492.578 1213.36 491.969C1213.33 493.141 1213.35 494.312 1213.39 495.484C1213.44 496.633 1213.51 497.793 1213.6 498.965C1213.65 499.363 1213.52 499.691 1213.22 499.949C1212.91 500.23 1212.58 500.371 1212.23 500.371C1211.81 500.371 1211.48 500.23 1211.25 499.949C1211.01 499.691 1210.87 499.363 1210.83 498.965C1210.69 497.277 1210.6 495.625 1210.58 494.008C1210.56 492.367 1210.59 490.715 1210.69 489.051C1210.5 488.793 1210.31 488.535 1210.12 488.277C1209.94 487.996 1209.76 487.715 1209.6 487.434C1209.45 487.152 1209.4 486.883 1209.42 486.625C1209.47 486.367 1209.56 486.145 1209.7 485.957C1209.86 485.77 1210.05 485.617 1210.26 485.5C1210.5 485.383 1210.74 485.336 1211 485.359C1211.05 484.82 1211.11 484.281 1211.18 483.742C1211.25 483.18 1211.32 482.629 1211.39 482.09C1211.46 481.715 1211.52 481.352 1211.56 481C1211.63 480.625 1211.69 480.25 1211.74 479.875C1211.79 479.688 1211.81 479.512 1211.81 479.348C1211.83 479.184 1211.87 479.008 1211.92 478.82C1211.92 478.727 1211.94 478.609 1211.99 478.469C1212.01 478.164 1212.02 477.871 1212.02 477.59C1212.02 477.285 1212.03 476.98 1212.06 476.676C1212.08 476.301 1212.11 475.902 1212.16 475.48C1212.23 475.035 1212.33 474.613 1212.44 474.215C1212.58 473.793 1212.77 473.406 1213.01 473.055C1213.24 472.703 1213.56 472.434 1213.95 472.246C1214.33 472.082 1214.7 471.988 1215.08 471.965C1215.48 471.941 1215.86 471.965 1216.24 472.035C1216.64 472.105 1217.02 472.211 1217.4 472.352C1217.77 472.469 1218.14 472.598 1218.49 472.738C1219.31 473.043 1220.12 473.395 1220.92 473.793C1221.74 474.168 1222.46 474.66 1223.1 475.27C1223.7 475.879 1224.23 476.605 1224.68 477.449C1225.12 478.27 1225.32 479.125 1225.27 480.016C1225.23 480.555 1225.11 481.035 1224.92 481.457C1224.76 481.855 1224.52 482.266 1224.22 482.688C1223.47 483.742 1222.66 484.75 1221.79 485.711C1220.93 486.672 1220 487.551 1219.02 488.348C1218.55 488.723 1218.03 489.098 1217.47 489.473C1216.93 489.848 1216.36 490.164 1215.75 490.422C1215.96 490.609 1216.17 490.797 1216.38 490.984C1216.59 491.172 1216.81 491.336 1217.05 491.477C1217.66 491.875 1218.27 492.25 1218.88 492.602C1219.51 492.93 1220.12 493.293 1220.7 493.691C1221.27 494.09 1221.82 494.512 1222.36 494.957C1222.9 495.402 1223.44 495.824 1223.97 496.223C1224.3 496.434 1224.51 496.715 1224.61 497.066C1224.72 497.418 1224.69 497.77 1224.5 498.121ZM1215.01 487.68C1215.57 487.375 1216.08 487.059 1216.52 486.73C1216.99 486.379 1217.45 486.004 1217.89 485.605C1218.36 485.184 1218.82 484.738 1219.26 484.27C1219.71 483.801 1220.14 483.332 1220.56 482.863C1220.73 482.652 1220.88 482.465 1221.02 482.301C1221.16 482.137 1221.29 481.984 1221.41 481.844C1221.52 481.68 1221.64 481.516 1221.76 481.352C1221.9 481.164 1222.04 480.953 1222.18 480.719C1222.23 480.648 1222.27 480.578 1222.32 480.508C1222.37 480.438 1222.42 480.367 1222.46 480.297C1222.49 479.641 1222.35 479.031 1222.04 478.469C1221.64 477.789 1221.14 477.238 1220.53 476.816C1219.94 476.395 1219.29 476.043 1218.56 475.762C1218.14 475.574 1217.72 475.41 1217.29 475.27C1216.87 475.129 1216.43 475 1215.96 474.883C1215.84 474.836 1215.67 474.789 1215.43 474.742C1215.29 474.789 1215.2 474.859 1215.15 474.953C1215.06 475.258 1215.01 475.469 1215.01 475.586C1214.99 475.656 1214.95 475.785 1214.9 475.973C1214.88 476.207 1214.86 476.395 1214.83 476.535C1214.83 476.652 1214.83 476.781 1214.83 476.922C1214.76 478.539 1214.59 480.133 1214.31 481.703C1214.05 483.273 1213.84 484.867 1213.67 486.484C1213.63 486.742 1213.59 487.012 1213.57 487.293C1213.57 487.551 1213.56 487.809 1213.53 488.066C1213.74 488.09 1213.86 488.09 1213.88 488.066C1214.14 488.02 1214.34 487.973 1214.48 487.926C1214.65 487.855 1214.82 487.773 1215.01 487.68ZM1232.32 496.539C1232.62 496.727 1232.86 497.008 1233.02 497.383C1233.19 497.758 1233.21 498.109 1233.09 498.438C1233 498.789 1232.78 499.082 1232.43 499.316C1232.17 499.598 1231.84 499.727 1231.44 499.703C1231.04 499.703 1230.71 499.574 1230.46 499.316C1230.11 499.059 1229.88 498.824 1229.79 498.613C1229.6 498.285 1229.54 497.957 1229.61 497.629C1229.71 497.301 1229.88 497.02 1230.14 496.785C1230.21 496.738 1230.27 496.691 1230.32 496.645C1230.39 496.574 1230.47 496.516 1230.56 496.469C1230.77 496.375 1230.89 496.328 1230.91 496.328C1230.96 496.328 1231.09 496.305 1231.3 496.258C1231.37 496.258 1231.45 496.27 1231.55 496.293C1231.64 496.293 1231.71 496.305 1231.76 496.328C1231.95 496.352 1232.13 496.422 1232.32 496.539ZM1232.04 473.863C1232.04 473.418 1232.18 473.078 1232.46 472.844C1232.77 472.609 1233.08 472.492 1233.41 472.492C1233.76 472.492 1234.08 472.609 1234.36 472.844C1234.66 473.078 1234.82 473.418 1234.82 473.863C1234.82 475.41 1234.83 476.969 1234.85 478.539C1234.9 480.086 1234.9 481.633 1234.85 483.18C1234.83 484.727 1234.73 486.273 1234.57 487.82C1234.43 489.367 1234.17 490.902 1233.8 492.426C1233.68 492.871 1233.46 493.164 1233.13 493.305C1232.8 493.445 1232.46 493.469 1232.11 493.375C1231.78 493.281 1231.5 493.094 1231.27 492.812C1231.03 492.508 1230.97 492.133 1231.09 491.688C1231.44 490.234 1231.69 488.77 1231.83 487.293C1231.97 485.793 1232.05 484.305 1232.07 482.828C1232.12 481.328 1232.12 479.828 1232.07 478.328C1232.05 476.828 1232.04 475.34 1232.04 473.863ZM1243.37 496.539C1243.68 496.727 1243.91 497.008 1244.08 497.383C1244.24 497.758 1244.26 498.109 1244.15 498.438C1244.05 498.789 1243.83 499.082 1243.48 499.316C1243.22 499.598 1242.89 499.727 1242.49 499.703C1242.1 499.703 1241.77 499.574 1241.51 499.316C1241.16 499.059 1240.94 498.824 1240.84 498.613C1240.65 498.285 1240.6 497.957 1240.67 497.629C1240.76 497.301 1240.94 497.02 1241.19 496.785C1241.26 496.738 1241.32 496.691 1241.37 496.645C1241.44 496.574 1241.52 496.516 1241.62 496.469C1241.83 496.375 1241.94 496.328 1241.97 496.328C1242.01 496.328 1242.14 496.305 1242.35 496.258C1242.42 496.258 1242.51 496.27 1242.6 496.293C1242.69 496.293 1242.76 496.305 1242.81 496.328C1243 496.352 1243.19 496.422 1243.37 496.539ZM1243.09 473.863C1243.09 473.418 1243.23 473.078 1243.51 472.844C1243.82 472.609 1244.14 472.492 1244.46 472.492C1244.81 472.492 1245.13 472.609 1245.41 472.844C1245.72 473.078 1245.87 473.418 1245.87 473.863C1245.87 475.41 1245.88 476.969 1245.9 478.539C1245.95 480.086 1245.95 481.633 1245.9 483.18C1245.88 484.727 1245.79 486.273 1245.62 487.82C1245.48 489.367 1245.23 490.902 1244.85 492.426C1244.73 492.871 1244.51 493.164 1244.18 493.305C1243.85 493.445 1243.51 493.469 1243.16 493.375C1242.83 493.281 1242.55 493.094 1242.32 492.812C1242.08 492.508 1242.03 492.133 1242.14 491.688C1242.49 490.234 1242.74 488.77 1242.88 487.293C1243.02 485.793 1243.1 484.305 1243.13 482.828C1243.17 481.328 1243.17 479.828 1243.13 478.328C1243.1 476.828 1243.09 475.34 1243.09 473.863Z" fill="black"/>
<defs>
<filter id="filter0_d" x="625.029" y="768.807" width="11.3228" height="18.872" filterUnits="userSpaceOnUse" color-interpolation-filters="sRGB">
<feFlood flood-opacity="0" result="BackgroundImageFix"/>
<feColorMatrix in="SourceAlpha" type="matrix" values="0 0 0 0 0 0 0 0 0 0 0 0 0 0 0 0 0 0 127 0"/>
<feOffset dy="4"/>
<feColorMatrix type="matrix" values="0 0 0 0 0.698039 0 0 0 0 0.819608 0 0 0 0 0.658824 0 0 0 1 0"/>
<feBlend mode="normal" in2="BackgroundImageFix" result="effect1_dropShadow"/>
<feBlend mode="normal" in="SourceGraphic" in2="effect1_dropShadow" result="shape"/>
</filter>
<filter id="filter1_d" x="599.636" y="765.724" width="20.0396" height="28.4917" filterUnits="userSpaceOnUse" color-interpolation-filters="sRGB">
<feFlood flood-opacity="0" result="BackgroundImageFix"/>
<feColorMatrix in="SourceAlpha" type="matrix" values="0 0 0 0 0 0 0 0 0 0 0 0 0 0 0 0 0 0 127 0"/>
<feOffset dy="4"/>
<feColorMatrix type="matrix" values="0 0 0 0 0.698039 0 0 0 0 0.819608 0 0 0 0 0.658824 0 0 0 1 0"/>
<feBlend mode="normal" in2="BackgroundImageFix" result="effect1_dropShadow"/>
<feBlend mode="normal" in="SourceGraphic" in2="effect1_dropShadow" result="shape"/>
</filter>
<filter id="filter2_d" x="468.061" y="720.214" width="12.0867" height="20.4867" filterUnits="userSpaceOnUse" color-interpolation-filters="sRGB">
<feFlood flood-opacity="0" result="BackgroundImageFix"/>
<feColorMatrix in="SourceAlpha" type="matrix" values="0 0 0 0 0 0 0 0 0 0 0 0 0 0 0 0 0 0 127 0"/>
<feOffset dy="4"/>
<feColorMatrix type="matrix" values="0 0 0 0 0.682353 0 0 0 0 0.807843 0 0 0 0 0.65098 0 0 0 1 0"/>
<feBlend mode="normal" in2="BackgroundImageFix" result="effect1_dropShadow"/>
<feBlend mode="normal" in="SourceGraphic" in2="effect1_dropShadow" result="shape"/>
</filter>
<filter id="filter3_d" x="441.378" y="712.646" width="21.0994" height="29.6695" filterUnits="userSpaceOnUse" color-interpolation-filters="sRGB">
<feFlood flood-opacity="0" result="BackgroundImageFix"/>
<feColorMatrix in="SourceAlpha" type="matrix" values="0 0 0 0 0 0 0 0 0 0 0 0 0 0 0 0 0 0 127 0"/>
<feOffset dy="4"/>
<feColorMatrix type="matrix" values="0 0 0 0 0.698039 0 0 0 0 0.819608 0 0 0 0 0.658824 0 0 0 1 0"/>
<feBlend mode="normal" in2="BackgroundImageFix" result="effect1_dropShadow"/>
<feBlend mode="normal" in="SourceGraphic" in2="effect1_dropShadow" result="shape"/>
</filter>
<filter id="filter4_d" x="170.09" y="550.032" width="1455.38" height="316.081" filterUnits="userSpaceOnUse" color-interpolation-filters="sRGB">
<feFlood flood-opacity="0" result="BackgroundImageFix"/>
<feColorMatrix in="SourceAlpha" type="matrix" values="0 0 0 0 0 0 0 0 0 0 0 0 0 0 0 0 0 0 127 0"/>
<feOffset dx="-6" dy="6"/>
<feColorMatrix type="matrix" values="0 0 0 0 0.404167 0 0 0 0 0.404167 0 0 0 0 0.404167 0 0 0 1 0"/>
<feBlend mode="normal" in2="BackgroundImageFix" result="effect1_dropShadow"/>
<feBlend mode="normal" in="SourceGraphic" in2="effect1_dropShadow" result="shape"/>
</filter>
<filter id="filter5_d" x="960.99" y="605.272" width="133.026" height="117.611" filterUnits="userSpaceOnUse" color-interpolation-filters="sRGB">
<feFlood flood-opacity="0" result="BackgroundImageFix"/>
<feColorMatrix in="SourceAlpha" type="matrix" values="0 0 0 0 0 0 0 0 0 0 0 0 0 0 0 0 0 0 127 0"/>
<feOffset dx="4" dy="4"/>
<feColorMatrix type="matrix" values="0 0 0 0 0.960784 0 0 0 0 0.678431 0 0 0 0 0.721569 0 0 0 1 0"/>
<feBlend mode="normal" in2="BackgroundImageFix" result="effect1_dropShadow"/>
<feBlend mode="normal" in="SourceGraphic" in2="effect1_dropShadow" result="shape"/>
</filter>
<filter id="filter6_d" x="1355.95" y="311.092" width="74.6819" height="63.5212" filterUnits="userSpaceOnUse" color-interpolation-filters="sRGB">
<feFlood flood-opacity="0" result="BackgroundImageFix"/>
<feColorMatrix in="SourceAlpha" type="matrix" values="0 0 0 0 0 0 0 0 0 0 0 0 0 0 0 0 0 0 127 0"/>
<feOffset dx="-4" dy="4"/>
<feColorMatrix type="matrix" values="0 0 0 0 0.698039 0 0 0 0 0.819608 0 0 0 0 0.658824 0 0 0 1 0"/>
<feBlend mode="normal" in2="BackgroundImageFix" result="effect1_dropShadow"/>
<feBlend mode="normal" in="SourceGraphic" in2="effect1_dropShadow" result="shape"/>
</filter>
<filter id="filter7_d" x="671.802" y="728.694" width="58.7645" height="43.5154" filterUnits="userSpaceOnUse" color-interpolation-filters="sRGB">
<feFlood flood-opacity="0" result="BackgroundImageFix"/>
<feColorMatrix in="SourceAlpha" type="matrix" values="0 0 0 0 0 0 0 0 0 0 0 0 0 0 0 0 0 0 127 0"/>
<feOffset dx="-4" dy="4"/>
<feColorMatrix type="matrix" values="0 0 0 0 1 0 0 0 0 0.921569 0 0 0 0 0.827451 0 0 0 1 0"/>
<feBlend mode="normal" in2="BackgroundImageFix" result="effect1_dropShadow"/>
<feBlend mode="normal" in="SourceGraphic" in2="effect1_dropShadow" result="shape"/>
</filter>
<filter id="filter8_d" x="1303.41" y="450.964" width="24.297" height="27.6482" filterUnits="userSpaceOnUse" color-interpolation-filters="sRGB">
<feFlood flood-opacity="0" result="BackgroundImageFix"/>
<feColorMatrix in="SourceAlpha" type="matrix" values="0 0 0 0 0 0 0 0 0 0 0 0 0 0 0 0 0 0 127 0"/>
<feOffset dy="4"/>
<feColorMatrix type="matrix" values="0 0 0 0 0.956863 0 0 0 0 0.427451 0 0 0 0 0.411765 0 0 0 1 0"/>
<feBlend mode="normal" in2="BackgroundImageFix" result="effect1_dropShadow"/>
<feBlend mode="normal" in="SourceGraphic" in2="effect1_dropShadow" result="shape"/>
</filter>
<filter id="filter9_d" x="1266.1" y="507.08" width="38.9296" height="38.8515" filterUnits="userSpaceOnUse" color-interpolation-filters="sRGB">
<feFlood flood-opacity="0" result="BackgroundImageFix"/>
<feColorMatrix in="SourceAlpha" type="matrix" values="0 0 0 0 0 0 0 0 0 0 0 0 0 0 0 0 0 0 127 0"/>
<feOffset dy="4"/>
<feColorMatrix type="matrix" values="0 0 0 0 0.956863 0 0 0 0 0.427451 0 0 0 0 0.411765 0 0 0 1 0"/>
<feBlend mode="normal" in2="BackgroundImageFix" result="effect1_dropShadow"/>
<feBlend mode="normal" in="SourceGraphic" in2="effect1_dropShadow" result="shape"/>
</filter>
<filter id="filter10_d" x="1213.15" y="408.078" width="46.1502" height="50.6094" filterUnits="userSpaceOnUse" color-interpolation-filters="sRGB">
<feFlood flood-opacity="0" result="BackgroundImageFix"/>
<feColorMatrix in="SourceAlpha" type="matrix" values="0 0 0 0 0 0 0 0 0 0 0 0 0 0 0 0 0 0 127 0"/>
<feOffset dy="4"/>
<feColorMatrix type="matrix" values="0 0 0 0 0.956863 0 0 0 0 0.427451 0 0 0 0 0.411765 0 0 0 1 0"/>
<feBlend mode="normal" in2="BackgroundImageFix" result="effect1_dropShadow"/>
<feBlend mode="normal" in="SourceGraphic" in2="effect1_dropShadow" result="shape"/>
</filter>
</defs>
</svg>
