<?xml version="1.0" encoding="utf-8"?>
<!-- Generator: Adobe Illustrator 25.2.0, SVG Export Plug-In . SVG Version: 6.00 Build 0)  -->
<svg version="1.1" id="Capa_1" xmlns="http://www.w3.org/2000/svg" xmlns:xlink="http://www.w3.org/1999/xlink" x="0px" y="0px"
	 viewBox="0 0 1843 1188.1" style="enable-background:new 0 0 1843 1188.1;" xml:space="preserve">
<style type="text/css">
	.st0{fill:none;stroke:#2B2B2B;stroke-width:2;stroke-linecap:round;stroke-linejoin:round;}
	.st1{fill:#B2D1A8;}
	.st2{fill:#CBE9EF;}
	.st3{fill:none;stroke:#F5ADB8;stroke-width:7.9994;stroke-linecap:square;}
	.st4{fill:#F5ADB8;stroke:#2B2B2B;stroke-width:2.0013;stroke-linecap:round;stroke-linejoin:round;}
	.st5{fill:#F5ADB8;}
	.st6{fill:#B2D1A8;stroke:#2B2B2B;stroke-width:2;stroke-linecap:round;stroke-linejoin:round;}
	.st7{fill:#FFEBD3;stroke:#2B2B2B;stroke-width:2;stroke-linecap:round;stroke-linejoin:round;}
	.st8{fill:#FFEBD3;}
	.st9{fill:#F46D69;}
</style>
<path class="st0" d="M538.3,438.1c5.5,13.7,3.2,27.1,6.5,41.4c2.1,17.7,4.9,26,6,46.6c-0.6,9.2,5,27.1,2.9,36
	c-1.5,6.1-6.8,18.9-8.7,25c-2.4,7.9-3.8,15.8,0.2,20.3s21.8,9.6,28.3,11.9c6.2,2.2,15.3,7.8,21.5,9.7c6,1.8,13.6,4.2,17.4,2.2
	c2.2-2.1,0.1-7.7-3.4-9.6c-10.4-5.9-26.6-20.9-28.2-33.1c1.3-25.2,8.4-56.3,9-75c0.8-20.3-1.3-26.8-0.8-42.8
	c0.4-11.6-2-29.7-1.3-29.5"/>
<path class="st0" d="M491,430.3c-3.9,13.6-7.8,19.5-15.1,31.8c-11.4,19.3-20,44.2-31.6,57.7c-4.3,5-12.6,23.9-14.4,29.7
	c-2.1,6.8,9.5,17.8,17.1,24.4c4.2,3.7,5.1,9.1,2.1,9c-2.6,0-7.7-1.2-13.2-4c-9.2-4.8-12.4-7.9-22.2-10.9c-6.4-2-12-2.6-19-4
	c-4.4-0.9-8.4-0.2-12.9-3.9c-2.2-2.5,1.9-10.4,2.7-11.6c5-7.9,12.7-13,17.2-21.4c5.5-10.4,12.4-17.5,19.3-28.2
	c10.2-16.1,19.3-30.1,28.6-44.8c6-9.4,13.2-22.4,16.5-33.1"/>
<path class="st0" d="M595.5,443.5c-7.1-2.2-10.6-3.6-19.4-2.7c-12.9,0.3-14.6,4.1-25.8,0.7c-1.2-0.4-12.6-3.8-13.7-3.1
	c-2.2,1.5-4,0.9-4-1.8c0-4.5-1.4-17-4.2-21c-1-1.5-3.3,6-4.2,8.7c-0.4,1.4-4.9,10.8-6,10.5c-6.5-1.6-13.4-4.7-20.1-3.8
	c-13.5-1.1-23.7-5.5-34.1-10.4c-1.6-0.8-20.5-4.8-20.5-6.2c0-1.6,1.4-10,2.3-11.2c9.5-11.9,11.5-20.3,15.8-34.6
	c1.1-3.6,6-14,5.4-17.5"/>
<path class="st0" d="M498.7,299.9c4.4,1.3,9.6,1.5,14,1.8c11.5,0.9,21,1.7,33.1,5.4c7.2,2.2,14.9,2.2,21.8,4.3
	c4.9,1.5,11.1,0.7,14.6,4.5c1.4,1.4,4.3,4.7,5.8,8.9c-1.1,6.1-4.3,10.7-4.2,17.2c0.2,8.6,4.3,17.3,1.1,31.2
	c-0.9,13.6,2,28.3,3.8,36.3c5.2,14.4,2.6,22.2,6.7,34"/>
<path class="st0" d="M546.4,607.9c-12.1-3.7-30.3-10.8-42.5-14.5c-19.3-5.9-33.4-8.7-52.4-14.5"/>
<path class="st0" d="M380.5,557.9c-19-5.8-36.6-8.2-55.4-13.9c-4.6-1.4-15.6-4.8-20.1-3.8c-12.5,2.7,20.7,19.1,24.7,20.3
	c10.9,3.3,30.1,9.2,40.9,12.5c13.6,4.2,28.3,8.6,46.8,14.3c11.7,3.6,34.1,10.4,52.6,16.1c15.6,4.8,37.3,13.5,64.7,21.9
	c23.8,7.3,46.1,15.1,69.9,22.4c16.3,5,39,11.9,56.5,17.3c15.9,3.8,21,5.7,23.6,2.9c3.1-3.3-0.9-7.7-2.5-9.3
	c-6.9-5.3-15.7-8-24.1-11.6c-6.6-2.8-37.7-13.1-43.9-16.6"/>
<g>
	<path class="st1" d="M580.4,645.9c-5.1-1.9-7,1.8-7.3,6.3c-0.2,3.1,1.4,6.3,2.8,8.3c1.4,2,6.3,1.9,8-1.8
		C587,652.2,582.9,646.8,580.4,645.9z"/>
	<path class="st0" d="M580.4,645.9c-5.1-1.9-7,1.8-7.3,6.3c-0.2,3.1,1.4,6.3,2.8,8.3c1.4,2,6.3,1.9,8-1.8
		C587,652.2,582.9,646.8,580.4,645.9z"/>
</g>
<g>
	<path class="st1" d="M560.4,666.4c2.1-3.6,3.7-7.1,3.3-10.7c-0.7-5.2-1.1-7-2.6-9.3s-4.3-3.4-8.2-4.6c-5.8-1.8-10,5-11.7,10.3
		c-2.1,6.8,2.3,17.7,10.5,18.1C555.9,670.4,558,668.7,560.4,666.4z"/>
	<path class="st0" d="M560.4,666.4c2.1-3.6,3.7-7.1,3.3-10.7c-0.7-5.2-1.1-7-2.6-9.3s-4.3-3.4-8.2-4.6c-5.8-1.8-10,5-11.7,10.3
		c-2.1,6.8,2.3,17.7,10.5,18.1C555.9,670.4,558,668.7,560.4,666.4z"/>
</g>
<g>
	<path class="st1" d="M376.1,600.2c6.9,5.3,9.6-3.5,9.5-6.7s-1.5-9-4.4-9.9s-6.7,0.5-7.9,5C372,593.4,373.1,596.1,376.1,600.2z"/>
	<path class="st0" d="M376.1,600.2c6.9,5.3,9.6-3.5,9.5-6.7s-1.5-9-4.4-9.9s-6.7,0.5-7.9,5C372,593.4,373.1,596.1,376.1,600.2z"/>
</g>
<g>
	<path class="st1" d="M347.5,603.2c6.8,2.1,11.7-0.1,14.3-8.4c1.2-3.9,2-9.3,0.3-11.6c-2.2-3.2-2.7-5.1-6.3-7.3
		c-4.7-2.2-4.3-2.4-6.8-2.1c-7.7,0.8-8.4,6.7-9.4,9.9C337,592.2,340,599.9,347.5,603.2z"/>
	<path class="st0" d="M347.5,603.2c6.8,2.1,11.7-0.1,14.3-8.4c1.2-3.9,2-9.3,0.3-11.6c-2.2-3.2-2.7-5.1-6.3-7.3
		c-4.7-2.2-4.3-2.4-6.8-2.1c-7.7,0.8-8.4,6.7-9.4,9.9C337,592.2,340,599.9,347.5,603.2z"/>
</g>
<path class="st0" d="M530.6,223.4c-3.4,7.5-4.9,8.4-9.6,14.1c-3.7,4.4-4.9,20.5-11.6,13.5c-5.7-6-11.4-12.3-18.2-17.3
	c-1.7-1.2-6.7-4.6-7.6-6.6c-1.3-2.8,3.3-8.5,4.6-10.5c5.7-8.8,5.5-14.5,13.4-20.3c4.1-3,8.5-5.5,11-7.2c5.9-4,14.9-4.9,19.8,0.6
	c6.4,7.2,11.3,16.2,16.1,24.4c2.3,3.9,5.9,6.9,8,11c1.3,2.7,2.8,8,4.9,10.1c1.9,2,2.2,4.6,3.7,6.7c0.2,0.4,2.7-6.9,3.1-8
	c0.8-2.6,5.3-12.8,7.7-12.3c2.5,0.4,9.2,23.7,8,33.9c-1,8.1-2.6,16.8-2.3,24.9c0.2,6.1,2.4,12,1.9,17.9c-0.4,5.1-2.3,10.1-3.9,15.1"
	/>
<path class="st0" d="M512,252.9c-3.9,5.5-8.5,10.5-10.5,17c-1.4,4.5-3.4,11.1-3.2,13.9c0.5,7.1-0.1,16.7-0.5,23.8
	c-0.3,6.7-0.8,11.4-0.9,19c-0.1,6-2.6,11.9-4.2,17.4c-1.7,5.6-8,6.1-11.7,10.3c-2.9,3.4-5.9,3.8-10.9,0.9c-1.7-0.9-2.9-3-3.9-4.5
	c-1.2-1.8-0.5-5.3-3.8-8.5c-3.1-7.7-3.9-12.7,2.4-18.4c1.1-1,5.2-8.6,6.9-8.6c3.4-1,6.4-0.6,6.8-2c0.5-1.8,0.3-7.6-0.1-9.8
	c-2.8-16.4-2.4-31.7-4.5-48.2c-0.5-3.8-0.6-11.9,5.7-18.5c1.9-2.6,4.9-5.4,5.3-6.9"/>
<path class="st0" d="M472.3,327c-3.8,2-7.4,8.6-11.4,9.3"/>
<path class="st0" d="M477.1,333.9c-2.6,3.4-8.7,5.3-12.1,10.1"/>
<path class="st0" d="M479.8,341c-3.6,4.3-11.1,4.9-12.9,11"/>
<path class="st0" d="M582.8,240.5c9.1,2.8,23.1,0.4,33.3-5.4c39.6-32.6,38.7-69.8,10.8-106.4c-12.8-20.9-50-25.6-70.3-22.7
	c-19.1,2.8-39.7,18.3-45.8,38.2c-4.5,14.7-3.3,27.8,7.5,41.7"/>
<path class="st0" d="M574.7,221.3c8.8-14.4,23.4-13.9,32-35c3.2-10.4,3.5-25.6-8.5-34.5c-19.4-14.4-36.3-4.7-48.4,4.4
	c-10.2,7.7-16.7,21.7-26,29.3"/>
<path class="st0" d="M595.5,177.5C590.9,177.3,597,172.8,595.5,177.5z"/>
<path class="st0" d="M589.3,169.7c-1.9-2-2.3,1-1.4,1.3C588.2,171.1,590.1,169.9,589.3,169.7z"/>
<path class="st2" d="M0,1188V565.8c0,0,61.8-12.4,88.7-22c26.9-9.5,99.8-18.1,113.9-16.8c53.5,4.6,176.6,106.2,222.3,117.4
	c57.8,14.1,252.6,76.8,303.7,84.2c41.2,5.9,310.5-37.4,387-41c60.6-2.9,200.4,60.1,221.4,62.7c21,2.6,76.4-0.9,94.2-16.6
	c17.8-15.6,65.6-64.2,93.4-83.7c27.8-19.6,51-25.7,89.7-50.8c22.4-14.6,72.7-16,114.9-42.4c30.4-19,34.3-42.3,37.4-63.8
	c3.2-21.6,8.4-58.5,11.4-71.5c3-13,10.8-21.5,35.1-35.7c24.3-14.2,33.1-15,33.1-15l-3.2,817.3H0V1188z"/>
<path class="st0" d="M593.6,187.7c-3.2,0.3-6.8,1-11.7-0.4c-2.9-0.9-5.3-3.7-5.7-6.4c-1-3.1-1.2-4.2-2.7-5.6"/>
<path class="st0" d="M608.7,239.1c3,4.1,8.8,5.6,14.4,8.7c4.6,2.5,14.2,8.9,17,10.5c11.8,6.8,15.7,13.5,28.6,21.5
	c13.4,8.4,16.4,12.5,26.3,18.7c7.5,0.1,14-2.1,21.8-5.1c10.9-4.1,24.2-9.6,34.9-13c9.6-3,14.4-3.8,24.7-4c6.5,1,43.2,11.3,33.3,16.6
	c-1.3,0.7-6.3,3.2-21.1-4.3c-9.6,0.1-7.1,14.9-18.2,17.9c-9.3,2.5-17.8-4.4-29.4-4.7c-2.6,0.4-16.4,8.7-18.1,10.5
	c-8.2,6-10.3,11.2-20,13.1c-8.4-0.4-26.4-11.3-34.9-14.9c-12.8-7.1-17.3-9.6-30.1-16.6c-6.4-3.5-11.6-8.9-17-10.5
	c-8.8-2.7-25.6,19.9-38.9,15.8"/>
<path class="st0" d="M508.2,192c-5.6-9.9-11-22.3-19.8-29.5c-8.6-6.9-19.6-17.7-29.3-22.8c-33.3-17.5-70.6-26.9-113.5-40
	c-47-10.1-106.2-32.4-122-33c-15.1,0.7-21.4-6.5-29.7-3.8c5.2,63.4,30.9,111.7,75,134.7c9.4,11.7-0.4,71.2,103.3,108.2
	c19.8,29.5,63.8,70.6,84.1,76.8"/>
<g>
	<path class="st3" d="M4.5,565.3c54.3-5.9,109.1-48.5,201.1-35.7c42.7,5.9,161.3,85.8,187.6,99.5c71.7,37.1,99.5,24.4,173.4,51.8
		c33.8,12.5,116,45.3,167.3,49.9c147.2,13.2,334.8-79.1,465.6-23.7c187.2,79.3,193.9,59.8,314.3-46c59.4-52.2,134.8-82.5,208-101.5
		c70.8-29.4,9.6-174.9,121.2-188.9"/>
</g>
<g>
	<path class="st4" d="M1057.8,503.8c0-3.7-6-13.3-6.8-16.6c-0.6-2.4,0.2-9.4,7.8-13.8c6.7-2.9,12.3-1,18.3,4.3
		c3.2,2.9,10.4,10.8,14.9,8.1c10.6-6.1,14.4-9.4,23.1-18c3.2-3.1,10.2-10.5,14-12.8c5.6-3.2,4.5,12.6,1.5,18.7
		c-5.7,11.5-12.2,12.7-20.6,24c5.6,3.3,12.2,14.7,12.5,21.6c0.3,7.7-2.7,14.6-12.1,21c-9.1,5.2-15.5,7.1-23.8,7.2
		c-8.2,0.1-13.4-1.2-18.8-6.8c-3-3.1-6-15.2-12.9-15.8c-9.9,3.8-39.5,4.2-43.1-2.1C1013.5,517.3,1054.5,514.1,1057.8,503.8z"/>
	<path class="st5" d="M1060.9,484.6c0-0.1,0-0.2-0.1-0.3c0.1,0,0.2-0.1,0.3-0.1c0.4-0.5,1.1-0.5,1.1,0.4l0,0
		c0.1,0.2,0.2,0.5,0.3,0.8c0.1,0.4,0,1.5-0.7,1.3c-0.3-0.1-0.6-1-0.8-1.2C1060.8,485.2,1060.8,484.9,1060.9,484.6z"/>
	<path class="st0" d="M1060.8,483.8c0,0.1,0.2,2.4,0.7,2.2c0.7-0.2,0.8-0.7,0.8-1.4c0-1.5-2-0.5-1.2,0.9c0.1,0.2,0.5,1.1,0.8,1.2
		c0.7,0.2,0.8-1,0.7-1.3c-0.3-1.6-1.2-1.5-2.3-0.9"/>
	<path class="st5" d="M1069.4,484.9c-0.6,0.4-0.9,0.2-1.2-0.3c-0.1,0-0.1-0.1-0.2-0.3c0,0,0,0,0-0.1c-0.1-0.4-0.7-2.1-0.3-2.3
		c0.3-0.2,0.6-0.1,1,0.1l0,0c0.3,0.1,0.4,0.2,0.4,0.4C1069.7,483.2,1070.1,484.4,1069.4,484.9z"/>
	<path class="st0" d="M1067.5,481.7c-0.2,1.3-0.2,1.5,0.4,2.5c0.4,0.7,0.7,1.1,1.4,0.6c1.3-0.7-0.6-3.7-1.7-3
		c-0.3,0.2,0.2,2,0.3,2.3c0.3,1,1.1-0.2,1.1-0.8c0-0.5,0.3-1.3-0.4-1.5c-1.1-0.3-0.9,1-0.6,1.5"/>
	<path class="st5" d="M1067.6,492.5c-0.7,0.2-1.5,0.1-2.3-0.1c0.6-0.2,1.2-0.5,1.9-0.6c2.8-0.3,5.1-2.1,7.3-3.6
		c0.5-0.3-0.3,0.5-0.5,1c-0.3,0.7-2.5,1.5-3.1,1.8C1069.9,491.7,1068.6,492.2,1067.6,492.5z"/>
	<path class="st0" d="M1063.4,492c1.2,0.2,2.9,0.9,4.1,0.5c1-0.3,2.3-0.8,3.3-1.4c0.6-0.3,2.8-1.2,3.1-1.8c0.2-0.5,1-1.3,0.5-1
		c-2.2,1.5-4.5,3.3-7.3,3.6c-0.9,0.1-1.8,0.7-2.8,0.8c-0.7,0-1.2-0.9-1.8-0.9"/>
</g>
<g>
	<path class="st6" d="M1567.8,100v0.2c9.3,2.8,15.4,3.9,24.7,8.9c1.8,1,7,5.6,6.2,8.2c-0.6,1.9-5.6,4.2-12.5,3.3
		c-1.8-0.2-13.2-4-16.2-1.3c-1,3.3-4.5,10.4-7.4,12.6c-5.7,4.4-13.4,3.1-19.7-1.7c-8.2-6.2-8.6-14.6-11-23.2
		c-1.4-4.9-2.3-11.3-2.7-15c-2.4-6.4-10.8-13.9-14.6-18.6c-1.3-1.7-4.7-10.6-2.8-12.2c1.4-1.1,17.4,10.8,19.4,12.2
		c14.6,11.5,11.5-2.4,25-1.7c8.8,1.7,12.5,8.7,12.9,14.5C1569.3,89.9,1568.6,94.7,1567.8,100z"/>
	<path class="st1" d="M1553.3,78.5c0.2-0.4,0.5-0.7,0.9-0.8c0.1-0.1,0.3-0.2,0.4-0.2c0.3,0-0.1,0.6-0.1,0.7
		c-0.1,0.2-0.2,0.3-0.4,0.4c-0.1,0.3-0.4,0.6-0.7,0.6C1553,79.1,1553.2,78.7,1553.3,78.5z"/>
	<path class="st0" d="M1554.5,77.7c-0.5,0-0.9,0.4-1.1,0.8c-0.1,0.3-0.3,0.6,0.1,0.7c0.5,0.1,1-1,0.3-0.9c-0.1,0-0.4,0.3-0.2,0.4
		c0.5,0.1,0.6-0.1,0.9-0.4c0.1-0.1,0.4-0.7,0.1-0.7c-0.2,0-0.5,0.4-0.7,0.5"/>
	<path class="st1" d="M1557.1,80c0.1,0,0.3,0.1,0.5,0.2c0.2-0.2,0.4-0.2,0.6-0.4c0.4-0.2,0.8-0.1,0.7,0.4c-0.1,0.2-0.1,0.3-0.2,0.5
		s-0.3,0.4-0.6,0.4c-0.2,0-0.5,0-0.8-0.2c-0.2-0.1-0.4-0.2-0.4-0.3C1556.8,80.4,1557,80,1557.1,80z"/>
	<path class="st0" d="M1559,80.8c-0.4-0.1-0.8-0.4-1.2-0.6c-0.2-0.1-0.5-0.3-0.7-0.3s-0.3,0.5-0.3,0.6c0.1,0.3,0.9,0.6,1.2,0.5
		c0.5-0.1,0.7-0.5,0.8-0.9c0.1-0.5-0.3-0.6-0.7-0.4c-0.4,0.2-0.7,0.3-0.8,0.8c-0.1,0.4-0.3,0.6,0.2,0.7c0.2,0.1,0.4,0.1,0.6,0.1"/>
	<path class="st0" d="M1549.5,81.7c0.5,0.6,0.8,1.4,1.2,2.1c0.1,0.3,0.3,0.6,0.4,0.9s0.3,0.5,0.5,0.7c0.1,0.2,0.3,0.3,0.4,0.4
		c0.3,0.2,0.5,0.4,0.8,0.6c0.5,0.3,1,0.6,1.6,0.9c0.7,0.4,1.5,0.4,2.2,0.3c0.3,0,0.8,0,1.1,0c0.2,0,0.4,0,0.6,0.1"/>
</g>
<g>
	<path class="st7" d="M670.8,604.7c-1.6,1.5-5,4.7-5.9,5.5c-3.9-0.8-7.6-2.4-11.1-4.6c-3.8-2.4-5-3.9-7.7-6
		c-2.4-1.9-4.1-5.5-7.2-5.3c-0.9,0.1-1.3,4.7-0.8,6.4c0.8,2.8,2.2,6,4.4,8.1c2.3,2.1,1.1,4.8,0.6,7.3c-0.5,2.4-2.1,5.1-2.6,7.5
		c-1,4.7-1,9.5,3,13.1c5.5,4.8,11.4,6.2,16.9,5.3c2.6-0.5,5.8-1.9,7.9-3.2c2.8-1.8,6.5-5.3,9.5-6.6c1.1-0.7,4.6,3.2,9.9,4.4
		c3.9,0.8,5.2,0.5,8.8-0.3c1.6-0.3,4.3-1.8,5.6-2.8c1.9-1.5,2.9-3.2,3.2-4.6c-2.1-0.5-5,1.4-11.2,0c-3.8-1.1-7.1-3.1-9.5-4.9
		c-1.8-1.3-3.7-2-4-3.4c-0.1-0.6,0.8-4.1,1-4.4c0.8-2,1.2-3.6,1.6-5.6c0.3-1.5,0.6-3.3,0.3-4.3c-0.4-1.5-1.1-3.4-2.7-4.2
		c-1.8-0.9-3-1.1-5-0.6C675.1,601.6,672.3,603.1,670.8,604.7z"/>
	<path class="st8" d="M676.5,606c0.2-0.2,0.4-0.3,0.7-0.3c0.1-0.1,0.3-0.1,0.3,0.1c-0.1,0.3-0.1,0.5-0.3,0.7
		c-0.1,0.1-0.2,0.4-0.4,0.2c-0.2-0.1-0.2-0.2-0.3-0.4S676.4,606.1,676.5,606z"/>
	<path class="st0" d="M677.2,605.6c-0.3,0-0.5,0.1-0.7,0.3c-0.2,0.1-0.2,0.1-0.1,0.3c0.1,0.2,0.2,0.3,0.3,0.4
		c0.2,0.1,0.3-0.1,0.4-0.2c0.1-0.2,0.2-0.4,0.3-0.7s-0.3-0.1-0.4,0c-0.1,0.1-0.3,0.1-0.3,0.3c0,0.1,0.1,0.1,0.2,0.2"/>
	<path class="st0" d="M679.7,607.1c-0.2,0-1.5,0.3-1.1,0.6c0.3,0.3,0.5,0.2,0.7-0.1c0.1-0.1,0.1-0.2,0.1-0.3s-0.3,0.1-0.3,0.1
		c-0.2,0.1-0.4,0.3-0.1,0.2"/>
	<path class="st0" d="M675.1,609c0.2,0.3,0.4,0.6,0.7,0.8c0.2,0.1,0.3,0.3,0.5,0.4c0.2,0.1,0.5,0.2,0.8,0.3s0.6,0.2,0.9,0.2
		c0.2,0,0.3,0,0.4,0c0.2-0.1,0.4-0.2,0.6-0.3c0.2-0.1,0.4-0.2,0.5-0.3s0.3-0.2,0.4-0.2"/>
</g>
<g>
	<path class="st9" d="M1452.9,244.6c1.2,3.6-0.7,6-1.6,7.6c2.8-0.1,5.2-1.7,8.1-1.5c1.3,0.1,3.3,0.6,4.4,1.3c2.1,1.3,3.4,3,3.6,5.8
		c0.4,6.8-6.1,7.5-10.3,7.5c-4.2-0.1-4.8-0.8-9.5-0.6c-2.4,0.1-5.8,0.9-7.5,2.4c-1.5,1.3-1.1-4.8-0.9-5.9c0.4-2.1,0.2-5.5,0.2-7.7
		c-0.1-4.1-1.2-11.2,5.2-13.5C1448.1,238.8,1451.7,241.1,1452.9,244.6z"/>
	<path class="st0" d="M1452.9,244.6c1.2,3.6-0.7,6-1.6,7.6c2.8-0.1,5.2-1.7,8.1-1.5c1.3,0.1,3.3,0.6,4.4,1.3c2.1,1.3,3.4,3,3.6,5.8
		c0.4,6.8-6.1,7.5-10.3,7.5c-4.2-0.1-4.8-0.8-9.5-0.6c-2.4,0.1-5.8,0.9-7.5,2.4c-1.5,1.3-1.1-4.8-0.9-5.9c0.4-2.1,0.2-5.5,0.2-7.7
		c-0.1-4.1-1.2-11.2,5.2-13.5C1448.1,238.8,1451.7,241.1,1452.9,244.6z"/>
</g>
<g>
	<path class="st9" d="M1410.8,316.6c3.2,4.8,1.3,8.9,0.6,11.4c4.1-1,7.1-4,11.6-4.6c1.9-0.3,5.2-0.1,7.1,0.5
		c3.6,1.2,6.3,3.2,7.7,7.1c3.3,9.6-6.2,12.7-12.5,13.9c-6.3,1.2-7.5,0.3-14.5,2.2c-3.6,0.9-8.3,3.1-10.3,5.8
		c-1.7,2.4-3.6-6.4-3.7-8.2c-0.2-3.1-1.9-8-2.8-11.1c-1.7-5.9-6.2-15.7,2.4-20.9C1401.4,309.8,1407.6,311.8,1410.8,316.6z"/>
	<path class="st0" d="M1410.8,316.6c3.2,4.8,1.3,8.9,0.6,11.4c4.1-1,7.1-4,11.6-4.6c1.9-0.3,5.2-0.1,7.1,0.5
		c3.6,1.2,6.3,3.2,7.7,7.1c3.3,9.6-6.2,12.7-12.5,13.9c-6.3,1.2-7.5,0.3-14.5,2.2c-3.6,0.9-8.3,3.1-10.3,5.8
		c-1.7,2.4-3.6-6.4-3.7-8.2c-0.2-3.1-1.9-8-2.8-11.1c-1.7-5.9-6.2-15.7,2.4-20.9C1401.4,309.8,1407.6,311.8,1410.8,316.6z"/>
</g>
<g>
	<path class="st9" d="M1337.5,203c7.2,0.2,10.4,5.2,12.6,7.8c1.7-5,0.6-10.4,2.9-15.5c1-2.2,3.4-5.5,5.3-7c3.7-2.9,7.7-4.2,12.8-2.7
		c12.4,3.7,9.3,15.8,6.4,23.3c-3,7.4-4.8,8-7.5,16.7c-1.4,4.4-2.4,10.9-0.8,15c1.4,3.5-9.3-1-11.2-2.2c-3.5-2-9.8-4-13.6-5.3
		c-7.5-2.6-20.8-5.1-20.6-18C1323.9,207.8,1330.3,202.9,1337.5,203z"/>
	<path class="st0" d="M1337.5,203c7.2,0.2,10.4,5.2,12.6,7.8c1.7-5,0.6-10.4,2.9-15.5c1-2.2,3.4-5.5,5.3-7c3.7-2.9,7.7-4.2,12.8-2.7
		c12.4,3.7,9.3,15.8,6.4,23.3c-3,7.4-4.8,8-7.5,16.7c-1.4,4.4-2.4,10.9-0.8,15c1.4,3.5-9.3-1-11.2-2.2c-3.5-2-9.8-4-13.6-5.3
		c-7.5-2.6-20.8-5.1-20.6-18C1323.9,207.8,1330.3,202.9,1337.5,203z"/>
</g>
<path d="M827.7,272.1c-0.5,0.1-0.9-0.1-1.3-0.5c-0.4-0.4-0.5-0.8-0.5-1.3s0.2-0.9,0.5-1.2c0.4-0.3,0.8-0.5,1.3-0.6
	c1.5-0.1,3-0.2,4.4-0.2c1.5,0,2.9,0,4.4,0.1c0.4-0.1,0.9-0.1,1.3,0.1c2.8,0.2,5.6,0.6,8.4,1.1c0.5,0.1,0.8,0.4,1.1,0.9
	c0.2,0.5,0.3,0.9,0.1,1.3c-0.1,0.5-0.4,0.9-0.9,1.1c-0.4,0.2-0.8,0.2-1.3,0.2c-1.1-0.2-2.3-0.4-3.4-0.5c-1.1-0.1-2.2-0.3-3.4-0.4
	c-0.4,2.1-0.7,4.2-0.8,6.3c-0.1,2.1,0,4.2,0.2,6.4c0.2,2.2,0.5,4.4,0.9,6.6s0.8,4.3,1.2,6.5c0.1,0.5,0,1-0.2,1.4s-0.5,0.7-1,0.8
	c-0.4,0.1-0.9,0.1-1.4-0.1c-0.4-0.2-0.7-0.6-0.8-1.1c-0.5-2.4-0.9-4.8-1.4-7.2c-0.4-2.4-0.7-4.8-0.9-7.2c-0.2-2.1-0.2-4.2-0.1-6.3
	c0.1-2.1,0.3-4.2,0.7-6.2C832.6,271.8,830.1,271.9,827.7,272.1z M851.7,284.5c0-2.5,0-5.1-0.1-7.5c-0.1-2.5-0.4-5-1-7.5
	c-0.1-0.6-0.1-1,0.2-1.4s0.7-0.6,1.1-0.8c0.4-0.1,0.9-0.1,1.3,0.1c0.4,0.2,0.7,0.6,0.9,1.1c0.6,2.5,1,5.1,1,7.7
	c0.1,2.6,0.1,5.2,0,7.8c0.9,0.1,1.9,0.2,2.8,0.3c0.9,0.1,1.9,0.2,2.8,0.2c0.9,0,1.8,0,2.7,0c0.9-0.1,1.8-0.2,2.7-0.4
	c0.2-0.1,0.5-0.1,0.8,0c0.1-1.3,0.2-2.7,0.4-3.9c0.2-1.3,0.2-2.6,0.3-4s0-2.9-0.1-4.3s-0.3-2.8-0.4-4.3c-0.1-0.5,0.1-0.9,0.5-1.3
	s0.8-0.5,1.3-0.5s0.9,0.2,1.2,0.5c0.3,0.4,0.5,0.8,0.5,1.3c0.1,1.4,0.3,2.9,0.4,4.3c0.2,1.4,0.2,2.8,0.1,4.3
	c-0.1,1.4-0.2,2.8-0.4,4.2c-0.2,1.3-0.3,2.7-0.3,4.2c-0.1,2.3-0.3,4.7-0.3,7c-0.1,2.3,0,4.7,0.1,7c0,0.6-0.1,1-0.5,1.3
	s-0.8,0.4-1.2,0.4s-0.9-0.1-1.3-0.4c-0.4-0.3-0.6-0.7-0.6-1.3c-0.1-1.8-0.2-3.6-0.2-5.4s0.1-3.6,0.2-5.5c-1,0.2-1.9,0.4-2.9,0.4
	s-1.9,0-2.9,0c-1-0.1-1.9-0.1-2.9-0.2s-1.9-0.2-2.9-0.3c0,1.7,0.1,3.3,0.2,5c0.1,1.6,0.4,3.3,0.9,4.9c0.1,0.6,0.1,1-0.2,1.4
	s-0.6,0.6-1.1,0.7c-0.4,0.1-0.9,0.1-1.3-0.1c-0.4-0.2-0.7-0.6-0.8-1.1c-0.5-1.9-0.8-3.8-0.9-5.7c-0.1-1.9-0.2-3.9-0.2-5.9
	c-0.2-0.3-0.4-0.7-0.4-1.2C851.4,285.2,851.5,284.8,851.7,284.5z M882.6,299.2c0,0.6-0.2,1-0.6,1.3c-0.4,0.3-0.8,0.4-1.2,0.4
	s-0.9-0.1-1.2-0.4c-0.4-0.3-0.5-0.7-0.5-1.3c0-2.3,0.3-4.6,0.8-6.7c0.5-2.2,1.2-4.3,2-6.4c-0.2-0.4-0.3-0.8-0.2-1.3
	c0.2-0.6,0.6-1,1.2-1.2c0.6-1.4,1.2-2.9,1.8-4.3c0.7-1.4,1.3-2.9,1.9-4.3c0.6-1.4,1.2-2.9,1.7-4.4s0.9-3,1.3-4.5
	c0.1-0.4,0.3-0.8,0.5-1.2c0.3-0.3,0.7-0.5,1.2-0.5s0.9,0.2,1.3,0.5c0.4,0.3,0.6,0.7,0.5,1.3c-0.1,1.7-0.1,3.3,0.1,4.8
	c0.1,1.4,0.4,2.9,0.7,4.3s0.6,2.8,1,4.3c0.4,1.4,0.7,2.8,1.1,4.2c0.3,1.3,0.6,2.7,0.9,4c0.3,1.3,0.7,2.6,1.3,3.9
	c0.3,0.6,0.6,1.2,0.9,1.8c0.3,0.6,0.7,1.2,1.1,1.7c0.4,0.5,0.7,1.1,1,1.7s0.5,1.2,0.6,1.9c0.1,0.5,0,0.9-0.2,1.3s-0.5,0.7-1,0.9
	c-0.4,0.1-0.9,0.1-1.3-0.2c-0.5-0.2-0.8-0.6-0.9-1.1c-0.1-0.7-0.4-1.3-0.7-1.8s-0.7-1.1-1-1.7c-0.4-0.7-0.8-1.3-1.2-2
	c-0.3-0.7-0.6-1.4-0.9-2.1c-0.3-0.7-0.6-1.5-0.8-2.2c-0.2-0.8-0.4-1.6-0.6-2.3c-1.3-0.1-2.7-0.1-4-0.2s-2.6-0.2-3.9-0.3
	c-0.7,1.9-1.3,3.9-1.8,5.8C882.9,295.1,882.7,297.1,882.6,299.2z M886.9,283.3c-0.1,0.1-0.1,0.2-0.1,0.3c0,0.1,0,0.2-0.1,0.3
	c1,0.1,1.9,0.1,2.8,0.2c0.9,0,1.9,0,2.8,0.1c-0.3-1.4-0.7-2.9-1.1-4.3c-0.4-1.4-0.7-2.9-1-4.4c-0.5,1.3-1.1,2.6-1.7,3.9
	C888,280.7,887.4,282,886.9,283.3z M909,273.5c-0.1-0.1-0.1-0.1-0.2-0.2c0-0.1-0.1-0.1-0.1-0.2c-0.4-0.4-0.5-0.7-0.5-1.1
	s0.1-0.8,0.4-1.1c0.2-0.3,0.5-0.6,0.9-0.7c0.4-0.2,0.8-0.2,1.2,0c0.5-0.1,0.9,0.1,1.3,0.4c0.4,0.3,0.7,0.7,0.7,1.3
	c1.5,1.8,3,3.6,4.3,5.4s2.6,3.6,3.7,5.6c0.5,0.9,1,1.8,1.4,2.8c0.4,0.9,0.9,1.9,1.3,2.8c0-1.2,0-2.4,0.1-3.6s0.3-2.4,0.4-3.7
	c0.3-2.6,0.6-5.1,0.9-7.7c0.3-2.6,0.5-5.2,0.5-7.8c0-0.6,0.2-1,0.5-1.3c0.4-0.3,0.8-0.4,1.3-0.4c0.4,0,0.9,0.1,1.2,0.4
	c0.4,0.3,0.6,0.7,0.6,1.3c0,2.7-0.2,5.4-0.6,8c-0.3,2.6-0.7,5.2-1,7.9c-0.1,1.3-0.3,2.7-0.4,4c-0.1,1.3-0.1,2.6-0.1,3.9
	s0.1,2.6,0.1,3.8c0.1,1.3,0.1,2.5,0,3.8c0,0.4-0.2,0.8-0.4,1.1c-0.2,0.3-0.5,0.4-0.9,0.5s-0.7,0.1-1.1,0c-0.4-0.1-0.7-0.4-0.9-0.7
	c-0.7-1-1.3-2.1-1.7-3.3c-0.5-1.2-0.9-2.3-1.3-3.5c-0.4-1.1-0.9-2.2-1.3-3.2c-0.4-1-1-2.1-1.5-3.1c-0.7-1.3-1.6-2.6-2.4-3.9
	c-0.8-1.2-1.7-2.4-2.7-3.6c0,1.2,0,2.4,0,3.6s0,2.4,0.1,3.6c0.1,2.2,0.2,4.3,0.4,6.4s0.5,4.2,0.8,6.3c0.1,0.5-0.1,0.9-0.5,1.3
	c-0.4,0.3-0.8,0.5-1.2,0.5c-0.5,0-1-0.2-1.3-0.5c-0.3-0.4-0.5-0.8-0.5-1.3c-0.3-2.1-0.6-4.2-0.8-6.3c-0.2-2.1-0.4-4.3-0.4-6.4
	c-0.1-1.9-0.1-3.8-0.1-5.6C909,277.3,909,275.4,909,273.5z M937,284.5c-0.1-2.5-0.3-5-0.6-7.4c-0.3-2.5-0.6-5-0.9-7.4
	c-0.1-0.5,0-1,0.2-1.3c0.2-0.4,0.6-0.7,1.1-0.9c0.4-0.1,0.9-0.1,1.3,0.2c0.5,0.2,0.8,0.6,0.9,1.1c0.3,2.4,0.6,4.8,0.9,7.2
	s0.5,4.8,0.6,7.3c0.3-0.1,0.5-0.1,0.7-0.1c1.3-0.4,2.5-1,3.7-1.6s2.3-1.4,3.3-2.2c0.7-0.6,1.4-1.3,1.9-2c0.6-0.7,1.1-1.5,1.5-2.4
	s0.9-1.7,1.3-2.6c0.5-0.9,1-1.7,1.7-2.4c0.4-0.4,0.8-0.6,1.3-0.5c0.5,0,0.9,0.2,1.2,0.5s0.5,0.7,0.6,1.2s-0.1,0.9-0.4,1.3
	c-0.7,0.8-1.2,1.6-1.7,2.6c-0.4,0.9-0.9,1.8-1.4,2.7c-1,1.7-2.3,3.2-3.9,4.4c-0.8,0.6-1.6,1.2-2.5,1.7s-1.8,1-2.7,1.4
	c0.6,0.4,1.2,0.8,1.8,1.2c0.6,0.4,1.1,0.9,1.6,1.5c0.5,0.7,1,1.4,1.5,2.2c0.5,0.7,1,1.4,1.6,2.1c0.6,0.6,1.2,1.2,1.7,1.7
	c0.6,0.5,1.2,1.1,1.8,1.7c0.4,0.4,0.6,0.8,0.5,1.3c-0.1,0.4-0.3,0.8-0.6,1.2c-0.3,0.3-0.7,0.5-1.2,0.6s-0.9-0.1-1.3-0.5
	c-0.6-0.6-1.2-1.1-1.8-1.7s-1.2-1.2-1.7-1.7c-0.6-0.7-1.1-1.3-1.6-2s-1-1.4-1.5-2.1c-0.7-0.9-1.4-1.6-2.4-2.1
	c-0.9-0.5-1.9-1.1-2.8-1.7c-0.2,0.8-0.3,1.6-0.3,2.3c0,0.7,0,1.4,0,2.2c0,1.3-0.1,2.5-0.1,3.7s0.1,2.5,0.3,3.7
	c0.1,0.5,0,0.9-0.2,1.3s-0.5,0.7-1,0.9c-0.4,0.1-0.9,0.1-1.3-0.2c-0.5-0.2-0.8-0.6-0.9-1.1c-0.4-2.2-0.5-4.3-0.4-6.5
	s0.1-4.4,0.1-6.6c-0.3-0.6-0.3-1.2,0-1.7v-0.5L937,284.5L937,284.5z M983.6,301.2c-0.4,0-0.9-0.2-1.3-0.5c-0.4-0.4-0.6-0.8-0.5-1.3
	c0.5-4.8,0.7-9.6,0.7-14.4s0-9.6,0-14.4c-0.2-0.4-0.4-0.8-0.4-1.2c0-0.5,0.2-0.9,0.5-1.2c0.2-0.5,0.5-0.9,1.1-1
	c0.5-0.2,1-0.1,1.5,0.1c1.4-0.3,2.8-0.5,4.3-0.5c1.4-0.1,2.9-0.1,4.3,0c1.4,0,2.9,0.1,4.3,0.1c1.5,0,2.9,0,4.4-0.1
	c0.6,0,1,0.1,1.3,0.5c0.3,0.3,0.4,0.7,0.4,1.2c0,0.4-0.2,0.9-0.4,1.3c-0.3,0.4-0.7,0.6-1.3,0.6c-1.3,0.1-2.7,0.1-4.1,0
	c-1.4-0.1-2.8-0.1-4.1-0.1c-1.4-0.1-2.7-0.1-4.1,0c-1.3,0-2.7,0.2-4,0.4c0,2.1,0,4.1,0,6.1s0,4.1,0,6.1c0.9,0,1.9,0,2.8,0
	c1,0,1.9,0,2.8,0c1,0,1.9,0,2.8,0.1c1,0.1,1.9,0.2,2.8,0.4c0.6,0.2,0.9,0.4,1.1,0.9c0.2,0.4,0.2,0.9,0.1,1.3
	c-0.1,0.4-0.4,0.8-0.8,1.1c-0.4,0.3-0.8,0.4-1.4,0.2c-1.7-0.4-3.4-0.5-5.2-0.4c-1.7,0.1-3.5,0.1-5.2,0.1c-0.1,2.1-0.1,4.2-0.2,6.4
	c-0.1,2.1-0.2,4.2-0.4,6.4c-0.1,0.5-0.3,0.9-0.6,1.3C984.5,301,984.1,301.2,983.6,301.2z M1012.3,297.6c-0.7-0.5-1.3-1.1-1.9-1.7
	c-0.5-0.7-1-1.3-1.5-2.1c-0.4-0.6-0.8-1.3-1.2-2s-0.7-1.5-1-2.2s-0.5-1.5-0.7-2.3c-0.1-0.8-0.2-1.6-0.1-2.3c0.1-1.5,0.2-3,0.4-4.5
	s0.6-3,0.9-4.4c0.1-0.5,0.3-1.1,0.4-1.8c0.2-0.7,0.4-1.3,0.7-1.9s0.6-1.2,1-1.7s0.9-0.9,1.5-1.2c0.9-0.4,1.8-0.5,2.7-0.4
	s1.8,0.3,2.6,0.7c0.9,0.4,1.7,0.9,2.5,1.4s1.5,1.1,2.2,1.6c0.6,0.5,1.2,1,1.8,1.6c0.6,0.5,1.3,1.1,1.9,1.6c0.8,0.7,1.6,1.4,2.3,2.1
	c0.8,0.7,1.5,1.5,2,2.4c0.6,1,0.9,2,1,3.1c0.1,1,0,2-0.2,3.1c-0.2,1-0.6,2-1.1,2.9c-0.5,1-1.1,1.9-1.7,2.8c-0.5,0.8-1.2,1.6-1.9,2.5
	c-0.7,0.9-1.5,1.7-2.3,2.4c-0.8,0.7-1.7,1.3-2.7,1.7c-1,0.4-2,0.6-3.1,0.4c-0.6-0.1-1.1-0.3-1.4-0.7c-0.6-0.1-1.1-0.2-1.7-0.4
	C1013.3,298.2,1012.8,297.9,1012.3,297.6z M1009.4,284.7c-0.1,0.7,0,1.4,0.1,2.1c0.1,0.6,0.4,1.3,0.7,2.1c0.4,0.9,0.9,1.7,1.4,2.6
	s1.1,1.7,1.8,2.4c0.6,0.7,1.3,1.1,2.1,1.2c0.5,0.1,1,0.2,1.5,0.3c0.5,0.1,1,0.2,1.4,0.3c0.2-0.1,0.4-0.1,0.5-0.2
	c0.2-0.1,0.4-0.2,0.5-0.4c0.5-0.3,1-0.7,1.4-1.1s0.8-0.8,1.2-1.2c0.7-0.8,1.5-1.7,2.2-2.7c0.7-1,1.3-2,1.7-3.1c0.4-1,0.6-2,0.5-3
	c-0.1-0.9-0.5-1.8-1.3-2.7c-0.7-0.8-1.5-1.5-2.4-2.2c-0.8-0.7-1.7-1.4-2.5-2.1c-0.7-0.6-1.4-1.2-2-1.7c-0.7-0.5-1.4-1-2.2-1.5
	c-0.7-0.5-1.4-0.8-2.1-1.1c-0.1,0-0.2,0-0.3,0s-0.1-0.1-0.2-0.1h-0.7c-0.2,0.1-0.4,0.1-0.4,0.2c-0.2,0.2-0.3,0.4-0.4,0.4
	c-0.2,0.4-0.3,0.6-0.4,0.8c-0.1,0.1-0.2,0.4-0.3,0.7c-0.3,0.9-0.6,1.8-0.8,2.6c-0.2,0.9-0.4,1.7-0.5,2.6s-0.3,1.7-0.4,2.4
	C1009.5,283,1009.5,283.8,1009.4,284.7z M1054.7,298.7c-0.2,0.4-0.6,0.7-1.1,0.9c-0.5,0.1-0.9,0.1-1.4-0.2c-0.8-0.6-1.6-1.2-2.3-1.8
	c-0.7-0.7-1.6-1.2-2.4-1.7s-1.6-0.9-2.3-1.3c-0.8-0.4-1.5-0.9-2.2-1.4c-0.9-0.7-1.7-1.4-2.4-2.2c0,1.5,0,3,0,4.5
	c0.1,1.5,0.2,2.9,0.3,4.4c0.1,0.5-0.1,0.9-0.5,1.3s-0.8,0.5-1.3,0.5s-1-0.2-1.3-0.5s-0.5-0.7-0.5-1.3c-0.2-2.2-0.3-4.3-0.3-6.3
	c0-2.1,0-4.2,0.1-6.3c-0.2-0.3-0.5-0.7-0.7-1c-0.2-0.4-0.5-0.7-0.7-1.1s-0.3-0.7-0.2-1c0.1-0.3,0.2-0.6,0.4-0.9
	c0.2-0.2,0.4-0.4,0.7-0.6c0.3-0.1,0.6-0.2,0.9-0.2c0.1-0.7,0.1-1.4,0.2-2.1s0.2-1.4,0.3-2.1c0.1-0.5,0.2-0.9,0.2-1.4
	c0.1-0.5,0.2-1,0.2-1.4c0.1-0.2,0.1-0.5,0.1-0.7s0.1-0.4,0.1-0.7c0-0.1,0-0.3,0.1-0.4c0-0.4,0-0.8,0-1.1c0-0.4,0-0.8,0-1.2
	c0-0.5,0.1-1,0.1-1.5c0.1-0.6,0.2-1.1,0.4-1.6c0.2-0.5,0.4-1,0.7-1.5c0.3-0.4,0.7-0.8,1.2-1s1-0.3,1.4-0.4c0.5,0,1,0,1.5,0.1
	s1,0.2,1.5,0.4c0.5,0.1,0.9,0.3,1.4,0.5c1,0.4,2.1,0.8,3.1,1.3s2,1.1,2.8,1.9s1.5,1.7,2,2.8c0.6,1,0.8,2.1,0.8,3.3
	c-0.1,0.7-0.2,1.3-0.4,1.8c-0.2,0.5-0.5,1-0.9,1.6c-1,1.3-2,2.6-3.1,3.9c-1.1,1.2-2.3,2.3-3.5,3.4c-0.6,0.5-1.3,1-2,1.4
	c-0.7,0.5-1.4,0.9-2.2,1.2c0.3,0.2,0.5,0.5,0.8,0.7s0.6,0.4,0.9,0.6c0.8,0.5,1.6,1,2.3,1.4c0.8,0.4,1.6,0.9,2.3,1.4
	c0.7,0.5,1.4,1,2.1,1.6s1.4,1.1,2.1,1.6c0.4,0.3,0.7,0.6,0.8,1.1C1055,297.8,1054.9,298.2,1054.7,298.7z M1042.6,285.3
	c0.7-0.4,1.4-0.8,1.9-1.2c0.6-0.4,1.2-0.9,1.7-1.4c0.6-0.5,1.2-1.1,1.7-1.7c0.6-0.6,1.1-1.2,1.7-1.8c0.2-0.3,0.4-0.5,0.6-0.7
	s0.3-0.4,0.5-0.6s0.3-0.4,0.4-0.6c0.2-0.2,0.4-0.5,0.5-0.8c0.1-0.1,0.1-0.2,0.2-0.3c0.1-0.1,0.1-0.2,0.2-0.3c0-0.8-0.2-1.6-0.5-2.3
	c-0.5-0.9-1.1-1.6-1.9-2.1c-0.7-0.5-1.6-1-2.5-1.3c-0.5-0.2-1.1-0.4-1.6-0.6s-1.1-0.3-1.7-0.5c-0.1-0.1-0.4-0.1-0.7-0.2
	c-0.2,0.1-0.3,0.1-0.4,0.3c-0.1,0.4-0.2,0.7-0.2,0.8c0,0.1-0.1,0.3-0.1,0.5c0,0.3-0.1,0.5-0.1,0.7c0,0.1,0,0.3,0,0.5
	c-0.1,2.1-0.3,4.1-0.7,6.1c-0.3,2-0.6,4-0.8,6.1c-0.1,0.3-0.1,0.7-0.1,1s0,0.7,0,1c0.3,0,0.4,0,0.4,0c0.3-0.1,0.6-0.1,0.8-0.2
	C1042.1,285.6,1042.3,285.5,1042.6,285.3z M1077.2,269.7c-0.5-0.3-0.8-0.6-0.9-1.1s0-0.9,0.3-1.3c0.2-0.4,0.5-0.7,1-0.9
	c0.4-0.2,0.9-0.1,1.4,0.1c1.6,0.8,2.9,1.9,4,3.2c1,1.3,1.9,2.7,2.6,4.3c0.4,1,0.9,2.1,1.3,3.1c0.5,1,1,2,1.7,2.8c1.1-1,2.1-2,3-3.2
	s1.7-2.4,2.5-3.6c0.8-1.3,1.5-2.6,2.2-3.9s1.4-2.6,2.1-3.8c0.3-0.5,0.7-0.7,1.1-0.8c0.5-0.1,0.9,0,1.3,0.3c0.4,0.2,0.7,0.5,0.9,1
	c0.2,0.4,0.1,0.9-0.2,1.4c-0.8,1.3-1.6,2.7-2.3,4c-0.7,1.3-1.5,2.7-2.4,4c-0.8,1.3-1.7,2.6-2.6,3.8c-0.9,1.2-2,2.3-3.1,3.4
	c-0.1,2.7-0.2,5.4-0.3,8.1c0,2.7,0.1,5.4,0.3,8.1c0,0.5-0.2,0.9-0.5,1.2c-0.4,0.4-0.8,0.5-1.3,0.5s-0.9-0.2-1.3-0.5
	c-0.3-0.3-0.5-0.7-0.5-1.2c-0.2-2.5-0.3-4.9-0.3-7.3s0.1-4.9,0.2-7.3c-0.3-0.2-0.5-0.4-0.7-0.7c-1-1.1-1.8-2.3-2.4-3.5
	s-1.2-2.5-1.7-3.9c-0.6-1.3-1.3-2.6-2.1-3.6C1079.6,271.4,1078.6,270.4,1077.2,269.7z M1111,297.6c-0.7-0.5-1.3-1.1-1.9-1.7
	c-0.5-0.7-1-1.3-1.5-2.1c-0.4-0.6-0.8-1.3-1.2-2c-0.4-0.7-0.7-1.5-1-2.2s-0.5-1.5-0.7-2.3s-0.2-1.6-0.1-2.3c0.1-1.5,0.2-3,0.4-4.5
	c0.2-1.5,0.6-3,0.9-4.4c0.1-0.5,0.3-1.1,0.4-1.8c0.2-0.7,0.4-1.3,0.7-1.9c0.3-0.6,0.6-1.2,1-1.7s0.9-0.9,1.5-1.2
	c0.9-0.4,1.8-0.5,2.7-0.4c0.9,0.1,1.8,0.3,2.6,0.7c0.9,0.4,1.7,0.9,2.5,1.4s1.5,1.1,2.2,1.6c0.6,0.5,1.3,1,1.8,1.6
	c0.6,0.5,1.3,1.1,1.9,1.6c0.8,0.7,1.5,1.4,2.3,2.1s1.5,1.5,2,2.4c0.6,1,0.9,2,1,3.1c0.1,1,0,2-0.2,3.1c-0.2,1-0.6,2-1.1,2.9
	c-0.5,1-1.1,1.9-1.7,2.8c-0.5,0.8-1.2,1.6-1.9,2.5c-0.7,0.9-1.5,1.7-2.3,2.4c-0.8,0.7-1.7,1.3-2.7,1.7c-1,0.4-2,0.6-3.1,0.4
	c-0.6-0.1-1.1-0.3-1.4-0.7c-0.6-0.1-1.1-0.2-1.7-0.4C1112,298.2,1111.5,297.9,1111,297.6z M1108.1,284.7c-0.1,0.7,0,1.4,0.1,2.1
	c0.2,0.6,0.4,1.3,0.7,2.1c0.4,0.9,0.9,1.7,1.4,2.6s1.1,1.7,1.8,2.4c0.6,0.7,1.3,1.1,2.1,1.2c0.5,0.1,1,0.2,1.5,0.3
	c0.5,0.1,1,0.2,1.4,0.3c0.2-0.1,0.4-0.1,0.5-0.2c0.2-0.1,0.4-0.2,0.5-0.4c0.5-0.3,1-0.7,1.4-1.1s0.8-0.8,1.2-1.2
	c0.7-0.8,1.5-1.7,2.1-2.7c0.7-1,1.3-2,1.7-3.1c0.4-1,0.6-2,0.5-3c-0.1-0.9-0.5-1.8-1.3-2.7c-0.7-0.8-1.5-1.5-2.4-2.2
	c-0.8-0.7-1.7-1.4-2.5-2.1c-0.7-0.6-1.4-1.2-2-1.7c-0.7-0.5-1.4-1-2.2-1.5c-0.7-0.5-1.4-0.8-2.1-1.1c-0.1,0-0.2,0-0.3,0
	c-0.1,0-0.1-0.1-0.2-0.1h-0.7c-0.2,0.1-0.4,0.1-0.4,0.2c-0.2,0.2-0.3,0.4-0.4,0.4c-0.2,0.4-0.3,0.6-0.4,0.8
	c-0.1,0.1-0.2,0.4-0.3,0.7c-0.3,0.9-0.5,1.8-0.8,2.6c-0.2,0.9-0.4,1.7-0.5,2.6c-0.2,0.9-0.3,1.7-0.4,2.4
	C1108.3,283,1108.2,283.8,1108.1,284.7z M1135.8,287.6c-0.3-3-0.6-6-0.7-8.9c-0.1-3-0.3-5.9-0.7-8.9c-0.1-0.5,0.1-0.9,0.5-1.3
	s0.9-0.5,1.3-0.5c0.5,0,1,0.2,1.3,0.5s0.5,0.7,0.5,1.3c0.2,1.8,0.4,3.6,0.4,5.3c0.1,1.7,0.2,3.5,0.3,5.3c0.1,2.6,0.3,5.2,0.7,7.9
	c0,0.3,0.1,0.7,0.1,1.1c0.1,0.4,0.1,0.7,0.1,0.9c0.1,0.4,0.1,0.8,0.2,1.2c0.1,0.4,0.2,0.8,0.3,1.2c0.2,0.7,0.4,1.4,0.6,2.1
	c0.2,0.6,0.6,1.1,1,1.5l0.4,0.2c0.2,0.1,0.4,0.1,0.6,0.1s0.5-0.1,0.9-0.2s0.8-0.3,1.1-0.5c0.8-0.5,1.5-1.2,2.1-2s1.1-1.6,1.5-2.5
	c0.5-1,0.9-1.9,1.3-3c0.4-1,0.7-2,0.9-3.1c0.6-2.6,0.9-5.3,0.8-7.9c-0.1-2.7-0.3-5.3-0.6-7.9c-0.1-0.5,0.1-0.9,0.5-1.3
	s0.8-0.5,1.3-0.5s1,0.2,1.3,0.5c0.3,0.4,0.5,0.8,0.5,1.3c0.4,2.9,0.6,5.8,0.6,8.8c0,2.9-0.3,5.8-1.1,8.6c-0.3,1-0.6,2.1-0.9,3.1
	c-0.4,1.1-0.8,2.1-1.3,3.1s-1,1.9-1.7,2.9c-0.7,0.9-1.4,1.7-2.2,2.3c-0.8,0.7-1.8,1.2-2.8,1.6s-2.1,0.5-3.1,0.3
	c-0.8-0.1-1.5-0.5-2.2-1c-0.6-0.6-1.1-1.2-1.5-1.9c-0.8-1.5-1.3-3.1-1.5-4.7C1136.1,290.8,1135.9,289.2,1135.8,287.6z M1180.2,298.7
	c-0.2,0.4-0.6,0.7-1.1,0.9c-0.5,0.1-0.9,0.1-1.3-0.2c-0.8-0.6-1.6-1.2-2.3-1.8c-0.8-0.7-1.6-1.2-2.4-1.7s-1.6-0.9-2.3-1.3
	c-0.8-0.4-1.5-0.9-2.2-1.4c-0.9-0.7-1.7-1.4-2.4-2.2c0,1.5,0,3,0,4.5c0.1,1.5,0.2,2.9,0.3,4.4c0.1,0.5-0.1,0.9-0.5,1.3
	s-0.8,0.5-1.3,0.5s-1-0.2-1.3-0.5s-0.5-0.7-0.5-1.3c-0.2-2.2-0.3-4.3-0.3-6.3c0-2.1,0-4.2,0.1-6.3c-0.2-0.3-0.5-0.7-0.7-1
	c-0.2-0.4-0.5-0.7-0.7-1.1s-0.3-0.7-0.2-1c0.1-0.3,0.2-0.6,0.4-0.9c0.2-0.2,0.4-0.4,0.7-0.6c0.3-0.1,0.6-0.2,0.9-0.2
	c0.1-0.7,0.1-1.4,0.2-2.1s0.2-1.4,0.3-2.1c0.1-0.5,0.2-0.9,0.2-1.4c0.1-0.5,0.2-1,0.2-1.4c0.1-0.2,0.1-0.5,0.1-0.7s0.1-0.4,0.1-0.7
	c0-0.1,0-0.3,0.1-0.4c0-0.4,0-0.8,0-1.1c0-0.4,0-0.8,0.1-1.2c0-0.5,0.1-1,0.1-1.5c0.1-0.6,0.2-1.1,0.4-1.6c0.2-0.5,0.4-1,0.7-1.5
	c0.3-0.4,0.7-0.8,1.2-1s1-0.3,1.4-0.4c0.5,0,1,0,1.5,0.1s1,0.2,1.5,0.4c0.5,0.1,0.9,0.3,1.4,0.5c1,0.4,2.1,0.8,3.1,1.3
	s2,1.1,2.8,1.9s1.4,1.7,2,2.8c0.6,1,0.8,2.1,0.8,3.3c-0.1,0.7-0.2,1.3-0.5,1.8c-0.2,0.5-0.5,1-0.9,1.6c-1,1.3-2,2.6-3.1,3.9
	c-1.1,1.2-2.3,2.3-3.5,3.4c-0.6,0.5-1.3,1-2,1.4c-0.7,0.5-1.4,0.9-2.2,1.2c0.3,0.2,0.5,0.5,0.8,0.7s0.5,0.4,0.9,0.6
	c0.8,0.5,1.6,1,2.3,1.4c0.8,0.4,1.6,0.9,2.3,1.4c0.7,0.5,1.4,1,2.1,1.6s1.4,1.1,2.1,1.6c0.4,0.3,0.7,0.6,0.8,1.1
	C1180.5,297.8,1180.5,298.2,1180.2,298.7z M1168.1,285.3c0.7-0.4,1.4-0.8,1.9-1.2c0.6-0.4,1.2-0.9,1.7-1.4c0.6-0.5,1.2-1.1,1.7-1.7
	c0.6-0.6,1.1-1.2,1.7-1.8c0.2-0.3,0.4-0.5,0.6-0.7s0.3-0.4,0.5-0.6s0.3-0.4,0.4-0.6c0.2-0.2,0.4-0.5,0.5-0.8
	c0.1-0.1,0.1-0.2,0.2-0.3c0.1-0.1,0.1-0.2,0.2-0.3c0-0.8-0.1-1.6-0.5-2.3c-0.5-0.9-1.1-1.6-1.9-2.1s-1.6-1-2.5-1.3
	c-0.5-0.2-1.1-0.4-1.6-0.6s-1.1-0.3-1.7-0.5c-0.2-0.1-0.4-0.1-0.7-0.2c-0.2,0.1-0.3,0.1-0.4,0.3c-0.1,0.4-0.2,0.7-0.2,0.8
	c0,0.1-0.1,0.3-0.1,0.5c0,0.3-0.1,0.5-0.1,0.7c0,0.1,0,0.3,0,0.5c-0.1,2.1-0.3,4.1-0.7,6.1c-0.3,2-0.6,4-0.8,6.1
	c-0.1,0.3-0.1,0.7-0.1,1s0,0.7-0.1,1c0.3,0,0.4,0,0.4,0c0.3-0.1,0.6-0.1,0.8-0.2C1167.7,285.6,1167.9,285.5,1168.1,285.3z
	 M1211.8,297.6c-0.7-0.5-1.3-1.1-1.9-1.7c-0.5-0.7-1-1.3-1.5-2.1c-0.4-0.6-0.8-1.3-1.2-2c-0.4-0.7-0.7-1.5-1-2.2s-0.5-1.5-0.7-2.3
	s-0.2-1.6-0.1-2.3c0.1-1.5,0.2-3,0.4-4.5c0.2-1.5,0.6-3,0.9-4.4c0.1-0.5,0.3-1.1,0.4-1.8c0.2-0.7,0.4-1.3,0.7-1.9
	c0.3-0.6,0.7-1.2,1-1.7c0.4-0.5,0.9-0.9,1.5-1.2c0.9-0.4,1.8-0.5,2.7-0.4c0.9,0.1,1.8,0.3,2.6,0.7c0.9,0.4,1.7,0.9,2.5,1.4
	s1.5,1.1,2.2,1.6c0.6,0.5,1.3,1,1.9,1.6c0.6,0.5,1.3,1.1,1.9,1.6c0.8,0.7,1.6,1.4,2.3,2.1c0.8,0.7,1.5,1.5,2,2.4c0.6,1,0.9,2,1,3.1
	c0.1,1,0,2-0.2,3.1c-0.2,1-0.6,2-1.1,2.9c-0.5,1-1.1,1.9-1.7,2.8c-0.5,0.8-1.2,1.6-1.9,2.5c-0.7,0.9-1.5,1.7-2.3,2.4
	c-0.8,0.7-1.7,1.3-2.7,1.7c-1,0.4-2,0.6-3.1,0.4c-0.6-0.1-1.1-0.3-1.4-0.7c-0.6-0.1-1.1-0.2-1.7-0.4
	C1212.8,298.2,1212.3,297.9,1211.8,297.6z M1208.9,284.7c-0.1,0.7,0,1.4,0.1,2.1c0.1,0.6,0.4,1.3,0.7,2.1c0.4,0.9,0.9,1.7,1.4,2.6
	s1.1,1.7,1.8,2.4c0.6,0.7,1.3,1.1,2.1,1.2c0.5,0.1,1,0.2,1.5,0.3c0.5,0.1,1,0.2,1.4,0.3c0.2-0.1,0.4-0.1,0.5-0.2
	c0.2-0.1,0.4-0.2,0.5-0.4c0.5-0.3,1-0.7,1.4-1.1s0.8-0.8,1.2-1.2c0.7-0.8,1.5-1.7,2.2-2.7s1.3-2,1.7-3.1c0.4-1,0.6-2,0.5-3
	c-0.1-0.9-0.5-1.8-1.3-2.7c-0.7-0.8-1.5-1.5-2.4-2.2c-0.8-0.7-1.7-1.4-2.5-2.1c-0.7-0.6-1.4-1.2-2-1.7s-1.4-1-2.2-1.5
	c-0.7-0.5-1.4-0.8-2.1-1.1c-0.1,0-0.2,0-0.3,0c-0.1,0-0.1-0.1-0.2-0.1h-0.7c-0.2,0.1-0.4,0.1-0.4,0.2c-0.2,0.2-0.3,0.4-0.4,0.4
	c-0.2,0.4-0.3,0.6-0.4,0.8c-0.1,0.1-0.2,0.4-0.3,0.7c-0.3,0.9-0.6,1.8-0.8,2.6c-0.2,0.9-0.4,1.7-0.5,2.6c-0.2,0.9-0.3,1.7-0.4,2.4
	C1209.1,283,1209,283.8,1208.9,284.7z M1254.2,298.7c-0.2,0.4-0.6,0.7-1.1,0.9c-0.5,0.1-0.9,0.1-1.3-0.2c-0.8-0.6-1.6-1.2-2.3-1.8
	c-0.8-0.7-1.6-1.2-2.4-1.7s-1.6-0.9-2.3-1.3c-0.8-0.4-1.5-0.9-2.2-1.4c-0.9-0.7-1.7-1.4-2.4-2.2c0,1.5,0,3,0,4.5
	c0.1,1.5,0.2,2.9,0.3,4.4c0.1,0.5-0.1,0.9-0.5,1.3s-0.8,0.5-1.3,0.5s-1-0.2-1.3-0.5s-0.5-0.7-0.5-1.3c-0.2-2.2-0.3-4.3-0.3-6.3
	c0-2.1,0-4.2,0.1-6.3c-0.2-0.3-0.5-0.7-0.7-1c-0.2-0.4-0.5-0.7-0.7-1.1s-0.3-0.7-0.2-1c0.1-0.3,0.2-0.6,0.4-0.9
	c0.2-0.2,0.4-0.4,0.7-0.6c0.3-0.1,0.6-0.2,0.9-0.2c0.1-0.7,0.1-1.4,0.2-2.1s0.2-1.4,0.3-2.1c0.1-0.5,0.2-0.9,0.2-1.4
	c0.1-0.5,0.2-1,0.2-1.4c0.1-0.2,0.1-0.5,0.1-0.7s0.1-0.4,0.1-0.7c0-0.1,0-0.3,0.1-0.4c0-0.4,0-0.8,0-1.1c0-0.4,0-0.8,0.1-1.2
	c0-0.5,0.1-1,0.1-1.5c0.1-0.6,0.2-1.1,0.4-1.6c0.2-0.5,0.4-1,0.7-1.5c0.3-0.4,0.7-0.8,1.2-1s1-0.3,1.4-0.4c0.5,0,1,0,1.5,0.1
	s1,0.2,1.5,0.4c0.5,0.1,0.9,0.3,1.4,0.5c1,0.4,2.1,0.8,3.1,1.3s2,1.1,2.8,1.9s1.4,1.7,2,2.8c0.6,1,0.8,2.1,0.8,3.3
	c-0.1,0.7-0.2,1.3-0.5,1.8c-0.2,0.5-0.5,1-0.9,1.6c-1,1.3-2,2.6-3.1,3.9c-1.1,1.2-2.3,2.3-3.5,3.4c-0.6,0.5-1.3,1-2,1.4
	c-0.7,0.5-1.4,0.9-2.2,1.2c0.3,0.2,0.5,0.5,0.8,0.7s0.5,0.4,0.9,0.6c0.8,0.5,1.6,1,2.3,1.4c0.8,0.4,1.6,0.9,2.3,1.4
	c0.7,0.5,1.4,1,2.1,1.6s1.4,1.1,2.1,1.6c0.4,0.3,0.7,0.6,0.8,1.1C1254.5,297.8,1254.5,298.2,1254.2,298.7z M1242.1,285.3
	c0.7-0.4,1.4-0.8,1.9-1.2c0.6-0.4,1.2-0.9,1.7-1.4c0.6-0.5,1.2-1.1,1.7-1.7c0.6-0.6,1.1-1.2,1.7-1.8c0.2-0.3,0.4-0.5,0.6-0.7
	s0.3-0.4,0.5-0.6s0.3-0.4,0.4-0.6c0.2-0.2,0.4-0.5,0.5-0.8c0.1-0.1,0.1-0.2,0.2-0.3c0.1-0.1,0.1-0.2,0.2-0.3c0-0.8-0.1-1.6-0.5-2.3
	c-0.5-0.9-1.1-1.6-1.9-2.1s-1.6-1-2.5-1.3c-0.5-0.2-1.1-0.4-1.6-0.6s-1.1-0.3-1.7-0.5c-0.2-0.1-0.4-0.1-0.7-0.2
	c-0.2,0.1-0.3,0.1-0.4,0.3c-0.1,0.4-0.2,0.7-0.2,0.8c0,0.1-0.1,0.3-0.1,0.5c0,0.3-0.1,0.5-0.1,0.7c0,0.1,0,0.3,0,0.5
	c-0.1,2.1-0.3,4.1-0.7,6.1c-0.3,2-0.6,4-0.8,6.1c-0.1,0.3-0.1,0.7-0.1,1s0,0.7-0.1,1c0.3,0,0.4,0,0.4,0c0.3-0.1,0.6-0.1,0.8-0.2
	C1241.7,285.6,1241.9,285.5,1242.1,285.3z M1283.7,288.7c-0.1,1.8-0.7,3.5-1.6,4.9s-2.2,2.6-3.7,3.6c-1,0.6-2.1,1.2-3.3,1.7
	c-1.2,0.5-2.3,0.9-3.5,1.2c-1,0.2-2.1,0.3-3.1,0.3s-2-0.1-3-0.2c-0.2,0.3-0.5,0.4-0.9,0.5c-0.3,0.1-0.7,0.1-1,0
	c-0.7-0.2-1.1-0.6-1.3-1.3c-0.4-0.4-0.5-0.8-0.5-1.3c0-0.7,0.3-1.2,0.9-1.6c0.2-1.2,0.3-2.4,0.4-3.6s0.2-2.4,0.3-3.6
	c0.1-1.4,0.2-2.9,0.2-4.3c0.1-1.4,0.1-2.8,0-4.3c0-0.9,0-1.8-0.1-2.8s-0.1-1.9-0.1-2.8c0-1,0.1-1.9,0.1-2.8c0.1-0.9,0.3-1.8,0.7-2.7
	c-0.2-0.5-0.1-1,0.1-1.5s0.6-0.8,1.2-0.9c0.4-0.4,0.8-0.6,1.3-0.5c0.5,0,0.9,0.2,1.3,0.5c1.5,0.1,2.9,0.4,4.3,0.9
	c1.4,0.4,2.7,1.1,3.9,2.1c1.4,1.1,2.6,2.5,3.4,4.1c0.9,1.6,1.6,3.2,2.1,4.9c0.2,0.7,0.5,1.5,0.7,2.3c0.3,0.8,0.5,1.6,0.7,2.4
	s0.4,1.6,0.4,2.4S1283.8,287.9,1283.7,288.7z M1276.2,294.3c0.4-0.2,0.7-0.5,1-0.7s0.7-0.5,1-0.9c0.3-0.3,0.5-0.5,0.6-0.7
	s0.3-0.4,0.5-0.8c0.5-1,0.7-2.2,0.7-3.5c0-0.7-0.1-1.4-0.2-2.1s-0.3-1.4-0.5-2.2c-0.2-0.8-0.5-1.7-0.8-2.5c-0.2-0.8-0.5-1.6-0.9-2.4
	c-0.2-0.7-0.6-1.4-1-2.1c-0.4-0.8-0.8-1.4-1.2-1.9c-1-1.3-2.2-2.2-3.5-2.7c-1.3-0.6-2.7-0.9-4.3-1c-0.3,0.8-0.5,1.7-0.6,2.6
	s-0.1,1.8-0.1,2.7c0,0.9,0.1,1.9,0.1,2.8c0.1,0.9,0.1,1.8,0.1,2.7c-0.1,2.5-0.2,5.1-0.4,7.5c-0.1,2.5-0.3,5-0.6,7.5
	c0.5,0.1,1.1,0.1,1.6,0.1c0.6,0,1.1,0,1.7,0c1.1-0.1,2.3-0.4,3.4-0.9C1274.2,295.5,1275.3,294.9,1276.2,294.3z M1291.6,272.8
	c-0.6-0.2-1-0.6-1.1-1.2c-0.2-0.4-0.1-0.9,0.1-1.3c0.2-0.5,0.6-0.8,1.1-0.9c2.9-0.4,5.8-0.7,8.7-0.7c2.9-0.1,5.9-0.1,8.8-0.1
	c0.6,0,1,0.2,1.3,0.5c0.3,0.4,0.4,0.8,0.4,1.2c0,0.4-0.1,0.9-0.4,1.3s-0.7,0.5-1.3,0.5c-2.3,0.1-4.7,0.1-7,0.1s-4.7,0.1-7.1,0.4
	c0.1,1.2,0.1,2.4,0.2,3.6s0.2,2.3,0.3,3.5c2.3-0.1,4.5-0.3,6.8-0.4c2.3-0.2,4.5-0.2,6.8-0.1c0.6,0,1,0.2,1.3,0.6s0.4,0.8,0.4,1.3
	c0,0.4-0.2,0.9-0.4,1.2c-0.3,0.4-0.7,0.5-1.3,0.5c-2.2-0.1-4.5-0.1-6.7,0.1s-4.4,0.3-6.6,0.4c0.2,2.2,0.3,4.3,0.5,6.5
	c0.2,2.1,0.3,4.3,0.4,6.4c1-0.2,2.1-0.5,3.2-0.7s2.2-0.4,3.2-0.5c1.1-0.1,2.2-0.2,3.2-0.2c1.1,0,2.2,0.1,3.2,0.3
	c0.5,0.1,0.8,0.4,1.1,0.9c0.2,0.5,0.3,0.9,0.2,1.3c-0.2,0.5-0.4,0.9-0.9,1.1c-0.4,0.2-0.9,0.3-1.4,0.2c-1-0.2-1.9-0.2-2.9-0.2
	c-1,0.1-2,0.2-2.9,0.3c-1.1,0.2-2.2,0.4-3.3,0.6c-1.1,0.2-2.2,0.5-3.2,0.8c-0.5,0.1-1,0-1.4-0.3c-0.4-0.1-0.8-0.2-1.1-0.5
	c-0.3-0.3-0.5-0.7-0.5-1.2c-0.1-2.5-0.2-5.1-0.4-7.5c-0.1-2.5-0.3-5-0.5-7.5c-0.3-0.3-0.5-0.7-0.6-1.2c0-0.5,0.1-0.9,0.4-1.3
	C1291.9,277.9,1291.7,275.4,1291.6,272.8z M1336.9,298.7c-0.2,0.4-0.6,0.7-1.1,0.9c-0.5,0.1-0.9,0.1-1.3-0.2
	c-0.8-0.6-1.6-1.2-2.3-1.8c-0.8-0.7-1.6-1.2-2.4-1.7s-1.6-0.9-2.3-1.3c-0.8-0.4-1.5-0.9-2.2-1.4c-0.9-0.7-1.7-1.4-2.4-2.2
	c0,1.5,0,3,0,4.5c0.1,1.5,0.2,2.9,0.3,4.4c0.1,0.5-0.1,0.9-0.5,1.3s-0.8,0.5-1.3,0.5s-1-0.2-1.3-0.5s-0.5-0.7-0.5-1.3
	c-0.2-2.2-0.3-4.3-0.3-6.3c0-2.1,0-4.2,0.1-6.3c-0.2-0.3-0.5-0.7-0.7-1c-0.2-0.4-0.5-0.7-0.7-1.1s-0.3-0.7-0.2-1
	c0.1-0.3,0.2-0.6,0.4-0.9c0.2-0.2,0.4-0.4,0.7-0.6c0.3-0.1,0.6-0.2,0.9-0.2c0.1-0.7,0.1-1.4,0.2-2.1s0.2-1.4,0.3-2.1
	c0.1-0.5,0.2-0.9,0.2-1.4c0.1-0.5,0.2-1,0.2-1.4c0.1-0.2,0.1-0.5,0.1-0.7s0.1-0.4,0.1-0.7c0-0.1,0-0.3,0.1-0.4c0-0.4,0-0.8,0-1.1
	c0-0.4,0-0.8,0.1-1.2c0-0.5,0.1-1,0.1-1.5c0.1-0.6,0.2-1.1,0.4-1.6c0.2-0.5,0.4-1,0.7-1.5c0.3-0.4,0.7-0.8,1.2-1s1-0.3,1.4-0.4
	c0.5,0,1,0,1.5,0.1s1,0.2,1.5,0.4c0.5,0.1,0.9,0.3,1.4,0.5c1,0.4,2.1,0.8,3.1,1.3s2,1.1,2.8,1.9s1.4,1.7,2,2.8
	c0.6,1,0.8,2.1,0.8,3.3c-0.1,0.7-0.2,1.3-0.4,1.8c-0.2,0.5-0.5,1-0.9,1.6c-1,1.3-2,2.6-3.1,3.9c-1.1,1.2-2.3,2.3-3.5,3.4
	c-0.6,0.5-1.3,1-2,1.4c-0.7,0.5-1.4,0.9-2.2,1.2c0.3,0.2,0.5,0.5,0.8,0.7s0.5,0.4,0.9,0.6c0.8,0.5,1.6,1,2.3,1.4
	c0.8,0.4,1.6,0.9,2.3,1.4c0.7,0.5,1.4,1,2.1,1.6s1.4,1.1,2.1,1.6c0.4,0.3,0.7,0.6,0.8,1.1C1337.2,297.8,1337.2,298.2,1336.9,298.7z
	 M1324.8,285.3c0.7-0.4,1.4-0.8,1.9-1.2c0.6-0.4,1.2-0.9,1.7-1.4c0.6-0.5,1.2-1.1,1.7-1.7c0.6-0.6,1.1-1.2,1.7-1.8
	c0.2-0.3,0.4-0.5,0.6-0.7s0.3-0.4,0.5-0.6c0.1-0.2,0.3-0.4,0.4-0.6c0.2-0.2,0.4-0.5,0.5-0.8c0.1-0.1,0.1-0.2,0.2-0.3
	c0.1-0.1,0.1-0.2,0.2-0.3c0-0.8-0.1-1.6-0.5-2.3c-0.5-0.9-1.1-1.6-1.9-2.1s-1.6-1-2.5-1.3c-0.5-0.2-1.1-0.4-1.6-0.6
	s-1.1-0.3-1.7-0.5c-0.2-0.1-0.4-0.1-0.7-0.2c-0.2,0.1-0.3,0.1-0.4,0.3c-0.1,0.4-0.2,0.7-0.2,0.8c0,0.1-0.1,0.3-0.1,0.5
	c0,0.3-0.1,0.5-0.1,0.7c0,0.1,0,0.3,0,0.5c-0.1,2.1-0.3,4.1-0.7,6.1c-0.3,2-0.6,4-0.8,6.1c-0.1,0.3-0.1,0.7-0.1,1s0,0.7-0.1,1
	c0.3,0,0.4,0,0.4,0c0.3-0.1,0.6-0.1,0.8-0.2C1324.4,285.6,1324.6,285.5,1324.8,285.3z M1346.9,296.6c0.4,0.2,0.7,0.6,0.9,1.1
	c0.2,0.5,0.2,0.9,0.1,1.3s-0.4,0.8-0.8,1.1c-0.3,0.4-0.8,0.5-1.3,0.5s-0.9-0.2-1.3-0.5s-0.7-0.6-0.9-0.9c-0.2-0.4-0.3-0.8-0.2-1.3
	c0.1-0.4,0.3-0.8,0.7-1.1c0.1-0.1,0.2-0.1,0.2-0.2c0.1-0.1,0.2-0.2,0.3-0.2c0.3-0.1,0.4-0.2,0.4-0.2c0.1,0,0.2,0,0.5-0.1
	c0.1,0,0.2,0,0.3,0c0.1,0,0.2,0,0.3,0C1346.4,296.4,1346.7,296.5,1346.9,296.6z M1346.6,267.7c0-0.6,0.2-1,0.5-1.3
	c0.4-0.3,0.8-0.4,1.2-0.4c0.4,0,0.9,0.1,1.2,0.4c0.4,0.3,0.6,0.7,0.6,1.3c0,2,0,4,0,6c0.1,2,0.1,3.9,0,5.9c0,2-0.2,3.9-0.4,5.9
	c-0.2,2-0.5,3.9-1,5.9c-0.2,0.6-0.4,0.9-0.9,1.1c-0.4,0.2-0.9,0.2-1.3,0.1s-0.8-0.4-1.1-0.7c-0.3-0.4-0.4-0.9-0.2-1.4
	c0.4-1.9,0.8-3.7,0.9-5.6c0.2-1.9,0.3-3.8,0.3-5.7c0.1-1.9,0.1-3.8,0-5.7C1346.6,271.5,1346.6,269.6,1346.6,267.7z M1361,296.6
	c0.4,0.2,0.7,0.6,0.9,1.1c0.2,0.5,0.2,0.9,0.1,1.3s-0.4,0.8-0.9,1.1c-0.3,0.4-0.8,0.5-1.3,0.5s-0.9-0.2-1.3-0.5s-0.7-0.6-0.9-0.9
	c-0.2-0.4-0.3-0.8-0.2-1.3c0.1-0.4,0.3-0.8,0.7-1.1c0.1-0.1,0.2-0.1,0.2-0.2c0.1-0.1,0.2-0.2,0.3-0.2c0.3-0.1,0.4-0.2,0.4-0.2
	c0.1,0,0.2,0,0.5-0.1c0.1,0,0.2,0,0.3,0c0.1,0,0.2,0,0.3,0C1360.6,296.4,1360.8,296.5,1361,296.6z M1360.7,267.7
	c0-0.6,0.2-1,0.5-1.3c0.4-0.3,0.8-0.4,1.2-0.4c0.4,0,0.9,0.1,1.2,0.4c0.4,0.3,0.6,0.7,0.6,1.3c0,2,0,4,0,6c0.1,2,0.1,3.9,0,5.9
	c0,2-0.1,3.9-0.4,5.9c-0.2,2-0.5,3.9-1,5.9c-0.2,0.6-0.4,0.9-0.9,1.1c-0.4,0.2-0.9,0.2-1.3,0.1s-0.8-0.4-1.1-0.7
	c-0.3-0.4-0.4-0.9-0.2-1.4c0.4-1.9,0.8-3.7,0.9-5.6c0.2-1.9,0.3-3.8,0.3-5.7c0.1-1.9,0.1-3.8,0-5.7
	C1360.7,271.5,1360.7,269.6,1360.7,267.7z"/>
</svg>
